<?xml version="1.0" encoding="utf-8"?>
<!-- Generator: Adobe Illustrator 16.0.0, SVG Export Plug-In . SVG Version: 6.00 Build 0)  -->
<!DOCTYPE svg PUBLIC "-//W3C//DTD SVG 1.1//EN" "http://www.w3.org/Graphics/SVG/1.1/DTD/svg11.dtd">
<svg version="1.1" id="Capa_1" xmlns="http://www.w3.org/2000/svg" xmlns:xlink="http://www.w3.org/1999/xlink" x="0px" y="0px"
	 width="400px" height="276.549px" viewBox="0 57.5 400 276.549" enable-background="new 0 57.5 400 276.549" xml:space="preserve">
<g id="Capa_11">
</g>
<g id="Capa_2">
</g>
<g id="Capa_5">
</g>
<g id="Capa_4">
</g>
<g id="Capa_3">
</g>
<g id="Capa_1_1_">
</g>
<g id="Capa_6">
</g>
<g id="Capa_8" display="none">
	<g display="inline">
		<g>
			<line fill="none" stroke="#A0AEA6" stroke-miterlimit="10" stroke-dasharray="12,12" x1="70.5" y1="-2745" x2="70.5" y2="165"/>
			<line fill="none" stroke="#A0AEA6" stroke-miterlimit="10" x1="70.5" y1="171" x2="70.5" y2="177"/>
		</g>
	</g>
</g>
<g id="Capa_9">
</g>
<g id="Capa_10">
	<g>
		<path fill="#EECE4C" d="M371,291v-32H193.122l1.31-4.673c0.323-2.267-3.183-3.706-6.417-5.001
			c-3.235-1.293-1.156-12.455-1.156-12.455c0.161-3.396-10.858-5.705-10.858-5.705V154h-35v77.166c0,0-10.039,2.309-9.878,5.705
			c0,0,1.568,11.162-1.667,12.455c-3.234,1.295-6.494,2.734-6.171,5.001l1.553,4.673H28v32h97v1H28v42h343v-42H195v-1H371z M343,266
			h19v18h-19V266z M316,266h20v18h-20V266z M289,266h19v18h-19V266z M260,266h19v18h-19V266z M233,266h20v18h-20V266z M206,266h19
			v18h-19V266z M57,284H37v-18h20V284z M83,284H63v-18h20V284z M110,284H91v-18h19V284z M57,320H37v-12h20V320z M57,306H37v-7h20
			V306z M83,320H63v-12h20V320z M83,306H63v-7h20V306z M110,320H91v-12h19V320z M110,306H91v-7h19V306z M159.634,162.672
			c5.447,0,9.863,4.416,9.863,9.863c0,5.447-4.416,9.863-9.863,9.863c-5.447,0-9.863-4.416-9.863-9.863
			C149.771,167.088,154.188,162.672,159.634,162.672z M142,240h33v19h-33V240z M142.115,323l-0.276-42.408
			c0-5.543,7.807-14.546,17.602-14.546S176.909,275,176.909,280l0.258,43H142.115z M343,299h19v7h-19V299z M343,308h19v12h-19V308z
			 M316,299h20v7h-20V299z M316,308h20v12h-20V308z M289,299h19v7h-19V299z M289,308h19v12h-19V308z M260,299h19v7h-19V299z
			 M260,308h19v12h-19V308z M233,299h20v7h-20V299z M233,308h20v12h-20V308z M206,299h19v7h-19V299z M206,308h19v12h-19V308z"/>
		<g>
			<rect x="148" y="244" fill="#EECE4C" width="22" height="11"/>
			<path fill="#EECE4C" d="M158.403,126.562c-9.965,0-17.54,15.438-17.54,23.438h34.579
				C175.442,142,168.366,126.562,158.403,126.562z"/>
		</g>
		<g>
			<rect x="125" y="259" fill="#635621" width="1" height="67"/>
			<rect x="128" y="259" fill="#635621" width="1" height="67"/>
			<rect x="130" y="259" fill="#635621" width="1" height="67"/>
			<rect x="133" y="259" fill="#635621" width="1" height="67"/>
		</g>
		<rect x="95" y="325" fill="#635621" width="128" height="3"/>
		<rect x="73" y="330" fill="#635621" width="170" height="3"/>
		<rect x="136" y="151" fill="#635621" width="46" height="3"/>
		<ellipse fill="#A0AEA6" cx="158.403" cy="125.928" rx="3.062" ry="1.316"/>
		<ellipse fill="#A0AEA6" cx="158.403" cy="123.428" rx="2.487" ry="1.316"/>
		<g>
			<rect x="173" y="154" fill="#635621" width="2" height="105"/>
		</g>
		<g>
			<rect x="125" y="259" fill="#635621" width="68" height="2"/>
		</g>
		<g>
			<rect x="142" y="154" fill="#635621" width="2" height="105"/>
		</g>
		<polyline fill="#A0AEA6" points="157.835,125.48 158.543,91.996 159.732,125.48 		"/>
		<g>
			<rect x="184" y="259" fill="#635621" width="1" height="67"/>
			<rect x="187" y="259" fill="#635621" width="1" height="67"/>
			<rect x="189" y="259" fill="#635621" width="1" height="67"/>
			<rect x="192" y="259" fill="#635621" width="1" height="67"/>
		</g>
	</g>
</g>
<g id="Capa_7" display="none">
</g>
</svg>
