<?xml version="1.0" encoding="utf-8"?>
<!-- Generator: Adobe Illustrator 16.0.0, SVG Export Plug-In . SVG Version: 6.00 Build 0)  -->
<!DOCTYPE svg PUBLIC "-//W3C//DTD SVG 1.1//EN" "http://www.w3.org/Graphics/SVG/1.1/DTD/svg11.dtd">
<svg version="1.1" id="Capa_1" xmlns="http://www.w3.org/2000/svg" xmlns:xlink="http://www.w3.org/1999/xlink" x="0px" y="0px"
	 width="400px" height="276px" viewBox="0 57.25 400 276" enable-background="new 0 57.25 400 276" xml:space="preserve">
<g id="Capa_11">
</g>
<g id="Capa_2">
</g>
<g id="Capa_5">
</g>
<g id="Capa_4">
</g>
<g id="Capa_3">
</g>
<g id="Capa_1_1_">
</g>
<g id="Capa_6">
</g>
<g id="Capa_8" display="none">
</g>
<g id="Capa_9">
</g>
<g id="Capa_10">
	<g>
		<rect x="330" y="314" fill="#93908A" width="3" height="17"/>
		<path fill="#415B0E" d="M347.5,298.08c0-16.305-6.472-56.584-14.455-56.584c-7.982,0-14.455,40.279-14.455,56.584
			c0,16.307,6.473,17.223,14.455,17.223C341.028,315.303,347.5,314.387,347.5,298.08z"/>
		<rect x="352" y="314" fill="#93908A" width="3" height="17"/>
		<path fill="#415B0E" d="M369.5,276.098c0-37.119-6.472-128.817-14.455-128.817c-7.982,0-14.455,91.698-14.455,128.817
			s6.473,39.205,14.455,39.205C363.028,315.303,369.5,313.217,369.5,276.098z"/>
		<rect x="320" y="330" fill="#415B0E" width="24" height="4"/>
		<rect x="288" y="181" fill="#F3EEE2" width="3" height="150"/>
		<polygon fill="#8CCC1D" stroke="#161B41" stroke-miterlimit="10" points="291.409,100.5 288.909,100.5 285.742,168.5 
			294.475,168.5 		"/>
		<polygon fill="#8CCC1D" stroke="#161B41" stroke-miterlimit="10" points="361.589,202.744 362.426,200.389 298.938,174.477 
			296.014,182.705 		"/>
		<polygon fill="#8CCC1D" stroke="#161B41" stroke-miterlimit="10" points="217.57,202.744 216.734,200.389 280.225,174.477 
			283.146,182.705 		"/>
		<rect x="278" y="330" fill="#415B0E" width="24" height="4"/>
		<rect x="342" y="330" fill="#415B0E" width="24" height="4"/>
		<rect x="79" y="314" fill="#93908A" width="2" height="17"/>
		<path fill="#415B0E" d="M58.55,283.102c0-30.483,8.251-105.799,18.43-105.799s18.43,75.314,18.43,105.799
			c0,30.486-8.251,32.201-18.43,32.201S58.55,313.588,58.55,283.102z"/>
		<rect x="47" y="314" fill="#93908A" width="2" height="17"/>
		<path fill="#415B0E" d="M30.5,276.098c0-37.119,8.251-128.817,18.429-128.817c10.178,0,18.43,91.698,18.43,128.817
			s-8.251,39.205-18.43,39.205C38.75,315.303,30.5,313.217,30.5,276.098z"/>
		<rect x="67" y="330" fill="#415B0E" width="25" height="4"/>
		<rect x="35" y="330" fill="#415B0E" width="25" height="4"/>
		<circle fill="#8CCC1D" stroke="#161B41" stroke-miterlimit="10" cx="289.516" cy="176.801" r="4.08"/>
		<rect x="229" y="154" fill="#F3EEE2" width="2" height="176"/>
		<polygon fill="#8CCC1D" stroke="#161B41" stroke-miterlimit="10" points="210.279,75.762 207.875,76.443 223.54,143.203 
			231.939,140.818 		"/>
		<polygon fill="#8CCC1D" stroke="#161B41" stroke-miterlimit="10" points="305.91,155.617 306.071,153.121 237.918,145.537 
			237.355,154.252 		"/>
		<polygon fill="#8CCC1D" stroke="#161B41" stroke-miterlimit="10" points="167.37,194.957 165.921,192.92 219.917,150.648 
			224.977,157.768 		"/>
		<rect x="218" y="330" fill="#415B0E" width="25" height="4"/>
		<rect x="129" y="262" fill="#F3EEE2" width="2" height="68"/>
		<rect x="118" y="329" fill="#415B0E" width="24" height="4"/>
		<circle fill="#8CCC1D" stroke="#161B41" stroke-miterlimit="10" cx="230.016" cy="150.301" r="4.08"/>
		<rect x="105.5" y="281.5" fill="#415B0E" stroke="#F3EEE2" stroke-miterlimit="10" width="50" height="26"/>
		<rect x="105.5" y="248.5" fill="#415B0E" stroke="#F3EEE2" stroke-miterlimit="10" width="50" height="26"/>
		<rect x="184" y="262" fill="#F3EEE2" width="2" height="68"/>
		<rect x="173" y="329" fill="#415B0E" width="24" height="4"/>
		<rect x="160.5" y="281.5" fill="#415B0E" stroke="#F3EEE2" stroke-miterlimit="10" width="50" height="26"/>
		<rect x="160.5" y="248.5" fill="#415B0E" stroke="#F3EEE2" stroke-miterlimit="10" width="50" height="26"/>
		<g>
			<rect x="163" y="252" fill="#F3EEE2" width="10" height="3"/>
			<rect x="180" y="252" fill="#F3EEE2" width="9" height="3"/>
			<rect x="197" y="252" fill="#F3EEE2" width="9" height="3"/>
		</g>
		<g>
			<rect x="163" y="259" fill="#F3EEE2" width="10" height="3"/>
			<rect x="180" y="259" fill="#F3EEE2" width="9" height="3"/>
			<rect x="197" y="259" fill="#F3EEE2" width="9" height="3"/>
		</g>
		<g>
			<rect x="163" y="266" fill="#F3EEE2" width="10" height="3"/>
			<rect x="180" y="266" fill="#F3EEE2" width="9" height="3"/>
			<rect x="197" y="266" fill="#F3EEE2" width="9" height="3"/>
		</g>
		<g>
			<rect x="109" y="252" fill="#F3EEE2" width="10" height="3"/>
			<rect x="126" y="252" fill="#F3EEE2" width="9" height="3"/>
			<rect x="143" y="252" fill="#F3EEE2" width="9" height="3"/>
		</g>
		<g>
			<rect x="109" y="259" fill="#F3EEE2" width="10" height="3"/>
			<rect x="126" y="259" fill="#F3EEE2" width="9" height="3"/>
			<rect x="143" y="259" fill="#F3EEE2" width="9" height="3"/>
		</g>
		<g>
			<rect x="109" y="266" fill="#F3EEE2" width="10" height="3"/>
			<rect x="126" y="266" fill="#F3EEE2" width="9" height="3"/>
			<rect x="143" y="266" fill="#F3EEE2" width="9" height="3"/>
		</g>
		<g>
			<rect x="163" y="285" fill="#F3EEE2" width="10" height="4"/>
			<rect x="180" y="285" fill="#F3EEE2" width="9" height="4"/>
			<rect x="197" y="285" fill="#F3EEE2" width="9" height="4"/>
		</g>
		<g>
			<rect x="163" y="292" fill="#F3EEE2" width="10" height="4"/>
			<rect x="180" y="292" fill="#F3EEE2" width="9" height="4"/>
			<rect x="197" y="292" fill="#F3EEE2" width="9" height="4"/>
		</g>
		<g>
			<rect x="163" y="299" fill="#F3EEE2" width="10" height="4"/>
			<rect x="180" y="299" fill="#F3EEE2" width="9" height="4"/>
			<rect x="197" y="299" fill="#F3EEE2" width="9" height="4"/>
		</g>
		<g>
			<rect x="109" y="285" fill="#F3EEE2" width="10" height="4"/>
			<rect x="126" y="285" fill="#F3EEE2" width="9" height="4"/>
			<rect x="143" y="285" fill="#F3EEE2" width="9" height="4"/>
		</g>
		<g>
			<rect x="109" y="292" fill="#F3EEE2" width="10" height="4"/>
			<rect x="126" y="292" fill="#F3EEE2" width="9" height="4"/>
			<rect x="143" y="292" fill="#F3EEE2" width="9" height="4"/>
		</g>
		<g>
			<rect x="109" y="299" fill="#F3EEE2" width="10" height="4"/>
			<rect x="126" y="299" fill="#F3EEE2" width="9" height="4"/>
			<rect x="143" y="299" fill="#F3EEE2" width="9" height="4"/>
		</g>
	</g>
</g>
<g id="Capa_7" display="none">
</g>
</svg>
