<?xml version="1.0" encoding="utf-8"?>
<!-- Generator: Adobe Illustrator 16.0.0, SVG Export Plug-In . SVG Version: 6.00 Build 0)  -->
<!DOCTYPE svg PUBLIC "-//W3C//DTD SVG 1.1//EN" "http://www.w3.org/Graphics/SVG/1.1/DTD/svg11.dtd">
<svg version="1.1" id="Capa_1" xmlns="http://www.w3.org/2000/svg" xmlns:xlink="http://www.w3.org/1999/xlink" x="0px" y="0px"
	 width="400px" height="276.861px" viewBox="0 56.5 400 276.861" enable-background="new 0 56.5 400 276.861" xml:space="preserve">
<g id="Capa_11">
</g>
<g id="Capa_2">
</g>
<g id="Capa_5">
</g>
<g id="Capa_4">
</g>
<g id="Capa_3">
</g>
<g id="Capa_1_1_">
</g>
<g id="Capa_6">
	<g>
		<rect x="199" y="178" fill="#2F7BEA" width="34" height="6"/>
		<rect x="199" y="191" fill="#2F7BEA" width="34" height="7"/>
		<rect x="199" y="184" fill="#FFFFFF" width="34" height="7"/>
		<g>
			<path fill="#2F7BEA" d="M27,220v14h127v99h44.744h0.976H243v-99h127v-14H27z M169,292h30v6h-30V292z M169,331v-32h30v32H169z
				 M230,331h-30v-32h30V331z M230,298h-30v-6h30V298z M230,272h-61v-21h61V272z M230,250h-61v-5h61V250z"/>
			<rect x="195" y="309" fill="#2F7BEA" width="1" height="9"/>
			<rect x="202" y="309" fill="#2F7BEA" width="1" height="9"/>
		</g>
		<ellipse fill="#173D6B" cx="199.381" cy="274.532" rx="7.292" ry="10.495"/>
		<g>
			<rect x="198" y="178" fill="#173D6B" width="1" height="43"/>
		</g>
		<path fill="#173D6B" d="M38,238v42h111v-42H38z M68,272H51v-19h17V272z M68,252H51v-6h17V252z M92,272H75v-19h17V272z M92,252H75
			v-6h17V252z M115,272H98v-19h17V272z M115,252H98v-6h17V252z M139,272h-17v-19h17V272z M139,252h-17v-6h17V252z"/>
		<path fill="#173D6B" d="M38,285v48h111v-48H38z M68,318H51v-19h17V318z M68,298H51v-5h17V298z M92,318H75v-19h17V318z M92,298H75
			v-5h17V298z M115,318H98v-19h17V318z M115,298H98v-5h17V298z M139,318h-17v-19h17V318z M139,298h-17v-5h17V298z"/>
		<path fill="#173D6B" d="M248,238v42h111v-42H248z M278,272h-17v-19h17V272z M278,252h-17v-6h17V252z M302,272h-17v-19h17V272z
			 M302,252h-17v-6h17V252z M325,272h-17v-19h17V272z M325,252h-17v-6h17V252z M349,272h-17v-19h17V272z M349,252h-17v-6h17V252z"/>
		<path fill="#173D6B" d="M248,285v48h111v-48H248z M278,318h-17v-19h17V318z M278,298h-17v-5h17V298z M302,318h-17v-19h17V318z
			 M302,298h-17v-5h17V298z M325,318h-17v-19h17V318z M325,298h-17v-5h17V298z M349,318h-17v-19h17V318z M349,298h-17v-5h17V298z"/>
	</g>
</g>
<g id="Capa_8" display="none">
	<g display="inline">
		<g>
			
				<line fill="none" stroke="#A0AEA6" stroke-miterlimit="10" stroke-dasharray="12,12" x1="329.5" y1="-2745" x2="329.5" y2="165"/>
			<line fill="none" stroke="#A0AEA6" stroke-miterlimit="10" x1="329.5" y1="171" x2="329.5" y2="177"/>
		</g>
	</g>
</g>
<g id="Capa_9">
</g>
<g id="Capa_10">
</g>
<g id="Capa_7" display="none">
</g>
</svg>
