<?xml version="1.0" encoding="utf-8"?>
<!-- Generator: Adobe Illustrator 16.0.0, SVG Export Plug-In . SVG Version: 6.00 Build 0)  -->
<!DOCTYPE svg PUBLIC "-//W3C//DTD SVG 1.1//EN" "http://www.w3.org/Graphics/SVG/1.1/DTD/svg11.dtd">
<svg version="1.1" id="Capa_1" xmlns="http://www.w3.org/2000/svg" xmlns:xlink="http://www.w3.org/1999/xlink" x="0px" y="0px"
	 width="724.817px" height="549.5px" viewBox="176.182 261.5 724.817 549.5" enable-background="new 176.182 261.5 724.817 549.5"
	 xml:space="preserve">
<g id="Capa_2">
</g>
<g id="Capa_5">
</g>
<g id="Capa_4">
</g>
<g id="Capa_3">
</g>
<g id="Capa_1_1_">
</g>
<g id="Capa_6">
	<g>
		<rect x="240" y="758" fill="#93908A" width="5" height="46"/>
		<path fill="#93908A" stroke="#161B41" stroke-width="3" stroke-miterlimit="10" d="M274,719c0-39.765-12.943-138-28.909-138
			c-15.966,0-28.909,98.235-28.909,138s12.943,42,28.909,42C261.057,761,274,758.765,274,719z"/>
		<rect x="864" y="758" fill="#93908A" width="5" height="46"/>
		<path fill="#93908A" stroke="#161B41" stroke-width="3" stroke-miterlimit="10" d="M900.999,690.638
			c0-66.616-14.286-231.188-31.908-231.188s-31.909,164.571-31.909,231.188c0,66.618,14.287,70.362,31.909,70.362
			S900.999,757.256,900.999,690.638z"/>
		<rect x="219" y="803" fill="#0D5938" width="49" height="8"/>
		<rect x="200" y="758" fill="#93908A" width="5" height="46"/>
		<path fill="#93908A" stroke="#161B41" stroke-width="3" stroke-miterlimit="10" d="M234,691.658
			c0-65.652-12.943-227.84-28.909-227.84c-15.966,0-28.909,162.188-28.909,227.84c0,65.65,12.943,69.342,28.909,69.342
			C221.057,761,234,757.31,234,691.658z"/>
		<rect x="179" y="803" fill="#0D5938" width="49" height="8"/>
		<rect x="843" y="803" fill="#0D5938" width="49" height="8"/>
		<rect x="306" y="298" fill="#0D5938" width="229" height="385"/>
		<line fill="none" stroke="#F3EEE2" stroke-width="4" stroke-miterlimit="10" x1="535" y1="489" x2="306" y2="489"/>
		<line fill="none" stroke="#F3EEE2" stroke-width="4" stroke-miterlimit="10" x1="535" y1="596" x2="306" y2="596"/>
		<rect x="306" y="710" fill="#0D5938" width="229" height="86"/>
		<g>
			<rect x="329" y="729" fill="#161B41" stroke="#F3EEE2" stroke-width="2" stroke-miterlimit="10" width="69" height="65"/>
			<line fill="none" stroke="#F3EEE2" stroke-width="2" stroke-miterlimit="10" x1="329" y1="744" x2="398" y2="744"/>
		</g>
		<g>
			<g>
				<line fill="none" stroke="#F3EEE2" stroke-width="2" stroke-miterlimit="10" x1="363" y1="795" x2="363" y2="730"/>
			</g>
			<g>
				<line fill="none" stroke="#F3EEE2" stroke-width="2" stroke-miterlimit="10" x1="359" y1="777" x2="359" y2="755"/>
			</g>
			<g>
				<line fill="none" stroke="#F3EEE2" stroke-width="2" stroke-miterlimit="10" x1="367" y1="777" x2="367" y2="755"/>
			</g>
		</g>
		<line fill="none" stroke="#F3EEE2" stroke-width="4" stroke-miterlimit="10" x1="535" y1="390" x2="306" y2="390"/>
		<line fill="none" stroke="#A0AEA6" stroke-width="2" stroke-miterlimit="10" x1="536" y1="266" x2="304" y2="266"/>
		<line fill="none" stroke="#A0AEA6" stroke-width="2" stroke-miterlimit="10" x1="536" y1="291" x2="304" y2="291"/>
		<line fill="none" stroke="#A0AEA6" stroke-width="2" stroke-miterlimit="10" x1="306" y1="292" x2="306" y2="267"/>
		<line fill="none" stroke="#A0AEA6" stroke-width="2" stroke-miterlimit="10" x1="316" y1="292" x2="316" y2="267"/>
		<line fill="none" stroke="#A0AEA6" stroke-width="2" stroke-miterlimit="10" x1="326" y1="292" x2="326" y2="267"/>
		<line fill="none" stroke="#A0AEA6" stroke-width="2" stroke-miterlimit="10" x1="336" y1="292" x2="336" y2="267"/>
		<line fill="none" stroke="#A0AEA6" stroke-width="2" stroke-miterlimit="10" x1="346" y1="292" x2="346" y2="267"/>
		<line fill="none" stroke="#A0AEA6" stroke-width="2" stroke-miterlimit="10" x1="356" y1="292" x2="356" y2="267"/>
		<line fill="none" stroke="#A0AEA6" stroke-width="2" stroke-miterlimit="10" x1="366" y1="292" x2="366" y2="267"/>
		<line fill="none" stroke="#A0AEA6" stroke-width="2" stroke-miterlimit="10" x1="376" y1="292" x2="376" y2="267"/>
		<line fill="none" stroke="#A0AEA6" stroke-width="2" stroke-miterlimit="10" x1="386" y1="292" x2="386" y2="267"/>
		<line fill="none" stroke="#A0AEA6" stroke-width="2" stroke-miterlimit="10" x1="406" y1="292" x2="406" y2="267"/>
		<line fill="none" stroke="#A0AEA6" stroke-width="2" stroke-miterlimit="10" x1="425" y1="292" x2="425" y2="267"/>
		<line fill="none" stroke="#A0AEA6" stroke-width="2" stroke-miterlimit="10" x1="455" y1="292" x2="455" y2="267"/>
		<line fill="none" stroke="#A0AEA6" stroke-width="2" stroke-miterlimit="10" x1="445" y1="292" x2="445" y2="267"/>
		<line fill="none" stroke="#A0AEA6" stroke-width="2" stroke-miterlimit="10" x1="475" y1="292" x2="475" y2="267"/>
		<line fill="none" stroke="#A0AEA6" stroke-width="2" stroke-miterlimit="10" x1="495" y1="292" x2="495" y2="267"/>
		<line fill="none" stroke="#A0AEA6" stroke-width="2" stroke-miterlimit="10" x1="515" y1="292" x2="515" y2="267"/>
		<line fill="none" stroke="#A0AEA6" stroke-width="2" stroke-miterlimit="10" x1="396" y1="292" x2="396" y2="267"/>
		<line fill="none" stroke="#A0AEA6" stroke-width="2" stroke-miterlimit="10" x1="416" y1="292" x2="416" y2="267"/>
		<line fill="none" stroke="#A0AEA6" stroke-width="2" stroke-miterlimit="10" x1="435" y1="292" x2="435" y2="267"/>
		<line fill="none" stroke="#A0AEA6" stroke-width="2" stroke-miterlimit="10" x1="465" y1="292" x2="465" y2="267"/>
		<line fill="none" stroke="#A0AEA6" stroke-width="2" stroke-miterlimit="10" x1="485" y1="292" x2="485" y2="267"/>
		<line fill="none" stroke="#A0AEA6" stroke-width="2" stroke-miterlimit="10" x1="505" y1="292" x2="505" y2="267"/>
		<line fill="none" stroke="#A0AEA6" stroke-width="2" stroke-miterlimit="10" x1="525" y1="292" x2="525" y2="267"/>
		<line fill="none" stroke="#A0AEA6" stroke-width="2" stroke-miterlimit="10" x1="535" y1="292" x2="535" y2="267"/>
		
			<rect x="306.016" y="689.992" transform="matrix(-1 -0.0018 0.0018 -1 841.7791 1391.7424)" fill="#F3EEE2" width="230.999" height="11"/>
		
			<rect x="484.825" y="311.952" transform="matrix(1 -0.0012 0.0012 1 -0.4036 0.5972)" fill="#161B41" stroke="#F3EEE2" stroke-width="2" stroke-miterlimit="10" width="29" height="52"/>
		
			<line fill="none" stroke="#F3EEE2" stroke-width="2" stroke-miterlimit="10" x1="513.793" y1="323.957" x2="484.793" y2="323.993"/>
		
			<rect x="444.794" y="312.046" transform="matrix(1 -0.0013 0.0013 1 -0.4359 0.5923)" fill="#161B41" stroke="#F3EEE2" stroke-width="2" stroke-miterlimit="10" width="28" height="52"/>
		
			<line fill="none" stroke="#F3EEE2" stroke-width="2" stroke-miterlimit="10" x1="472.793" y1="324.008" x2="444.793" y2="324.043"/>
		<rect x="331" y="312" fill="#161B41" stroke="#F3EEE2" stroke-width="2" stroke-miterlimit="10" width="80" height="52"/>
		<rect x="326" y="347" fill="#161B41" stroke="#F3EEE2" stroke-width="2" stroke-miterlimit="10" width="90" height="22"/>
		<g>
			<g>
				<rect id="SVGID_1_" x="327" y="348" fill="#93908A" width="89" height="21"/>
			</g>
			<g>
				<defs>
					<rect id="SVGID_13_" x="327" y="348" width="89" height="21"/>
				</defs>
				<clipPath id="SVGID_14_">
					<use xlink:href="#SVGID_13_"  overflow="visible"/>
				</clipPath>
				<g clip-path="url(#SVGID_14_)">
					
						<line fill="none" stroke="#F3EEE2" stroke-width="2" stroke-miterlimit="10" x1="418.797" y1="370.5" x2="427.408" y2="346.42"/>
					
						<line fill="none" stroke="#F3EEE2" stroke-width="2" stroke-miterlimit="10" x1="413.457" y1="370.5" x2="422.069" y2="346.42"/>
					
						<line fill="none" stroke="#F3EEE2" stroke-width="2" stroke-miterlimit="10" x1="402.777" y1="370.5" x2="411.391" y2="346.42"/>
					<line fill="none" stroke="#F3EEE2" stroke-width="2" stroke-miterlimit="10" x1="392.1" y1="370.5" x2="400.711" y2="346.42"/>
					
						<line fill="none" stroke="#F3EEE2" stroke-width="2" stroke-miterlimit="10" x1="381.42" y1="370.5" x2="390.031" y2="346.42"/>
					
						<line fill="none" stroke="#F3EEE2" stroke-width="2" stroke-miterlimit="10" x1="370.741" y1="370.5" x2="379.353" y2="346.42"/>
					
						<line fill="none" stroke="#F3EEE2" stroke-width="2" stroke-miterlimit="10" x1="360.063" y1="370.5" x2="368.674" y2="346.42"/>
					
						<line fill="none" stroke="#F3EEE2" stroke-width="2" stroke-miterlimit="10" x1="349.383" y1="370.5" x2="357.994" y2="346.42"/>
					
						<line fill="none" stroke="#F3EEE2" stroke-width="2" stroke-miterlimit="10" x1="338.703" y1="370.5" x2="347.316" y2="346.42"/>
					
						<line fill="none" stroke="#F3EEE2" stroke-width="2" stroke-miterlimit="10" x1="328.024" y1="370.5" x2="336.637" y2="346.42"/>
					
						<line fill="none" stroke="#F3EEE2" stroke-width="2" stroke-miterlimit="10" x1="317.346" y1="370.5" x2="325.957" y2="346.42"/>
				</g>
			</g>
			<g>
				
					<rect id="SVGID_2_" x="327" y="348" fill="none" stroke="#F3EEE2" stroke-width="2" stroke-miterlimit="10" width="89" height="21"/>
			</g>
		</g>
		
			<rect x="328.021" y="410.959" transform="matrix(-1 -0.0012 0.0012 -1 684.5258 874.3224)" fill="#161B41" stroke="#F3EEE2" stroke-width="2" stroke-miterlimit="10" width="29" height="52"/>
		
			<line fill="none" stroke="#F3EEE2" stroke-width="2" stroke-miterlimit="10" x1="328.018" y1="422.957" x2="357.018" y2="422.993"/>
		
			<rect x="368.981" y="411.042" transform="matrix(-1 -0.0013 0.0013 -1 765.3976 874.5789)" fill="#161B41" stroke="#F3EEE2" stroke-width="2" stroke-miterlimit="10" width="28" height="52"/>
		
			<line fill="none" stroke="#F3EEE2" stroke-width="2" stroke-miterlimit="10" x1="369.018" y1="423.008" x2="397.018" y2="423.043"/>
		<rect x="431" y="411" fill="#161B41" stroke="#F3EEE2" stroke-width="2" stroke-miterlimit="10" width="80" height="52"/>
		<g>
			<g>
				<rect id="SVGID_3_" x="426" y="447" fill="#93908A" width="89" height="21"/>
			</g>
			<g>
				<defs>
					<rect id="SVGID_15_" x="426" y="447" width="89" height="21"/>
				</defs>
				<clipPath id="SVGID_16_">
					<use xlink:href="#SVGID_15_"  overflow="visible"/>
				</clipPath>
				<g clip-path="url(#SVGID_16_)">
					
						<line fill="none" stroke="#F3EEE2" stroke-width="2" stroke-miterlimit="10" x1="423.014" y1="469.5" x2="414.402" y2="445.42"/>
					
						<line fill="none" stroke="#F3EEE2" stroke-width="2" stroke-miterlimit="10" x1="428.354" y1="469.5" x2="419.741" y2="445.42"/>
					
						<line fill="none" stroke="#F3EEE2" stroke-width="2" stroke-miterlimit="10" x1="439.033" y1="469.5" x2="430.42" y2="445.42"/>
					<line fill="none" stroke="#F3EEE2" stroke-width="2" stroke-miterlimit="10" x1="449.711" y1="469.5" x2="441.1" y2="445.42"/>
					
						<line fill="none" stroke="#F3EEE2" stroke-width="2" stroke-miterlimit="10" x1="460.391" y1="469.5" x2="451.779" y2="445.42"/>
					
						<line fill="none" stroke="#F3EEE2" stroke-width="2" stroke-miterlimit="10" x1="471.069" y1="469.5" x2="462.458" y2="445.42"/>
					
						<line fill="none" stroke="#F3EEE2" stroke-width="2" stroke-miterlimit="10" x1="481.748" y1="469.5" x2="473.137" y2="445.42"/>
					
						<line fill="none" stroke="#F3EEE2" stroke-width="2" stroke-miterlimit="10" x1="492.428" y1="469.5" x2="483.816" y2="445.42"/>
					
						<line fill="none" stroke="#F3EEE2" stroke-width="2" stroke-miterlimit="10" x1="503.107" y1="469.5" x2="494.494" y2="445.42"/>
					
						<line fill="none" stroke="#F3EEE2" stroke-width="2" stroke-miterlimit="10" x1="513.786" y1="469.5" x2="505.174" y2="445.42"/>
					
						<line fill="none" stroke="#F3EEE2" stroke-width="2" stroke-miterlimit="10" x1="524.465" y1="469.5" x2="515.854" y2="445.42"/>
				</g>
			</g>
			<g>
				
					<rect id="SVGID_4_" x="426" y="447" fill="none" stroke="#F3EEE2" stroke-width="2" stroke-miterlimit="10" width="89" height="21"/>
			</g>
		</g>
		
			<rect x="484.834" y="509.952" transform="matrix(1 -0.0012 0.0012 1 -0.6313 0.5889)" fill="#161B41" stroke="#F3EEE2" stroke-width="2" stroke-miterlimit="10" width="29" height="52"/>
		
			<line fill="none" stroke="#F3EEE2" stroke-width="2" stroke-miterlimit="10" x1="513.793" y1="521.957" x2="484.793" y2="521.993"/>
		
			<rect x="444.786" y="510.045" transform="matrix(1 -0.0013 0.0013 1 -0.6913 0.5925)" fill="#161B41" stroke="#F3EEE2" stroke-width="2" stroke-miterlimit="10" width="28" height="52"/>
		
			<line fill="none" stroke="#F3EEE2" stroke-width="2" stroke-miterlimit="10" x1="472.793" y1="522.008" x2="444.793" y2="522.043"/>
		
			<rect x="484.845" y="729.952" transform="matrix(1 -0.0012 0.0012 1 -0.8906 0.5891)" fill="#161B41" stroke="#F3EEE2" stroke-width="2" stroke-miterlimit="10" width="29" height="52"/>
		
			<line fill="none" stroke="#F3EEE2" stroke-width="2" stroke-miterlimit="10" x1="513.793" y1="741.957" x2="484.793" y2="741.993"/>
		
			<rect x="444.776" y="730.045" transform="matrix(1 -0.0013 0.0013 1 -0.9753 0.5927)" fill="#161B41" stroke="#F3EEE2" stroke-width="2" stroke-miterlimit="10" width="28" height="52"/>
		
			<line fill="none" stroke="#F3EEE2" stroke-width="2" stroke-miterlimit="10" x1="472.793" y1="742.008" x2="444.793" y2="742.043"/>
		<rect x="331" y="510" fill="#161B41" stroke="#F3EEE2" stroke-width="2" stroke-miterlimit="10" width="80" height="52"/>
		<g>
			<g>
				<rect id="SVGID_5_" x="327" y="546" fill="#93908A" width="89" height="21"/>
			</g>
			<g>
				<defs>
					<rect id="SVGID_17_" x="327" y="546" width="89" height="21"/>
				</defs>
				<clipPath id="SVGID_18_">
					<use xlink:href="#SVGID_17_"  overflow="visible"/>
				</clipPath>
				<g clip-path="url(#SVGID_18_)">
					
						<line fill="none" stroke="#F3EEE2" stroke-width="2" stroke-miterlimit="10" x1="418.797" y1="568.5" x2="427.408" y2="544.42"/>
					
						<line fill="none" stroke="#F3EEE2" stroke-width="2" stroke-miterlimit="10" x1="413.457" y1="568.5" x2="422.069" y2="544.42"/>
					
						<line fill="none" stroke="#F3EEE2" stroke-width="2" stroke-miterlimit="10" x1="402.777" y1="568.5" x2="411.391" y2="544.42"/>
					<line fill="none" stroke="#F3EEE2" stroke-width="2" stroke-miterlimit="10" x1="392.1" y1="568.5" x2="400.711" y2="544.42"/>
					
						<line fill="none" stroke="#F3EEE2" stroke-width="2" stroke-miterlimit="10" x1="381.42" y1="568.5" x2="390.031" y2="544.42"/>
					
						<line fill="none" stroke="#F3EEE2" stroke-width="2" stroke-miterlimit="10" x1="370.741" y1="568.5" x2="379.353" y2="544.42"/>
					
						<line fill="none" stroke="#F3EEE2" stroke-width="2" stroke-miterlimit="10" x1="360.063" y1="568.5" x2="368.674" y2="544.42"/>
					
						<line fill="none" stroke="#F3EEE2" stroke-width="2" stroke-miterlimit="10" x1="349.383" y1="568.5" x2="357.994" y2="544.42"/>
					
						<line fill="none" stroke="#F3EEE2" stroke-width="2" stroke-miterlimit="10" x1="338.703" y1="568.5" x2="347.316" y2="544.42"/>
					
						<line fill="none" stroke="#F3EEE2" stroke-width="2" stroke-miterlimit="10" x1="328.024" y1="568.5" x2="336.637" y2="544.42"/>
					
						<line fill="none" stroke="#F3EEE2" stroke-width="2" stroke-miterlimit="10" x1="317.346" y1="568.5" x2="325.957" y2="544.42"/>
				</g>
			</g>
			<g>
				
					<rect id="SVGID_6_" x="327" y="546" fill="none" stroke="#F3EEE2" stroke-width="2" stroke-miterlimit="10" width="89" height="21"/>
			</g>
		</g>
		
			<rect x="328.029" y="608.96" transform="matrix(-1 -0.0012 0.0012 -1 684.2886 1270.3347)" fill="#161B41" stroke="#F3EEE2" stroke-width="2" stroke-miterlimit="10" width="29" height="52"/>
		
			<line fill="none" stroke="#F3EEE2" stroke-width="2" stroke-miterlimit="10" x1="328.018" y1="620.957" x2="357.018" y2="620.993"/>
		
			<rect x="368.972" y="609.042" transform="matrix(-1 -0.0013 0.0013 -1 765.1245 1270.5786)" fill="#161B41" stroke="#F3EEE2" stroke-width="2" stroke-miterlimit="10" width="28" height="52"/>
		
			<line fill="none" stroke="#F3EEE2" stroke-width="2" stroke-miterlimit="10" x1="369.018" y1="621.008" x2="397.018" y2="621.043"/>
		<rect x="431" y="609" fill="#161B41" stroke="#F3EEE2" stroke-width="2" stroke-miterlimit="10" width="80" height="52"/>
		<g>
			<g>
				<rect id="SVGID_7_" x="426" y="645" fill="#93908A" width="89" height="21"/>
			</g>
			<g>
				<defs>
					<rect id="SVGID_19_" x="426" y="645" width="89" height="21"/>
				</defs>
				<clipPath id="SVGID_20_">
					<use xlink:href="#SVGID_19_"  overflow="visible"/>
				</clipPath>
				<g clip-path="url(#SVGID_20_)">
					
						<line fill="none" stroke="#F3EEE2" stroke-width="2" stroke-miterlimit="10" x1="423.014" y1="667.5" x2="414.402" y2="643.42"/>
					
						<line fill="none" stroke="#F3EEE2" stroke-width="2" stroke-miterlimit="10" x1="428.354" y1="667.5" x2="419.741" y2="643.42"/>
					
						<line fill="none" stroke="#F3EEE2" stroke-width="2" stroke-miterlimit="10" x1="439.033" y1="667.5" x2="430.42" y2="643.42"/>
					<line fill="none" stroke="#F3EEE2" stroke-width="2" stroke-miterlimit="10" x1="449.711" y1="667.5" x2="441.1" y2="643.42"/>
					
						<line fill="none" stroke="#F3EEE2" stroke-width="2" stroke-miterlimit="10" x1="460.391" y1="667.5" x2="451.779" y2="643.42"/>
					
						<line fill="none" stroke="#F3EEE2" stroke-width="2" stroke-miterlimit="10" x1="471.069" y1="667.5" x2="462.458" y2="643.42"/>
					
						<line fill="none" stroke="#F3EEE2" stroke-width="2" stroke-miterlimit="10" x1="481.748" y1="667.5" x2="473.137" y2="643.42"/>
					
						<line fill="none" stroke="#F3EEE2" stroke-width="2" stroke-miterlimit="10" x1="492.428" y1="667.5" x2="483.816" y2="643.42"/>
					
						<line fill="none" stroke="#F3EEE2" stroke-width="2" stroke-miterlimit="10" x1="503.107" y1="667.5" x2="494.494" y2="643.42"/>
					
						<line fill="none" stroke="#F3EEE2" stroke-width="2" stroke-miterlimit="10" x1="513.786" y1="667.5" x2="505.174" y2="643.42"/>
					
						<line fill="none" stroke="#F3EEE2" stroke-width="2" stroke-miterlimit="10" x1="524.465" y1="667.5" x2="515.854" y2="643.42"/>
				</g>
			</g>
			<g>
				
					<rect id="SVGID_8_" x="426" y="645" fill="none" stroke="#F3EEE2" stroke-width="2" stroke-miterlimit="10" width="89" height="21"/>
			</g>
		</g>
		<rect x="572" y="476" fill="#93908A" width="229" height="207"/>
		<line fill="none" stroke="#054354" stroke-width="4" stroke-miterlimit="10" x1="802" y1="595" x2="573" y2="595"/>
		<rect x="573" y="710" fill="#93908A" width="229" height="86"/>
		<g>
			<rect x="596" y="729" fill="#161B41" stroke="#F3EEE2" stroke-width="2" stroke-miterlimit="10" width="69" height="65"/>
			<line fill="none" stroke="#F3EEE2" stroke-width="2" stroke-miterlimit="10" x1="596" y1="744" x2="665" y2="744"/>
		</g>
		<g>
			<g>
				<line fill="none" stroke="#F3EEE2" stroke-width="2" stroke-miterlimit="10" x1="630" y1="795" x2="630" y2="730"/>
			</g>
			<g>
				<line fill="none" stroke="#F3EEE2" stroke-width="2" stroke-miterlimit="10" x1="626" y1="777" x2="626" y2="755"/>
			</g>
			<g>
				<line fill="none" stroke="#F3EEE2" stroke-width="2" stroke-miterlimit="10" x1="634" y1="777" x2="634" y2="755"/>
			</g>
		</g>
		<line fill="none" stroke="#A0AEA6" stroke-width="2" stroke-miterlimit="10" x1="571" y1="444" x2="803" y2="444"/>
		<line fill="none" stroke="#A0AEA6" stroke-width="2" stroke-miterlimit="10" x1="571" y1="469" x2="803" y2="469"/>
		<line fill="none" stroke="#A0AEA6" stroke-width="2" stroke-miterlimit="10" x1="801" y1="470" x2="801" y2="445"/>
		<line fill="none" stroke="#A0AEA6" stroke-width="2" stroke-miterlimit="10" x1="791" y1="470" x2="791" y2="445"/>
		<line fill="none" stroke="#A0AEA6" stroke-width="2" stroke-miterlimit="10" x1="781" y1="470" x2="781" y2="445"/>
		<line fill="none" stroke="#A0AEA6" stroke-width="2" stroke-miterlimit="10" x1="771" y1="470" x2="771" y2="445"/>
		<line fill="none" stroke="#A0AEA6" stroke-width="2" stroke-miterlimit="10" x1="761" y1="470" x2="761" y2="445"/>
		<line fill="none" stroke="#A0AEA6" stroke-width="2" stroke-miterlimit="10" x1="751" y1="470" x2="751" y2="445"/>
		<line fill="none" stroke="#A0AEA6" stroke-width="2" stroke-miterlimit="10" x1="741" y1="470" x2="741" y2="445"/>
		<line fill="none" stroke="#A0AEA6" stroke-width="2" stroke-miterlimit="10" x1="731" y1="470" x2="731" y2="445"/>
		<line fill="none" stroke="#A0AEA6" stroke-width="2" stroke-miterlimit="10" x1="721" y1="470" x2="721" y2="445"/>
		<line fill="none" stroke="#A0AEA6" stroke-width="2" stroke-miterlimit="10" x1="701" y1="470" x2="701" y2="445"/>
		<line fill="none" stroke="#A0AEA6" stroke-width="2" stroke-miterlimit="10" x1="682" y1="470" x2="682" y2="445"/>
		<line fill="none" stroke="#A0AEA6" stroke-width="2" stroke-miterlimit="10" x1="652" y1="470" x2="652" y2="445"/>
		<line fill="none" stroke="#A0AEA6" stroke-width="2" stroke-miterlimit="10" x1="662" y1="470" x2="662" y2="445"/>
		<line fill="none" stroke="#A0AEA6" stroke-width="2" stroke-miterlimit="10" x1="632" y1="470" x2="632" y2="445"/>
		<line fill="none" stroke="#A0AEA6" stroke-width="2" stroke-miterlimit="10" x1="612" y1="470" x2="612" y2="445"/>
		<line fill="none" stroke="#A0AEA6" stroke-width="2" stroke-miterlimit="10" x1="592" y1="470" x2="592" y2="445"/>
		<line fill="none" stroke="#A0AEA6" stroke-width="2" stroke-miterlimit="10" x1="711" y1="470" x2="711" y2="445"/>
		<line fill="none" stroke="#A0AEA6" stroke-width="2" stroke-miterlimit="10" x1="691" y1="470" x2="691" y2="445"/>
		<line fill="none" stroke="#A0AEA6" stroke-width="2" stroke-miterlimit="10" x1="672" y1="470" x2="672" y2="445"/>
		<line fill="none" stroke="#A0AEA6" stroke-width="2" stroke-miterlimit="10" x1="642" y1="470" x2="642" y2="445"/>
		<line fill="none" stroke="#A0AEA6" stroke-width="2" stroke-miterlimit="10" x1="622" y1="470" x2="622" y2="445"/>
		<line fill="none" stroke="#A0AEA6" stroke-width="2" stroke-miterlimit="10" x1="602" y1="470" x2="602" y2="445"/>
		<line fill="none" stroke="#A0AEA6" stroke-width="2" stroke-miterlimit="10" x1="582" y1="470" x2="582" y2="445"/>
		<line fill="none" stroke="#A0AEA6" stroke-width="2" stroke-miterlimit="10" x1="572" y1="470" x2="572" y2="445"/>
		<rect x="571" y="690" fill="#F3EEE2" width="232" height="11"/>
		<rect x="591" y="435" fill="none" stroke="#A0AEA6" stroke-width="2" stroke-miterlimit="10" width="3" height="32"/>
		<path fill="#93908A" stroke="#161B41" stroke-width="3" stroke-miterlimit="10" d="M577,419.35
			c0-17.613,7.392-61.123,16.51-61.123c9.117,0,16.508,43.509,16.508,61.123c0,17.612-7.391,18.604-16.508,18.604
			C584.392,437.952,577,436.962,577,419.35z"/>
		<rect x="614" y="435" fill="none" stroke="#A0AEA6" stroke-width="2" stroke-miterlimit="10" width="3" height="32"/>
		<path fill="#93908A" stroke="#161B41" stroke-width="3" stroke-miterlimit="10" d="M600,423.458
			c0-13.724,7.392-47.624,16.51-47.624c9.117,0,16.508,33.9,16.508,47.624c0,13.723-7.391,14.494-16.508,14.494
			C607.392,437.952,600,437.181,600,423.458z"/>
		
			<rect x="751.834" y="509.939" transform="matrix(1 -0.0012 0.0012 1 -0.6492 0.9294)" fill="#161B41" stroke="#F3EEE2" stroke-width="2" stroke-miterlimit="10" width="29" height="52"/>
		
			<line fill="none" stroke="#F3EEE2" stroke-width="2" stroke-miterlimit="10" x1="780.793" y1="521.957" x2="751.793" y2="521.993"/>
		
			<rect x="711.786" y="510.057" transform="matrix(1 -0.0013 0.0013 1 -0.7098 0.9624)" fill="#161B41" stroke="#F3EEE2" stroke-width="2" stroke-miterlimit="10" width="28" height="52.001"/>
		
			<line fill="none" stroke="#F3EEE2" stroke-width="2" stroke-miterlimit="10" x1="739.793" y1="522.008" x2="711.793" y2="522.043"/>
		
			<rect x="751.844" y="729.939" transform="matrix(1 -0.0012 0.0012 1 -0.9159 0.9296)" fill="#161B41" stroke="#F3EEE2" stroke-width="2" stroke-miterlimit="10" width="29" height="52"/>
		
			<line fill="none" stroke="#F3EEE2" stroke-width="2" stroke-miterlimit="10" x1="780.793" y1="741.957" x2="751.793" y2="741.993"/>
		
			<rect x="711.776" y="730.057" transform="matrix(1 -0.0013 0.0013 1 -0.975 0.9372)" fill="#161B41" stroke="#F3EEE2" stroke-width="2" stroke-miterlimit="10" width="28" height="52"/>
		
			<line fill="none" stroke="#F3EEE2" stroke-width="2" stroke-miterlimit="10" x1="739.793" y1="742.008" x2="711.793" y2="742.043"/>
		<rect x="598" y="510" fill="#161B41" stroke="#F3EEE2" stroke-width="2" stroke-miterlimit="10" width="80" height="52"/>
		<rect x="593" y="545" fill="#161B41" stroke="#F3EEE2" stroke-width="2" stroke-miterlimit="10" width="90" height="22"/>
		<g>
			<g>
				<rect id="SVGID_9_" x="594" y="546" fill="#0D5938" width="89" height="21"/>
			</g>
			<g>
				<defs>
					<rect id="SVGID_21_" x="594" y="546" width="89" height="21"/>
				</defs>
				<clipPath id="SVGID_22_">
					<use xlink:href="#SVGID_21_"  overflow="visible"/>
				</clipPath>
				<g clip-path="url(#SVGID_22_)">
					
						<line fill="none" stroke="#F3EEE2" stroke-width="2" stroke-miterlimit="10" x1="685.797" y1="568.5" x2="694.408" y2="544.42"/>
					
						<line fill="none" stroke="#F3EEE2" stroke-width="2" stroke-miterlimit="10" x1="680.457" y1="568.5" x2="689.068" y2="544.42"/>
					
						<line fill="none" stroke="#F3EEE2" stroke-width="2" stroke-miterlimit="10" x1="669.777" y1="568.5" x2="678.391" y2="544.42"/>
					<line fill="none" stroke="#F3EEE2" stroke-width="2" stroke-miterlimit="10" x1="659.1" y1="568.5" x2="667.711" y2="544.42"/>
					
						<line fill="none" stroke="#F3EEE2" stroke-width="2" stroke-miterlimit="10" x1="648.42" y1="568.5" x2="657.031" y2="544.42"/>
					
						<line fill="none" stroke="#F3EEE2" stroke-width="2" stroke-miterlimit="10" x1="637.741" y1="568.5" x2="646.352" y2="544.42"/>
					
						<line fill="none" stroke="#F3EEE2" stroke-width="2" stroke-miterlimit="10" x1="627.063" y1="568.5" x2="635.674" y2="544.42"/>
					
						<line fill="none" stroke="#F3EEE2" stroke-width="2" stroke-miterlimit="10" x1="616.383" y1="568.5" x2="624.994" y2="544.42"/>
					
						<line fill="none" stroke="#F3EEE2" stroke-width="2" stroke-miterlimit="10" x1="605.703" y1="568.5" x2="614.316" y2="544.42"/>
					
						<line fill="none" stroke="#F3EEE2" stroke-width="2" stroke-miterlimit="10" x1="595.024" y1="568.5" x2="603.637" y2="544.42"/>
					
						<line fill="none" stroke="#F3EEE2" stroke-width="2" stroke-miterlimit="10" x1="584.346" y1="568.5" x2="592.957" y2="544.42"/>
				</g>
			</g>
			<g>
				
					<rect id="SVGID_10_" x="594" y="546" fill="none" stroke="#F3EEE2" stroke-width="2" stroke-miterlimit="10" width="89" height="21"/>
			</g>
		</g>
		
			<rect x="595.029" y="608.947" transform="matrix(-1 -0.0012 0.0012 -1 1218.2885 1270.6331)" fill="#161B41" stroke="#F3EEE2" stroke-width="2" stroke-miterlimit="10" width="29" height="52"/>
		
			<line fill="none" stroke="#F3EEE2" stroke-width="2" stroke-miterlimit="10" x1="595.018" y1="620.957" x2="624.018" y2="620.993"/>
		
			<rect x="635.972" y="609.054" transform="matrix(-1 -0.0013 0.0013 -1 1299.1243 1270.9465)" fill="#161B41" stroke="#F3EEE2" stroke-width="2" stroke-miterlimit="10" width="28" height="52"/>
		
			<line fill="none" stroke="#F3EEE2" stroke-width="2" stroke-miterlimit="10" x1="636.018" y1="621.008" x2="664.018" y2="621.043"/>
		<rect x="698" y="609" fill="#161B41" stroke="#F3EEE2" stroke-width="2" stroke-miterlimit="10" width="80" height="52"/>
		<rect x="693" y="644" fill="#161B41" stroke="#F3EEE2" stroke-width="2" stroke-miterlimit="10" width="90" height="22"/>
		<g>
			<g>
				<rect id="SVGID_11_" x="693" y="645" fill="#0D5938" width="89" height="21"/>
			</g>
			<g>
				<defs>
					<rect id="SVGID_23_" x="693" y="645" width="89" height="21"/>
				</defs>
				<clipPath id="SVGID_24_">
					<use xlink:href="#SVGID_23_"  overflow="visible"/>
				</clipPath>
				<g clip-path="url(#SVGID_24_)">
					
						<line fill="none" stroke="#F3EEE2" stroke-width="2" stroke-miterlimit="10" x1="690.014" y1="667.5" x2="681.402" y2="643.42"/>
					
						<line fill="none" stroke="#F3EEE2" stroke-width="2" stroke-miterlimit="10" x1="695.354" y1="667.5" x2="686.741" y2="643.42"/>
					
						<line fill="none" stroke="#F3EEE2" stroke-width="2" stroke-miterlimit="10" x1="706.033" y1="667.5" x2="697.42" y2="643.42"/>
					<line fill="none" stroke="#F3EEE2" stroke-width="2" stroke-miterlimit="10" x1="716.711" y1="667.5" x2="708.1" y2="643.42"/>
					
						<line fill="none" stroke="#F3EEE2" stroke-width="2" stroke-miterlimit="10" x1="727.391" y1="667.5" x2="718.779" y2="643.42"/>
					
						<line fill="none" stroke="#F3EEE2" stroke-width="2" stroke-miterlimit="10" x1="738.068" y1="667.5" x2="729.458" y2="643.42"/>
					
						<line fill="none" stroke="#F3EEE2" stroke-width="2" stroke-miterlimit="10" x1="748.748" y1="667.5" x2="740.137" y2="643.42"/>
					
						<line fill="none" stroke="#F3EEE2" stroke-width="2" stroke-miterlimit="10" x1="759.428" y1="667.5" x2="750.816" y2="643.42"/>
					
						<line fill="none" stroke="#F3EEE2" stroke-width="2" stroke-miterlimit="10" x1="770.107" y1="667.5" x2="761.494" y2="643.42"/>
					
						<line fill="none" stroke="#F3EEE2" stroke-width="2" stroke-miterlimit="10" x1="780.786" y1="667.5" x2="772.174" y2="643.42"/>
					
						<line fill="none" stroke="#F3EEE2" stroke-width="2" stroke-miterlimit="10" x1="791.465" y1="667.5" x2="782.854" y2="643.42"/>
				</g>
			</g>
			<g>
				
					<rect id="SVGID_12_" x="693" y="645" fill="none" stroke="#F3EEE2" stroke-width="2" stroke-miterlimit="10" width="89" height="21"/>
			</g>
		</g>
	</g>
</g>
<g id="Capa_8" display="none">
</g>
<g id="Capa_9">
</g>
<g id="Capa_10">
</g>
<g id="Capa_7" display="none">
</g>
</svg>
