<?xml version="1.0" encoding="utf-8"?>
<!-- Generator: Adobe Illustrator 16.0.0, SVG Export Plug-In . SVG Version: 6.00 Build 0)  -->
<!DOCTYPE svg PUBLIC "-//W3C//DTD SVG 1.1//EN" "http://www.w3.org/Graphics/SVG/1.1/DTD/svg11.dtd">
<svg version="1.1" id="Capa_1" xmlns="http://www.w3.org/2000/svg" xmlns:xlink="http://www.w3.org/1999/xlink" x="0px" y="0px"
	 width="584px" height="470.401px" viewBox="157 340.599 584 470.401" enable-background="new 157 340.599 584 470.401"
	 xml:space="preserve">
<g id="Capa_2">
</g>
<g id="Capa_5">
</g>
<g id="Capa_4">
</g>
<g id="Capa_3">
</g>
<g id="Capa_1_1_">
</g>
<g id="Capa_6">
	<g>
		<rect x="182" y="487" fill="#93908A" width="533" height="312"/>
		<g>
			<g>
				<rect x="544" y="668" fill="#161B41" stroke="#F3EEE2" stroke-width="2" stroke-miterlimit="10" width="38" height="72"/>
				<line fill="none" stroke="#F3EEE2" stroke-width="2" stroke-miterlimit="10" x1="544" y1="684" x2="582" y2="684"/>
				<rect x="597" y="668" fill="#161B41" stroke="#F3EEE2" stroke-width="2" stroke-miterlimit="10" width="40" height="72"/>
				<line fill="none" stroke="#F3EEE2" stroke-width="2" stroke-miterlimit="10" x1="597" y1="684" x2="637" y2="684"/>
				<rect x="652" y="668" fill="#161B41" stroke="#F3EEE2" stroke-width="2" stroke-miterlimit="10" width="38" height="72"/>
				<line fill="none" stroke="#F3EEE2" stroke-width="2" stroke-miterlimit="10" x1="652" y1="684" x2="690" y2="684"/>
				<rect x="544" y="538" fill="#161B41" stroke="#F3EEE2" stroke-width="2" stroke-miterlimit="10" width="38" height="104"/>
				<line fill="none" stroke="#F3EEE2" stroke-width="2" stroke-miterlimit="10" x1="544" y1="554" x2="582" y2="554"/>
				<rect x="597" y="538" fill="#161B41" stroke="#F3EEE2" stroke-width="2" stroke-miterlimit="10" width="40" height="104"/>
				<line fill="none" stroke="#F3EEE2" stroke-width="2" stroke-miterlimit="10" x1="597" y1="554" x2="637" y2="554"/>
				<rect x="652" y="538" fill="#161B41" stroke="#F3EEE2" stroke-width="2" stroke-miterlimit="10" width="38" height="104"/>
				<line fill="none" stroke="#F3EEE2" stroke-width="2" stroke-miterlimit="10" x1="652" y1="554" x2="690" y2="554"/>
			</g>
			<g>
				<rect x="206" y="668" fill="#161B41" stroke="#F3EEE2" stroke-width="2" stroke-miterlimit="10" width="39" height="72"/>
				<line fill="none" stroke="#F3EEE2" stroke-width="2" stroke-miterlimit="10" x1="206" y1="684" x2="245" y2="684"/>
				<rect x="258" y="668" fill="#161B41" stroke="#F3EEE2" stroke-width="2" stroke-miterlimit="10" width="40" height="72"/>
				<line fill="none" stroke="#F3EEE2" stroke-width="2" stroke-miterlimit="10" x1="258" y1="684" x2="298" y2="684"/>
				<rect x="313" y="668" fill="#161B41" stroke="#F3EEE2" stroke-width="2" stroke-miterlimit="10" width="38" height="72"/>
				<line fill="none" stroke="#F3EEE2" stroke-width="2" stroke-miterlimit="10" x1="313" y1="684" x2="351" y2="684"/>
				<rect x="206" y="538" fill="#161B41" stroke="#F3EEE2" stroke-width="2" stroke-miterlimit="10" width="39" height="104"/>
				<line fill="none" stroke="#F3EEE2" stroke-width="2" stroke-miterlimit="10" x1="206" y1="554" x2="245" y2="554"/>
				<rect x="258" y="538" fill="#161B41" stroke="#F3EEE2" stroke-width="2" stroke-miterlimit="10" width="40" height="104"/>
				<line fill="none" stroke="#F3EEE2" stroke-width="2" stroke-miterlimit="10" x1="258" y1="554" x2="298" y2="554"/>
				<rect x="313" y="538" fill="#161B41" stroke="#F3EEE2" stroke-width="2" stroke-miterlimit="10" width="38" height="104"/>
				<line fill="none" stroke="#F3EEE2" stroke-width="2" stroke-miterlimit="10" x1="313" y1="554" x2="351" y2="554"/>
			</g>
			<path fill="#161B41" stroke="#F3EEE2" stroke-width="2" stroke-miterlimit="10" d="M484,658.809v-0.002
				c0-13.274-15.582-24.035-35.173-24.035s-35.323,10.776-35.323,24.053L413.938,759H484V658.809z"/>
			<rect x="499" y="498" fill="#311E60" width="7" height="268"/>
			<rect x="510" y="498" fill="#311E60" width="7" height="268"/>
			<rect x="520" y="498" fill="#311E60" width="7" height="268"/>
			<rect x="374" y="498" fill="#311E60" width="7" height="268"/>
			<rect x="385" y="498" fill="#311E60" width="7" height="268"/>
			<rect x="395" y="498" fill="#311E60" width="7" height="268"/>
		</g>
		<polygon fill="#5730A0" points="631.086,448 446.471,347.399 258.324,448 		"/>
		<rect x="157" y="480" fill="#5730A0" width="584" height="24"/>
		<rect x="204" y="456" fill="#5730A0" width="489" height="16"/>
		<rect x="321" y="766" fill="#5730A0" width="256" height="8"/>
		<rect x="278" y="780" fill="#5730A0" width="339" height="9"/>
		<rect x="254" y="795" fill="#5730A0" width="391" height="16"/>
		<path fill="#E5E4E3" d="M470.092,582.297c0,16.756-9.438,30.334-21.08,30.334c-11.639,0-21.078-13.578-21.078-30.334
			c0-16.752,9.439-30.334,21.078-30.334C460.652,551.963,470.092,565.545,470.092,582.297z"/>
	</g>
</g>
<g id="Capa_8" display="none">
</g>
<g id="Capa_9">
</g>
<g id="Capa_10">
</g>
<g id="Capa_7" display="none">
</g>
</svg>
