<?xml version="1.0" encoding="utf-8"?>
<!-- Generator: Adobe Illustrator 16.0.0, SVG Export Plug-In . SVG Version: 6.00 Build 0)  -->
<!DOCTYPE svg PUBLIC "-//W3C//DTD SVG 1.1//EN" "http://www.w3.org/Graphics/SVG/1.1/DTD/svg11.dtd">
<svg version="1.1" id="Capa_1" xmlns="http://www.w3.org/2000/svg" xmlns:xlink="http://www.w3.org/1999/xlink" x="0px" y="0px"
	 width="757.818px" height="372.653px" viewBox="114 438.31 757.818 372.653" enable-background="new 114 438.31 757.818 372.653"
	 xml:space="preserve">
<g id="Capa_2">
</g>
<g id="Capa_5">
</g>
<g id="Capa_4">
</g>
<g id="Capa_3">
</g>
<g id="Capa_1_1_">
</g>
<g id="Capa_6">
	<g>
		<rect x="803" y="757" fill="#93908A" width="5" height="46"/>
		<path fill="#93908A" stroke="#161B41" stroke-width="3" stroke-miterlimit="10" d="M774,718.449c0-39.766,12.943-138,28.909-138
			s28.909,98.234,28.909,138c0,39.765-12.943,42-28.909,42S774,758.214,774,718.449z"/>
		<rect x="780" y="802" fill="#06514D" width="49" height="8"/>
		<rect x="843" y="757" fill="#93908A" width="5" height="46"/>
		<path fill="#93908A" stroke="#161B41" stroke-width="3" stroke-miterlimit="10" d="M814,691.107
			c0-65.652,12.943-227.841,28.909-227.841s28.909,162.188,28.909,227.841c0,65.65-12.943,69.342-28.909,69.342
			S814,756.759,814,691.107z"/>
		<rect x="820" y="802" fill="#06514D" width="49" height="8"/>
		<rect x="143" y="757" fill="#93908A" width="5" height="46"/>
		<path fill="#93908A" stroke="#161B41" stroke-width="3" stroke-miterlimit="10" d="M114,718.449c0-39.766,12.943-138,28.909-138
			c15.966,0,28.909,98.234,28.909,138c0,39.765-12.943,42-28.909,42C126.943,760.449,114,758.214,114,718.449z"/>
		<rect x="120" y="802" fill="#06514D" width="49" height="8"/>
		
			<rect x="185.134" y="757.439" transform="matrix(0.9998 0.0223 -0.0223 0.9998 17.4192 -3.9834)" fill="#93908A" width="5.001" height="46.003"/>
		<path fill="#93908A" stroke="#161B41" stroke-width="3" stroke-miterlimit="10" d="M157.113,735.025
			c0.521-23.449,14.748-81.092,30.709-80.736c15.963,0.354,27.617,58.57,27.096,82.02c-0.521,23.448-13.49,24.479-29.451,24.125
			C169.504,760.079,156.593,758.473,157.113,735.025z"/>
		
			<rect x="161.525" y="802.42" transform="matrix(0.9998 0.0222 -0.0222 0.9998 17.9496 -3.9313)" fill="#06514D" width="49.001" height="8"/>
		<path fill="#0FEFE8" stroke="#161B41" stroke-width="3" stroke-miterlimit="10" d="M342.818,588.538
			c0,0-30.927-13.177-38.646,8.167c-7.72,21.342-18.731,119.893,105.753,130.711c56.732,3.804,72.921-7.81,72.921-7.81l5.567-20.294
			l-56.609-15.587l-54.311-30.558l-18.855-40.901L342.818,588.538z"/>
		<path fill="#0FEFE8" stroke="#161B41" stroke-width="3" stroke-miterlimit="10" d="M508.098,458.613
			c0,0,29.213-17.48,52.345,2.964c61.955,50.327,37.192,163.698,11.243,200.404c-29.366,41.54-39.274,19.214-39.274,19.214
			l-11.879-33.165l-2.11-82.293c0,0,3.22-49.698,2.837-53.665C520.877,508.104,508.098,458.613,508.098,458.613z"/>
		<path fill="#0FEFE8" stroke="#161B41" stroke-width="3" stroke-miterlimit="10" d="M505.359,735.705
			c38.102-8.17,41.972-17.862,52.548-27.146l-5.85,55.271l-16.269,0.859C527.453,749.24,505.359,735.705,505.359,735.705z"/>
		<path fill="#0FEFE8" stroke="#161B41" stroke-width="3" stroke-miterlimit="10" d="M358.922,540.574
			c-13.055,2.654-37.015,9.256-34.344,50.987c7.76,89.235,103.835,109.269,122.031,110.528c18.196,1.261,34.362-8.211,34.362-8.211
			l-20.192-15.207c0,0-34.996-17.576-43.285-44.439c-8.287-26.866-2.315-45.618-16.019-69.953
			C388.85,541.856,371.975,537.92,358.922,540.574z"/>
		<path fill="#0FEFE8" stroke="#161B41" stroke-width="3" stroke-miterlimit="10" d="M500.947,693.51
			c0,0,51.315-90.601-42.502-162.326c-17.399-14.342-32.181-57.192,0.292-81.193c24.412-18.042,56.195-17.397,79.604,17.722
			c23.406,35.12,28.683,94.548,22.102,123.213c-6.581,28.666-19.214,77.348-26.127,88.692c-6.916,11.345-20.143,12.62-20.143,12.62
			L500.947,693.51z"/>
		<rect x="358" y="787" fill="#93908A" width="314" height="21"/>
		<rect x="407" y="760" fill="#93908A" width="216" height="21"/>
		<path fill="#F3EEE2" d="M485.078,675.074c0,0-1.967-95.352-38.338-125.823l2.264-2.263
			c36.371,30.473,38.338,125.822,38.338,125.822L485.078,675.074z"/>
		<path fill="#F3EEE2" d="M504.037,697c0,0-66.032-68-61.861-116h-3.201c-4.171,48,61.861,116,61.861,116H504.037z"/>
		<ellipse fill="#F3EEE2" cx="441.632" cy="582.377" rx="11.304" ry="5.897"/>
		
			<ellipse transform="matrix(0.9164 0.4003 -0.4003 0.9164 257.3838 -134.2722)" fill="#F3EEE2" cx="450.103" cy="548.971" rx="5.899" ry="11.305"/>
		<path fill="#0FEFE8" stroke="#161B41" stroke-width="3" stroke-miterlimit="10" d="M473.33,733.797c0,0-14.51-19.388,21.791-44.32
			c36.299-24.933,69.959,1.984,69.959,1.984S546.116,739.465,473.33,733.797z"/>
	</g>
</g>
<g id="Capa_8" display="none">
</g>
<g id="Capa_9">
</g>
<g id="Capa_10">
</g>
<g id="Capa_7" display="none">
</g>
</svg>
