<?xml version="1.0" encoding="utf-8"?>
<!-- Generator: Adobe Illustrator 16.0.0, SVG Export Plug-In . SVG Version: 6.00 Build 0)  -->
<!DOCTYPE svg PUBLIC "-//W3C//DTD SVG 1.1//EN" "http://www.w3.org/Graphics/SVG/1.1/DTD/svg11.dtd">
<svg version="1.1" id="Capa_1" xmlns="http://www.w3.org/2000/svg" xmlns:xlink="http://www.w3.org/1999/xlink" x="0px" y="0px"
	 width="773.818px" height="407.405px" viewBox="69.182 403.595 773.818 407.405"
	 enable-background="new 69.182 403.595 773.818 407.405" xml:space="preserve">
<g id="Capa_2">
</g>
<g id="Capa_5">
</g>
<g id="Capa_4">
</g>
<g id="Capa_3">
</g>
<g id="Capa_1_1_">
</g>
<g id="Capa_6">
	<g>
		<polygon fill="none" stroke="#A0AEA6" stroke-width="2" stroke-miterlimit="10" points="541.076,551.453 508.58,529.785 
			510.703,524.445 543.199,546.113 		"/>
		<polygon fill="#C08342" points="537.327,560.144 509.517,540.395 511.64,535.057 539.451,554.805 		"/>
		<polygon fill="none" stroke="#A0AEA6" stroke-width="2" stroke-miterlimit="10" points="595.039,551.453 627.534,529.785 
			625.411,524.445 592.916,546.113 		"/>
		<polygon fill="#C08342" points="598.787,560.144 626.598,540.395 624.475,535.057 596.664,554.805 		"/>
		<g>
			<rect x="666" y="669" fill="#F3EEE2" width="3" height="127"/>
			<path fill="#ED922F" d="M413,793H303V677.093c0-8.012,6.721-14.093,14.734-14.093h81.233c8.013,0,14.031,6.081,14.031,14.093
				L413,793L413,793z"/>
			<path fill="#161B41" d="M406,743h-95v-42.552c0-4.639,3.602-9.448,8.24-9.448h78.219c4.641,0,8.541,4.811,8.541,9.448V743z"/>
			<text transform="matrix(1 0 0 1 311.646 687.4434)" fill="#054354" font-family="'ArialMT'" font-size="27.2677">60</text>
			<g>
				<path fill="#F3EEE2" d="M330,803.385c0,4.206-3.293,7.615-7.5,7.615l0,0c-4.207,0-7.5-3.409-7.5-7.615V793h15V803.385z"/>
				<path fill="#F3EEE2" d="M401,803.385c0,4.206-3.293,7.615-7.5,7.615l0,0c-4.207,0-7.5-3.409-7.5-7.615V793h15V803.385z"/>
			</g>
			<g>
				<circle fill="#F3EEE2" cx="386.049" cy="708.572" r="7.182"/>
				<path fill="#F3EEE2" d="M397,737v-10.341c0-4.322-2.924-7.659-7.246-7.659h-5.87c-4.321,0-6.884,3.337-6.884,7.659V737H397z"/>
			</g>
			<rect x="247" y="665" fill="#F3EEE2" width="3" height="131"/>
			<rect x="177" y="744" fill="#93908A" width="5" height="46"/>
			<rect x="241" y="673" fill="#ED922F" width="42" height="25"/>
			<path fill="#93908A" stroke="#161B41" stroke-width="3" stroke-miterlimit="10" d="M211,705c0-39.765-12.943-138-28.909-138
				c-15.966,0-28.909,98.235-28.909,138s12.943,42,28.909,42C198.057,747,211,744.765,211,705z"/>
			<rect x="96" y="744" fill="#93908A" width="5" height="46"/>
			<path fill="#93908A" stroke="#161B41" stroke-width="3" stroke-miterlimit="10" d="M133,676.638
				c0-66.616-14.287-231.188-31.909-231.188c-17.622,0-31.909,164.571-31.909,231.188c0,66.618,14.287,70.362,31.909,70.362
				C118.713,747,133,743.256,133,676.638z"/>
			<rect x="156" y="789" fill="#5B3712" width="49" height="8"/>
			<rect x="75" y="789" fill="#5B3712" width="49" height="8"/>
			<rect x="765" y="744" fill="#93908A" width="5" height="46"/>
			<path fill="#93908A" stroke="#161B41" stroke-width="3" stroke-miterlimit="10" d="M799,712.556
				c0-32.609-12.943-113.171-28.909-113.171s-28.909,80.562-28.909,113.171c0,32.61,12.943,34.444,28.909,34.444
				S799,745.166,799,712.556z"/>
			<rect x="809" y="744" fill="#93908A" width="5" height="46"/>
			<path fill="#93908A" stroke="#161B41" stroke-width="3" stroke-miterlimit="10" d="M843,668.589
				c0-74.237-12.943-257.637-28.909-257.637s-28.909,183.398-28.909,257.637c0,74.239,12.943,78.411,28.909,78.411
				S843,742.828,843,668.589z"/>
			<rect x="744" y="789" fill="#5B3712" width="49" height="8"/>
			<rect x="788" y="789" fill="#5B3712" width="49" height="8"/>
			<path fill="#F3EEE2" d="M565,797c0,0,0-174.789,0-204.891c0-18.579-13.484-33.242-23.809-41.743l-2.5,6.364
				C548.774,565.02,561,578.72,561,596.408C561,626.511,561,797,561,797H565z"/>
			<path fill="#F3EEE2" d="M571,797c0,0,0-174.789,0-204.891c0-18.579,13.681-33.242,24.005-41.743l2.402,6.364
				C587.324,565.02,575,578.72,575,596.408C575,626.511,575,797,575,797H571z"/>
			<rect x="555" y="751" fill="#ED922F" width="29" height="46"/>
			<path fill="#ED922F" d="M728,797H608v-21.907c0-8.012,3.279-14.093,7.551-14.093h105.14c4.271,0,7.311,6.081,7.311,14.093
				L728,797L728,797z"/>
			<path fill="#ED922F" d="M630.09,731c0,10,16.93,16.77,37.814,16.77c20.884,0,37.814-6.77,37.814-16.77H630.09z"/>
			<path fill="#ED922F" d="M649.171,695c0,10,8.388,16.77,18.733,16.77c10.345,0,18.732-6.77,18.732-16.77H649.171z"/>
			<path fill="#ED922F" d="M654.623,679c0,10,5.946,16.77,13.281,16.77c7.334,0,13.28-6.77,13.28-16.77H654.623z"/>
			<rect x="302" y="760" fill="#F3EEE2" width="31" height="10"/>
			<rect x="383" y="760" fill="#F3EEE2" width="31" height="10"/>
			<text transform="matrix(1 0 0 1 252.8281 692.2012)" fill="#054354" font-family="'ArialMT'" font-size="21.3352">60</text>
		</g>
	</g>
</g>
<g id="Capa_8" display="none">
</g>
<g id="Capa_9">
</g>
<g id="Capa_10">
</g>
<g id="Capa_7" display="none">
</g>
</svg>
