<?xml version="1.0" encoding="utf-8"?>
<!-- Generator: Adobe Illustrator 16.0.0, SVG Export Plug-In . SVG Version: 6.00 Build 0)  -->
<!DOCTYPE svg PUBLIC "-//W3C//DTD SVG 1.1//EN" "http://www.w3.org/Graphics/SVG/1.1/DTD/svg11.dtd">
<svg version="1.1" id="Capa_1" xmlns="http://www.w3.org/2000/svg" xmlns:xlink="http://www.w3.org/1999/xlink" x="0px" y="0px"
	 width="678px" height="529.084px" viewBox="168 281.916 678 529.084" enable-background="new 168 281.916 678 529.084"
	 xml:space="preserve">
<g id="Capa_2">
</g>
<g id="Capa_5">
</g>
<g id="Capa_4">
</g>
<g id="Capa_3">
</g>
<g id="Capa_1_1_">
</g>
<g id="Capa_6">
	<g>
		<rect x="768" y="758" fill="#93908A" width="5" height="46"/>
		<path fill="#93908A" stroke="#161B41" stroke-width="3" stroke-miterlimit="10" d="M802,726.556
			c0-32.609-12.943-113.171-28.909-113.171s-28.909,80.562-28.909,113.171c0,32.61,12.943,34.444,28.909,34.444
			S802,759.166,802,726.556z"/>
		<rect x="812" y="758" fill="#93908A" width="5" height="46"/>
		<path fill="#93908A" stroke="#161B41" stroke-width="3" stroke-miterlimit="10" d="M846,682.589
			c0-74.237-12.943-257.637-28.909-257.637s-28.909,183.398-28.909,257.637c0,74.239,12.943,78.411,28.909,78.411
			S846,756.828,846,682.589z"/>
		<rect x="747" y="803" fill="#415B0E" width="49" height="8"/>
		<rect x="684" y="492" fill="#F3EEE2" width="5" height="312"/>
		<polygon fill="#8CCC1D" stroke="#161B41" stroke-miterlimit="10" points="689.818,330.5 684.818,330.5 678.484,467.5 
			695.949,467.5 		"/>
		<polygon fill="#8CCC1D" stroke="#161B41" stroke-miterlimit="10" points="830.178,535.883 831.852,531.171 704.873,479.346 
			699.027,495.804 		"/>
		<polygon fill="#8CCC1D" stroke="#161B41" stroke-miterlimit="10" points="542.143,535.883 540.469,531.171 667.447,479.346 
			673.293,495.804 		"/>
		<rect x="663" y="803" fill="#415B0E" width="49" height="8"/>
		<rect x="791" y="803" fill="#415B0E" width="49" height="8"/>
		<rect x="265" y="758" fill="#93908A" width="5" height="46"/>
		<path fill="#93908A" stroke="#161B41" stroke-width="3" stroke-miterlimit="10" d="M224.1,696.599
			C224.1,635.627,240.603,485,260.959,485s36.859,150.627,36.859,211.599c0,60.974-16.503,64.401-36.859,64.401
			S224.1,757.571,224.1,696.599z"/>
		<rect x="201" y="758" fill="#93908A" width="5" height="46"/>
		<path fill="#93908A" stroke="#161B41" stroke-width="3" stroke-miterlimit="10" d="M168,682.589
			c0-74.237,16.502-257.637,36.858-257.637s36.859,183.398,36.859,257.637c0,74.239-16.503,78.411-36.859,78.411
			S168,756.828,168,682.589z"/>
		<rect x="242" y="803" fill="#415B0E" width="49" height="8"/>
		<rect x="178" y="803" fill="#415B0E" width="49" height="8"/>
		<circle fill="#8CCC1D" stroke="#161B41" stroke-miterlimit="10" cx="686.031" cy="483.996" r="8.161"/>
		<rect x="565" y="439" fill="#F3EEE2" width="5" height="364"/>
		<polygon fill="#8CCC1D" stroke="#161B41" stroke-miterlimit="10" points="527.56,281.916 522.749,283.281 554.079,416.801 
			570.88,412.03 		"/>
		<polygon fill="#8CCC1D" stroke="#161B41" stroke-miterlimit="10" points="718.82,441.627 719.143,436.638 582.837,421.469 
			581.71,438.898 		"/>
		<polygon fill="#8CCC1D" stroke="#161B41" stroke-miterlimit="10" points="441.739,520.308 438.842,516.232 546.835,431.692 
			556.954,445.928 		"/>
		<rect x="544" y="802" fill="#415B0E" width="49" height="8"/>
		<rect x="365" y="654" fill="#F3EEE2" width="5" height="148"/>
		<rect x="343" y="801" fill="#415B0E" width="49" height="8"/>
		<circle fill="#8CCC1D" stroke="#161B41" stroke-miterlimit="10" cx="567.031" cy="430.996" r="8.161"/>
		<rect x="317.5" y="692.5" fill="#415B0E" stroke="#F3EEE2" stroke-miterlimit="10" width="100" height="53"/>
		<rect x="317.5" y="626.5" fill="#415B0E" stroke="#F3EEE2" stroke-miterlimit="10" width="100" height="53"/>
		<rect x="475" y="654" fill="#F3EEE2" width="5" height="148"/>
		<rect x="453" y="801" fill="#415B0E" width="49" height="8"/>
		<rect x="427.5" y="692.5" fill="#415B0E" stroke="#F3EEE2" stroke-miterlimit="10" width="100" height="53"/>
		<rect x="427.5" y="626.5" fill="#415B0E" stroke="#F3EEE2" stroke-miterlimit="10" width="100" height="53"/>
		<g>
			<rect x="434" y="634" fill="#F3EEE2" width="19" height="7"/>
			<rect x="468" y="634" fill="#F3EEE2" width="18" height="7"/>
			<rect x="501" y="634" fill="#F3EEE2" width="19" height="7"/>
		</g>
		<g>
			<rect x="434" y="648" fill="#F3EEE2" width="19" height="7"/>
			<rect x="468" y="648" fill="#F3EEE2" width="18" height="7"/>
			<rect x="501" y="648" fill="#F3EEE2" width="19" height="7"/>
		</g>
		<g>
			<rect x="434" y="662" fill="#F3EEE2" width="19" height="7"/>
			<rect x="468" y="662" fill="#F3EEE2" width="18" height="7"/>
			<rect x="501" y="662" fill="#F3EEE2" width="19" height="7"/>
		</g>
		<g>
			<rect x="326" y="634" fill="#F3EEE2" width="19" height="7"/>
			<rect x="360" y="634" fill="#F3EEE2" width="18" height="7"/>
			<rect x="393" y="634" fill="#F3EEE2" width="19" height="7"/>
		</g>
		<g>
			<rect x="326" y="648" fill="#F3EEE2" width="19" height="7"/>
			<rect x="360" y="648" fill="#F3EEE2" width="18" height="7"/>
			<rect x="393" y="648" fill="#F3EEE2" width="19" height="7"/>
		</g>
		<g>
			<rect x="326" y="662" fill="#F3EEE2" width="19" height="7"/>
			<rect x="360" y="662" fill="#F3EEE2" width="18" height="7"/>
			<rect x="393" y="662" fill="#F3EEE2" width="19" height="7"/>
		</g>
		<g>
			<rect x="434" y="701" fill="#F3EEE2" width="19" height="7"/>
			<rect x="468" y="701" fill="#F3EEE2" width="18" height="7"/>
			<rect x="501" y="701" fill="#F3EEE2" width="19" height="7"/>
		</g>
		<g>
			<rect x="434" y="715" fill="#F3EEE2" width="19" height="7"/>
			<rect x="468" y="715" fill="#F3EEE2" width="18" height="7"/>
			<rect x="501" y="715" fill="#F3EEE2" width="19" height="7"/>
		</g>
		<g>
			<rect x="434" y="729" fill="#F3EEE2" width="19" height="7"/>
			<rect x="468" y="729" fill="#F3EEE2" width="18" height="7"/>
			<rect x="501" y="729" fill="#F3EEE2" width="19" height="7"/>
		</g>
		<g>
			<rect x="326" y="701" fill="#F3EEE2" width="19" height="7"/>
			<rect x="360" y="701" fill="#F3EEE2" width="18" height="7"/>
			<rect x="393" y="701" fill="#F3EEE2" width="19" height="7"/>
		</g>
		<g>
			<rect x="326" y="715" fill="#F3EEE2" width="19" height="7"/>
			<rect x="360" y="715" fill="#F3EEE2" width="18" height="7"/>
			<rect x="393" y="715" fill="#F3EEE2" width="19" height="7"/>
		</g>
		<g>
			<rect x="326" y="729" fill="#F3EEE2" width="19" height="7"/>
			<rect x="360" y="729" fill="#F3EEE2" width="18" height="7"/>
			<rect x="393" y="729" fill="#F3EEE2" width="19" height="7"/>
		</g>
	</g>
</g>
<g id="Capa_8" display="none">
</g>
<g id="Capa_9">
</g>
<g id="Capa_10">
</g>
<g id="Capa_7" display="none">
</g>
</svg>
