<?xml version="1.0" encoding="utf-8"?>
<!-- Generator: Adobe Illustrator 16.0.0, SVG Export Plug-In . SVG Version: 6.00 Build 0)  -->
<!DOCTYPE svg PUBLIC "-//W3C//DTD SVG 1.1//EN" "http://www.w3.org/Graphics/SVG/1.1/DTD/svg11.dtd">
<svg version="1.1" id="Capa_1" xmlns="http://www.w3.org/2000/svg" xmlns:xlink="http://www.w3.org/1999/xlink" x="0px" y="0px"
	 width="686px" height="515.143px" viewBox="158 295.857 686 515.143" enable-background="new 158 295.857 686 515.143"
	 xml:space="preserve">
<g id="Capa_2">
</g>
<g id="Capa_5">
</g>
<g id="Capa_4">
</g>
<g id="Capa_3">
</g>
<g id="Capa_1_1_">
</g>
<g id="Capa_6">
	<g>
		<rect x="158" y="644" fill="#93908A" width="686" height="150"/>
		<rect x="353" y="643" fill="#EECE4C" width="134" height="151"/>
		<line fill="none" stroke="#F3EEE2" stroke-width="4" stroke-miterlimit="10" x1="488" y1="711" x2="844" y2="711"/>
		<line fill="none" stroke="#F3EEE2" stroke-width="4" stroke-miterlimit="10" x1="158" y1="711" x2="352" y2="711"/>
		<g>
			<rect x="515" y="729" fill="#161B41" stroke="#F3EEE2" stroke-width="2" stroke-miterlimit="10" width="38" height="42"/>
			<line fill="none" stroke="#F3EEE2" stroke-width="2" stroke-miterlimit="10" x1="515" y1="745" x2="553" y2="745"/>
			<rect x="568" y="729" fill="#161B41" stroke="#F3EEE2" stroke-width="2" stroke-miterlimit="10" width="40" height="42"/>
			<line fill="none" stroke="#F3EEE2" stroke-width="2" stroke-miterlimit="10" x1="568" y1="745" x2="608" y2="745"/>
			<rect x="623" y="729" fill="#161B41" stroke="#F3EEE2" stroke-width="2" stroke-miterlimit="10" width="38" height="42"/>
			<line fill="none" stroke="#F3EEE2" stroke-width="2" stroke-miterlimit="10" x1="623" y1="745" x2="661" y2="745"/>
		</g>
		<g>
			<rect x="177" y="729" fill="#161B41" stroke="#F3EEE2" stroke-width="2" stroke-miterlimit="10" width="39" height="42"/>
			<line fill="none" stroke="#F3EEE2" stroke-width="2" stroke-miterlimit="10" x1="177" y1="745" x2="216" y2="745"/>
			<rect x="229" y="729" fill="#161B41" stroke="#F3EEE2" stroke-width="2" stroke-miterlimit="10" width="40" height="42"/>
			<line fill="none" stroke="#F3EEE2" stroke-width="2" stroke-miterlimit="10" x1="229" y1="745" x2="269" y2="745"/>
			<rect x="284" y="729" fill="#161B41" stroke="#F3EEE2" stroke-width="2" stroke-miterlimit="10" width="38" height="42"/>
			<line fill="none" stroke="#F3EEE2" stroke-width="2" stroke-miterlimit="10" x1="284" y1="745" x2="322" y2="745"/>
		</g>
		<path fill="#161B41" stroke="#F3EEE2" stroke-width="2" stroke-miterlimit="10" d="M455,686.181L455,686.181
			c0-11.085-15.582-29.068-35.173-29.068s-35.323,17.998-35.323,29.082L384.938,781H455V686.181z"/>
		<line fill="none" stroke="#635621" stroke-width="4" stroke-miterlimit="10" x1="354" y1="791" x2="354" y2="643"/>
		<line fill="none" stroke="#635621" stroke-width="4" stroke-miterlimit="10" x1="360" y1="643" x2="360" y2="791"/>
		<line fill="none" stroke="#635621" stroke-width="4" stroke-miterlimit="10" x1="365" y1="791" x2="365" y2="643"/>
		<line fill="none" stroke="#635621" stroke-width="4" stroke-miterlimit="10" x1="371" y1="643" x2="371" y2="791"/>
		<line fill="none" stroke="#635621" stroke-width="4" stroke-miterlimit="10" x1="469" y1="791" x2="469" y2="643"/>
		<line fill="none" stroke="#635621" stroke-width="4" stroke-miterlimit="10" x1="475" y1="643" x2="475" y2="791"/>
		<line fill="none" stroke="#635621" stroke-width="4" stroke-miterlimit="10" x1="480" y1="791" x2="480" y2="643"/>
		<line fill="none" stroke="#635621" stroke-width="4" stroke-miterlimit="10" x1="486" y1="643" x2="486" y2="791"/>
		<g>
			<rect x="515" y="657" fill="#161B41" stroke="#F3EEE2" stroke-width="2" stroke-miterlimit="10" width="38" height="36"/>
			<rect x="568" y="657" fill="#161B41" stroke="#F3EEE2" stroke-width="2" stroke-miterlimit="10" width="40" height="36"/>
			<rect x="623" y="657" fill="#161B41" stroke="#F3EEE2" stroke-width="2" stroke-miterlimit="10" width="38" height="36"/>
		</g>
		<g>
			<rect x="681" y="729" fill="#161B41" stroke="#F3EEE2" stroke-width="2" stroke-miterlimit="10" width="38" height="42"/>
			<line fill="none" stroke="#F3EEE2" stroke-width="2" stroke-miterlimit="10" x1="681" y1="745" x2="719" y2="745"/>
			<rect x="734" y="729" fill="#161B41" stroke="#F3EEE2" stroke-width="2" stroke-miterlimit="10" width="40" height="42"/>
			<line fill="none" stroke="#F3EEE2" stroke-width="2" stroke-miterlimit="10" x1="734" y1="745" x2="774" y2="745"/>
			<rect x="789" y="729" fill="#161B41" stroke="#F3EEE2" stroke-width="2" stroke-miterlimit="10" width="38" height="42"/>
			<line fill="none" stroke="#F3EEE2" stroke-width="2" stroke-miterlimit="10" x1="789" y1="745" x2="827" y2="745"/>
		</g>
		<g>
			<rect x="681" y="657" fill="#161B41" stroke="#F3EEE2" stroke-width="2" stroke-miterlimit="10" width="38" height="36"/>
			<rect x="734" y="657" fill="#161B41" stroke="#F3EEE2" stroke-width="2" stroke-miterlimit="10" width="40" height="36"/>
			<rect x="789" y="657" fill="#161B41" stroke="#F3EEE2" stroke-width="2" stroke-miterlimit="10" width="38" height="36"/>
		</g>
		<g>
			<rect x="177" y="657" fill="#161B41" stroke="#F3EEE2" stroke-width="2" stroke-miterlimit="10" width="39" height="36"/>
			<rect x="229" y="657" fill="#161B41" stroke="#F3EEE2" stroke-width="2" stroke-miterlimit="10" width="40" height="36"/>
			<rect x="284" y="657" fill="#161B41" stroke="#F3EEE2" stroke-width="2" stroke-miterlimit="10" width="38" height="36"/>
		</g>
		<g>
			<rect x="396" y="616" fill="#EECE4C" width="49" height="18"/>
		</g>
		<rect x="292" y="788" fill="#635621" width="256" height="8"/>
		<rect x="249" y="802" fill="#635621" width="339" height="9"/>
		<rect x="385" y="434" fill="#EECE4C" width="70" height="172"/>
		<rect x="374" y="421" fill="#635621" width="93" height="7"/>
		<ellipse fill="#A0AEA6" cx="421.515" cy="363.721" rx="6.124" ry="2.631"/>
		<ellipse fill="#A0AEA6" cx="421.515" cy="358.721" rx="4.976" ry="2.631"/>
		<path fill="#EECE4C" d="M455.594,413c0-15-14.152-46.878-34.078-46.878c-19.93,0-35.08,31.878-35.08,46.878H455.594z"/>
		<path fill="#EECE4C" d="M475.07,597.609c0,0-2.48,22.323,3.989,24.909c6.47,2.59,13.318,6.035,12.673,10.564L488.953,643H454
			v-56.803C454,586.197,475.393,590.814,475.07,597.609z"/>
		<path fill="#EECE4C" d="M364.098,597.609c0,0,2.565,22.323-3.904,24.909c-6.47,2.59-13.276,6.035-12.631,10.564l2.821,9.916H385
			v-56.803C385,586.197,363.775,590.814,364.098,597.609z"/>
		<line fill="none" stroke="#635621" stroke-width="4" stroke-miterlimit="10" x1="451" y1="434" x2="451" y2="606"/>
		<line fill="none" stroke="#635621" stroke-width="4" stroke-miterlimit="10" x1="390" y1="434" x2="390" y2="606"/>
		<polyline fill="#A0AEA6" points="420.38,362.826 421.796,295.857 424.173,362.826 		"/>
		<circle fill="#161B41" cx="419.978" cy="468.935" r="19.726"/>
	</g>
</g>
<g id="Capa_8" display="none">
</g>
<g id="Capa_9">
</g>
<g id="Capa_10">
</g>
<g id="Capa_7" display="none">
</g>
</svg>
