<?xml version="1.0" encoding="utf-8"?>
<!-- Generator: Adobe Illustrator 16.0.0, SVG Export Plug-In . SVG Version: 6.00 Build 0)  -->
<!DOCTYPE svg PUBLIC "-//W3C//DTD SVG 1.1//EN" "http://www.w3.org/Graphics/SVG/1.1/DTD/svg11.dtd">
<svg version="1.1" id="Capa_1" xmlns="http://www.w3.org/2000/svg" xmlns:xlink="http://www.w3.org/1999/xlink" x="0px" y="0px"
	 width="699.983px" height="544.783px" viewBox="137.017 266.217 699.983 544.783"
	 enable-background="new 137.017 266.217 699.983 544.783" xml:space="preserve">
<g id="Capa_2">
</g>
<g id="Capa_5">
</g>
<g id="Capa_4">
</g>
<g id="Capa_3">
</g>
<g id="Capa_1_1_">
</g>
<g id="Capa_6">
	<g>
		<rect x="591" y="305" fill="#89515D" width="246" height="345"/>
		<line fill="none" stroke="#161B41" stroke-width="4" stroke-miterlimit="10" x1="839" y1="559" x2="592" y2="559"/>
		<rect x="591" y="658" fill="#66313A" width="246" height="153"/>
		<g>
			<rect x="624" y="683" fill="#161B41" stroke="#F3EEE2" stroke-width="2" stroke-miterlimit="10" width="182" height="125"/>
			<line fill="none" stroke="#F3EEE2" stroke-width="2" stroke-miterlimit="10" x1="624" y1="703" x2="806" y2="703"/>
		</g>
		<g>
			<g>
				<line fill="none" stroke="#F3EEE2" stroke-width="2" stroke-miterlimit="10" x1="714" y1="808" x2="714" y2="685"/>
			</g>
			<g>
				<line fill="none" stroke="#F3EEE2" stroke-width="2" stroke-miterlimit="10" x1="703" y1="765" x2="703" y2="736"/>
			</g>
			<g>
				<line fill="none" stroke="#F3EEE2" stroke-width="2" stroke-miterlimit="10" x1="724" y1="765" x2="724" y2="736"/>
			</g>
		</g>
		<line fill="none" stroke="#A0AEA6" stroke-width="2" stroke-miterlimit="10" x1="590" y1="285" x2="838" y2="285"/>
		<line fill="none" stroke="#A0AEA6" stroke-width="2" stroke-miterlimit="10" x1="590" y1="297" x2="838" y2="297"/>
		<line fill="none" stroke="#A0AEA6" stroke-width="2" stroke-miterlimit="10" x1="837" y1="297" x2="837" y2="286"/>
		<line fill="none" stroke="#A0AEA6" stroke-width="2" stroke-miterlimit="10" x1="827" y1="297" x2="827" y2="286"/>
		<line fill="none" stroke="#A0AEA6" stroke-width="2" stroke-miterlimit="10" x1="816" y1="297" x2="816" y2="286"/>
		<line fill="none" stroke="#A0AEA6" stroke-width="2" stroke-miterlimit="10" x1="806" y1="297" x2="806" y2="286"/>
		<line fill="none" stroke="#A0AEA6" stroke-width="2" stroke-miterlimit="10" x1="795" y1="297" x2="795" y2="286"/>
		<line fill="none" stroke="#A0AEA6" stroke-width="2" stroke-miterlimit="10" x1="784" y1="297" x2="784" y2="286"/>
		<line fill="none" stroke="#A0AEA6" stroke-width="2" stroke-miterlimit="10" x1="773" y1="297" x2="773" y2="286"/>
		<line fill="none" stroke="#A0AEA6" stroke-width="2" stroke-miterlimit="10" x1="763" y1="297" x2="763" y2="286"/>
		<line fill="none" stroke="#A0AEA6" stroke-width="2" stroke-miterlimit="10" x1="752" y1="297" x2="752" y2="286"/>
		<line fill="none" stroke="#A0AEA6" stroke-width="2" stroke-miterlimit="10" x1="730" y1="297" x2="730" y2="286"/>
		<line fill="none" stroke="#A0AEA6" stroke-width="2" stroke-miterlimit="10" x1="709" y1="297" x2="709" y2="286"/>
		<line fill="none" stroke="#A0AEA6" stroke-width="2" stroke-miterlimit="10" x1="677" y1="297" x2="677" y2="286"/>
		<line fill="none" stroke="#A0AEA6" stroke-width="2" stroke-miterlimit="10" x1="688" y1="297" x2="688" y2="286"/>
		<line fill="none" stroke="#A0AEA6" stroke-width="2" stroke-miterlimit="10" x1="656" y1="297" x2="656" y2="286"/>
		<line fill="none" stroke="#A0AEA6" stroke-width="2" stroke-miterlimit="10" x1="634" y1="297" x2="634" y2="286"/>
		<line fill="none" stroke="#A0AEA6" stroke-width="2" stroke-miterlimit="10" x1="613" y1="297" x2="613" y2="286"/>
		<line fill="none" stroke="#A0AEA6" stroke-width="2" stroke-miterlimit="10" x1="741" y1="297" x2="741" y2="286"/>
		<line fill="none" stroke="#A0AEA6" stroke-width="2" stroke-miterlimit="10" x1="720" y1="297" x2="720" y2="286"/>
		<line fill="none" stroke="#A0AEA6" stroke-width="2" stroke-miterlimit="10" x1="699" y1="297" x2="699" y2="286"/>
		<line fill="none" stroke="#A0AEA6" stroke-width="2" stroke-miterlimit="10" x1="667" y1="297" x2="667" y2="286"/>
		<line fill="none" stroke="#A0AEA6" stroke-width="2" stroke-miterlimit="10" x1="646" y1="297" x2="646" y2="286"/>
		<line fill="none" stroke="#A0AEA6" stroke-width="2" stroke-miterlimit="10" x1="624" y1="297" x2="624" y2="286"/>
		<line fill="none" stroke="#A0AEA6" stroke-width="2" stroke-miterlimit="10" x1="602" y1="297" x2="602" y2="286"/>
		<line fill="none" stroke="#A0AEA6" stroke-width="2" stroke-miterlimit="10" x1="591" y1="297" x2="591" y2="286"/>
		
			<rect x="616.069" y="577.324" transform="matrix(-1 -0.0014 0.0014 -1 1269.0391 1203.5801)" fill="#161B41" stroke="#F3EEE2" stroke-width="2" stroke-miterlimit="10" width="37.742" height="48.045"/>
		
			<line fill="none" stroke="#F3EEE2" stroke-width="2" stroke-miterlimit="10" x1="616.057" y1="593.03" x2="653.803" y2="593.087"/>
		
			<rect x="669.417" y="577.418" transform="matrix(-1 -0.0015 0.0015 -1 1374.3711 1203.9111)" fill="#161B41" stroke="#F3EEE2" stroke-width="2" stroke-miterlimit="10" width="36.44" height="48.044"/>
		
			<line fill="none" stroke="#F3EEE2" stroke-width="2" stroke-miterlimit="10" x1="669.418" y1="593.111" x2="705.862" y2="593.166"/>
		<polygon fill="#161B41" stroke="#F3EEE2" stroke-width="2" stroke-miterlimit="10" points="764.375,625.459 726.633,625.4 
			726.701,577.355 764.445,577.414 		"/>
		
			<line fill="none" stroke="#F3EEE2" stroke-width="2" stroke-miterlimit="10" x1="726.686" y1="593.059" x2="764.43" y2="593.115"/>
		
			<rect x="780.057" y="577.427" transform="matrix(-1 -0.0014 0.0014 -1 1595.7168 1204.0112)" fill="#161B41" stroke="#F3EEE2" stroke-width="2" stroke-miterlimit="10" width="36.441" height="48.046"/>
		
			<line fill="none" stroke="#F3EEE2" stroke-width="2" stroke-miterlimit="10" x1="780.047" y1="593.14" x2="816.489" y2="593.194"/>
		<line fill="none" stroke="#161B41" stroke-width="4" stroke-miterlimit="10" x1="839" y1="444" x2="592" y2="444"/>
		<polygon fill="#161B41" stroke="#F3EEE2" stroke-width="2" stroke-miterlimit="10" points="653.748,530.277 616.006,530.221 
			616.071,462.176 653.816,462.232 		"/>
		
			<line fill="none" stroke="#F3EEE2" stroke-width="2" stroke-miterlimit="10" x1="616.057" y1="477.878" x2="653.803" y2="477.934"/>
		<polygon fill="#161B41" stroke="#F3EEE2" stroke-width="2" stroke-miterlimit="10" points="705.807,530.355 669.366,530.301 
			669.434,462.256 705.877,462.311 		"/>
		
			<line fill="none" stroke="#F3EEE2" stroke-width="2" stroke-miterlimit="10" x1="669.418" y1="477.958" x2="705.862" y2="478.014"/>
		<polygon fill="#161B41" stroke="#F3EEE2" stroke-width="2" stroke-miterlimit="10" points="764.375,530.305 726.633,530.248 
			726.701,462.203 764.445,462.26 		"/>
		
			<line fill="none" stroke="#F3EEE2" stroke-width="2" stroke-miterlimit="10" x1="726.686" y1="477.905" x2="764.43" y2="477.964"/>
		<polygon fill="#161B41" stroke="#F3EEE2" stroke-width="2" stroke-miterlimit="10" points="816.436,530.385 779.994,530.33 
			780.063,462.285 816.505,462.34 		"/>
		
			<line fill="none" stroke="#F3EEE2" stroke-width="2" stroke-miterlimit="10" x1="780.047" y1="477.988" x2="816.489" y2="478.041"/>
		<polygon fill="#161B41" stroke="#F3EEE2" stroke-width="2" stroke-miterlimit="10" points="653.748,415.123 616.006,415.066 
			616.071,347.021 653.816,347.078 		"/>
		
			<line fill="none" stroke="#F3EEE2" stroke-width="2" stroke-miterlimit="10" x1="616.057" y1="362.726" x2="653.803" y2="362.782"/>
		<polygon fill="#161B41" stroke="#F3EEE2" stroke-width="2" stroke-miterlimit="10" points="705.807,415.203 669.366,415.148 
			669.434,347.104 705.877,347.158 		"/>
		
			<line fill="none" stroke="#F3EEE2" stroke-width="2" stroke-miterlimit="10" x1="669.418" y1="362.807" x2="705.862" y2="362.861"/>
		<polygon fill="#161B41" stroke="#F3EEE2" stroke-width="2" stroke-miterlimit="10" points="764.375,415.154 726.633,415.096 
			726.701,347.051 764.445,347.109 		"/>
		
			<line fill="none" stroke="#F3EEE2" stroke-width="2" stroke-miterlimit="10" x1="726.686" y1="362.754" x2="764.43" y2="362.811"/>
		<polygon fill="#161B41" stroke="#F3EEE2" stroke-width="2" stroke-miterlimit="10" points="816.436,415.23 779.994,415.178 
			780.063,347.133 816.505,347.186 		"/>
		
			<line fill="none" stroke="#F3EEE2" stroke-width="2" stroke-miterlimit="10" x1="780.047" y1="362.835" x2="816.489" y2="362.89"/>
		<ellipse fill="#F3EEE2" cx="715.979" cy="298.12" rx="19.726" ry="31.903"/>
		<rect x="362" y="773" fill="#F3EEE2" width="5" height="37"/>
		<rect x="372" y="773" fill="#F3EEE2" width="5" height="37"/>
		<circle fill="none" stroke="#F3EEE2" stroke-miterlimit="10" cx="369.869" cy="695.932" r="10.658"/>
		<polygon fill="none" stroke="#F3EEE2" stroke-width="2" stroke-miterlimit="10" points="384.565,770 355.713,770 363.469,747.654 
			364.816,713 376.994,713 378.227,746.769 		"/>
		<polygon fill="#89515D" points="301.826,749.685 308.269,707 320.988,707 323.793,749.073 		"/>
		<polygon fill="#F3EEE2" points="349.622,746.679 344.531,745.305 358.035,714.118 360.912,714.895 		"/>
		<polygon fill="#F3EEE2" points="391.371,746.679 396.463,745.305 384.211,714.118 381.336,714.895 		"/>
		<rect x="429" y="755" fill="#F3EEE2" width="5" height="55"/>
		<rect x="440" y="755" fill="#F3EEE2" width="4" height="55"/>
		<circle fill="none" stroke="#F3EEE2" stroke-miterlimit="10" cx="437.459" cy="681.513" r="10.658"/>
		<polygon fill="#89515D" points="452.152,751 423.301,751 432.404,700 444.58,700 		"/>
		<polygon fill="#F3EEE2" points="417.21,737.901 412.118,736.527 425.623,699.698 428.502,700.475 		"/>
		<polygon fill="#F3EEE2" points="462.094,737.275 467.186,735.903 451.801,699.698 448.922,700.475 		"/>
		<rect x="528" y="793" fill="#F3EEE2" width="4" height="17"/>
		<rect x="538" y="793" fill="#F3EEE2" width="5" height="17"/>
		<circle fill="none" stroke="#F3EEE2" stroke-miterlimit="10" cx="536.653" cy="737.817" r="8.632"/>
		<polygon fill="#89515D" points="549.244,788 523.277,788 531.471,753 542.43,753 		"/>
		<polygon fill="#F3EEE2" points="522.166,771.129 517.076,769.755 524.311,751.106 527.188,751.883 		"/>
		<polygon fill="#F3EEE2" points="554.512,774.264 559.604,772.891 550.488,751.106 547.609,751.883 		"/>
		<polygon fill="#F3EEE2" points="311.166,754 303.201,754 305.791,809 311.6,809 		"/>
		<polygon fill="#F3EEE2" points="322.85,754 314.884,754 314.309,809 320.115,809 		"/>
		<circle fill="none" stroke="#F3EEE2" stroke-miterlimit="10" cx="312.819" cy="687.781" r="12.538"/>
		<polygon fill="#F3EEE2" points="293.197,749.813 288.107,748.439 300.984,711.609 303.862,712.385 		"/>
		<polygon fill="#F3EEE2" points="334.946,749.813 340.038,748.439 327.162,711.609 324.285,712.385 		"/>
		<polygon fill="none" stroke="#F3EEE2" stroke-width="2" stroke-miterlimit="10" points="209.993,741.616 214.23,700 226.947,700 
			227.785,741.117 		"/>
		<polygon fill="#F3EEE2" points="217.525,747 211.106,747 212.266,809 217.462,809 		"/>
		<polygon fill="#F3EEE2" points="227.024,747 220.571,747 219.93,809 225.158,809 		"/>
		<circle fill="none" stroke="#F3EEE2" stroke-miterlimit="10" cx="218.779" cy="680.885" r="12.539"/>
		<polygon fill="#F3EEE2" points="199.158,742.918 194.068,741.544 206.943,704.714 209.821,705.49 		"/>
		<polygon fill="#F3EEE2" points="240.909,742.918 245.998,741.544 233.121,704.714 230.244,705.49 		"/>
		<polygon fill="none" stroke="#F3EEE2" stroke-width="2" stroke-miterlimit="10" points="254.549,784.077 257.637,764 266.909,764 
			267.521,783.828 		"/>
		<polygon fill="#F3EEE2" points="260.04,788 255.361,788 256.206,809 259.993,809 		"/>
		<polygon fill="#F3EEE2" points="266.964,788 262.26,788 261.793,809 265.602,809 		"/>
		<circle fill="none" stroke="#F3EEE2" stroke-width="2" stroke-miterlimit="10" cx="262.833" cy="754.621" r="6.634"/>
		<polygon fill="#F3EEE2" points="246.649,784.795 242.938,783.794 252.326,766.976 254.424,767.542 		"/>
		<polygon fill="#F3EEE2" points="277.084,784.795 280.798,783.794 271.41,766.976 269.311,767.542 		"/>
		<polygon fill="#89515D" points="150.734,749.685 157.18,707 169.897,707 172.703,749.073 		"/>
		<polygon fill="#F3EEE2" points="160.076,754 152.109,754 154.699,809 160.508,809 		"/>
		<polygon fill="#F3EEE2" points="171.76,754 163.793,754 163.217,809 169.025,809 		"/>
		<circle fill="none" stroke="#F3EEE2" stroke-miterlimit="10" cx="161.728" cy="687.781" r="12.538"/>
		<polygon fill="#F3EEE2" points="142.108,749.813 137.017,748.439 149.893,711.609 152.771,712.385 		"/>
		<polygon fill="#F3EEE2" points="183.856,749.813 188.947,748.439 176.07,711.609 173.192,712.385 		"/>
		<rect x="161" y="706" fill="#161B41" width="2" height="6"/>
		<rect x="161" y="716" fill="#161B41" width="2" height="18"/>
		<polygon fill="none" stroke="#F3EEE2" stroke-width="2" stroke-miterlimit="10" points="472.857,749.684 479.301,707 492.02,707 
			494.824,749.073 		"/>
		<polygon fill="#F3EEE2" points="482.197,754 474.233,754 476.822,809 482.629,809 		"/>
		<polygon fill="#F3EEE2" points="493.883,754 485.916,754 485.34,809 491.146,809 		"/>
		<circle fill="none" stroke="#F3EEE2" stroke-miterlimit="10" cx="483.851" cy="687.781" r="12.538"/>
		<polygon fill="#F3EEE2" points="464.23,749.813 459.139,748.439 472.016,711.609 474.894,712.385 		"/>
		<polygon fill="#F3EEE2" points="505.98,749.813 511.07,748.439 498.193,711.609 495.314,712.385 		"/>
		<rect x="483" y="706" fill="#F3EEE2" width="3" height="6"/>
		<rect x="483" y="716" fill="#F3EEE2" width="3" height="18"/>
	</g>
</g>
<g id="Capa_8" display="none">
</g>
<g id="Capa_9">
</g>
<g id="Capa_10">
</g>
<g id="Capa_7" display="none">
</g>
</svg>
