<?xml version="1.0" encoding="utf-8"?>
<!-- Generator: Adobe Illustrator 16.0.0, SVG Export Plug-In . SVG Version: 6.00 Build 0)  -->
<!DOCTYPE svg PUBLIC "-//W3C//DTD SVG 1.1//EN" "http://www.w3.org/Graphics/SVG/1.1/DTD/svg11.dtd">
<svg version="1.1" id="Capa_1" xmlns="http://www.w3.org/2000/svg" xmlns:xlink="http://www.w3.org/1999/xlink" x="0px" y="0px"
	 width="705px" height="557.5px" viewBox="147 252.5 705 557.5" enable-background="new 147 252.5 705 557.5" xml:space="preserve">
<g id="Capa_2">
</g>
<g id="Capa_5">
</g>
<g id="Capa_4">
</g>
<g id="Capa_3">
</g>
<g id="Capa_1_1_">
</g>
<g id="Capa_6">
	<g>
		<rect x="385" y="314" fill="#93908A" width="229" height="382"/>
		<line fill="none" stroke="#161B41" stroke-width="5" stroke-miterlimit="10" x1="614" y1="483.5" x2="385" y2="483.5"/>
		<line fill="none" stroke="#161B41" stroke-width="5" stroke-miterlimit="10" x1="614" y1="590.5" x2="385" y2="590.5"/>
		<rect x="385" y="723" fill="#93908A" width="229" height="88"/>
		<rect x="369.5" y="296.5" fill="#7F302F" stroke="#7F2A37" stroke-miterlimit="10" width="259" height="10"/>
		<g>
			<rect x="437" y="756" fill="#161B41" stroke="#F3EEE2" stroke-width="2" stroke-miterlimit="10" width="125" height="53"/>
			<line fill="none" stroke="#F3EEE2" stroke-width="2" stroke-miterlimit="10" x1="437" y1="768" x2="562" y2="768"/>
		</g>
		<g>
			<g>
				<line fill="none" stroke="#A0AEA6" stroke-width="2" stroke-miterlimit="10" x1="499" y1="810" x2="499" y2="757"/>
			</g>
			<g>
				<line fill="none" stroke="#A0AEA6" stroke-width="2" stroke-miterlimit="10" x1="491" y1="795" x2="491" y2="777"/>
			</g>
			<g>
				<line fill="none" stroke="#A0AEA6" stroke-width="2" stroke-miterlimit="10" x1="506" y1="795" x2="506" y2="777"/>
			</g>
		</g>
		<rect x="623" y="481" fill="#4F1B25" width="229" height="321"/>
		<line fill="none" stroke="#161B41" stroke-width="4" stroke-miterlimit="10" x1="852" y1="590" x2="623" y2="590"/>
		<g>
			<rect x="644" y="614" fill="#161B41" stroke="#F3EEE2" stroke-width="2" stroke-miterlimit="10" width="35" height="52"/>
			<line fill="none" stroke="#F3EEE2" stroke-width="2" stroke-miterlimit="10" x1="645" y1="626" x2="680" y2="626"/>
			<rect x="694" y="614" fill="#161B41" stroke="#F3EEE2" stroke-width="2" stroke-miterlimit="10" width="34" height="52"/>
			<line fill="none" stroke="#F3EEE2" stroke-width="2" stroke-miterlimit="10" x1="695" y1="626" x2="729" y2="626"/>
			<rect x="743" y="614" fill="#161B41" stroke="#F3EEE2" stroke-width="2" stroke-miterlimit="10" width="35" height="52"/>
			<line fill="none" stroke="#F3EEE2" stroke-width="2" stroke-miterlimit="10" x1="744" y1="626" x2="779" y2="626"/>
			<rect x="793" y="614" fill="#161B41" stroke="#F3EEE2" stroke-width="2" stroke-miterlimit="10" width="34" height="52"/>
			<line fill="none" stroke="#F3EEE2" stroke-width="2" stroke-miterlimit="10" x1="794" y1="626" x2="828" y2="626"/>
		</g>
		<g>
			<rect x="644" y="510" fill="#161B41" stroke="#F3EEE2" stroke-width="2" stroke-miterlimit="10" width="35" height="52"/>
			<line fill="none" stroke="#F3EEE2" stroke-width="2" stroke-miterlimit="10" x1="645" y1="522" x2="680" y2="522"/>
			<rect x="694" y="510" fill="#161B41" stroke="#F3EEE2" stroke-width="2" stroke-miterlimit="10" width="34" height="52"/>
			<line fill="none" stroke="#F3EEE2" stroke-width="2" stroke-miterlimit="10" x1="695" y1="522" x2="729" y2="522"/>
			<rect x="743" y="510" fill="#161B41" stroke="#F3EEE2" stroke-width="2" stroke-miterlimit="10" width="35" height="52"/>
			<line fill="none" stroke="#F3EEE2" stroke-width="2" stroke-miterlimit="10" x1="744" y1="522" x2="779" y2="522"/>
			<rect x="793" y="510" fill="#161B41" stroke="#F3EEE2" stroke-width="2" stroke-miterlimit="10" width="34" height="52"/>
			<line fill="none" stroke="#F3EEE2" stroke-width="2" stroke-miterlimit="10" x1="794" y1="522" x2="828" y2="522"/>
		</g>
		<rect x="147" y="481" fill="#4F1B25" width="229" height="321"/>
		<line fill="none" stroke="#161B41" stroke-width="4" stroke-miterlimit="10" x1="376" y1="590" x2="147" y2="590"/>
		<g>
			<rect x="406" y="349" fill="#161B41" stroke="#F3EEE2" stroke-width="2" stroke-miterlimit="10" width="35" height="112"/>
			<line fill="none" stroke="#F3EEE2" stroke-width="2" stroke-miterlimit="10" x1="407" y1="361" x2="442" y2="361"/>
			<rect x="456" y="349" fill="#161B41" stroke="#F3EEE2" stroke-width="2" stroke-miterlimit="10" width="34" height="112"/>
			<line fill="none" stroke="#F3EEE2" stroke-width="2" stroke-miterlimit="10" x1="457" y1="361" x2="491" y2="361"/>
			<rect x="505" y="349" fill="#161B41" stroke="#F3EEE2" stroke-width="2" stroke-miterlimit="10" width="35" height="112"/>
			<line fill="none" stroke="#F3EEE2" stroke-width="2" stroke-miterlimit="10" x1="506" y1="361" x2="541" y2="361"/>
			<rect x="555" y="349" fill="#161B41" stroke="#F3EEE2" stroke-width="2" stroke-miterlimit="10" width="34" height="112"/>
			<line fill="none" stroke="#F3EEE2" stroke-width="2" stroke-miterlimit="10" x1="556" y1="361" x2="590" y2="361"/>
		</g>
		<rect x="463" y="257" fill="#7F2A37" stroke="#F3EEE2" stroke-width="2" stroke-miterlimit="10" width="67" height="66"/>
		<text transform="matrix(1 0 0 1 476.3848 306.4512)" fill="#CCC8B4" font-family="'ArialMT'" font-size="71.8099">+</text>
		
			<text transform="matrix(1 0 0 1 476.3848 306.4512)" fill="none" stroke="#A0AEA6" stroke-width="2" stroke-miterlimit="10" font-family="'ArialMT'" font-size="71.8099">+</text>
		<rect x="365.5" y="703.5" fill="#7F302F" stroke="#7F2A37" stroke-miterlimit="10" width="269" height="11"/>
		<g>
			<rect x="667" y="727" fill="#161B41" stroke="#F3EEE2" stroke-width="2" stroke-miterlimit="10" width="124" height="72"/>
			<line fill="none" stroke="#F3EEE2" stroke-width="2" stroke-miterlimit="10" x1="668" y1="739" x2="792" y2="739"/>
		</g>
		<g>
			<rect x="190" y="728" fill="#161B41" stroke="#F3EEE2" stroke-width="2" stroke-miterlimit="10" width="124" height="72"/>
			<line fill="none" stroke="#F3EEE2" stroke-width="2" stroke-miterlimit="10" x1="192" y1="740" x2="316" y2="740"/>
		</g>
		<g>
			<rect x="167" y="614" fill="#161B41" stroke="#F3EEE2" stroke-width="2" stroke-miterlimit="10" width="35" height="52"/>
			<line fill="none" stroke="#F3EEE2" stroke-width="2" stroke-miterlimit="10" x1="168" y1="626" x2="203" y2="626"/>
			<rect x="217" y="614" fill="#161B41" stroke="#F3EEE2" stroke-width="2" stroke-miterlimit="10" width="34" height="52"/>
			<line fill="none" stroke="#F3EEE2" stroke-width="2" stroke-miterlimit="10" x1="218" y1="626" x2="252" y2="626"/>
			<rect x="266" y="614" fill="#161B41" stroke="#F3EEE2" stroke-width="2" stroke-miterlimit="10" width="35" height="52"/>
			<line fill="none" stroke="#F3EEE2" stroke-width="2" stroke-miterlimit="10" x1="267" y1="626" x2="302" y2="626"/>
			<rect x="316" y="614" fill="#161B41" stroke="#F3EEE2" stroke-width="2" stroke-miterlimit="10" width="34" height="52"/>
			<line fill="none" stroke="#F3EEE2" stroke-width="2" stroke-miterlimit="10" x1="317" y1="626" x2="351" y2="626"/>
		</g>
		<g>
			<rect x="167" y="510" fill="#161B41" stroke="#F3EEE2" stroke-width="2" stroke-miterlimit="10" width="35" height="52"/>
			<line fill="none" stroke="#F3EEE2" stroke-width="2" stroke-miterlimit="10" x1="168" y1="522" x2="203" y2="522"/>
			<rect x="217" y="510" fill="#161B41" stroke="#F3EEE2" stroke-width="2" stroke-miterlimit="10" width="34" height="52"/>
			<line fill="none" stroke="#F3EEE2" stroke-width="2" stroke-miterlimit="10" x1="218" y1="522" x2="252" y2="522"/>
			<rect x="266" y="510" fill="#161B41" stroke="#F3EEE2" stroke-width="2" stroke-miterlimit="10" width="35" height="52"/>
			<line fill="none" stroke="#F3EEE2" stroke-width="2" stroke-miterlimit="10" x1="267" y1="522" x2="302" y2="522"/>
			<rect x="316" y="510" fill="#161B41" stroke="#F3EEE2" stroke-width="2" stroke-miterlimit="10" width="34" height="52"/>
			<line fill="none" stroke="#F3EEE2" stroke-width="2" stroke-miterlimit="10" x1="317" y1="522" x2="351" y2="522"/>
		</g>
		<g>
			<rect x="404" y="614" fill="#161B41" stroke="#F3EEE2" stroke-width="2" stroke-miterlimit="10" width="35" height="52"/>
			<line fill="none" stroke="#F3EEE2" stroke-width="2" stroke-miterlimit="10" x1="405" y1="626" x2="440" y2="626"/>
			<rect x="454" y="614" fill="#161B41" stroke="#F3EEE2" stroke-width="2" stroke-miterlimit="10" width="34" height="52"/>
			<line fill="none" stroke="#F3EEE2" stroke-width="2" stroke-miterlimit="10" x1="455" y1="626" x2="489" y2="626"/>
			<rect x="503" y="614" fill="#161B41" stroke="#F3EEE2" stroke-width="2" stroke-miterlimit="10" width="35" height="52"/>
			<line fill="none" stroke="#F3EEE2" stroke-width="2" stroke-miterlimit="10" x1="504" y1="626" x2="539" y2="626"/>
			<rect x="553" y="614" fill="#161B41" stroke="#F3EEE2" stroke-width="2" stroke-miterlimit="10" width="34" height="52"/>
			<line fill="none" stroke="#F3EEE2" stroke-width="2" stroke-miterlimit="10" x1="554" y1="626" x2="588" y2="626"/>
		</g>
		<g>
			<rect x="404" y="510" fill="#161B41" stroke="#F3EEE2" stroke-width="2" stroke-miterlimit="10" width="35" height="52"/>
			<line fill="none" stroke="#F3EEE2" stroke-width="2" stroke-miterlimit="10" x1="405" y1="522" x2="440" y2="522"/>
			<rect x="454" y="510" fill="#161B41" stroke="#F3EEE2" stroke-width="2" stroke-miterlimit="10" width="34" height="52"/>
			<line fill="none" stroke="#F3EEE2" stroke-width="2" stroke-miterlimit="10" x1="455" y1="522" x2="489" y2="522"/>
			<rect x="503" y="510" fill="#161B41" stroke="#F3EEE2" stroke-width="2" stroke-miterlimit="10" width="35" height="52"/>
			<line fill="none" stroke="#F3EEE2" stroke-width="2" stroke-miterlimit="10" x1="504" y1="522" x2="539" y2="522"/>
			<rect x="553" y="510" fill="#161B41" stroke="#F3EEE2" stroke-width="2" stroke-miterlimit="10" width="34" height="52"/>
			<line fill="none" stroke="#F3EEE2" stroke-width="2" stroke-miterlimit="10" x1="554" y1="522" x2="588" y2="522"/>
		</g>
	</g>
</g>
<g id="Capa_8" display="none">
</g>
<g id="Capa_9">
</g>
<g id="Capa_10">
</g>
<g id="Capa_7" display="none">
</g>
</svg>
