<?xml version="1.0" encoding="utf-8"?>
<!-- Generator: Adobe Illustrator 16.0.0, SVG Export Plug-In . SVG Version: 6.00 Build 0)  -->
<!DOCTYPE svg PUBLIC "-//W3C//DTD SVG 1.1//EN" "http://www.w3.org/Graphics/SVG/1.1/DTD/svg11.dtd">
<svg version="1.1" id="Capa_1" xmlns="http://www.w3.org/2000/svg" xmlns:xlink="http://www.w3.org/1999/xlink" x="0px" y="0px"
	 width="777px" height="523px" viewBox="101 288 777 523" enable-background="new 101 288 777 523" xml:space="preserve">
<g id="Capa_2">
</g>
<g id="Capa_5">
</g>
<g id="Capa_4">
</g>
<g id="Capa_3">
</g>
<g id="Capa_1_1_">
</g>
<g id="Capa_6">
	<g>
		<rect x="102" y="288" fill="#93908A" width="150" height="523"/>
		<rect x="102" y="395" fill="#2A47C4" width="150" height="109"/>
		<rect x="102" y="617" fill="#2A47C4" width="150" height="97"/>
		<line fill="none" stroke="#161B41" stroke-width="4" stroke-miterlimit="10" x1="253" y1="615" x2="101" y2="615"/>
		<line fill="none" stroke="#161B41" stroke-width="4" stroke-miterlimit="10" x1="253" y1="714" x2="101" y2="714"/>
		<g>
			<rect x="120" y="640" fill="#161B41" stroke="#F3EEE2" stroke-width="2" stroke-miterlimit="10" width="21" height="52"/>
			<line fill="none" stroke="#F3EEE2" stroke-width="2" stroke-miterlimit="10" x1="120" y1="652" x2="141" y2="652"/>
			<rect x="151" y="640" fill="#161B41" stroke="#F3EEE2" stroke-width="2" stroke-miterlimit="10" width="21" height="52"/>
			<line fill="none" stroke="#F3EEE2" stroke-width="2" stroke-miterlimit="10" x1="151" y1="652" x2="172" y2="652"/>
			<rect x="181" y="640" fill="#161B41" stroke="#F3EEE2" stroke-width="2" stroke-miterlimit="10" width="22" height="52"/>
			<line fill="none" stroke="#F3EEE2" stroke-width="2" stroke-miterlimit="10" x1="181" y1="652" x2="203" y2="652"/>
			<rect x="213" y="640" fill="#161B41" stroke="#F3EEE2" stroke-width="2" stroke-miterlimit="10" width="21" height="52"/>
			<line fill="none" stroke="#F3EEE2" stroke-width="2" stroke-miterlimit="10" x1="213" y1="652" x2="234" y2="652"/>
		</g>
		<g>
			<rect x="120" y="732" fill="#161B41" stroke="#F3EEE2" stroke-width="2" stroke-miterlimit="10" width="49" height="78"/>
			<rect x="181" y="732" fill="#161B41" stroke="#F3EEE2" stroke-width="2" stroke-miterlimit="10" width="22" height="30"/>
			<rect x="213" y="732" fill="#161B41" stroke="#F3EEE2" stroke-width="2" stroke-miterlimit="10" width="21" height="30"/>
		</g>
		<g>
			<rect x="120" y="532" fill="#161B41" stroke="#F3EEE2" stroke-width="2" stroke-miterlimit="10" width="21" height="53"/>
			<line fill="none" stroke="#F3EEE2" stroke-width="2" stroke-miterlimit="10" x1="120" y1="544" x2="141" y2="544"/>
			<rect x="151" y="532" fill="#161B41" stroke="#F3EEE2" stroke-width="2" stroke-miterlimit="10" width="21" height="53"/>
			<line fill="none" stroke="#F3EEE2" stroke-width="2" stroke-miterlimit="10" x1="151" y1="544" x2="172" y2="544"/>
			<rect x="181" y="532" fill="#161B41" stroke="#F3EEE2" stroke-width="2" stroke-miterlimit="10" width="22" height="53"/>
			<line fill="none" stroke="#F3EEE2" stroke-width="2" stroke-miterlimit="10" x1="181" y1="544" x2="203" y2="544"/>
			<rect x="213" y="532" fill="#161B41" stroke="#F3EEE2" stroke-width="2" stroke-miterlimit="10" width="21" height="53"/>
			<line fill="none" stroke="#F3EEE2" stroke-width="2" stroke-miterlimit="10" x1="213" y1="544" x2="234" y2="544"/>
		</g>
		<line fill="none" stroke="#161B41" stroke-width="4" stroke-miterlimit="10" x1="253" y1="505" x2="101" y2="505"/>
		<g>
			<rect x="120" y="422" fill="#161B41" stroke="#F3EEE2" stroke-width="2" stroke-miterlimit="10" width="21" height="53"/>
			<line fill="none" stroke="#F3EEE2" stroke-width="2" stroke-miterlimit="10" x1="120" y1="434" x2="141" y2="434"/>
			<rect x="151" y="422" fill="#161B41" stroke="#F3EEE2" stroke-width="2" stroke-miterlimit="10" width="21" height="53"/>
			<line fill="none" stroke="#F3EEE2" stroke-width="2" stroke-miterlimit="10" x1="151" y1="434" x2="172" y2="434"/>
			<rect x="181" y="422" fill="#161B41" stroke="#F3EEE2" stroke-width="2" stroke-miterlimit="10" width="22" height="53"/>
			<line fill="none" stroke="#F3EEE2" stroke-width="2" stroke-miterlimit="10" x1="181" y1="434" x2="203" y2="434"/>
			<rect x="213" y="422" fill="#161B41" stroke="#F3EEE2" stroke-width="2" stroke-miterlimit="10" width="21" height="53"/>
			<line fill="none" stroke="#F3EEE2" stroke-width="2" stroke-miterlimit="10" x1="213" y1="434" x2="234" y2="434"/>
		</g>
		<line fill="none" stroke="#161B41" stroke-width="4" stroke-miterlimit="10" x1="253" y1="395" x2="101" y2="395"/>
		<g>
			<rect x="120" y="312" fill="#161B41" stroke="#F3EEE2" stroke-width="2" stroke-miterlimit="10" width="21" height="53"/>
			<line fill="none" stroke="#F3EEE2" stroke-width="2" stroke-miterlimit="10" x1="120" y1="324" x2="141" y2="324"/>
			<rect x="151" y="312" fill="#161B41" stroke="#F3EEE2" stroke-width="2" stroke-miterlimit="10" width="21" height="53"/>
			<line fill="none" stroke="#F3EEE2" stroke-width="2" stroke-miterlimit="10" x1="151" y1="324" x2="172" y2="324"/>
			<rect x="181" y="312" fill="#161B41" stroke="#F3EEE2" stroke-width="2" stroke-miterlimit="10" width="22" height="53"/>
			<line fill="none" stroke="#F3EEE2" stroke-width="2" stroke-miterlimit="10" x1="181" y1="324" x2="203" y2="324"/>
			<rect x="213" y="312" fill="#161B41" stroke="#F3EEE2" stroke-width="2" stroke-miterlimit="10" width="21" height="53"/>
			<line fill="none" stroke="#F3EEE2" stroke-width="2" stroke-miterlimit="10" x1="213" y1="324" x2="234" y2="324"/>
		</g>
		<line fill="none" stroke="#F3EEE2" stroke-width="2" stroke-miterlimit="10" x1="135" y1="746" x2="155" y2="746"/>
		<rect x="281" y="513" fill="#93908A" width="150" height="298"/>
		<line fill="none" stroke="#161B41" stroke-width="4" stroke-miterlimit="10" x1="432" y1="615" x2="280" y2="615"/>
		<line fill="none" stroke="#161B41" stroke-width="4" stroke-miterlimit="10" x1="432" y1="714" x2="280" y2="714"/>
		<g>
			<rect x="292" y="640" fill="#161B41" stroke="#F3EEE2" stroke-width="2" stroke-miterlimit="10" width="128" height="52"/>
			<line fill="none" stroke="#F3EEE2" stroke-width="2" stroke-miterlimit="10" x1="292" y1="652" x2="420" y2="652"/>
		</g>
		<g>
			<rect x="292" y="542" fill="#161B41" stroke="#F3EEE2" stroke-width="2" stroke-miterlimit="10" width="128" height="53"/>
			<line fill="none" stroke="#F3EEE2" stroke-width="2" stroke-miterlimit="10" x1="292" y1="554" x2="420" y2="554"/>
		</g>
		<line fill="none" stroke="#161B41" stroke-width="4" stroke-miterlimit="10" x1="432" y1="522" x2="280" y2="522"/>
		<rect x="566" y="681" fill="#93908A" width="312" height="127"/>
		<polygon fill="#2A47C4" points="859.485,482 826.203,482 818.395,676 866.318,676 		"/>
		<line fill="none" stroke="#161B41" stroke-width="4" stroke-miterlimit="10" x1="878" y1="694" x2="566" y2="694"/>
		<polyline fill="#2A47C4" points="641.26,673.773 563.549,602.45 564.166,673.165 		"/>
		<polyline fill="#2A47C4" points="722.034,674.477 646.521,603.173 647.137,673.888 		"/>
		<polyline fill="#2A47C4" points="803.121,675.182 727.607,603.879 728.224,674.594 		"/>
		<rect x="804" y="666" fill="#2A47C4" width="74" height="10"/>
		<rect x="512" y="755" fill="#A0AEA6" width="5" height="46"/>
		<path fill="#93908A" stroke="#161B41" stroke-width="3" stroke-miterlimit="10" d="M483,716c0-39.765,12.943-138,28.909-138
			s28.909,98.235,28.909,138s-12.943,42-28.909,42S483,755.765,483,716z"/>
		<rect x="489" y="800" fill="#A0AEA6" width="49" height="8"/>
		<rect x="552" y="755" fill="#A0AEA6" width="5" height="46"/>
		<path fill="#93908A" stroke="#161B41" stroke-width="3" stroke-miterlimit="10" d="M523,688.658
			c0-65.652,12.943-227.84,28.909-227.84s28.909,162.188,28.909,227.84c0,65.65-12.943,69.342-28.909,69.342S523,754.31,523,688.658
			z"/>
		<rect x="529" y="800" fill="#A0AEA6" width="49" height="8"/>
		<rect x="281" y="716" fill="#2A47C4" width="150" height="95"/>
		<rect x="281" y="510" fill="#2A47C4" width="150" height="10"/>
		<g>
			<g>
				<line fill="none" stroke="#F3EEE2" stroke-width="2" stroke-miterlimit="10" x1="354" y1="808" x2="354" y2="733"/>
			</g>
			<g>
				<line fill="none" stroke="#F3EEE2" stroke-width="2" stroke-miterlimit="10" x1="340" y1="782" x2="340" y2="764"/>
			</g>
			<g>
				<line fill="none" stroke="#F3EEE2" stroke-width="2" stroke-miterlimit="10" x1="366" y1="782" x2="366" y2="764"/>
			</g>
		</g>
		<g>
			<rect x="304" y="733" fill="#161B41" stroke="#F3EEE2" stroke-width="2" stroke-miterlimit="10" width="103" height="77"/>
		</g>
		<g>
			<rect x="708" y="715" fill="#161B41" stroke="#F3EEE2" stroke-width="2" stroke-miterlimit="10" width="30" height="24"/>
			<line fill="none" stroke="#F3EEE2" stroke-width="2" stroke-miterlimit="10" x1="708" y1="721" x2="738" y2="721"/>
			<rect x="752" y="715" fill="#161B41" stroke="#F3EEE2" stroke-width="2" stroke-miterlimit="10" width="29" height="24"/>
			<line fill="none" stroke="#F3EEE2" stroke-width="2" stroke-miterlimit="10" x1="752" y1="721" x2="781" y2="721"/>
			<rect x="793" y="715" fill="#161B41" stroke="#F3EEE2" stroke-width="2" stroke-miterlimit="10" width="31" height="24"/>
			<line fill="none" stroke="#F3EEE2" stroke-width="2" stroke-miterlimit="10" x1="793" y1="721" x2="824" y2="721"/>
			<rect x="838" y="715" fill="#161B41" stroke="#F3EEE2" stroke-width="2" stroke-miterlimit="10" width="29" height="24"/>
			<line fill="none" stroke="#F3EEE2" stroke-width="2" stroke-miterlimit="10" x1="838" y1="721" x2="867" y2="721"/>
		</g>
	</g>
</g>
<g id="Capa_8" display="none">
</g>
<g id="Capa_9">
</g>
<g id="Capa_10">
</g>
<g id="Capa_7" display="none">
</g>
</svg>
