<?xml version="1.0" encoding="utf-8"?>
<!-- Generator: Adobe Illustrator 16.0.0, SVG Export Plug-In . SVG Version: 6.00 Build 0)  -->
<!DOCTYPE svg PUBLIC "-//W3C//DTD SVG 1.1//EN" "http://www.w3.org/Graphics/SVG/1.1/DTD/svg11.dtd">
<svg version="1.1" id="Capa_1" xmlns="http://www.w3.org/2000/svg" xmlns:xlink="http://www.w3.org/1999/xlink" x="0px" y="0px"
	 width="701px" height="319px" viewBox="156 492 701 319" enable-background="new 156 492 701 319" xml:space="preserve">
<g id="Capa_2">
</g>
<g id="Capa_5">
</g>
<g id="Capa_4">
</g>
<g id="Capa_3">
</g>
<g id="Capa_1_1_">
</g>
<g id="Capa_6">
	<g>
		<rect x="507" y="492" fill="#1E6399" width="70" height="14"/>
		<rect x="507" y="506" fill="#F3EEE2" width="70" height="14"/>
		<rect x="507" y="520" fill="#1E6399" width="70" height="14"/>
		<rect x="178" y="713" fill="#173D6B" width="227" height="96"/>
		<rect x="178" y="616" fill="#173D6B" width="227" height="85"/>
		<rect x="610" y="616" fill="#173D6B" width="227" height="85"/>
		<rect x="610" y="713" fill="#173D6B" width="227" height="96"/>
		<polygon fill="#2F7BEA" points="598,598 415,599 415,811 598,811 		"/>
		<g>
			<rect x="446" y="727" fill="#161B41" stroke="#F3EEE2" stroke-width="2" stroke-miterlimit="10" width="125" height="83"/>
			<line fill="none" stroke="#F3EEE2" stroke-width="2" stroke-miterlimit="10" x1="446" y1="739" x2="571" y2="739"/>
		</g>
		<g>
			<rect x="446" y="629" fill="#161B41" stroke="#F3EEE2" stroke-width="2" stroke-miterlimit="10" width="125" height="57"/>
			<line fill="none" stroke="#F3EEE2" stroke-width="2" stroke-miterlimit="10" x1="446" y1="641" x2="571" y2="641"/>
		</g>
		<g>
			<g>
				<line fill="none" stroke="#A0AEA6" stroke-width="2" stroke-miterlimit="10" x1="508" y1="811" x2="508" y2="726"/>
			</g>
			<g>
				<line fill="none" stroke="#A0AEA6" stroke-width="2" stroke-miterlimit="10" x1="500" y1="779" x2="500" y2="761"/>
			</g>
			<g>
				<line fill="none" stroke="#A0AEA6" stroke-width="2" stroke-miterlimit="10" x1="515" y1="779" x2="515" y2="761"/>
			</g>
		</g>
		<rect x="156" y="579" fill="#2F7BEA" width="701" height="28"/>
		<ellipse fill="#F3EEE2" cx="508.305" cy="690.498" rx="14.942" ry="21.504"/>
		<line fill="none" stroke="#F3EEE2" stroke-width="2" stroke-miterlimit="10" x1="507" y1="580" x2="507" y2="492"/>
		<g>
			<rect x="633" y="727" fill="#161B41" stroke="#F3EEE2" stroke-width="2" stroke-miterlimit="10" width="35" height="52"/>
			<line fill="none" stroke="#F3EEE2" stroke-width="2" stroke-miterlimit="10" x1="633" y1="739" x2="668" y2="739"/>
			<rect x="683" y="727" fill="#161B41" stroke="#F3EEE2" stroke-width="2" stroke-miterlimit="10" width="34" height="52"/>
			<line fill="none" stroke="#F3EEE2" stroke-width="2" stroke-miterlimit="10" x1="683" y1="739" x2="717" y2="739"/>
			<rect x="730" y="727" fill="#161B41" stroke="#F3EEE2" stroke-width="2" stroke-miterlimit="10" width="35" height="52"/>
			<line fill="none" stroke="#F3EEE2" stroke-width="2" stroke-miterlimit="10" x1="730" y1="739" x2="765" y2="739"/>
			<rect x="779" y="727" fill="#161B41" stroke="#F3EEE2" stroke-width="2" stroke-miterlimit="10" width="35" height="52"/>
			<line fill="none" stroke="#F3EEE2" stroke-width="2" stroke-miterlimit="10" x1="779" y1="739" x2="814" y2="739"/>
		</g>
		<g>
			<rect x="633" y="633" fill="#161B41" stroke="#F3EEE2" stroke-width="2" stroke-miterlimit="10" width="35" height="52"/>
			<line fill="none" stroke="#F3EEE2" stroke-width="2" stroke-miterlimit="10" x1="633" y1="645" x2="668" y2="645"/>
			<rect x="683" y="633" fill="#161B41" stroke="#F3EEE2" stroke-width="2" stroke-miterlimit="10" width="34" height="52"/>
			<line fill="none" stroke="#F3EEE2" stroke-width="2" stroke-miterlimit="10" x1="683" y1="645" x2="717" y2="645"/>
			<rect x="730" y="633" fill="#161B41" stroke="#F3EEE2" stroke-width="2" stroke-miterlimit="10" width="35" height="52"/>
			<line fill="none" stroke="#F3EEE2" stroke-width="2" stroke-miterlimit="10" x1="730" y1="645" x2="765" y2="645"/>
			<rect x="779" y="633" fill="#161B41" stroke="#F3EEE2" stroke-width="2" stroke-miterlimit="10" width="35" height="52"/>
			<line fill="none" stroke="#F3EEE2" stroke-width="2" stroke-miterlimit="10" x1="779" y1="645" x2="814" y2="645"/>
		</g>
		<g>
			<rect x="204" y="727" fill="#161B41" stroke="#F3EEE2" stroke-width="2" stroke-miterlimit="10" width="35" height="52"/>
			<line fill="none" stroke="#F3EEE2" stroke-width="2" stroke-miterlimit="10" x1="204" y1="739" x2="239" y2="739"/>
			<rect x="254" y="727" fill="#161B41" stroke="#F3EEE2" stroke-width="2" stroke-miterlimit="10" width="34" height="52"/>
			<line fill="none" stroke="#F3EEE2" stroke-width="2" stroke-miterlimit="10" x1="254" y1="739" x2="288" y2="739"/>
			<rect x="301" y="727" fill="#161B41" stroke="#F3EEE2" stroke-width="2" stroke-miterlimit="10" width="35" height="52"/>
			<line fill="none" stroke="#F3EEE2" stroke-width="2" stroke-miterlimit="10" x1="301" y1="739" x2="336" y2="739"/>
			<rect x="350" y="727" fill="#161B41" stroke="#F3EEE2" stroke-width="2" stroke-miterlimit="10" width="35" height="52"/>
			<line fill="none" stroke="#F3EEE2" stroke-width="2" stroke-miterlimit="10" x1="350" y1="739" x2="385" y2="739"/>
		</g>
		<g>
			<rect x="204" y="633" fill="#161B41" stroke="#F3EEE2" stroke-width="2" stroke-miterlimit="10" width="35" height="52"/>
			<line fill="none" stroke="#F3EEE2" stroke-width="2" stroke-miterlimit="10" x1="204" y1="645" x2="239" y2="645"/>
			<rect x="254" y="633" fill="#161B41" stroke="#F3EEE2" stroke-width="2" stroke-miterlimit="10" width="34" height="52"/>
			<line fill="none" stroke="#F3EEE2" stroke-width="2" stroke-miterlimit="10" x1="254" y1="645" x2="288" y2="645"/>
			<rect x="301" y="633" fill="#161B41" stroke="#F3EEE2" stroke-width="2" stroke-miterlimit="10" width="35" height="52"/>
			<line fill="none" stroke="#F3EEE2" stroke-width="2" stroke-miterlimit="10" x1="301" y1="645" x2="336" y2="645"/>
			<rect x="350" y="633" fill="#161B41" stroke="#F3EEE2" stroke-width="2" stroke-miterlimit="10" width="35" height="52"/>
			<line fill="none" stroke="#F3EEE2" stroke-width="2" stroke-miterlimit="10" x1="350" y1="645" x2="385" y2="645"/>
		</g>
	</g>
</g>
<g id="Capa_8" display="none">
</g>
<g id="Capa_9">
</g>
<g id="Capa_10">
</g>
<g id="Capa_7" display="none">
</g>
</svg>
