<?xml version="1.0" encoding="utf-8"?>
<!-- Generator: Adobe Illustrator 16.0.0, SVG Export Plug-In . SVG Version: 6.00 Build 0)  -->
<!DOCTYPE svg PUBLIC "-//W3C//DTD SVG 1.1//EN" "http://www.w3.org/Graphics/SVG/1.1/DTD/svg11.dtd">
<svg version="1.1" id="Capa_1" xmlns="http://www.w3.org/2000/svg" xmlns:xlink="http://www.w3.org/1999/xlink" x="0px" y="0px"
	 width="400px" height="276px" viewBox="0 64.616 400 276" enable-background="new 0 64.616 400 276" xml:space="preserve">
<g id="Capa_11">
</g>
<g id="Capa_2">
</g>
<g id="Capa_5">
</g>
<g id="Capa_4">
</g>
<g id="Capa_3">
</g>
<g id="Capa_1_1_">
</g>
<g id="Capa_6">
</g>
<g id="Capa_8" display="none">
</g>
<g id="Capa_9">
</g>
<g id="Capa_10">
	<rect x="134.353" y="84.616" fill="#FFFFFF" width="130" height="5"/>
	<g>
		<path fill="#4F1B25" d="M142.353,296.616v44h56h2h57v-44H142.353z M168.353,313.616h30v5h-30V313.616z M168.353,337.616v-17h30v17
			H168.353z M231.354,337.616h-31v-17h31V337.616z M231.354,318.616h-31v-5h31V318.616z"/>
		<rect x="194.353" y="323.616" fill="#4F1B25" width="2" height="9"/>
		<rect x="202.354" y="323.616" fill="#4F1B25" width="2" height="9"/>
	</g>
	<path fill="#4F1B25" d="M261.354,175.616v53h114.999v-53H261.354z M321.353,190.616h18v5h-18V190.616z M272.354,190.616h17v5h-17
		V190.616z M272.354,216.616v-19h17v19H272.354z M314.353,216.616h-16.999v-19h16.999V216.616z M314.353,195.616h-16.999v-5h16.999
		V195.616z M321.353,216.616v-19h18v19H321.353z M363.353,216.616h-17v-19h17V216.616z M363.353,195.616h-17v-5h17V195.616z"/>
	<path fill="#4F1B25" d="M142.353,175.616v53h115v-53H142.353z M202.354,190.616h18v5h-18V190.616z M153.353,190.616h17v5h-17
		V190.616z M153.353,216.616v-19h17v19H153.353z M195.353,216.616h-17v-19h17V216.616z M195.353,195.616h-17v-5h17V195.616z
		 M202.354,216.616v-19h18v19H202.354z M244.354,216.616h-17v-19h17V216.616z M244.354,195.616h-17v-5h17V195.616z"/>
	<path fill="#4F1B25" d="M142.353,232.616v52h115v-52H142.353z M202.354,247.616h18v5h-18V247.616z M153.353,247.616h17v5h-17
		V247.616z M153.353,273.616v-19h17v19H153.353z M195.353,273.616h-17v-19h17V273.616z M195.353,252.616h-17v-5h17V252.616z
		 M202.354,273.616v-19h18v19H202.354z M244.354,273.616h-17v-19h17V273.616z M244.354,252.616h-17v-5h17V252.616z"/>
	<path fill="#4F1B25" d="M142.353,92.616v79h115v-79H142.353z M244.354,109.616v5h-17v-5H244.354z M153.353,109.616h17v5h-17
		V109.616z M153.353,165.616v-49h17v49H153.353z M195.353,165.616h-17v-49h17V165.616z M195.353,114.616h-17v-5h17V114.616z
		 M220.354,165.616h-18v-49h18V165.616z M220.354,114.616h-18v-5h18V114.616z M227.354,165.616v-49h17v49H227.354z"/>
	<g>
		<rect x="181.353" y="65.616" fill="#7F2A37" width="34" height="33"/>
		<path fill="#F3EEE2" d="M216.354,99.616h-36v-35h36V99.616z M182.353,97.616h32v-31h-32V97.616z"/>
	</g>
	<g>
		<path fill="#FFFFFF" d="M208.098,80.194v3.842h-7.145v7.146h-3.842v-7.146h-7.145v-3.842h7.145V73.05h3.842v7.145L208.098,80.194
			L208.098,80.194z"/>
	</g>
	<path fill="#4F1B25" d="M261.354,232.616v108h114.999v-108H261.354z M321.353,242.616h18v5h-18v2h18v19h-18V242.616z
		 M297.354,242.616h16.999v5h-16.999V242.616z M297.354,249.616h16.999v19h-16.999V249.616z M272.354,242.616h17v5h-17V242.616z
		 M272.354,249.616h17v19h-17V249.616z M345.353,337.616h-61.999v-32h61.999V337.616z M345.353,303.616h-61.999v-5h61.999V303.616z
		 M346.353,268.616v-26h17v5h-18v2h18v19H346.353z"/>
	<path fill="#4F1B25" d="M22.353,175.616v53h115v-53H22.353z M82.353,190.616h18v5h-18V190.616z M33.353,190.616h17v5h-17V190.616z
		 M33.353,216.616v-19h17v19H33.353z M75.353,216.616h-17v-19h17V216.616z M75.353,195.616h-17v-5h17V195.616z M82.353,216.616v-19
		h18v19H82.353z M124.353,216.616h-17v-19h17V216.616z M124.353,195.616h-17v-5h17V195.616z"/>
	<path fill="#4F1B25" d="M22.353,232.616v108h115v-108H22.353z M82.353,242.616h18v5h-18v2h18v19h-18V242.616z M58.353,242.616h17v5
		h-17V242.616z M58.353,249.616h17v19h-17V249.616z M33.353,242.616h17v5h-17V242.616z M33.353,249.616h17v19h-17V249.616z
		 M106.353,337.616h-62v-32h62V337.616z M106.353,303.616h-62v-5h62V303.616z M107.353,268.616v-26h17v5h-18v2h18v19H107.353z"/>
	<g>
		<rect x="132.353" y="287.616" fill="#FFFFFF" width="135" height="6"/>
	</g>
</g>
<g id="Capa_7" display="none">
</g>
</svg>
