<?xml version="1.0" encoding="utf-8"?>
<!-- Generator: Adobe Illustrator 16.0.0, SVG Export Plug-In . SVG Version: 6.00 Build 0)  -->
<!DOCTYPE svg PUBLIC "-//W3C//DTD SVG 1.1//EN" "http://www.w3.org/Graphics/SVG/1.1/DTD/svg11.dtd">
<svg version="1.1" id="Capa_1" xmlns="http://www.w3.org/2000/svg" xmlns:xlink="http://www.w3.org/1999/xlink" x="0px" y="0px"
	 width="400px" height="276.5px" viewBox="0 63.5 400 276.5" enable-background="new 0 63.5 400 276.5" xml:space="preserve">
<g id="Capa_11">
</g>
<g id="Capa_2">
</g>
<g id="Capa_5">
</g>
<g id="Capa_4">
</g>
<g id="Capa_3">
</g>
<g id="Capa_1_1_">
</g>
<g id="Capa_6">
</g>
<g id="Capa_8" display="none">
</g>
<g id="Capa_9">
</g>
<g id="Capa_10">
	<g>
		<g>
			<path fill="#66313A" d="M251,263v77h123v-77H251z M267,334v-47h44v47H267z M358,334h-45v-47h45V334z M358,285h-45v-16h-2v16h-44
				v-9h91V285z"/>
			<rect x="306" y="302" fill="#89515D" width="2" height="15"/>
			<rect x="316" y="302" fill="#89515D" width="2" height="15"/>
		</g>
		<path fill="#A0AEA6" d="M375,77h-1v-1H250v1v1v4v1v1h124v-1h1V77z M263,78h3v4h-3V78z M261,82h-4v-4h4V82z M268,78h3v4h-3V78z
			 M273,78h4v4h-4V78z M279,78h3v4h-3V78z M284,78h4v4h-4V78z M290,78h3v4h-3V78z M295,78h3v4h-3V78z M300,78h4v4h-4V78z M306,78h3
			v4h-3V78z M311,78h3v4h-3V78z M316,78h3v4h-3V78z M321,78h4v4h-4V78z M327,78h3v4h-3V78z M332,78h4v4h-4V78z M338,78h3v4h-3V78z
			 M343,78h3v4h-3V78z M348,78h4v4h-4V78z M354,78h3v4h-3V78z M359,78h3v4h-3V78z M364,78h4v4h-4V78z M370,78h3v4h-3V78z M252,78h3
			v4h-3V78z"/>
		<path fill="#89515D" d="M251,87v67h123V87H251z M264.059,142.01l0.047-25.17L283,116.869v-0.299l-0.048,25.469L264.059,142.01z
			 M282.915,114.869L264,114.84v0.693l0.05-7.545l18.873,0.027L282.915,114.869z M290.739,142.051l0.024-25.17l18.221,0.027
			l-0.026,25.17L290.739,142.051z M308.987,114.908l-18.22-0.027l-0.002,1.164l0.008-8.016l18.222,0.027L308.987,114.908z
			 M319.373,142.025l-0.11-25.172l18.737,0.03v-0.304l0.109,25.476L319.373,142.025z M338.072,114.883L319,114.854v0.693
			l0.207-7.545l18.873,0.029L338.072,114.883z M346.053,142.066l-0.124-25.172L364,116.922v-0.303l0.124,25.473L346.053,142.066z
			 M364.302,114.922l-18.22-0.027l-0.002,1.696l0.009-8.548l18.221,0.027L364.302,114.922z"/>
		<path fill="#89515D" d="M251,157v50h123v-50H251z M264.059,195.01l0.047-15.17L283,179.869v-0.299l-0.048,15.469L264.059,195.01z
			 M282.915,177.869L264,177.84v0.693l0.05-7.545l18.873,0.027L282.915,177.869z M290.739,195.051l0.024-15.17l18.221,0.027
			l-0.026,15.17L290.739,195.051z M308.987,177.908l-18.22-0.027l-0.002,1.164l0.008-8.016l18.222,0.027L308.987,177.908z
			 M319.373,195.025l-0.11-15.172l18.737,0.03v-0.304l0.109,15.476L319.373,195.025z M338.072,177.883L319,177.854v0.693
			l0.207-7.545l18.873,0.029L338.072,177.883z M346.053,195.066l-0.124-15.172L364,179.922v-0.303l0.124,15.473L346.053,195.066z
			 M364.302,177.922l-18.22-0.027l-0.002,1.696l0.009-8.548l18.221,0.027L364.302,177.922z"/>
		<path fill="#89515D" d="M251,210v50h123v-50H251z M264.059,247.677l0.047-15.17L283,232.536v-0.3l-0.048,15.47L264.059,247.677z
			 M282.915,230.536L264,230.507v0.693l0.05-7.545l18.873,0.026L282.915,230.536z M290.739,247.718l0.024-15.17l18.221,0.027
			l-0.026,15.17L290.739,247.718z M308.987,230.575l-18.22-0.027l-0.002,1.164l0.008-8.017l18.222,0.027L308.987,230.575z
			 M319.373,247.691l-0.11-15.172L338,232.55v-0.304l0.109,15.477L319.373,247.691z M338.072,230.55L319,230.521v0.692l0.207-7.545
			l18.873,0.029L338.072,230.55z M346.053,247.732l-0.124-15.172L364,232.589v-0.303l0.124,15.473L346.053,247.732z
			 M364.302,230.589l-18.22-0.026l-0.002,1.695l0.009-8.548l18.221,0.026L364.302,230.589z"/>
		<ellipse fill="#F3EEE2" cx="314.045" cy="83.537" rx="9.863" ry="15.951"/>
		<g>
			<rect x="136" y="321" fill="#F3EEE2" width="3" height="18"/>
		</g>
		<g>
			<rect x="141" y="321" fill="#F3EEE2" width="3" height="18"/>
		</g>
		<g>
			<path fill="#F3EEE2" d="M140.992,288.271c-3.215,0-5.83-2.614-5.83-5.828c0-3.215,2.615-5.828,5.83-5.828
				c3.214,0,5.828,2.613,5.828,5.828C146.82,285.657,144.206,288.271,140.992,288.271z M140.992,277.615
				c-2.663,0-4.83,2.166-4.83,4.828s2.167,4.828,4.83,4.828c2.662,0,4.828-2.166,4.828-4.828S143.654,277.615,140.992,277.615z"/>
		</g>
		<g>
			<path fill="#F3EEE2" d="M149.656,320h-17.16l4.302-12.113L137.503,290h8.013l0.649,17.479L149.656,320z M135.329,318h11.693
				l-2.852-10.328L143.589,292h-4.163l-0.693,16.413L135.329,318z"/>
		</g>
		<g>
			<polygon fill="#89515D" points="106.969,309.333 110.19,288 116.551,288 117.953,309.031 			"/>
		</g>
		<g>
			<polygon fill="#F3EEE2" points="130.867,307.816 128.322,307.129 135.074,291.537 136.512,291.924 			"/>
		</g>
		<g>
			<polygon fill="#F3EEE2" points="151.742,307.816 154.287,307.129 148.162,291.537 146.725,291.924 			"/>
		</g>
		<g>
			<rect x="170" y="312" fill="#F3EEE2" width="2" height="27"/>
		</g>
		<g>
			<rect x="175" y="312" fill="#F3EEE2" width="2" height="27"/>
		</g>
		<g>
			<path fill="#F3EEE2" d="M174.785,281.063c-3.214,0-5.828-2.614-5.828-5.828c0-3.215,2.614-5.83,5.828-5.83
				c3.215,0,5.83,2.615,5.83,5.83C180.615,278.448,178,281.063,174.785,281.063z M174.785,270.404c-2.662,0-4.828,2.166-4.828,4.83
				c0,2.662,2.166,4.828,4.828,4.828c2.663,0,4.83-2.166,4.83-4.828C179.615,272.571,177.448,270.404,174.785,270.404z"/>
		</g>
		<g>
			<polygon fill="#89515D" points="182.133,310 167.707,310 172.258,284 178.346,284 			"/>
		</g>
		<g>
			<polygon fill="#F3EEE2" points="164.661,303.428 162.115,302.74 168.867,284.326 170.307,284.715 			"/>
		</g>
		<g>
			<polygon fill="#F3EEE2" points="187.104,303.115 189.648,302.428 181.957,284.326 180.518,284.715 			"/>
		</g>
		<g>
			<rect x="219" y="331" fill="#F3EEE2" width="2" height="8"/>
		</g>
		<g>
			<rect x="224" y="331" fill="#F3EEE2" width="3" height="8"/>
		</g>
		<g>
			<path fill="#F3EEE2" d="M224.383,308.201c-2.656,0-4.816-2.16-4.816-4.814c0-2.656,2.162-4.818,4.816-4.818
				c2.655,0,4.816,2.162,4.816,4.818C229.199,306.041,227.039,308.201,224.383,308.201z M224.383,299.568
				c-2.104,0-3.816,1.713-3.816,3.817s1.713,3.814,3.816,3.814s3.816-1.712,3.816-3.814
				C228.199,301.281,226.486,299.568,224.383,299.568z"/>
		</g>
		<g>
			<polygon fill="#89515D" points="230.678,328 217.695,328 221.791,311 227.271,311 			"/>
		</g>
		<g>
			<polygon fill="#F3EEE2" points="217.139,320.041 214.594,319.355 218.211,310.031 219.65,310.418 			"/>
		</g>
		<g>
			<polygon fill="#F3EEE2" points="233.313,321.609 235.857,320.922 231.301,310.031 229.861,310.418 			"/>
		</g>
		<g>
			<polygon fill="#F3EEE2" points="111.639,311 107.656,311 108.951,339 111.855,339 			"/>
		</g>
		<g>
			<polygon fill="#F3EEE2" points="117.48,311 113.498,311 113.211,339 116.113,339 			"/>
		</g>
		<g>
			<path fill="#F3EEE2" d="M112.467,285.137c-3.733,0-6.77-3.037-6.77-6.77c0-3.731,3.037-6.768,6.77-6.768
				c3.731,0,6.768,3.035,6.768,6.768C119.234,282.1,116.198,285.137,112.467,285.137z M112.467,272.6
				c-3.181,0-5.77,2.588-5.77,5.769c0,3.182,2.588,5.771,5.77,5.771c3.18,0,5.768-2.589,5.768-5.771
				C118.234,275.188,115.647,272.6,112.467,272.6z"/>
		</g>
		<g>
			<polygon fill="#F3EEE2" points="102.654,309.383 100.109,308.697 106.549,290.281 107.987,290.67 			"/>
		</g>
		<g>
			<polygon fill="#F3EEE2" points="123.529,309.383 126.075,308.697 119.637,290.281 118.199,290.67 			"/>
		</g>
		<g>
			<path fill="#F3EEE2" d="M59.942,306.096L62.268,283h8.242l0.459,22.636L59.942,306.096z M64.076,285l-1.913,19.001l6.767-0.28
				L68.549,285H64.076z"/>
		</g>
		<g>
			<polygon fill="#F3EEE2" points="64.818,308 61.609,308 62.189,339 64.787,339 			"/>
		</g>
		<g>
			<polygon fill="#F3EEE2" points="69.568,308 66.342,308 66.021,339 68.635,339 			"/>
		</g>
		<g>
			<path fill="#F3EEE2" d="M65.445,281.689c-3.733,0-6.77-3.037-6.77-6.771s3.037-6.771,6.77-6.771c3.733,0,6.77,3.037,6.77,6.771
				S69.178,281.689,65.445,281.689z M65.445,269.15c-3.181,0-5.77,2.588-5.77,5.77s2.588,5.77,5.77,5.77
				c3.182,0,5.77-2.588,5.77-5.77S68.626,269.15,65.445,269.15z"/>
		</g>
		<g>
			<polygon fill="#F3EEE2" points="55.635,305.936 53.09,305.25 59.527,286.834 60.967,287.223 			"/>
		</g>
		<g>
			<polygon fill="#F3EEE2" points="76.511,305.936 79.055,305.25 72.617,286.834 71.178,287.223 			"/>
		</g>
		<g>
			<path fill="#F3EEE2" d="M82.162,327.323L84.014,315h6.467l0.365,11.995L82.162,327.323z M85.736,317l-1.237,8.232l4.288-0.162
				L88.541,317H85.736z"/>
		</g>
		<g>
			<polygon fill="#F3EEE2" points="86.076,328 83.736,328 84.159,339 86.053,339 			"/>
		</g>
		<g>
			<polygon fill="#F3EEE2" points="89.538,328 87.186,328 86.953,339 88.857,339 			"/>
		</g>
		<g>
			<path fill="#F3EEE2" d="M87.475,313.605c-2.105,0-3.818-1.713-3.818-3.818c0-2.104,1.713-3.816,3.818-3.816
				c2.104,0,3.814,1.713,3.814,3.816C91.289,311.893,89.578,313.605,87.475,313.605z M87.475,306.971
				c-1.554,0-2.818,1.264-2.818,2.816c0,1.554,1.264,2.818,2.818,2.818c1.552,0,2.814-1.266,2.814-2.818
				S89.026,306.971,87.475,306.971z"/>
		</g>
		<g>
			<polygon fill="#F3EEE2" points="79.381,326.875 77.525,326.375 82.219,317.965 83.268,318.248 			"/>
		</g>
		<g>
			<polygon fill="#F3EEE2" points="94.598,326.875 96.455,326.375 91.762,317.965 90.711,318.248 			"/>
		</g>
		<g>
			<polygon fill="#89515D" points="31.424,309.333 34.646,288 41.005,288 42.408,309.031 			"/>
		</g>
		<g>
			<polygon fill="#F3EEE2" points="36.094,311 32.111,311 33.406,339 36.311,339 			"/>
		</g>
		<g>
			<polygon fill="#F3EEE2" points="41.936,311 37.953,311 37.664,339 40.568,339 			"/>
		</g>
		<g>
			<path fill="#F3EEE2" d="M36.92,285.137c-3.733,0-6.77-3.037-6.77-6.77c0-3.731,3.037-6.768,6.77-6.768s6.77,3.035,6.77,6.768
				C43.689,282.1,40.653,285.137,36.92,285.137z M36.92,272.6c-3.181,0-5.77,2.588-5.77,5.769c0,3.182,2.588,5.771,5.77,5.771
				s5.77-2.589,5.77-5.771C42.689,275.188,40.101,272.6,36.92,272.6z"/>
		</g>
		<g>
			<polygon fill="#F3EEE2" points="27.11,309.383 24.564,308.697 31.002,290.281 32.441,290.67 			"/>
		</g>
		<g>
			<polygon fill="#F3EEE2" points="47.984,309.383 50.529,308.697 44.092,290.281 42.652,290.67 			"/>
		</g>
		<g>
			<rect x="37" y="288" fill="#F3EEE2" width="1" height="3"/>
		</g>
		<g>
			<rect x="37" y="293" fill="#F3EEE2" width="1" height="9"/>
		</g>
		<g>
			<path fill="#F3EEE2" d="M191.317,310.363l3.53-23.363h8.155l1.534,23.003L191.317,310.363z M196.567,289l-2.916,19.299
				l8.75-0.238L201.131,289H196.567z"/>
		</g>
		<g>
			<polygon fill="#F3EEE2" points="197.154,311 193.173,311 194.467,339 197.371,339 			"/>
		</g>
		<g>
			<polygon fill="#F3EEE2" points="202.998,311 199.014,311 198.727,339 201.629,339 			"/>
		</g>
		<g>
			<path fill="#F3EEE2" d="M197.982,285.137c-3.733,0-6.77-3.037-6.77-6.77c0-3.731,3.037-6.768,6.77-6.768
				c3.731,0,6.768,3.035,6.768,6.768S201.714,285.137,197.982,285.137z M197.982,272.6c-3.181,0-5.77,2.588-5.77,5.769
				c0,3.182,2.588,5.771,5.77,5.771c3.18,0,5.768-2.589,5.768-5.771C203.75,275.188,201.163,272.6,197.982,272.6z"/>
		</g>
		<g>
			<polygon fill="#F3EEE2" points="188.172,309.383 185.625,308.697 192.064,290.281 193.503,290.67 			"/>
		</g>
		<g>
			<polygon fill="#F3EEE2" points="209.047,309.383 211.592,308.697 205.152,290.281 203.713,290.67 			"/>
		</g>
		<g>
			<rect x="198" y="289" fill="#F3EEE2" width="1" height="3"/>
		</g>
		<g>
			<rect x="198" y="294" fill="#F3EEE2" width="1" height="9"/>
		</g>
	</g>
</g>
<g id="Capa_7" display="none">
</g>
</svg>
