<?xml version="1.0" encoding="utf-8"?>
<!-- Generator: Adobe Illustrator 16.0.0, SVG Export Plug-In . SVG Version: 6.00 Build 0)  -->
<!DOCTYPE svg PUBLIC "-//W3C//DTD SVG 1.1//EN" "http://www.w3.org/Graphics/SVG/1.1/DTD/svg11.dtd">
<svg version="1.1" id="Capa_1" xmlns="http://www.w3.org/2000/svg" xmlns:xlink="http://www.w3.org/1999/xlink" x="0px" y="0px"
	 width="400px" height="276px" viewBox="0 55.875 400 276" enable-background="new 0 55.875 400 276" xml:space="preserve">
<g id="Capa_11">
</g>
<g id="Capa_2">
</g>
<g id="Capa_5">
</g>
<g id="Capa_4">
</g>
<g id="Capa_3">
</g>
<g id="Capa_1_1_">
</g>
<g id="Capa_6">
</g>
<g id="Capa_8" display="none">
	<g display="inline">
		<g>
			
				<line fill="none" stroke="#A0AEA6" stroke-miterlimit="10" stroke-dasharray="12,12" x1="316.5" y1="-2745" x2="316.5" y2="165"/>
			<line fill="none" stroke="#A0AEA6" stroke-miterlimit="10" x1="316.5" y1="171" x2="316.5" y2="177"/>
		</g>
	</g>
</g>
<g id="Capa_9">
</g>
<g id="Capa_10">
	<g>
		<path fill="#2A47C4" d="M15,72v51h75V72H15z M34,110H24V91h10V110z M34,89H24v-5h10V89z M50,110H39V91h11V110z M50,89H39v-5h11V89
			z M65,110H54V91h11V110z M65,89H54v-5h11V89z M81,110H70V91h11V110z M81,89H70v-5h11V89z"/>
		<path fill="#2A47C4" d="M15,126v51h75v-51H15z M34,164H24v-19h10V164z M34,143H24v-5h10V143z M50,164H39v-19h11V164z M50,143H39
			v-5h11V143z M65,164H54v-19h11V164z M65,143H54v-5h11V143z M81,164H70v-19h11V164z M81,143H70v-5h11V143z"/>
		<path fill="#2A47C4" d="M15,180v51h75v-51H15z M34,218H24v-19h10V218z M34,197H24v-5h10V197z M50,218H39v-19h11V218z M50,197H39
			v-5h11V197z M65,218H54v-19h11V218z M65,197H54v-5h11V197z M81,218H70v-19h11V218z M81,197H70v-5h11V197z"/>
		<path fill="#2A47C4" d="M15,234v51h75v-51H15z M34,272H24v-19h10V272z M34,251H24v-5h10V251z M50,272H39v-19h11V272z M50,251H39
			v-5h11V251z M65,272H54v-19h11V272z M65,251H54v-5h11V251z M81,272H70v-19h11V272z M81,251H70v-5h11V251z"/>
		<polygon fill="#2A47C4" points="376.59,169 359.95,169 356.045,266 380.006,266 		"/>
		<polyline fill="#2A47C4" points="267.477,265.059 228.622,229.398 228.93,264.756 		"/>
		<polyline fill="#2A47C4" points="307.865,265.41 270.107,229.76 270.417,265.117 		"/>
		<polyline fill="#2A47C4" points="348.409,265.764 310.651,230.111 310.959,265.469 		"/>
		<rect x="349" y="261" fill="#2A47C4" width="37" height="5"/>
		<rect x="203" y="305" fill="#A0AEA6" width="2" height="23"/>
		<path fill="#173D6B" d="M188.348,286.172c0-19.881,6.471-69,14.454-69c7.983,0,14.454,49.119,14.454,69
			c0,19.883-6.471,21-14.454,21C194.819,307.172,188.348,306.055,188.348,286.172z"/>
		<rect x="191" y="328" fill="#A0AEA6" width="25" height="4"/>
		<rect x="223" y="305" fill="#A0AEA6" width="2" height="23"/>
		<path fill="#173D6B" d="M208.348,272.502c0-32.826,6.471-113.92,14.454-113.92s14.454,81.094,14.454,113.92
			s-6.471,34.67-14.454,34.67S208.348,305.328,208.348,272.502z"/>
		<rect x="211" y="328" fill="#A0AEA6" width="25" height="4"/>
		<path fill="#2A47C4" d="M230,268v5v4v55h156v-55v-4v-5H230z M316,297h-15v-8h15V297z M316,287h-15v-2h15V287z M337,297h-14v-8h14
			V297z M337,287h-14v-2h14V287z M359,297h-16v-8h16V297z M359,287h-16v-2h16V287z M380,297h-14v-8h14V297z M380,287h-14v-2h14V287z
			"/>
		<path fill="#2A47C4" d="M15,287v46h9v-39h24v39h42v-46H15z M65,309H54v-15h11V309z M81,309H70v-15h11V309z"/>
		<g>
			<line fill="none" x1="31" y1="301" x2="41" y2="301"/>
			<rect x="31" y="300" fill="#2A47C4" width="10" height="2"/>
		</g>
		<g>
			<rect x="130" y="310" fill="#2A47C4" width="2" height="9"/>
			<rect x="136" y="310" fill="#2A47C4" width="2" height="9"/>
			<path fill="#2A47C4" d="M97,333h12v-39h24v38h2v-38h25v39h12V180H97V333z M167,274h-64v-19h64V274z M167,253h-64v-5h64V253z
				 M167,225h-64v-19h64V225z M167,204h-64v-5h64V204z"/>
		</g>
	</g>
</g>
<g id="Capa_7" display="none">
</g>
</svg>
