<?xml version="1.0" encoding="utf-8"?>
<!-- Generator: Adobe Illustrator 16.0.0, SVG Export Plug-In . SVG Version: 6.00 Build 0)  -->
<!DOCTYPE svg PUBLIC "-//W3C//DTD SVG 1.1//EN" "http://www.w3.org/Graphics/SVG/1.1/DTD/svg11.dtd">
<svg version="1.1" id="Capa_1" xmlns="http://www.w3.org/2000/svg" xmlns:xlink="http://www.w3.org/1999/xlink" x="0px" y="0px"
	 width="400px" height="276.861px" viewBox="0 56.5 400 276.861" enable-background="new 0 56.5 400 276.861" xml:space="preserve">
<g id="Capa_11">
</g>
<g id="Capa_2">
</g>
<g id="Capa_5">
</g>
<g id="Capa_4">
</g>
<g id="Capa_3">
</g>
<g id="Capa_1_1_">
</g>
<g id="Capa_6">
</g>
<g id="Capa_8" display="none">
	<g display="inline">
		<g>
			
				<line fill="none" stroke="#A0AEA6" stroke-miterlimit="10" stroke-dasharray="12,12" x1="125.5" y1="-2745" x2="125.5" y2="165"/>
			<line fill="none" stroke="#A0AEA6" stroke-miterlimit="10" x1="125.5" y1="171" x2="125.5" y2="177"/>
		</g>
	</g>
</g>
<g id="Capa_9">
</g>
<g id="Capa_10">
	<g>
		<polygon fill="none" stroke="#A0AEA6" stroke-width="2" stroke-miterlimit="10" points="227.493,210.588 211.245,199.754 
			212.307,197.084 228.555,207.918 		"/>
		<polygon fill="#C08342" points="225.618,214.934 211.713,205.059 212.773,202.391 226.68,212.264 		"/>
		<polygon fill="none" stroke="#A0AEA6" stroke-width="2" stroke-miterlimit="10" points="254.475,210.588 270.723,199.754 
			269.66,197.084 253.413,207.918 		"/>
		<polygon fill="#C08342" points="256.348,214.934 270.253,205.059 269.191,202.391 255.287,212.264 		"/>
		<g>
			<rect x="290" y="269" fill="#F3EEE2" width="1" height="63"/>
			<path fill="#ED922F" d="M186.439,259h-40.617c-4.007,0-7.822,3.402-7.822,7.408V324h55v-57.592
				C193,262.402,190.445,259,186.439,259z M190,299h-48v-20.914c0-2.318,2.255-5.086,4.575-5.086h39.109
				c2.32,0,4.316,2.768,4.316,5.086V299L190,299z"/>
			<text transform="matrix(1 0 0 1 142.7773 271.3438)" fill="#054354" font-family="'ArialMT'" font-size="13.6338">60</text>
			<g>
				<path fill="#F3EEE2" d="M152,329.555c0,2.104-1.896,3.807-4,3.807l0,0c-2.104,0-4-1.702-4-3.807V324h8V329.555z"/>
				<path fill="#F3EEE2" d="M187,329.555c0,2.104-1.396,3.807-3.5,3.807l0,0c-2.104,0-3.5-1.702-3.5-3.807V324h7V329.555z"/>
			</g>
			<g>
				<circle fill="#F3EEE2" cx="179.979" cy="282.148" r="3.591"/>
				<path fill="#F3EEE2" d="M185,296v-4.809c0-2.16-1.007-4.191-3.168-4.191h-2.935c-2.161,0-3.896,2.031-3.896,4.191V296H185z"/>
			</g>
			<rect x="110" y="267" fill="#F3EEE2" width="2" height="65"/>
			<rect x="75" y="306" fill="#93908A" width="3" height="23"/>
			<rect x="107" y="271" fill="#ED922F" width="21" height="12"/>
			<path fill="#5B3712" d="M92.455,287.361c0-19.881-6.472-69-14.455-69s-14.455,49.119-14.455,69c0,19.883,6.472,21,14.455,21
				S92.455,307.244,92.455,287.361z"/>
			<rect x="35" y="306" fill="#93908A" width="2" height="23"/>
			<path fill="#5B3712" d="M53.455,273.182c0-33.309-7.144-115.594-15.955-115.594s-15.955,82.285-15.955,115.594
				c0,33.31,7.144,35.18,15.955,35.18S53.455,306.49,53.455,273.182z"/>
			<rect x="65" y="329" fill="#5B3712" width="24" height="4"/>
			<rect x="24" y="329" fill="#5B3712" width="25" height="4"/>
			<rect x="339" y="306" fill="#93908A" width="3" height="23"/>
			<path fill="#5B3712" d="M356.455,291.141c0-16.307-6.472-56.586-14.455-56.586s-14.455,40.279-14.455,56.586
				c0,16.305,6.472,17.221,14.455,17.221S356.455,307.445,356.455,291.141z"/>
			<rect x="361" y="306" fill="#93908A" width="3" height="23"/>
			<path fill="#5B3712" d="M378.455,269.156c0-37.119-6.472-128.818-14.455-128.818s-14.455,91.699-14.455,128.818
				s6.472,39.205,14.455,39.205S378.455,306.275,378.455,269.156z"/>
			<rect x="329" y="329" fill="#5B3712" width="24" height="4"/>
			<rect x="351" y="329" fill="#5B3712" width="24" height="4"/>
			<path fill="#F3EEE2" d="M239,333c0,0,0-87.033,0-102.084c0-9.289-6.516-16.621-11.677-20.871l-1.364,3.182
				c5.042,4.146,11.041,10.996,11.041,19.84c0,15.052,0,99.935,0,99.935L239,333L239,333z"/>
			<path fill="#F3EEE2" d="M242,333c0,0,0-87.033,0-102.084c0-9.289,7.066-16.621,12.229-20.871l1.088,3.182
				c-5.041,4.146-11.316,10.996-11.316,19.84c0,15.052,0,99.935,0,99.935L242,333L242,333z"/>
			<rect x="234" y="310" fill="#ED922F" width="15" height="23"/>
			<path fill="#ED922F" d="M321,333h-60v-10.592c0-4.006,1.594-7.408,3.73-7.408h52.568c2.135,0,3.701,3.402,3.701,7.408V333z"/>
			<path fill="#ED922F" d="M272,300c0,5,8.465,8.385,18.907,8.385S309.814,305,309.814,300H272z"/>
			<path fill="#ED922F" d="M281.54,282c0,5,4.194,8.385,9.367,8.385s9.366-3.385,9.366-8.385H281.54z"/>
			<path fill="#ED922F" d="M284.266,274c0,5,2.973,8.385,6.642,8.385c3.667,0,6.641-3.385,6.641-8.385H284.266z"/>
			<rect x="138" y="307" fill="#F3EEE2" width="15" height="5"/>
			<rect x="177" y="307" fill="#F3EEE2" width="16" height="5"/>
			<text transform="matrix(1 0 0 1 113.3687 280.7227)" fill="#054354" font-family="'ArialMT'" font-size="10.6676">60</text>
		</g>
	</g>
</g>
<g id="Capa_7" display="none">
</g>
</svg>
