<?xml version="1.0" encoding="utf-8"?>
<!-- Generator: Adobe Illustrator 16.0.0, SVG Export Plug-In . SVG Version: 6.00 Build 0)  -->
<!DOCTYPE svg PUBLIC "-//W3C//DTD SVG 1.1//EN" "http://www.w3.org/Graphics/SVG/1.1/DTD/svg11.dtd">
<svg version="1.1" id="Capa_1" xmlns="http://www.w3.org/2000/svg" xmlns:xlink="http://www.w3.org/1999/xlink" x="0px" y="0px"
	 width="400px" height="276.549px" viewBox="0 57.5 400 276.549" enable-background="new 0 57.5 400 276.549" xml:space="preserve">
<g id="Capa_11">
</g>
<g id="Capa_2">
</g>
<g id="Capa_5">
</g>
<g id="Capa_4">
</g>
<g id="Capa_3">
</g>
<g id="Capa_1_1_">
</g>
<g id="Capa_6">
</g>
<g id="Capa_8" display="none">
	<g display="inline">
		<g>
			
				<line fill="none" stroke="#A0AEA6" stroke-miterlimit="10" stroke-dasharray="12,12" x1="372.5" y1="-2745" x2="372.5" y2="165"/>
			<line fill="none" stroke="#A0AEA6" stroke-miterlimit="10" x1="372.5" y1="171" x2="372.5" y2="177"/>
		</g>
	</g>
</g>
<g id="Capa_9">
</g>
<g id="Capa_10">
	<g>
		<rect x="334" y="313" fill="#93908A" width="3" height="17"/>
		<path fill="#07605B" d="M320.545,293.787c0-19.881,6.472-69,14.455-69c7.982,0,14.454,49.119,14.454,69
			c0,19.883-6.472,21-14.454,21C327.017,314.787,320.545,313.67,320.545,293.787z"/>
		<rect x="323" y="330" fill="#06514D" width="24" height="4"/>
		<rect x="354" y="313" fill="#93908A" width="3" height="17"/>
		<path fill="#07605B" d="M340.545,280.117c0-32.826,6.472-113.92,14.455-113.92c7.982,0,14.454,81.094,14.454,113.92
			s-6.472,34.67-14.454,34.67C347.017,314.787,340.545,312.943,340.545,280.117z"/>
		<rect x="343" y="330" fill="#06514D" width="24" height="4"/>
		<rect x="44" y="313" fill="#93908A" width="3" height="17"/>
		<path fill="#07605B" d="M30.545,293.787c0-19.881,6.472-69,14.455-69c7.982,0,14.454,49.119,14.454,69
			c0,19.883-6.472,21-14.454,21C37.017,314.787,30.545,313.67,30.545,293.787z"/>
		<rect x="33" y="330" fill="#06514D" width="24" height="4"/>
		<polygon fill="#93908A" points="66.357,313.281 68.857,313.336 68.346,330.33 65.846,330.275 		"/>
		<path fill="#07605B" d="M52.102,302.076c0.261-11.725,7.374-40.545,15.354-40.369c7.981,0.178,13.809,29.285,13.548,41.01
			c-0.26,11.725-6.745,12.24-14.726,12.063C58.297,314.604,51.842,313.799,52.102,302.076z"/>
		
			<rect x="54.296" y="329.778" transform="matrix(0.9998 0.0222 -0.0222 0.9998 7.3821 -1.3956)" fill="#06514D" width="24.501" height="3.999"/>
		<path fill="#0EC9C0" d="M206.225,302.416c19.051-4.086,20.986-8.932,26.274-13.574l-2.925,27.635l-8.135,0.431
			C217.271,309.184,206.225,302.416,206.225,302.416z"/>
		<rect x="132" y="325" fill="#93908A" width="157" height="8"/>
		<rect x="156" y="315" fill="#93908A" width="108" height="7"/>
		<path fill="#F3EEE2" d="M196.084,272.1c0,0-0.983-47.674-19.169-62.91l1.132-1.133c18.186,15.236,19.169,62.912,19.169,62.912
			L196.084,272.1z"/>
		<path fill="#F3EEE2" d="M205.564,283c0,0-33.017-34-30.932-58h-1.601c-2.085,24,30.931,58,30.931,58H205.564z"/>
		<ellipse fill="#F3EEE2" cx="174.361" cy="225.752" rx="5.652" ry="2.949"/>
		
			<ellipse transform="matrix(0.9164 0.4002 -0.4002 0.9164 98.604 -54.0078)" fill="#F3EEE2" cx="178.603" cy="209.066" rx="2.95" ry="5.652"/>
	</g>
	<g>
		<path fill="#0EC9C0" d="M220.234,273.154c3.408-6.549,9.306-29.191,12.557-43.354c3.104-13.516,1.005-42.954-10.907-60.829
			c-6.216-9.325-14.026-14.255-22.586-14.255c-5.333,0-10.793,1.952-15.79,5.645c-7.366,5.445-9.068,12.483-9.199,17.429
			c-0.239,9.057,4.394,17.718,9.095,21.592c24.542,18.762,29.09,40.18,28.581,54.837c-0.293,8.419-2.197,15.528-3.959,20.427
			c3.054-1.078,6.203-1.64,9.428-1.64C218.407,273.007,219.329,273.068,220.234,273.154z"/>
		<path fill="#0EC9C0" d="M187.946,294.314c0.61-3.703,2.81-7.383,6.559-10.99l-1.17-0.322c-2.409,1.198-8.169,3.665-14.797,3.665
			c0,0,0,0-0.001,0c-0.58,0-1.166-0.021-1.755-0.06c-4.427-0.309-18.968-2.933-32.909-11.277
			c-17.343-10.382-27.382-25.907-29.034-44.898c-0.081-1.262-0.106-2.453-0.094-3.595c-3.748,0.136-7.474,1.552-9.112,6.079
			c-3.86,10.67-9.366,59.945,52.876,65.355c14.556,0.977,23.764-0.078,29.29-1.336C187.756,296.139,187.79,295.266,187.946,294.314z
			"/>
		<path fill="#0EC9C0" d="M144.899,273.614c13.604,8.144,27.727,10.7,32.02,10.997c6.544,0.468,12.61-2.008,15.24-3.266
			l-8.755-6.595c-1.478-0.755-17.948-9.429-22.067-22.776c-1.74-5.642-2.238-10.52-2.719-15.236
			c-0.661-6.471-1.284-12.581-5.206-19.545c-5.448-9.676-12.169-11.705-16.848-11.705c-1.113,0-2.243,0.113-3.358,0.341
			c-5.298,1.078-17.707,3.604-16.373,24.451C118.447,248.845,127.891,263.434,144.899,273.614z"/>
		<path fill="#0EC9C0" d="M239.389,265.555c12.975-18.354,25.354-75.039-5.623-100.203c-5.339-4.719-11.324-5.395-16.223-4.756
			c2.027,1.942,4.047,4.329,6.005,7.268c12.22,18.337,14.375,48.526,11.192,62.386c-2.737,11.924-8.611,35.175-12.41,43.177
			c3.009,0.498,5.669,1.384,7.859,2.341C232.708,273.885,235.748,270.704,239.389,265.555z"/>
	</g>
	<path fill="#0EC9C0" d="M190.787,270.501c1.787,0.128,3.555,0.192,5.262,0.192c16,0,25.797-5.684,31.199-10.45
		c4.559-4.022,6.816-8.048,7.59-9.623c-2.027-1.41-8.792-5.613-17.385-5.613c-5.526,0-10.835,1.722-15.78,5.118
		c-6.873,4.721-10.933,9.718-11.742,14.45C189.414,267.6,190.334,269.693,190.787,270.501z"/>
</g>
<g id="Capa_7" display="none">
</g>
</svg>
