<?xml version="1.0" encoding="UTF-8" ?>
<!DOCTYPE svg PUBLIC "-//W3C//DTD SVG 1.1//EN" "http://www.w3.org/Graphics/SVG/1.1/DTD/svg11.dtd">
<svg width="268pt" height="232pt" viewBox="0 0 268 232" version="1.1" xmlns="http://www.w3.org/2000/svg">
<g id="#89b7cbf7">
<path fill="#89b7cb" opacity="0.97" d=" M 89.09 57.56 C 93.00 40.09 95.79 22.33 100.43 5.06 C 101.98 5.37 103.54 5.68 105.09 5.98 C 105.19 13.94 103.07 21.74 102.99 29.68 C 103.20 30.77 103.43 31.86 103.67 32.94 C 103.29 32.80 102.52 32.51 102.14 32.37 C 102.04 34.15 101.98 35.93 101.84 37.71 C 101.72 38.95 101.59 40.19 101.44 41.43 C 101.31 42.40 101.07 44.34 100.95 45.30 C 100.72 47.19 100.51 49.07 100.31 50.96 C 100.08 52.91 99.95 54.87 99.75 56.83 C 99.50 58.71 99.14 60.58 98.81 62.46 C 97.59 62.64 96.37 62.82 95.15 62.98 C 95.36 62.52 95.77 61.58 95.98 61.12 C 94.69 60.97 93.40 60.83 92.10 60.71 C 91.10 59.65 90.09 58.60 89.09 57.56 Z" />
</g>
<g id="#c0d2d2f0">
<path fill="#c0d2d2" opacity="0.94" d=" M 102.99 29.68 C 106.59 30.80 110.18 32.23 114.00 32.31 C 119.56 32.80 124.45 28.88 130.04 29.61 C 135.08 30.29 139.78 33.00 145.00 32.33 C 147.16 32.33 151.68 31.50 150.27 35.13 C 142.72 37.94 135.32 33.89 128.02 32.71 C 120.24 35.39 111.19 37.73 103.67 32.94 C 103.43 31.86 103.20 30.77 102.99 29.68 Z" />
</g>
<g id="#b7c9c8e5">
<path fill="#b7c9c8" opacity="0.90" d=" M 126.88 37.73 C 133.02 36.26 138.34 41.41 144.49 40.33 C 150.63 39.32 156.93 36.97 163.19 38.92 C 168.36 39.95 174.29 43.01 179.14 39.46 C 179.48 40.12 180.15 41.44 180.49 42.09 C 175.87 45.71 169.26 44.72 164.18 42.65 C 159.16 40.67 153.66 41.75 148.87 43.82 C 142.64 46.19 136.64 42.33 130.51 41.67 C 125.18 40.95 120.33 44.12 115.04 44.02 C 110.34 44.37 105.87 42.73 101.44 41.43 C 101.59 40.19 101.72 38.95 101.84 37.71 C 105.99 38.42 109.90 40.16 114.09 40.68 C 118.55 40.74 122.48 38.13 126.88 37.73 Z" />
</g>
<g id="#b8c9c9e4">
<path fill="#b8c9c9" opacity="0.89" d=" M 100.95 45.30 C 107.70 46.26 114.23 50.24 121.14 47.50 C 121.47 48.57 121.80 49.63 122.13 50.70 C 115.20 53.65 108.03 50.91 101.14 49.53 C 100.94 49.89 100.52 50.60 100.31 50.96 C 100.51 49.07 100.72 47.19 100.95 45.30 Z" />
</g>
<g id="#bcceceeb">
<path fill="#bccece" opacity="0.92" d=" M 152.88 46.77 C 161.40 42.06 169.72 50.24 178.60 48.25 C 178.66 49.18 178.70 50.12 178.77 51.06 L 178.79 51.58 C 173.43 52.35 167.93 51.52 163.04 49.17 C 159.78 47.64 154.97 50.69 152.88 46.77 Z" />
</g>
<g id="#c3d5d5f3">
<path fill="#c3d5d5" opacity="0.95" d=" M 178.55 47.38 C 185.02 44.08 192.04 45.12 198.56 47.63 C 203.78 48.44 208.99 47.44 213.97 45.89 C 221.21 43.88 227.64 50.19 234.94 48.06 C 236.89 46.91 241.31 48.05 238.71 50.68 C 233.23 53.49 226.57 51.61 220.98 49.85 C 216.46 48.16 211.95 50.28 207.67 51.58 C 197.79 53.79 188.45 46.31 178.77 51.06 C 178.70 50.12 178.66 49.18 178.60 48.25 L 178.55 47.38 Z" />
</g>
<g id="#b5c7c7e3">
<path fill="#b5c7c7" opacity="0.89" d=" M 122.49 54.55 C 127.96 52.32 133.92 53.91 139.32 55.65 C 147.32 58.36 154.87 51.50 162.90 54.18 C 168.18 56.13 173.93 57.45 179.41 55.40 C 179.68 56.56 179.95 57.73 180.21 58.89 C 174.58 60.82 168.39 60.20 162.89 58.15 C 154.91 55.25 147.24 61.87 139.15 59.65 C 133.93 58.02 128.42 55.85 123.04 58.22 C 122.50 57.20 121.16 55.54 122.49 54.55 Z" />
</g>
<g id="#c6d1cef8">
<path fill="#c6d1ce" opacity="0.97" d=" M 98.81 62.46 C 99.14 60.58 99.50 58.71 99.75 56.83 C 99.67 57.77 99.49 59.66 99.40 60.61 C 105.50 61.98 111.43 64.79 117.76 64.71 C 123.98 63.09 130.52 60.35 136.92 62.99 C 136.41 64.09 135.91 65.18 135.40 66.27 C 130.30 64.22 124.90 66.31 119.98 67.82 C 113.86 69.59 108.05 66.41 102.10 65.56 C 102.06 66.46 101.97 68.26 101.93 69.16 C 104.76 70.47 107.74 71.45 110.81 71.98 C 110.91 71.68 111.10 71.09 111.19 70.80 C 117.76 75.72 126.05 67.77 133.45 70.42 C 139.75 72.73 146.24 73.61 152.80 71.80 C 152.75 76.24 148.00 75.82 144.84 75.91 C 138.17 77.13 132.25 71.40 125.56 73.88 C 120.21 76.18 114.36 75.94 108.67 76.09 C 103.88 71.54 99.33 77.58 95.09 79.75 C 92.02 79.79 89.01 79.19 86.14 78.16 L 86.20 77.41 C 86.86 72.97 84.96 67.28 89.03 64.04 C 91.00 63.39 93.10 63.30 95.15 62.98 C 96.37 62.82 97.59 62.64 98.81 62.46 M 89.10 69.02 C 89.50 70.41 89.88 71.80 90.25 73.19 C 91.90 73.26 93.54 73.33 95.18 73.45 C 95.92 71.76 96.06 69.92 96.12 68.11 C 94.48 67.48 92.78 67.05 91.04 66.86 C 90.39 67.58 89.75 68.30 89.10 69.02 Z" />
</g>
<g id="#7e84829e">
<path fill="#7e8482" opacity="0.62" d=" M 83.17 68.70 C 83.73 64.30 87.80 61.04 92.10 60.71 C 93.40 60.83 94.69 60.97 95.98 61.12 C 95.77 61.58 95.36 62.52 95.15 62.98 C 93.10 63.30 91.00 63.39 89.03 64.04 C 84.96 67.28 86.86 72.97 86.20 77.41 C 85.71 77.24 84.74 76.89 84.26 76.72 C 83.96 74.04 83.52 71.37 83.17 68.70 Z" />
</g>
<g id="#bacbcbe8">
<path fill="#bacbcb" opacity="0.91" d=" M 136.92 62.99 C 140.72 64.30 144.67 65.06 148.67 65.33 C 148.71 65.97 148.77 67.24 148.80 67.87 C 144.25 68.89 139.58 68.33 135.40 66.27 C 135.91 65.18 136.41 64.09 136.92 62.99 Z" />
</g>
<g id="#8ab9cdf8">
<path fill="#8ab9cd" opacity="0.97" d=" M 30.72 92.33 C 47.99 84.00 65.80 76.83 83.17 68.70 C 83.52 71.37 83.96 74.04 84.26 76.72 C 84.18 77.49 84.03 79.03 83.96 79.79 C 66.91 85.57 49.90 91.50 32.82 97.18 C 32.10 95.57 31.40 93.95 30.72 92.33 Z" />
</g>
<g id="#8fbfd3ff">
<path fill="#8fbfd3" opacity="1.00" d=" M 95.09 79.75 C 99.33 77.58 103.88 71.54 108.67 76.09 C 112.32 80.25 116.91 83.41 120.82 87.31 C 122.29 88.76 123.84 90.15 125.45 91.45 C 126.84 92.59 128.23 93.74 129.53 95.00 C 131.34 96.89 133.25 98.69 135.30 100.33 C 138.86 103.28 142.14 106.56 145.32 109.92 C 144.15 111.34 142.99 112.76 141.83 114.19 C 127.62 104.19 114.10 93.25 100.21 82.81 C 100.06 82.70 99.75 82.47 99.60 82.35 C 98.20 81.31 96.72 80.38 95.09 79.75 Z" />
</g>
<g id="#727e7aff">
<path fill="#727e7a" opacity="1.00" d=" M 86.14 78.16 C 89.01 79.19 92.02 79.79 95.09 79.75 C 96.72 80.38 98.20 81.31 99.60 82.35 C 96.21 82.79 92.79 83.11 89.37 83.01 C 88.47 83.00 86.69 82.97 85.79 82.96 C 85.88 81.36 86.02 79.76 86.14 78.16 Z" />
</g>
<g id="#c5d7d7f5">
<path fill="#c5d7d7" opacity="0.96" d=" M 149.89 80.17 C 150.58 79.45 151.28 78.72 151.97 78.00 C 157.36 77.70 162.76 77.98 167.80 80.06 C 174.69 82.82 181.11 77.28 188.06 78.22 C 194.19 78.08 199.97 83.11 206.05 80.48 C 212.07 77.99 219.29 77.37 225.02 80.96 C 233.49 84.77 241.25 75.72 249.63 79.40 C 254.85 81.83 260.88 82.73 266.34 80.51 C 268.00 84.46 262.77 84.09 260.47 85.55 C 255.37 85.45 250.88 82.84 246.04 81.68 C 238.93 81.85 232.70 86.64 225.44 84.39 C 220.72 82.33 214.05 79.19 209.93 83.86 C 201.73 86.34 194.02 81.79 185.98 81.48 C 182.54 82.98 177.89 82.89 175.20 85.28 C 174.99 85.10 174.58 84.72 174.37 84.54 C 166.40 84.61 158.97 79.51 150.90 82.41 C 150.65 81.85 150.14 80.73 149.89 80.17 Z" />
</g>
<g id="#a9b9b1f5">
<path fill="#a9b9b1" opacity="0.96" d=" M 99.60 82.35 C 99.75 82.47 100.06 82.70 100.21 82.81 C 100.10 83.49 99.89 84.86 99.79 85.54 C 99.07 85.73 97.64 86.11 96.92 86.30 C 97.69 116.15 99.00 146.00 99.82 175.82 L 99.13 175.82 C 99.01 173.37 98.89 170.92 98.76 168.47 C 96.68 168.21 94.60 167.95 92.52 167.69 C 93.06 153.30 93.02 138.87 92.87 124.46 C 92.96 113.12 93.29 101.76 92.85 90.42 C 91.52 90.22 90.19 90.02 88.87 89.82 C 89.24 87.57 89.33 85.29 89.37 83.01 C 92.79 83.11 96.21 82.79 99.60 82.35 Z" />
</g>
<g id="#909895ba">
<path fill="#909895" opacity="0.73" d=" M 85.79 82.96 C 86.69 82.97 88.47 83.00 89.37 83.01 C 89.33 85.29 89.24 87.57 88.87 89.82 C 88.64 90.96 88.41 92.10 88.19 93.24 C 88.16 91.08 88.05 88.92 87.90 86.77 C 86.60 85.86 85.89 84.52 85.79 82.96 Z" />
</g>
<g id="#bacccbe8">
<path fill="#bacccb" opacity="0.91" d=" M 120.82 87.31 C 131.19 83.52 141.26 92.13 151.41 87.61 C 161.19 84.14 170.56 91.36 180.51 88.97 C 180.23 92.19 176.78 93.26 174.03 93.16 C 167.42 93.86 161.44 88.72 154.80 90.62 C 149.36 92.29 143.53 94.18 137.90 92.11 C 133.93 91.31 128.97 88.06 125.45 91.45 C 123.84 90.15 122.29 88.76 120.82 87.31 Z" />
</g>
<g id="#bac2c0eb">
<path fill="#bac2c0" opacity="0.92" d=" M 88.87 89.82 C 90.19 90.02 91.52 90.22 92.85 90.42 C 93.29 101.76 92.96 113.12 92.87 124.46 C 91.96 123.42 91.07 122.38 90.18 121.34 C 87.84 128.34 89.55 135.98 87.19 142.84 C 86.99 126.30 87.71 109.77 88.19 93.24 C 88.41 92.10 88.64 90.96 88.87 89.82 Z" />
</g>
<g id="#c1d3d2f0">
<path fill="#c1d3d2" opacity="0.94" d=" M 129.53 95.00 C 134.91 94.35 139.66 97.75 145.00 97.46 C 149.17 97.60 152.79 94.88 156.96 94.98 C 162.59 94.54 167.83 96.95 173.25 98.00 C 175.90 98.61 178.92 96.12 181.21 98.27 C 179.14 102.40 172.84 100.60 168.95 101.38 C 163.45 98.47 156.98 97.65 151.07 99.90 C 145.99 101.94 140.55 100.80 135.30 100.33 C 133.25 98.69 131.34 96.89 129.53 95.00 Z" />
</g>
<g id="#fddf7ffe">
<path fill="#fddf7f" opacity="1.00" d=" M 35.28 122.30 C 36.38 121.72 37.25 120.03 38.58 120.27 C 48.40 130.01 58.19 139.79 68.03 149.52 C 66.95 150.18 65.90 150.91 64.82 151.59 C 54.91 142.56 45.09 131.99 35.28 122.30 Z" />
</g>
<g id="#f1d479f2">
<path fill="#f1d479" opacity="0.95" d=" M 126.07 119.98 C 126.76 119.98 128.15 119.98 128.84 119.98 C 136.70 128.81 145.49 136.79 153.71 145.29 C 155.32 146.75 156.68 148.93 159.07 149.06 C 157.51 149.99 155.96 150.94 154.41 151.90 C 145.85 143.72 137.73 135.04 129.19 126.82 C 127.56 124.88 123.91 122.84 126.07 119.98 Z" />
</g>
<g id="#c6cfccf9">
<path fill="#c6cfcc" opacity="0.98" d=" M 90.18 121.34 C 91.07 122.38 91.96 123.42 92.87 124.46 C 93.02 138.87 93.06 153.30 92.52 167.69 C 92.11 170.51 91.95 173.36 91.88 176.22 C 89.39 176.20 86.91 176.00 84.43 175.81 C 87.23 164.98 84.51 153.58 87.19 142.84 C 89.55 135.98 87.84 128.34 90.18 121.34 Z" />
</g>
<g id="#f1d479f1">
<path fill="#f1d479" opacity="0.95" d=" M 119.99 129.99 C 118.09 128.54 119.70 125.32 121.99 125.92 C 129.79 133.62 137.59 141.35 145.28 149.17 C 144.09 150.13 142.89 151.09 141.70 152.05 C 134.66 144.50 126.96 137.59 119.99 129.99 Z" />
</g>
<g id="#f9db7df9">
<path fill="#f9db7d" opacity="0.98" d=" M 29.74 128.88 C 30.71 127.76 31.97 127.13 33.44 127.03 C 42.05 134.00 48.27 144.49 58.07 149.58 C 56.79 149.74 55.51 149.91 54.24 150.08 C 53.58 151.09 52.93 152.11 52.28 153.12 C 46.43 143.98 36.55 137.54 29.74 128.88 Z" />
</g>
<g id="#efd278f0">
<path fill="#efd278" opacity="0.94" d=" M 112.64 134.88 C 113.46 133.78 114.35 132.74 115.32 131.77 C 122.00 137.41 126.96 145.68 134.89 149.43 C 132.97 150.06 131.07 150.76 129.21 151.54 C 123.70 145.97 118.06 140.53 112.64 134.88 Z" />
</g>
<g id="#f8db7df9">
<path fill="#f8db7d" opacity="0.98" d=" M 25.13 137.00 C 23.19 135.53 24.31 133.27 25.90 132.11 C 32.10 137.15 37.40 143.21 43.27 148.61 C 42.08 149.81 40.91 151.03 39.72 152.24 C 35.36 146.85 29.95 142.18 25.13 137.00 Z" />
</g>
<g id="#fec136ff">
<path fill="#fec136" opacity="1.00" d=" M 39.72 152.24 C 40.91 151.03 42.08 149.81 43.27 148.61 C 48.06 149.41 48.49 155.80 43.86 157.23 C 41.74 156.28 39.59 154.87 39.72 152.24 Z" />
</g>
<g id="#f8bc34f9">
<path fill="#f8bc34" opacity="0.98" d=" M 68.03 149.52 C 69.19 148.56 70.48 150.12 71.67 150.34 C 72.04 151.30 72.43 152.27 72.83 153.23 C 72.49 154.06 72.17 154.89 71.84 155.73 C 70.87 156.12 69.91 156.53 68.95 156.94 C 67.99 156.50 67.03 156.07 66.07 155.65 C 65.65 154.29 65.24 152.94 64.82 151.59 C 65.90 150.91 66.95 150.18 68.03 149.52 Z" />
</g>
<g id="#eeb432ef">
<path fill="#eeb432" opacity="0.94" d=" M 145.28 149.17 L 145.87 148.71 C 146.83 149.24 147.80 149.76 148.77 150.28 C 149.16 151.18 149.56 152.08 149.96 152.99 C 149.49 153.87 149.03 154.76 148.57 155.65 C 147.70 156.02 146.83 156.40 145.96 156.78 C 143.60 156.18 142.05 154.46 141.70 152.05 C 142.89 151.09 144.09 150.13 145.28 149.17 Z" />
</g>
<g id="#f7bb34f8">
<path fill="#f7bb34" opacity="0.97" d=" M 159.07 149.06 C 160.07 149.77 161.05 150.50 162.03 151.25 C 162.02 152.43 162.00 153.60 161.99 154.78 C 161.15 155.51 160.31 156.24 159.48 156.98 C 156.67 156.82 154.80 154.59 154.41 151.90 C 155.96 150.94 157.51 149.99 159.07 149.06 Z" />
</g>
<g id="#fbbe35fc">
<path fill="#fbbe35" opacity="1.00" d=" M 54.24 150.08 C 55.51 149.91 56.79 149.74 58.07 149.58 C 58.54 150.02 59.47 150.90 59.94 151.34 C 59.97 152.49 60.00 153.64 60.04 154.79 C 58.76 155.68 57.46 156.53 56.14 157.35 C 54.59 156.19 53.08 154.92 52.28 153.12 C 52.93 152.11 53.58 151.09 54.24 150.08 Z" />
</g>
<g id="#eeb532ef">
<path fill="#eeb532" opacity="0.94" d=" M 129.21 151.54 C 131.07 150.76 132.97 150.06 134.89 149.43 C 135.45 149.92 136.56 150.91 137.12 151.40 C 137.86 155.35 133.70 158.09 130.39 155.71 C 130.01 154.31 129.62 152.92 129.21 151.54 Z" />
</g>
<g id="#df7cc5ff">
<path fill="#df7cc5" opacity="1.00" d=" M 18.91 156.06 C 22.28 156.00 25.64 155.96 29.01 155.81 C 29.01 156.55 29.02 158.02 29.02 158.76 C 27.58 160.13 25.89 161.17 23.99 161.77 C 22.01 160.27 17.67 159.36 18.91 156.06 Z" />
<path fill="#df7cc5" opacity="1.00" d=" M 148.91 165.18 C 152.34 164.98 155.79 164.82 159.21 165.15 C 160.31 171.22 148.59 171.74 148.91 165.18 Z" />
</g>
<g id="#809c30ff">
<path fill="#809c30" opacity="1.00" d=" M 166.02 161.99 C 168.33 162.00 170.64 162.01 172.95 162.03 C 173.00 164.20 173.04 166.37 173.09 168.55 C 174.09 169.63 175.12 170.70 176.11 171.80 C 170.02 178.28 174.21 188.28 173.06 196.31 C 175.62 195.92 177.77 194.46 179.57 192.67 C 179.85 195.67 180.16 198.68 180.07 201.70 C 177.75 202.71 175.41 203.69 173.00 204.49 C 173.00 213.66 173.00 222.83 173.00 232.00 L 166.01 232.00 C 166.00 227.63 165.81 223.24 166.31 218.89 C 167.22 212.39 166.87 205.80 166.67 199.26 C 162.56 198.95 158.44 198.89 154.32 198.99 C 153.85 198.00 153.39 197.02 152.92 196.04 C 157.53 196.13 162.14 196.14 166.74 195.87 C 166.75 195.23 166.78 193.96 166.79 193.32 C 166.91 187.52 167.12 181.69 166.26 175.94 C 165.78 171.30 166.03 166.64 166.02 161.99 Z" />
<path fill="#809c30" opacity="1.00" d=" M 21.15 163.34 C 23.42 163.35 25.69 163.46 27.94 163.73 C 27.53 167.39 28.37 170.97 30.91 173.71 C 25.22 180.46 29.01 190.28 28.18 198.37 C 31.21 197.21 34.32 195.43 35.26 192.07 C 36.48 189.92 37.13 186.95 35.15 185.02 C 34.21 183.85 33.22 182.72 32.25 181.57 C 33.23 180.36 34.23 179.16 35.18 177.93 C 36.72 176.30 36.43 173.86 35.71 171.92 C 37.74 170.33 40.46 171.18 42.82 171.12 C 42.92 172.76 42.99 174.41 43.08 176.05 C 42.29 176.10 40.71 176.18 39.92 176.23 C 39.56 181.86 39.54 187.52 39.78 193.17 C 39.84 193.82 39.95 195.13 40.01 195.79 C 40.54 195.84 41.60 195.94 42.13 195.99 C 41.61 196.94 41.09 197.89 40.58 198.84 C 40.45 199.07 40.20 199.52 40.07 199.75 C 36.88 203.00 32.69 205.44 28.00 205.22 C 27.99 214.15 28.01 223.07 28.00 232.00 L 20.87 232.00 C 21.04 227.49 21.06 222.97 20.90 218.47 C 19.88 217.35 18.83 216.25 17.82 215.13 C 20.00 212.59 21.55 209.54 21.03 206.09 C 14.12 205.03 7.05 200.36 6.14 192.94 C 6.04 190.22 4.63 187.95 2.88 185.97 C 3.88 184.82 4.90 183.70 5.90 182.57 C 5.96 180.71 6.01 178.85 6.08 176.99 C 8.38 176.99 10.68 177.00 12.98 177.00 C 13.94 184.09 10.59 194.90 19.37 198.05 C 20.09 196.81 21.02 195.57 20.95 194.06 C 21.18 183.83 20.73 173.58 21.15 163.34 Z" />
<path fill="#809c30" opacity="1.00" d=" M 91.88 176.22 C 91.95 173.36 92.11 170.51 92.52 167.69 C 94.60 167.95 96.68 168.21 98.76 168.47 C 98.89 170.92 99.01 173.37 99.13 175.82 C 96.71 175.90 94.30 176.14 91.88 176.22 Z" />
<path fill="#809c30" opacity="1.00" d=" M 105.14 172.08 C 107.75 172.02 110.36 171.99 112.97 171.97 C 112.99 173.32 113.01 174.66 113.04 176.00 C 110.33 176.05 107.61 176.10 104.90 176.02 C 104.98 174.70 105.06 173.39 105.14 172.08 Z" />
<path fill="#809c30" opacity="1.00" d=" M 106.76 224.92 C 108.84 224.94 110.92 224.97 113.00 224.99 C 113.00 227.32 113.00 229.66 113.00 232.00 L 106.95 232.00 C 106.86 229.64 106.77 227.28 106.76 224.92 Z" />
</g>
<g id="#7b8461a5">
<path fill="#7b8461" opacity="0.65" d=" M 35.18 177.93 C 34.92 176.01 34.30 173.47 35.71 171.92 C 36.43 173.86 36.72 176.30 35.18 177.93 Z" />
</g>
<g id="#8d9791ef">
<path fill="#8d9791" opacity="0.94" d=" M 150.95 171.94 C 153.30 171.97 155.65 171.99 158.00 172.00 L 158.00 172.86 C 155.81 172.94 153.61 173.03 151.41 173.12 C 151.32 173.94 151.15 175.56 151.06 176.38 C 144.31 177.08 137.51 176.95 130.77 176.21 C 137.03 175.73 143.31 176.12 149.59 176.00 C 150.03 174.64 150.48 173.29 150.95 171.94 Z" />
</g>
<g id="#809c2fff">
<path fill="#809c2f" opacity="1.00" d=" M 151.41 173.12 C 153.61 173.03 155.81 172.94 158.00 172.86 C 158.01 173.65 158.02 175.22 158.03 176.01 C 155.70 176.06 153.38 176.19 151.06 176.38 C 151.15 175.56 151.32 173.94 151.41 173.12 Z" />
</g>
<g id="#68748dff">
<path fill="#68748d" opacity="1.00" d=" M 99.13 175.82 L 99.82 175.82 C 101.51 175.86 103.21 175.96 104.90 176.02 C 107.61 176.10 110.33 176.05 113.04 176.00 C 115.98 175.96 118.92 176.07 121.86 176.26 C 122.11 182.13 121.99 188.02 122.00 193.90 C 109.88 193.15 97.72 193.24 85.58 193.42 C 85.31 194.12 84.77 195.52 84.50 196.22 C 83.65 189.47 83.75 182.57 84.43 175.81 C 86.91 176.00 89.39 176.20 91.88 176.22 C 94.30 176.14 96.71 175.90 99.13 175.82 M 86.99 177.79 C 86.99 178.63 86.99 180.31 86.98 181.14 C 88.57 181.03 90.16 180.92 91.75 180.81 C 91.75 180.15 91.74 178.83 91.74 178.17 C 90.16 178.04 88.57 177.91 86.99 177.79 M 94.00 177.83 C 94.00 178.66 94.00 180.32 94.00 181.15 C 95.58 181.04 97.17 180.93 98.75 180.83 C 98.75 180.16 98.75 178.84 98.75 178.18 C 97.17 178.06 95.58 177.94 94.00 177.83 M 101.05 177.84 C 101.05 178.66 101.04 180.29 101.04 181.11 C 102.62 181.02 104.20 180.94 105.77 180.85 C 105.77 180.17 105.76 178.81 105.76 178.13 C 104.19 178.03 102.62 177.93 101.05 177.84 M 108.06 177.91 C 108.06 178.70 108.05 180.28 108.05 181.07 C 109.66 181.04 111.26 181.00 112.87 180.97 C 112.84 180.25 112.78 178.80 112.74 178.07 C 111.18 178.01 109.62 177.96 108.06 177.91 M 115.08 177.91 C 115.07 178.70 115.06 180.27 115.06 181.06 C 116.67 181.04 118.28 181.02 119.89 181.01 C 119.89 180.23 119.89 178.69 119.89 177.92 C 118.29 177.91 116.68 177.91 115.08 177.91 M 86.98 182.95 C 86.99 183.78 87.00 185.44 87.01 186.27 C 88.42 186.25 89.83 186.24 91.25 186.23 C 91.25 185.42 91.27 183.80 91.28 182.98 C 89.84 182.97 88.41 182.96 86.98 182.95 M 93.99 182.90 C 94.00 183.76 94.03 185.49 94.04 186.36 C 95.60 186.25 97.16 186.12 98.71 185.95 C 98.73 185.27 98.76 183.90 98.77 183.21 C 97.18 183.10 95.59 183.00 93.99 182.90 M 101.01 182.90 C 101.02 183.76 101.04 185.48 101.05 186.34 C 102.61 186.24 104.16 186.12 105.72 185.97 C 105.73 185.28 105.77 183.88 105.79 183.19 C 104.20 183.09 102.60 182.99 101.01 182.90 M 108.03 182.94 C 108.04 183.78 108.06 185.47 108.08 186.31 C 109.64 186.23 111.20 186.15 112.77 186.05 C 112.79 185.32 112.82 183.85 112.84 183.12 C 111.24 183.05 109.63 182.99 108.03 182.94 M 115.05 182.99 C 115.06 183.80 115.08 185.43 115.09 186.24 C 116.67 186.24 118.26 186.23 119.85 186.21 C 119.86 185.41 119.89 183.82 119.90 183.03 C 118.28 183.01 116.66 183.00 115.05 182.99 M 86.95 188.00 C 87.05 189.28 87.14 190.57 87.24 191.85 C 88.62 191.70 90.00 191.55 91.38 191.40 C 91.54 190.36 91.69 189.33 91.85 188.29 C 90.22 188.19 88.59 188.09 86.95 188.00 M 93.99 188.03 C 94.06 189.27 94.13 190.51 94.20 191.75 C 95.69 191.71 97.19 191.69 98.68 191.66 C 98.70 190.52 98.71 189.39 98.73 188.26 C 97.15 188.18 95.57 188.11 93.99 188.03 M 101.00 188.04 C 101.08 189.27 101.16 190.49 101.25 191.72 C 102.73 191.70 104.20 191.68 105.69 191.67 C 105.71 190.53 105.73 189.39 105.76 188.25 C 104.17 188.18 102.58 188.11 101.00 188.04 M 108.04 188.08 C 108.11 189.29 108.17 190.51 108.24 191.72 C 109.73 191.71 111.21 191.70 112.70 191.69 C 112.72 190.53 112.75 189.37 112.77 188.21 C 111.19 188.16 109.62 188.12 108.04 188.08 M 115.10 188.12 C 115.15 189.31 115.21 190.51 115.27 191.71 C 116.75 191.70 118.24 191.70 119.73 191.70 C 119.76 190.52 119.78 189.35 119.81 188.17 C 118.24 188.15 116.67 188.13 115.10 188.12 Z" />
</g>
<g id="#67718afd">
<path fill="#67718a" opacity="1.00" d=" M 39.92 176.23 C 40.71 176.18 42.29 176.10 43.08 176.05 C 54.34 176.02 65.62 175.80 76.88 176.20 C 77.10 182.07 76.99 187.95 76.99 193.82 C 64.60 193.19 52.15 194.28 39.78 193.17 C 39.54 187.52 39.56 181.86 39.92 176.23 M 42.10 177.93 C 42.09 178.71 42.08 180.27 42.07 181.05 C 43.65 181.00 45.22 180.96 46.80 180.91 C 46.80 180.20 46.79 178.76 46.79 178.05 C 45.23 178.00 43.66 177.96 42.10 177.93 M 49.12 177.97 C 49.12 178.72 49.12 180.23 49.12 180.98 C 50.71 180.98 52.30 180.99 53.89 180.99 C 53.88 180.24 53.88 178.73 53.87 177.97 C 52.29 177.97 50.70 177.97 49.12 177.97 M 56.13 177.99 C 56.13 178.74 56.13 180.23 56.13 180.97 C 57.72 180.99 59.31 181.00 60.91 181.02 C 60.91 180.25 60.90 178.72 60.90 177.95 C 59.31 177.96 57.72 177.97 56.13 177.99 M 63.24 178.11 C 63.23 178.80 63.22 180.17 63.21 180.86 C 64.78 180.92 66.35 180.99 67.92 181.05 C 67.92 180.27 67.92 178.70 67.92 177.91 C 66.36 177.97 64.80 178.04 63.24 178.11 M 70.25 178.14 C 70.24 178.81 70.24 180.14 70.23 180.81 C 71.80 180.90 73.37 180.99 74.95 181.08 C 74.94 180.28 74.93 178.67 74.93 177.87 C 73.37 177.96 71.81 178.05 70.25 178.14 M 42.08 183.03 C 42.09 183.82 42.13 185.40 42.15 186.19 C 43.67 186.17 45.19 186.11 46.71 186.04 C 46.74 185.31 46.81 183.87 46.84 183.14 C 45.25 183.10 43.66 183.06 42.08 183.03 M 49.09 183.05 C 49.11 183.83 49.16 185.39 49.18 186.16 C 50.73 186.17 52.28 186.17 53.84 186.16 C 53.86 185.38 53.89 183.82 53.91 183.05 C 52.30 183.04 50.69 183.05 49.09 183.05 M 56.09 183.05 C 56.11 183.83 56.15 185.39 56.17 186.17 C 57.73 186.19 59.30 186.20 60.86 186.21 C 60.88 185.41 60.92 183.81 60.93 183.02 C 59.32 183.02 57.70 183.04 56.09 183.05 M 63.19 183.17 C 63.21 183.88 63.24 185.31 63.25 186.02 C 64.80 186.11 66.35 186.20 67.90 186.27 C 67.91 185.44 67.94 183.79 67.95 182.97 C 66.37 183.03 64.78 183.10 63.19 183.17 M 70.21 183.22 C 70.23 183.90 70.27 185.28 70.29 185.96 C 71.83 186.10 73.36 186.22 74.90 186.31 C 74.92 185.47 74.96 183.79 74.98 182.95 C 73.38 183.04 71.80 183.13 70.21 183.22 M 42.16 188.14 C 42.19 189.33 42.23 190.52 42.27 191.71 C 43.74 191.70 45.22 191.68 46.69 191.67 C 46.72 190.53 46.74 189.38 46.77 188.24 C 45.23 188.21 43.69 188.17 42.16 188.14 M 49.19 188.19 C 49.22 189.36 49.25 190.52 49.28 191.69 C 50.76 191.69 52.24 191.70 53.72 191.71 C 53.76 190.53 53.79 189.35 53.82 188.18 C 52.27 188.18 50.73 188.19 49.19 188.19 M 56.20 188.21 C 56.22 189.37 56.25 190.53 56.28 191.70 C 57.76 191.70 59.24 191.71 60.73 191.71 C 60.77 190.53 60.82 189.34 60.87 188.16 C 59.31 188.17 57.75 188.19 56.20 188.21 M 63.24 188.24 C 63.26 189.38 63.29 190.52 63.32 191.67 C 64.79 191.68 66.26 191.69 67.73 191.71 C 67.79 190.51 67.85 189.31 67.91 188.12 C 66.35 188.15 64.79 188.20 63.24 188.24 M 70.24 188.27 C 70.27 189.39 70.30 190.52 70.33 191.65 C 71.79 191.67 73.26 191.70 74.73 191.73 C 74.81 190.50 74.89 189.28 74.97 188.07 C 73.39 188.13 71.82 188.20 70.24 188.27 Z" />
</g>
<g id="#67738bff">
<path fill="#67738b" opacity="1.00" d=" M 129.06 178.96 C 129.19 177.80 129.10 176.03 130.77 176.21 C 137.51 176.95 144.31 177.08 151.06 176.38 C 153.38 176.19 155.70 176.06 158.03 176.01 C 160.77 175.97 163.51 175.98 166.26 175.94 C 167.12 181.69 166.91 187.52 166.79 193.32 C 157.86 193.53 148.93 193.39 140.01 193.63 C 136.43 193.94 131.85 192.43 129.29 195.73 L 128.95 196.00 C 129.13 190.32 128.82 184.63 129.06 178.96 M 131.92 177.83 C 131.92 178.64 131.93 180.25 131.93 181.06 C 133.31 181.06 134.68 181.06 136.06 181.07 C 136.07 180.26 136.08 178.63 136.08 177.82 C 134.69 177.82 133.31 177.82 131.92 177.83 M 138.94 177.83 C 138.94 178.64 138.95 180.26 138.95 181.07 C 140.34 181.07 141.74 181.07 143.13 181.07 C 143.13 180.26 143.14 178.64 143.14 177.83 C 141.74 177.83 140.34 177.83 138.94 177.83 M 145.97 177.85 C 145.97 178.65 145.97 180.26 145.97 181.07 C 147.38 181.07 148.78 181.07 150.19 181.07 C 150.19 180.26 150.19 178.64 150.19 177.84 C 148.78 177.84 147.37 177.84 145.97 177.85 M 153.00 177.93 C 153.00 178.72 153.01 180.28 153.01 181.06 C 154.41 181.06 155.82 181.07 157.22 181.07 C 157.22 180.29 157.22 178.73 157.22 177.95 C 155.81 177.94 154.40 177.94 153.00 177.93 M 160.01 177.91 C 160.01 178.69 160.01 180.27 160.01 181.06 C 161.42 181.05 162.83 181.04 164.25 181.03 C 164.25 180.25 164.26 178.70 164.26 177.92 C 162.84 177.92 161.42 177.91 160.01 177.91 M 131.93 182.98 C 131.93 183.79 131.93 185.42 131.94 186.23 C 133.31 186.23 134.69 186.23 136.07 186.24 C 136.07 185.42 136.08 183.79 136.08 182.97 C 134.69 182.97 133.31 182.97 131.93 182.98 M 138.93 182.97 C 138.94 183.79 138.95 185.42 138.95 186.24 C 140.35 186.23 141.74 186.22 143.13 186.21 C 143.14 185.41 143.16 183.79 143.18 182.99 C 141.76 182.98 140.35 182.97 138.93 182.97 M 145.96 182.97 C 145.96 183.79 145.98 185.42 145.99 186.23 C 147.39 186.23 148.79 186.22 150.19 186.22 C 150.19 185.41 150.21 183.79 150.22 182.98 C 148.79 182.98 147.37 182.97 145.96 182.97 M 152.99 182.96 C 153.00 183.79 153.02 185.43 153.03 186.25 C 154.42 186.24 155.81 186.23 157.20 186.23 C 157.21 185.42 157.22 183.81 157.23 183.00 C 155.81 182.99 154.40 182.98 152.99 182.96 M 159.99 182.98 C 160.00 183.79 160.02 185.42 160.03 186.24 C 161.43 186.23 162.83 186.23 164.24 186.22 C 164.25 185.42 164.26 183.80 164.27 183.00 C 162.84 182.99 161.42 182.98 159.99 182.98 M 131.89 188.07 C 131.99 189.29 132.09 190.50 132.19 191.72 C 133.40 191.72 134.61 191.72 135.82 191.73 C 135.92 190.51 136.03 189.29 136.14 188.07 C 134.72 188.07 133.30 188.07 131.89 188.07 M 138.90 188.06 C 139.00 189.28 139.09 190.51 139.19 191.74 C 140.43 191.73 141.67 191.72 142.90 191.71 C 143.00 190.50 143.09 189.29 143.19 188.08 C 141.76 188.07 140.33 188.06 138.90 188.06 M 145.93 188.07 C 146.02 189.30 146.11 190.52 146.20 191.75 C 147.45 191.73 148.69 191.72 149.94 191.70 C 150.06 190.50 150.17 189.31 150.28 188.12 C 148.83 188.10 147.38 188.08 145.93 188.07 M 152.97 188.07 C 153.05 189.30 153.13 190.53 153.22 191.76 C 154.46 191.74 155.71 191.72 156.97 191.70 C 157.08 190.50 157.19 189.31 157.30 188.12 C 155.86 188.10 154.41 188.08 152.97 188.07 M 159.98 188.08 C 160.07 189.35 160.16 190.61 160.26 191.88 C 162.84 192.08 165.92 191.10 164.18 188.06 C 162.78 188.07 161.38 188.07 159.98 188.08 Z" />
</g>
<g id="#3a365cff">
<path fill="#3a365c" opacity="1.00" d=" M 42.10 177.93 C 43.66 177.96 45.23 178.00 46.79 178.05 C 46.79 178.76 46.80 180.20 46.80 180.91 C 45.22 180.96 43.65 181.00 42.07 181.05 C 42.08 180.27 42.09 178.71 42.10 177.93 Z" />
<path fill="#3a365c" opacity="1.00" d=" M 49.12 177.97 C 50.70 177.97 52.29 177.97 53.87 177.97 C 53.88 178.73 53.88 180.24 53.89 180.99 C 52.30 180.99 50.71 180.98 49.12 180.98 C 49.12 180.23 49.12 178.72 49.12 177.97 Z" />
<path fill="#3a365c" opacity="1.00" d=" M 101.00 188.04 C 102.58 188.11 104.17 188.18 105.76 188.25 C 105.73 189.39 105.71 190.53 105.69 191.67 C 104.20 191.68 102.73 191.70 101.25 191.72 C 101.16 190.49 101.08 189.27 101.00 188.04 Z" />
<path fill="#3a365c" opacity="1.00" d=" M 108.04 188.08 C 109.62 188.12 111.19 188.16 112.77 188.21 C 112.75 189.37 112.72 190.53 112.70 191.69 C 111.21 191.70 109.73 191.71 108.24 191.72 C 108.17 190.51 108.11 189.29 108.04 188.08 Z" />
<path fill="#3a365c" opacity="1.00" d=" M 63.30 211.33 C 64.78 211.31 66.25 211.30 67.73 211.28 C 67.77 212.46 67.81 213.64 67.86 214.83 C 66.32 214.79 64.78 214.76 63.24 214.73 C 63.26 213.59 63.28 212.46 63.30 211.33 Z" />
<path fill="#3a365c" opacity="1.00" d=" M 101.23 211.27 C 102.72 211.29 104.20 211.31 105.69 211.34 C 105.71 212.48 105.73 213.63 105.75 214.77 C 104.16 214.85 102.58 214.93 101.00 215.01 C 101.07 213.76 101.15 212.51 101.23 211.27 Z" />
<path fill="#3a365c" opacity="1.00" d=" M 108.25 211.27 C 109.74 211.29 111.22 211.30 112.71 211.32 C 112.73 212.47 112.75 213.62 112.77 214.77 C 111.19 214.83 109.62 214.88 108.05 214.94 C 108.12 213.71 108.18 212.49 108.25 211.27 Z" />
</g>
<g id="#39365bff">
<path fill="#39365b" opacity="1.00" d=" M 56.13 177.99 C 57.72 177.97 59.31 177.96 60.90 177.95 C 60.90 178.72 60.91 180.25 60.91 181.02 C 59.31 181.00 57.72 180.99 56.13 180.97 C 56.13 180.23 56.13 178.74 56.13 177.99 Z" />
<path fill="#39365b" opacity="1.00" d=" M 93.99 188.03 C 95.57 188.11 97.15 188.18 98.73 188.26 C 98.71 189.39 98.70 190.52 98.68 191.66 C 97.19 191.69 95.69 191.71 94.20 191.75 C 94.13 190.51 94.06 189.27 93.99 188.03 Z" />
<path fill="#39365b" opacity="1.00" d=" M 152.97 188.07 C 154.41 188.08 155.86 188.10 157.30 188.12 C 157.19 189.31 157.08 190.50 156.97 191.70 C 155.71 191.72 154.46 191.74 153.22 191.76 C 153.13 190.53 153.05 189.30 152.97 188.07 Z" />
<path fill="#39365b" opacity="1.00" d=" M 159.98 188.08 C 161.38 188.07 162.78 188.07 164.18 188.06 C 165.92 191.10 162.84 192.08 160.26 191.88 C 160.16 190.61 160.07 189.35 159.98 188.08 Z" />
<path fill="#39365b" opacity="1.00" d=" M 87.22 211.16 C 88.70 211.30 90.18 211.45 91.66 211.60 C 91.49 212.71 91.34 213.84 91.20 214.96 C 89.79 214.96 88.38 214.95 86.98 214.96 C 87.06 213.69 87.14 212.42 87.22 211.16 Z" />
<path fill="#39365b" opacity="1.00" d=" M 132.17 211.28 C 133.39 211.27 134.60 211.27 135.82 211.27 C 135.90 212.47 135.98 213.67 136.06 214.88 C 134.68 214.88 133.30 214.88 131.92 214.89 C 132.00 213.68 132.09 212.48 132.17 211.28 Z" />
<path fill="#39365b" opacity="1.00" d=" M 160.25 211.15 C 161.62 211.30 163.00 211.45 164.38 211.60 C 164.54 212.63 164.70 213.66 164.86 214.70 C 163.23 214.78 161.61 214.85 159.98 214.93 C 160.07 213.67 160.16 212.41 160.25 211.15 Z" />
</g>
<g id="#37345aff">
<path fill="#37345a" opacity="1.00" d=" M 63.24 178.11 C 64.80 178.04 66.36 177.97 67.92 177.91 C 67.92 178.70 67.92 180.27 67.92 181.05 C 66.35 180.99 64.78 180.92 63.21 180.86 C 63.22 180.17 63.23 178.80 63.24 178.11 Z" />
<path fill="#37345a" opacity="1.00" d=" M 70.12 201.29 C 71.74 201.20 73.35 201.12 74.97 201.05 C 74.87 202.30 74.78 203.55 74.68 204.80 C 73.35 204.65 72.01 204.50 70.68 204.35 C 70.49 203.33 70.31 202.31 70.12 201.29 Z" />
<path fill="#37345a" opacity="1.00" d=" M 145.99 201.03 C 147.39 201.04 148.79 201.04 150.19 201.05 C 150.20 201.85 150.20 203.43 150.20 204.23 C 148.79 204.24 147.38 204.26 145.98 204.27 C 145.98 203.46 145.99 201.84 145.99 201.03 Z" />
</g>
<g id="#373459ff">
<path fill="#373459" opacity="1.00" d=" M 70.25 178.14 C 71.81 178.05 73.37 177.96 74.93 177.87 C 74.93 178.67 74.94 180.28 74.95 181.08 C 73.37 180.99 71.80 180.90 70.23 180.81 C 70.24 180.14 70.24 178.81 70.25 178.14 Z" />
<path fill="#373459" opacity="1.00" d=" M 159.99 182.98 C 161.42 182.98 162.84 182.99 164.27 183.00 C 164.26 183.80 164.25 185.42 164.24 186.22 C 162.83 186.23 161.43 186.23 160.03 186.24 C 160.02 185.42 160.00 183.79 159.99 182.98 Z" />
</g>
<g id="#373458ff">
<path fill="#373458" opacity="1.00" d=" M 86.99 177.79 C 88.57 177.91 90.16 178.04 91.74 178.17 C 91.74 178.83 91.75 180.15 91.75 180.81 C 90.16 180.92 88.57 181.03 86.98 181.14 C 86.99 180.31 86.99 178.63 86.99 177.79 Z" />
</g>
<g id="#373359ff">
<path fill="#373359" opacity="1.00" d=" M 94.00 177.83 C 95.58 177.94 97.17 178.06 98.75 178.18 C 98.75 178.84 98.75 180.16 98.75 180.83 C 97.17 180.93 95.58 181.04 94.00 181.15 C 94.00 180.32 94.00 178.66 94.00 177.83 Z" />
<path fill="#373359" opacity="1.00" d=" M 101.05 177.84 C 102.62 177.93 104.19 178.03 105.76 178.13 C 105.76 178.81 105.77 180.17 105.77 180.85 C 104.20 180.94 102.62 181.02 101.04 181.11 C 101.04 180.29 101.05 178.66 101.05 177.84 Z" />
<path fill="#373359" opacity="1.00" d=" M 138.94 177.83 C 140.34 177.83 141.74 177.83 143.14 177.83 C 143.14 178.64 143.13 180.26 143.13 181.07 C 141.74 181.07 140.34 181.07 138.95 181.07 C 138.95 180.26 138.94 178.64 138.94 177.83 Z" />
<path fill="#373359" opacity="1.00" d=" M 145.97 177.85 C 147.37 177.84 148.78 177.84 150.19 177.84 C 150.19 178.64 150.19 180.26 150.19 181.07 C 148.78 181.07 147.38 181.07 145.97 181.07 C 145.97 180.26 145.97 178.65 145.97 177.85 Z" />
<path fill="#373359" opacity="1.00" d=" M 153.00 177.93 C 154.40 177.94 155.81 177.94 157.22 177.95 C 157.22 178.73 157.22 180.29 157.22 181.07 C 155.82 181.07 154.41 181.06 153.01 181.06 C 153.01 180.28 153.00 178.72 153.00 177.93 Z" />
<path fill="#373359" opacity="1.00" d=" M 160.01 177.91 C 161.42 177.91 162.84 177.92 164.26 177.92 C 164.26 178.70 164.25 180.25 164.25 181.03 C 162.83 181.04 161.42 181.05 160.01 181.06 C 160.01 180.27 160.01 178.69 160.01 177.91 Z" />
<path fill="#373359" opacity="1.00" d=" M 131.93 182.98 C 133.31 182.97 134.69 182.97 136.08 182.97 C 136.08 183.79 136.07 185.42 136.07 186.24 C 134.69 186.23 133.31 186.23 131.94 186.23 C 131.93 185.42 131.93 183.79 131.93 182.98 Z" />
<path fill="#373359" opacity="1.00" d=" M 138.93 182.97 C 140.35 182.97 141.76 182.98 143.18 182.99 C 143.16 183.79 143.14 185.41 143.13 186.21 C 141.74 186.22 140.35 186.23 138.95 186.24 C 138.95 185.42 138.94 183.79 138.93 182.97 Z" />
<path fill="#373359" opacity="1.00" d=" M 152.99 182.96 C 154.40 182.98 155.81 182.99 157.23 183.00 C 157.22 183.81 157.21 185.42 157.20 186.23 C 155.81 186.23 154.42 186.24 153.03 186.25 C 153.02 185.43 153.00 183.79 152.99 182.96 Z" />
<path fill="#373359" opacity="1.00" d=" M 85.58 193.42 C 97.72 193.24 109.88 193.15 122.00 193.90 C 122.00 194.42 121.99 195.46 121.99 195.98 C 119.00 196.00 116.00 196.01 113.00 196.03 C 110.94 196.04 108.87 196.05 106.81 196.06 C 99.37 196.17 91.93 195.77 84.50 196.22 C 84.77 195.52 85.31 194.12 85.58 193.42 Z" />
</g>
<g id="#38345aff">
<path fill="#38345a" opacity="1.00" d=" M 108.06 177.91 C 109.62 177.96 111.18 178.01 112.74 178.07 C 112.78 178.80 112.84 180.25 112.87 180.97 C 111.26 181.00 109.66 181.04 108.05 181.07 C 108.05 180.28 108.06 178.70 108.06 177.91 Z" />
<path fill="#38345a" opacity="1.00" d=" M 93.94 200.95 C 95.62 201.06 97.31 201.17 99.00 201.28 C 99.16 204.28 96.85 204.96 94.29 204.88 C 94.17 203.57 94.05 202.26 93.94 200.95 Z" />
<path fill="#38345a" opacity="1.00" d=" M 138.98 201.04 C 140.35 201.05 141.73 201.06 143.10 201.07 C 143.11 201.86 143.13 203.44 143.14 204.23 C 141.75 204.24 140.37 204.25 138.99 204.26 C 138.98 203.46 138.98 201.85 138.98 201.04 Z" />
<path fill="#38345a" opacity="1.00" d=" M 153.02 201.04 C 154.41 201.04 155.81 201.05 157.21 201.06 C 157.21 201.85 157.21 203.44 157.21 204.23 C 155.81 204.24 154.42 204.25 153.03 204.26 C 153.03 203.46 153.02 201.84 153.02 201.04 Z" />
<path fill="#38345a" opacity="1.00" d=" M 160.02 201.03 C 161.42 201.04 162.83 201.05 164.24 201.07 C 164.23 201.86 164.23 203.44 164.23 204.23 C 162.83 204.24 161.44 204.25 160.04 204.26 C 160.04 203.45 160.03 201.84 160.02 201.03 Z" />
</g>
<g id="#39375bff">
<path fill="#39375b" opacity="1.00" d=" M 115.08 177.91 C 116.68 177.91 118.29 177.91 119.89 177.92 C 119.89 178.69 119.89 180.23 119.89 181.01 C 118.28 181.02 116.67 181.04 115.06 181.06 C 115.06 180.27 115.07 178.70 115.08 177.91 Z" />
</g>
<g id="#383359ff">
<path fill="#383359" opacity="1.00" d=" M 131.92 177.83 C 133.31 177.82 134.69 177.82 136.08 177.82 C 136.08 178.63 136.07 180.26 136.06 181.07 C 134.68 181.06 133.31 181.06 131.93 181.06 C 131.93 180.25 131.92 178.64 131.92 177.83 Z" />
<path fill="#383359" opacity="1.00" d=" M 145.96 182.97 C 147.37 182.97 148.79 182.98 150.22 182.98 C 150.21 183.79 150.19 185.41 150.19 186.22 C 148.79 186.22 147.39 186.23 145.99 186.23 C 145.98 185.42 145.96 183.79 145.96 182.97 Z" />
<path fill="#383359" opacity="1.00" d=" M 85.06 217.02 C 97.37 216.82 109.69 216.49 121.99 217.14 C 121.99 217.60 121.98 218.53 121.98 219.00 C 118.99 219.00 115.99 219.00 113.00 219.00 C 110.95 219.00 108.91 219.00 106.87 219.02 C 99.77 219.13 92.67 218.90 85.57 219.06 C 85.44 218.55 85.19 217.53 85.06 217.02 Z" />
</g>
<g id="#b6b7a4ff">
<path fill="#b6b7a4" opacity="1.00" d=" M 176.99 178.99 C 205.00 179.01 233.00 179.00 261.01 178.99 C 261.01 179.75 261.01 181.25 261.01 182.01 C 260.25 182.01 258.75 182.02 258.00 182.03 C 232.00 181.98 206.00 181.99 180.00 182.02 C 179.25 182.02 177.74 182.01 176.99 182.01 C 176.99 181.25 176.99 179.75 176.99 178.99 Z" />
</g>
<g id="#808066ff">
<path fill="#808066" opacity="1.00" d=" M 180.00 182.02 C 206.00 181.99 232.00 181.98 258.00 182.03 C 258.00 184.34 257.99 186.66 257.99 188.97 C 231.99 189.04 205.98 189.00 179.97 188.99 C 180.07 186.67 180.02 184.35 180.00 182.02 Z" />
<path fill="#808066" opacity="1.00" d=" M 229.05 196.40 C 231.16 197.79 233.10 199.41 235.09 200.97 C 235.15 200.42 235.27 199.32 235.33 198.77 C 235.39 199.33 235.52 200.43 235.58 200.98 C 235.91 208.23 235.71 215.50 235.68 222.76 C 235.63 223.24 235.53 224.22 235.47 224.71 C 234.27 226.97 233.37 229.40 233.38 232.00 L 226.92 232.00 L 226.92 231.13 C 226.90 221.06 227.83 211.02 228.21 200.96 C 228.44 199.43 228.75 197.92 229.05 196.40 Z" />
<path fill="#808066" opacity="1.00" d=" M 255.07 196.33 C 256.06 196.82 257.03 197.35 258.01 197.89 C 258.00 209.26 258.00 220.63 258.00 232.00 L 252.92 232.00 C 253.02 221.66 253.72 211.33 254.29 201.01 C 254.50 199.44 254.79 197.88 255.07 196.33 Z" />
<path fill="#808066" opacity="1.00" d=" M 203.14 196.53 C 205.13 197.92 207.03 199.42 208.98 200.87 C 209.06 200.34 209.23 199.26 209.31 198.72 C 209.39 199.29 209.55 200.43 209.62 201.00 C 210.06 208.19 209.66 215.41 209.89 222.61 C 209.58 223.53 209.25 224.46 208.90 225.38 C 208.00 227.48 207.52 229.72 207.35 232.00 L 200.88 232.00 C 201.31 220.18 201.06 208.21 203.14 196.53 Z" />
</g>
<g id="#38345bff">
<path fill="#38345b" opacity="1.00" d=" M 42.08 183.03 C 43.66 183.06 45.25 183.10 46.84 183.14 C 46.81 183.87 46.74 185.31 46.71 186.04 C 45.19 186.11 43.67 186.17 42.15 186.19 C 42.13 185.40 42.09 183.82 42.08 183.03 Z" />
</g>
<g id="#39365cff">
<path fill="#39365c" opacity="1.00" d=" M 49.09 183.05 C 50.69 183.05 52.30 183.04 53.91 183.05 C 53.89 183.82 53.86 185.38 53.84 186.16 C 52.28 186.17 50.73 186.17 49.18 186.16 C 49.16 185.39 49.11 183.83 49.09 183.05 Z" />
<path fill="#39365c" opacity="1.00" d=" M 56.09 183.05 C 57.70 183.04 59.32 183.02 60.93 183.02 C 60.92 183.81 60.88 185.41 60.86 186.21 C 59.30 186.20 57.73 186.19 56.17 186.17 C 56.15 185.39 56.11 183.83 56.09 183.05 Z" />
<path fill="#39365c" opacity="1.00" d=" M 115.05 182.99 C 116.66 183.00 118.28 183.01 119.90 183.03 C 119.89 183.82 119.86 185.41 119.85 186.21 C 118.26 186.23 116.67 186.24 115.09 186.24 C 115.08 185.43 115.06 183.80 115.05 182.99 Z" />
<path fill="#39365c" opacity="1.00" d=" M 145.93 188.07 C 147.38 188.08 148.83 188.10 150.28 188.12 C 150.17 189.31 150.06 190.50 149.94 191.70 C 148.69 191.72 147.45 191.73 146.20 191.75 C 146.11 190.52 146.02 189.30 145.93 188.07 Z" />
<path fill="#39365c" opacity="1.00" d=" M 139.20 211.25 C 140.43 211.27 141.67 211.28 142.90 211.30 C 142.99 212.49 143.08 213.68 143.17 214.87 C 141.76 214.87 140.36 214.88 138.96 214.89 C 139.04 213.67 139.12 212.46 139.20 211.25 Z" />
</g>
<g id="#38355bff">
<path fill="#38355b" opacity="1.00" d=" M 63.19 183.17 C 64.78 183.10 66.37 183.03 67.95 182.97 C 67.94 183.79 67.91 185.44 67.90 186.27 C 66.35 186.20 64.80 186.11 63.25 186.02 C 63.24 185.31 63.21 183.88 63.19 183.17 Z" />
<path fill="#38355b" opacity="1.00" d=" M 108.03 182.94 C 109.63 182.99 111.24 183.05 112.84 183.12 C 112.82 183.85 112.79 185.32 112.77 186.05 C 111.20 186.15 109.64 186.23 108.08 186.31 C 108.06 185.47 108.04 183.78 108.03 182.94 Z" />
<path fill="#38355b" opacity="1.00" d=" M 131.94 201.03 C 133.31 201.03 134.67 201.04 136.04 201.05 C 136.04 201.85 136.04 203.44 136.04 204.24 C 134.68 204.24 133.31 204.24 131.95 204.25 C 131.95 203.44 131.94 201.83 131.94 201.03 Z" />
</g>
<g id="#38335aff">
<path fill="#38335a" opacity="1.00" d=" M 70.21 183.22 C 71.80 183.13 73.38 183.04 74.98 182.95 C 74.96 183.79 74.92 185.47 74.90 186.31 C 73.36 186.22 71.83 186.10 70.29 185.96 C 70.27 185.28 70.23 183.90 70.21 183.22 Z" />
</g>
<g id="#37335aff">
<path fill="#37335a" opacity="1.00" d=" M 86.98 182.95 C 88.41 182.96 89.84 182.97 91.28 182.98 C 91.27 183.80 91.25 185.42 91.25 186.23 C 89.83 186.24 88.42 186.25 87.01 186.27 C 87.00 185.44 86.99 183.78 86.98 182.95 Z" />
<path fill="#37335a" opacity="1.00" d=" M 93.99 182.90 C 95.59 183.00 97.18 183.10 98.77 183.21 C 98.76 183.90 98.73 185.27 98.71 185.95 C 97.16 186.12 95.60 186.25 94.04 186.36 C 94.03 185.49 94.00 183.76 93.99 182.90 Z" />
<path fill="#37335a" opacity="1.00" d=" M 101.01 182.90 C 102.60 182.99 104.20 183.09 105.79 183.19 C 105.77 183.88 105.73 185.28 105.72 185.97 C 104.16 186.12 102.61 186.24 101.05 186.34 C 101.04 185.48 101.02 183.76 101.01 182.90 Z" />
</g>
<g id="#88936bb9">
<path fill="#88936b" opacity="0.73" d=" M 35.15 185.02 C 37.13 186.95 36.48 189.92 35.26 192.07 C 34.93 189.74 34.70 187.36 35.15 185.02 Z" />
</g>
<g id="#3a365dff">
<path fill="#3a365d" opacity="1.00" d=" M 42.16 188.14 C 43.69 188.17 45.23 188.21 46.77 188.24 C 46.74 189.38 46.72 190.53 46.69 191.67 C 45.22 191.68 43.74 191.70 42.27 191.71 C 42.23 190.52 42.19 189.33 42.16 188.14 Z" />
</g>
<g id="#3b375dff">
<path fill="#3b375d" opacity="1.00" d=" M 49.19 188.19 C 50.73 188.19 52.27 188.18 53.82 188.18 C 53.79 189.35 53.76 190.53 53.72 191.71 C 52.24 191.70 50.76 191.69 49.28 191.69 C 49.25 190.52 49.22 189.36 49.19 188.19 Z" />
<path fill="#3b375d" opacity="1.00" d=" M 56.20 188.21 C 57.75 188.19 59.31 188.17 60.87 188.16 C 60.82 189.34 60.77 190.53 60.73 191.71 C 59.24 191.71 57.76 191.70 56.28 191.70 C 56.25 190.53 56.22 189.37 56.20 188.21 Z" />
<path fill="#3b375d" opacity="1.00" d=" M 115.10 188.12 C 116.67 188.13 118.24 188.15 119.81 188.17 C 119.78 189.35 119.76 190.52 119.73 191.70 C 118.24 191.70 116.75 191.70 115.27 191.71 C 115.21 190.51 115.15 189.31 115.10 188.12 Z" />
<path fill="#3b375d" opacity="1.00" d=" M 138.96 206.12 C 140.36 206.12 141.76 206.12 143.16 206.12 C 143.08 207.32 142.99 208.52 142.91 209.73 C 141.66 209.73 140.41 209.74 139.17 209.76 C 139.09 208.54 139.03 207.33 138.96 206.12 Z" />
<path fill="#3b375d" opacity="1.00" d=" M 145.97 206.09 C 147.39 206.10 148.80 206.11 150.22 206.13 C 150.14 207.32 150.05 208.52 149.96 209.71 C 148.70 209.73 147.45 209.75 146.19 209.77 C 146.12 208.54 146.04 207.31 145.97 206.09 Z" />
<path fill="#3b375d" opacity="1.00" d=" M 56.29 211.30 C 57.76 211.30 59.24 211.29 60.72 211.29 C 60.75 212.46 60.78 213.64 60.81 214.82 C 59.28 214.80 57.75 214.78 56.23 214.76 C 56.25 213.61 56.27 212.45 56.29 211.30 Z" />
<path fill="#3b375d" opacity="1.00" d=" M 115.25 211.28 C 116.74 211.29 118.24 211.29 119.73 211.30 C 119.76 212.47 119.80 213.65 119.83 214.83 C 118.25 214.84 116.67 214.86 115.09 214.88 C 115.15 213.68 115.20 212.48 115.25 211.28 Z" />
</g>
<g id="#3a365bff">
<path fill="#3a365b" opacity="1.00" d=" M 63.24 188.24 C 64.79 188.20 66.35 188.15 67.91 188.12 C 67.85 189.31 67.79 190.51 67.73 191.71 C 66.26 191.69 64.79 191.68 63.32 191.67 C 63.29 190.52 63.26 189.38 63.24 188.24 Z" />
<path fill="#3a365b" opacity="1.00" d=" M 70.24 188.27 C 71.82 188.20 73.39 188.13 74.97 188.07 C 74.89 189.28 74.81 190.50 74.73 191.73 C 73.26 191.70 71.79 191.67 70.33 191.65 C 70.30 190.52 70.27 189.39 70.24 188.27 Z" />
<path fill="#3a365b" opacity="1.00" d=" M 86.95 188.00 C 88.59 188.09 90.22 188.19 91.85 188.29 C 91.69 189.33 91.54 190.36 91.38 191.40 C 90.00 191.55 88.62 191.70 87.24 191.85 C 87.14 190.57 87.05 189.28 86.95 188.00 Z" />
<path fill="#3a365b" opacity="1.00" d=" M 138.90 188.06 C 140.33 188.06 141.76 188.07 143.19 188.08 C 143.09 189.29 143.00 190.50 142.90 191.71 C 141.67 191.72 140.43 191.73 139.19 191.74 C 139.09 190.51 139.00 189.28 138.90 188.06 Z" />
<path fill="#3a365b" opacity="1.00" d=" M 153.23 211.25 C 154.47 211.26 155.71 211.28 156.95 211.30 C 157.06 212.48 157.17 213.66 157.27 214.85 C 155.84 214.87 154.41 214.89 152.98 214.91 C 153.06 213.69 153.14 212.47 153.23 211.25 Z" />
</g>
<g id="#3a375cff">
<path fill="#3a375c" opacity="1.00" d=" M 131.89 188.07 C 133.30 188.07 134.72 188.07 136.14 188.07 C 136.03 189.29 135.92 190.51 135.82 191.73 C 134.61 191.72 133.40 191.72 132.19 191.72 C 132.09 190.50 131.99 189.29 131.89 188.07 Z" />
<path fill="#3a375c" opacity="1.00" d=" M 56.14 201.17 C 57.72 201.14 59.31 201.13 60.90 201.11 C 60.88 201.89 60.85 203.44 60.84 204.22 C 59.29 204.22 57.75 204.21 56.21 204.17 C 56.19 203.42 56.16 201.92 56.14 201.17 Z" />
<path fill="#3a375c" opacity="1.00" d=" M 115.05 201.04 C 116.67 201.05 118.29 201.06 119.91 201.08 C 119.89 201.87 119.86 203.44 119.85 204.23 C 118.26 204.25 116.67 204.27 115.09 204.28 C 115.08 203.47 115.06 201.85 115.05 201.04 Z" />
<path fill="#3a375c" opacity="1.00" d=" M 86.97 206.04 C 88.58 206.12 90.20 206.21 91.82 206.30 C 91.70 207.36 91.59 208.42 91.47 209.48 C 90.05 209.59 88.62 209.71 87.20 209.83 C 87.12 208.57 87.04 207.30 86.97 206.04 Z" />
<path fill="#3a375c" opacity="1.00" d=" M 93.99 206.05 C 95.57 206.12 97.15 206.19 98.74 206.27 C 98.72 207.40 98.70 208.53 98.69 209.67 C 97.18 209.69 95.68 209.72 94.18 209.75 C 94.11 208.52 94.05 207.28 93.99 206.05 Z" />
<path fill="#3a375c" opacity="1.00" d=" M 131.92 206.10 C 133.31 206.10 134.69 206.10 136.08 206.11 C 136.00 207.32 135.92 208.53 135.85 209.75 C 134.62 209.74 133.39 209.74 132.16 209.74 C 132.08 208.53 132.00 207.31 131.92 206.10 Z" />
</g>
<g id="#959580ff">
<path fill="#959580" opacity="1.00" d=" M 179.97 188.99 C 205.98 189.00 231.99 189.04 257.99 188.97 C 257.98 191.94 257.99 194.91 258.01 197.89 C 257.03 197.35 256.06 196.82 255.07 196.33 C 252.83 196.04 250.58 195.92 248.33 195.88 C 247.95 195.31 247.18 194.17 246.80 193.60 C 245.59 193.60 244.39 193.60 243.20 193.60 C 242.82 194.18 242.05 195.33 241.67 195.91 C 239.48 195.96 237.29 196.06 235.10 196.16 C 235.16 196.81 235.27 198.12 235.33 198.77 C 235.27 199.32 235.15 200.42 235.09 200.97 C 233.10 199.41 231.16 197.79 229.05 196.40 C 226.80 196.17 224.54 196.06 222.28 196.00 C 222.00 195.36 221.43 194.08 221.15 193.44 C 219.70 193.43 218.26 193.43 216.81 193.43 C 216.52 194.07 215.95 195.36 215.66 196.01 C 213.56 196.08 211.46 196.24 209.36 196.39 C 209.35 196.97 209.32 198.14 209.31 198.72 C 209.23 199.26 209.06 200.34 208.98 200.87 C 207.03 199.42 205.13 197.92 203.14 196.53 C 200.96 196.10 198.73 195.93 196.52 195.87 C 195.53 193.37 193.07 193.16 190.75 193.30 C 190.47 193.97 189.92 195.31 189.64 195.97 C 187.45 196.00 185.27 196.05 183.09 196.11 C 183.57 205.78 184.09 215.56 183.03 225.20 C 182.07 227.35 181.40 229.63 181.35 232.00 L 180.00 232.00 C 180.05 221.90 179.90 211.80 180.07 201.70 C 180.16 198.68 179.85 195.67 179.57 192.67 C 179.72 191.45 179.87 190.22 179.97 188.99 Z" />
</g>
<g id="#383459ff">
<path fill="#383459" opacity="1.00" d=" M 39.78 193.17 C 52.15 194.28 64.60 193.19 76.99 193.82 C 76.99 194.36 76.99 195.44 76.99 195.98 C 71.97 196.03 66.96 195.99 61.95 196.03 C 59.63 196.04 57.32 196.04 55.01 196.02 C 50.71 195.94 46.42 196.09 42.13 195.99 C 41.60 195.94 40.54 195.84 40.01 195.79 C 39.95 195.13 39.84 193.82 39.78 193.17 Z" />
<path fill="#383459" opacity="1.00" d=" M 140.01 193.63 C 148.93 193.39 157.86 193.53 166.79 193.32 C 166.78 193.96 166.75 195.23 166.74 195.87 C 162.14 196.14 157.53 196.13 152.92 196.04 C 150.00 196.01 147.07 196.03 144.15 196.01 C 139.19 196.00 134.23 196.12 129.29 195.73 C 131.85 192.43 136.43 193.94 140.01 193.63 Z" />
</g>
<g id="#6e5845ff">
<path fill="#6e5845" opacity="1.00" d=" M 190.75 193.30 C 193.07 193.16 195.53 193.37 196.52 195.87 C 194.22 195.90 191.93 195.95 189.64 195.97 C 189.92 195.31 190.47 193.97 190.75 193.30 Z" />
</g>
<g id="#6d5845ff">
<path fill="#6d5845" opacity="1.00" d=" M 216.81 193.43 C 218.26 193.43 219.70 193.43 221.15 193.44 C 221.43 194.08 222.00 195.36 222.28 196.00 C 220.07 195.95 217.87 195.94 215.66 196.01 C 215.95 195.36 216.52 194.07 216.81 193.43 Z" />
</g>
<g id="#674e3bff">
<path fill="#674e3b" opacity="1.00" d=" M 241.67 195.91 C 242.05 195.33 242.82 194.18 243.20 193.60 C 244.39 193.60 245.59 193.60 246.80 193.60 C 247.18 194.17 247.95 195.31 248.33 195.88 C 246.11 195.85 243.89 195.86 241.67 195.91 Z" />
</g>
<g id="#aab8b3fd">
<path fill="#aab8b3" opacity="1.00" d=" M 55.01 196.02 C 57.32 196.04 59.63 196.04 61.95 196.03 C 61.92 196.78 61.86 198.28 61.84 199.03 C 59.56 199.05 57.27 199.05 54.99 199.03 C 55.00 198.28 55.00 196.77 55.01 196.02 Z" />
</g>
<g id="#acbbb6ff">
<path fill="#acbbb6" opacity="1.00" d=" M 84.50 196.22 C 91.93 195.77 99.37 196.17 106.81 196.06 C 106.81 196.80 106.81 198.27 106.82 199.00 C 99.48 198.89 92.11 199.44 84.80 198.62 C 84.73 198.02 84.57 196.82 84.50 196.22 Z" />
</g>
<g id="#7e9831ff">
<path fill="#7e9831" opacity="1.00" d=" M 106.81 196.06 C 108.87 196.05 110.94 196.04 113.00 196.03 C 113.00 196.77 113.00 198.25 113.00 198.99 C 110.94 198.99 108.88 199.00 106.82 199.00 C 106.81 198.27 106.81 196.80 106.81 196.06 Z" />
</g>
<g id="#abbab5fd">
<path fill="#abbab5" opacity="1.00" d=" M 144.15 196.01 C 147.07 196.03 150.00 196.01 152.92 196.04 C 153.39 197.02 153.85 198.00 154.32 198.99 C 151.13 199.04 147.94 199.00 144.75 198.98 C 144.55 197.99 144.35 197.00 144.15 196.01 Z" />
</g>
<g id="#dcb21fff">
<path fill="#dcb21f" opacity="1.00" d=" M 183.09 196.11 C 185.27 196.05 187.45 196.00 189.64 195.97 C 191.93 195.95 194.22 195.90 196.52 195.87 C 198.73 195.93 200.96 196.10 203.14 196.53 C 201.06 208.21 201.31 220.18 200.88 232.00 L 188.51 232.00 C 190.09 227.86 187.17 225.04 183.03 225.20 C 184.09 215.56 183.57 205.78 183.09 196.11 M 187.97 212.96 C 188.63 218.50 198.42 218.22 196.89 212.35 C 193.91 211.92 190.83 211.97 187.97 212.96 Z" />
</g>
<g id="#739221ff">
<path fill="#739221" opacity="1.00" d=" M 209.36 196.39 C 211.46 196.24 213.56 196.08 215.66 196.01 C 217.87 195.94 220.07 195.95 222.28 196.00 C 224.54 196.06 226.80 196.17 229.05 196.40 C 228.75 197.92 228.44 199.43 228.21 200.96 C 222.02 200.89 215.82 200.85 209.62 201.00 C 209.55 200.43 209.39 199.29 209.31 198.72 C 209.32 198.14 209.35 196.97 209.36 196.39 Z" />
</g>
<g id="#ac3817ff">
<path fill="#ac3817" opacity="1.00" d=" M 235.10 196.16 C 237.29 196.06 239.48 195.96 241.67 195.91 C 243.89 195.86 246.11 195.85 248.33 195.88 C 250.58 195.92 252.83 196.04 255.07 196.33 C 254.79 197.88 254.50 199.44 254.29 201.01 C 248.06 200.84 241.82 200.84 235.58 200.98 C 235.52 200.43 235.39 199.33 235.33 198.77 C 235.27 198.12 235.16 196.81 235.10 196.16 Z" />
</g>
<g id="#646c83ff">
<path fill="#646c83" opacity="1.00" d=" M 40.07 199.75 C 40.20 199.52 40.45 199.07 40.58 198.84 C 45.38 199.07 50.19 198.97 54.99 199.03 C 57.27 199.05 59.56 199.05 61.84 199.03 C 66.89 198.97 71.94 198.99 77.00 199.00 C 76.99 205.63 77.08 212.25 76.91 218.87 C 71.91 218.84 66.90 218.79 61.90 218.95 C 59.60 219.01 57.30 219.01 55.01 218.95 C 50.04 218.79 45.06 218.84 40.09 218.87 C 39.98 212.50 39.90 206.12 40.07 199.75 M 42.11 201.10 C 42.13 201.88 42.16 203.44 42.18 204.22 C 43.71 204.24 45.23 204.16 46.74 204.02 C 46.76 203.33 46.79 201.94 46.80 201.25 C 45.24 201.19 43.67 201.14 42.11 201.10 M 49.13 201.14 C 49.13 201.89 49.14 203.38 49.14 204.13 C 50.54 204.45 51.97 204.62 53.40 204.68 C 53.59 203.50 53.79 202.32 53.99 201.15 C 52.37 201.14 50.75 201.14 49.13 201.14 M 56.14 201.17 C 56.16 201.92 56.19 203.42 56.21 204.17 C 57.75 204.21 59.29 204.22 60.84 204.22 C 60.85 203.44 60.88 201.89 60.90 201.11 C 59.31 201.13 57.72 201.14 56.14 201.17 M 63.09 201.26 C 63.27 202.31 63.45 203.37 63.63 204.43 C 64.97 204.55 66.32 204.67 67.67 204.80 C 67.77 203.55 67.87 202.31 67.97 201.06 C 66.34 201.12 64.72 201.19 63.09 201.26 M 70.12 201.29 C 70.31 202.31 70.49 203.33 70.68 204.35 C 72.01 204.50 73.35 204.65 74.68 204.80 C 74.78 203.55 74.87 202.30 74.97 201.05 C 73.35 201.12 71.74 201.20 70.12 201.29 M 42.21 206.24 C 42.23 207.40 42.24 208.56 42.26 209.72 C 43.74 209.71 45.22 209.69 46.71 209.68 C 46.72 208.54 46.74 207.41 46.75 206.27 C 45.24 206.26 43.73 206.25 42.21 206.24 M 49.22 206.24 C 49.24 207.40 49.26 208.55 49.28 209.71 C 50.76 209.71 52.24 209.70 53.72 209.70 C 53.73 208.55 53.75 207.40 53.76 206.25 C 52.24 206.24 50.73 206.24 49.22 206.24 M 56.24 206.26 C 56.25 207.40 56.27 208.55 56.28 209.70 C 57.76 209.71 59.25 209.71 60.73 209.72 C 60.75 208.56 60.78 207.40 60.80 206.24 C 59.28 206.24 57.76 206.25 56.24 206.26 M 63.26 206.27 C 63.27 207.41 63.28 208.55 63.29 209.69 C 64.78 209.70 66.26 209.71 67.76 209.73 C 67.77 208.56 67.78 207.39 67.80 206.22 C 66.28 206.24 64.77 206.25 63.26 206.27 M 70.26 206.30 C 70.28 207.42 70.29 208.54 70.31 209.66 C 71.79 209.68 73.27 209.71 74.74 209.73 C 74.78 208.55 74.82 207.37 74.86 206.19 C 73.32 206.22 71.79 206.26 70.26 206.30 M 42.28 211.29 C 42.25 212.46 42.22 213.63 42.19 214.80 C 43.71 214.78 45.24 214.76 46.77 214.75 C 46.74 213.60 46.72 212.46 46.70 211.31 C 45.22 211.30 43.75 211.30 42.28 211.29 M 49.28 211.29 C 49.26 212.45 49.23 213.61 49.21 214.77 C 50.74 214.77 52.26 214.77 53.79 214.77 C 53.77 213.61 53.74 212.45 53.72 211.30 C 52.24 211.29 50.76 211.29 49.28 211.29 M 56.29 211.30 C 56.27 212.45 56.25 213.61 56.23 214.76 C 57.75 214.78 59.28 214.80 60.81 214.82 C 60.78 213.64 60.75 212.46 60.72 211.29 C 59.24 211.29 57.76 211.30 56.29 211.30 M 63.30 211.33 C 63.28 212.46 63.26 213.59 63.24 214.73 C 64.78 214.76 66.32 214.79 67.86 214.83 C 67.81 213.64 67.77 212.46 67.73 211.28 C 66.25 211.30 64.78 211.31 63.30 211.33 M 70.33 211.35 C 70.30 212.47 70.27 213.59 70.25 214.72 C 71.81 214.77 73.37 214.83 74.93 214.88 C 74.86 213.68 74.79 212.47 74.72 211.27 C 73.26 211.29 71.79 211.32 70.33 211.35 Z" />
</g>
<g id="#69748dff">
<path fill="#69748d" opacity="1.00" d=" M 84.27 221.24 C 84.33 213.74 83.00 205.95 84.80 198.62 C 92.11 199.44 99.48 198.89 106.82 199.00 C 108.88 199.00 110.94 198.99 113.00 198.99 C 115.99 198.99 118.99 199.00 121.99 199.02 C 122.01 205.06 122.02 211.10 121.99 217.14 C 109.69 216.49 97.37 216.82 85.06 217.02 C 85.19 217.53 85.44 218.55 85.57 219.06 C 85.13 219.78 84.69 220.51 84.27 221.24 M 86.91 200.96 C 87.04 202.28 87.17 203.62 87.30 204.95 C 88.76 204.59 90.21 204.23 91.67 203.85 C 91.70 203.20 91.76 201.91 91.80 201.26 C 90.17 201.16 88.54 201.05 86.91 200.96 M 93.94 200.95 C 94.05 202.26 94.17 203.57 94.29 204.88 C 96.85 204.96 99.16 204.28 99.00 201.28 C 97.31 201.17 95.62 201.06 93.94 200.95 M 101.02 200.99 C 101.01 201.79 101.01 203.40 101.01 204.21 C 103.60 205.31 106.21 204.46 106.00 201.25 C 104.34 201.15 102.68 201.07 101.02 200.99 M 107.97 201.00 C 108.08 202.26 108.19 203.52 108.30 204.78 C 109.67 204.67 111.05 204.57 112.43 204.47 C 112.59 203.38 112.75 202.29 112.92 201.20 C 111.27 201.13 109.62 201.06 107.97 201.00 M 115.05 201.04 C 115.06 201.85 115.08 203.47 115.09 204.28 C 116.67 204.27 118.26 204.25 119.85 204.23 C 119.86 203.44 119.89 201.87 119.91 201.08 C 118.29 201.06 116.67 201.05 115.05 201.04 M 86.97 206.04 C 87.04 207.30 87.12 208.57 87.20 209.83 C 88.62 209.71 90.05 209.59 91.47 209.48 C 91.59 208.42 91.70 207.36 91.82 206.30 C 90.20 206.21 88.58 206.12 86.97 206.04 M 93.99 206.05 C 94.05 207.28 94.11 208.52 94.18 209.75 C 95.68 209.72 97.18 209.69 98.69 209.67 C 98.70 208.53 98.72 207.40 98.74 206.27 C 97.15 206.19 95.57 206.12 93.99 206.05 M 101.07 206.11 C 101.11 207.32 101.16 208.53 101.21 209.75 C 102.71 209.72 104.20 209.69 105.70 209.67 C 105.71 208.54 105.73 207.40 105.75 206.27 C 104.19 206.21 102.63 206.16 101.07 206.11 M 108.10 206.15 C 108.14 207.34 108.17 208.54 108.21 209.73 C 109.72 209.72 111.23 209.71 112.74 209.70 C 112.74 208.54 112.75 207.39 112.76 206.23 C 111.21 206.20 109.65 206.17 108.10 206.15 M 115.10 206.13 C 115.14 207.33 115.18 208.53 115.23 209.73 C 116.73 209.72 118.24 209.71 119.74 209.71 C 119.76 208.54 119.77 207.38 119.79 206.21 C 118.22 206.18 116.66 206.16 115.10 206.13 M 87.22 211.16 C 87.14 212.42 87.06 213.69 86.98 214.96 C 88.38 214.95 89.79 214.96 91.20 214.96 C 91.34 213.84 91.49 212.71 91.66 211.60 C 90.18 211.45 88.70 211.30 87.22 211.16 M 94.23 211.17 C 94.14 212.46 94.06 213.75 93.98 215.04 C 95.59 214.94 97.20 214.84 98.82 214.74 C 98.70 213.67 98.58 212.60 98.47 211.53 C 97.05 211.41 95.64 211.29 94.23 211.17 M 101.23 211.27 C 101.15 212.51 101.07 213.76 101.00 215.01 C 102.58 214.93 104.16 214.85 105.75 214.77 C 105.73 213.63 105.71 212.48 105.69 211.34 C 104.20 211.31 102.72 211.29 101.23 211.27 M 108.25 211.27 C 108.18 212.49 108.12 213.71 108.05 214.94 C 109.62 214.88 111.19 214.83 112.77 214.77 C 112.75 213.62 112.73 212.47 112.71 211.32 C 111.22 211.30 109.74 211.29 108.25 211.27 M 115.25 211.28 C 115.20 212.48 115.15 213.68 115.09 214.88 C 116.67 214.86 118.25 214.84 119.83 214.83 C 119.80 213.65 119.76 212.47 119.73 211.30 C 118.24 211.29 116.74 211.29 115.25 211.28 Z" />
</g>
<g id="#67718aff">
<path fill="#67718a" opacity="1.00" d=" M 129.14 199.04 C 134.35 198.99 139.55 198.98 144.75 198.98 C 147.94 199.00 151.13 199.04 154.32 198.99 C 158.44 198.89 162.56 198.95 166.67 199.26 C 166.87 205.80 167.22 212.39 166.31 218.89 C 161.21 218.79 156.10 218.76 150.99 218.95 C 148.69 219.02 146.39 219.02 144.09 218.95 C 139.06 218.76 134.03 218.81 129.00 218.88 C 129.01 212.27 128.91 205.65 129.14 199.04 M 131.94 201.03 C 131.94 201.83 131.95 203.44 131.95 204.25 C 133.31 204.24 134.68 204.24 136.04 204.24 C 136.04 203.44 136.04 201.85 136.04 201.05 C 134.67 201.04 133.31 201.03 131.94 201.03 M 138.98 201.04 C 138.98 201.85 138.98 203.46 138.99 204.26 C 140.37 204.25 141.75 204.24 143.14 204.23 C 143.13 203.44 143.11 201.86 143.10 201.07 C 141.73 201.06 140.35 201.05 138.98 201.04 M 145.99 201.03 C 145.99 201.84 145.98 203.46 145.98 204.27 C 147.38 204.26 148.79 204.24 150.20 204.23 C 150.20 203.43 150.20 201.85 150.19 201.05 C 148.79 201.04 147.39 201.04 145.99 201.03 M 153.02 201.04 C 153.02 201.84 153.03 203.46 153.03 204.26 C 154.42 204.25 155.81 204.24 157.21 204.23 C 157.21 203.44 157.21 201.85 157.21 201.06 C 155.81 201.05 154.41 201.04 153.02 201.04 M 160.02 201.03 C 160.03 201.84 160.04 203.45 160.04 204.26 C 161.44 204.25 162.83 204.24 164.23 204.23 C 164.23 203.44 164.23 201.86 164.24 201.07 C 162.83 201.05 161.42 201.04 160.02 201.03 M 131.92 206.10 C 132.00 207.31 132.08 208.53 132.16 209.74 C 133.39 209.74 134.62 209.74 135.85 209.75 C 135.92 208.53 136.00 207.32 136.08 206.11 C 134.69 206.10 133.31 206.10 131.92 206.10 M 138.96 206.12 C 139.03 207.33 139.09 208.54 139.17 209.76 C 140.41 209.74 141.66 209.73 142.91 209.73 C 142.99 208.52 143.08 207.32 143.16 206.12 C 141.76 206.12 140.36 206.12 138.96 206.12 M 145.97 206.09 C 146.04 207.31 146.12 208.54 146.19 209.77 C 147.45 209.75 148.70 209.73 149.96 209.71 C 150.05 208.52 150.14 207.32 150.22 206.13 C 148.80 206.11 147.39 206.10 145.97 206.09 M 153.01 206.10 C 153.07 207.32 153.14 208.54 153.21 209.77 C 154.47 209.74 155.73 209.73 157.00 209.71 C 157.09 208.53 157.18 207.35 157.27 206.17 C 155.85 206.14 154.43 206.12 153.01 206.10 M 160.02 206.00 C 160.09 207.27 160.15 208.55 160.22 209.83 C 161.66 209.71 163.10 209.59 164.54 209.47 C 164.56 208.47 164.58 207.48 164.60 206.49 C 163.07 206.32 161.55 206.16 160.02 206.00 M 132.17 211.28 C 132.09 212.48 132.00 213.68 131.92 214.89 C 133.30 214.88 134.68 214.88 136.06 214.88 C 135.98 213.67 135.90 212.47 135.82 211.27 C 134.60 211.27 133.39 211.27 132.17 211.28 M 139.20 211.25 C 139.12 212.46 139.04 213.67 138.96 214.89 C 140.36 214.88 141.76 214.87 143.17 214.87 C 143.08 213.68 142.99 212.49 142.90 211.30 C 141.67 211.28 140.43 211.27 139.20 211.25 M 146.20 211.24 C 146.11 212.48 146.03 213.72 145.96 214.97 C 147.38 214.95 148.81 214.93 150.25 214.91 C 150.14 213.71 150.04 212.50 149.94 211.30 C 148.69 211.28 147.44 211.26 146.20 211.24 M 153.23 211.25 C 153.14 212.47 153.06 213.69 152.98 214.91 C 154.41 214.89 155.84 214.87 157.27 214.85 C 157.17 213.66 157.06 212.48 156.95 211.30 C 155.71 211.28 154.47 211.26 153.23 211.25 M 160.25 211.15 C 160.16 212.41 160.07 213.67 159.98 214.93 C 161.61 214.85 163.23 214.78 164.86 214.70 C 164.70 213.66 164.54 212.63 164.38 211.60 C 163.00 211.45 161.62 211.30 160.25 211.15 Z" />
</g>
<g id="#39355bff">
<path fill="#39355b" opacity="1.00" d=" M 42.11 201.10 C 43.67 201.14 45.24 201.19 46.80 201.25 C 46.79 201.94 46.76 203.33 46.74 204.02 C 45.23 204.16 43.71 204.24 42.18 204.22 C 42.16 203.44 42.13 201.88 42.11 201.10 Z" />
</g>
<g id="#3a375dff">
<path fill="#3a375d" opacity="1.00" d=" M 49.13 201.14 C 50.75 201.14 52.37 201.14 53.99 201.15 C 53.79 202.32 53.59 203.50 53.40 204.68 C 51.97 204.62 50.54 204.45 49.14 204.13 C 49.14 203.38 49.13 201.89 49.13 201.14 Z" />
<path fill="#3a375d" opacity="1.00" d=" M 153.01 206.10 C 154.43 206.12 155.85 206.14 157.27 206.17 C 157.18 207.35 157.09 208.53 157.00 209.71 C 155.73 209.73 154.47 209.74 153.21 209.77 C 153.14 208.54 153.07 207.32 153.01 206.10 Z" />
<path fill="#3a375d" opacity="1.00" d=" M 42.28 211.29 C 43.75 211.30 45.22 211.30 46.70 211.31 C 46.72 212.46 46.74 213.60 46.77 214.75 C 45.24 214.76 43.71 214.78 42.19 214.80 C 42.22 213.63 42.25 212.46 42.28 211.29 Z" />
</g>
<g id="#3a355bff">
<path fill="#3a355b" opacity="1.00" d=" M 63.09 201.26 C 64.72 201.19 66.34 201.12 67.97 201.06 C 67.87 202.31 67.77 203.55 67.67 204.80 C 66.32 204.67 64.97 204.55 63.63 204.43 C 63.45 203.37 63.27 202.31 63.09 201.26 Z" />
<path fill="#3a355b" opacity="1.00" d=" M 107.97 201.00 C 109.62 201.06 111.27 201.13 112.92 201.20 C 112.75 202.29 112.59 203.38 112.43 204.47 C 111.05 204.57 109.67 204.67 108.30 204.78 C 108.19 203.52 108.08 202.26 107.97 201.00 Z" />
</g>
<g id="#38355aff">
<path fill="#38355a" opacity="1.00" d=" M 86.91 200.96 C 88.54 201.05 90.17 201.16 91.80 201.26 C 91.76 201.91 91.70 203.20 91.67 203.85 C 90.21 204.23 88.76 204.59 87.30 204.95 C 87.17 203.62 87.04 202.28 86.91 200.96 Z" />
<path fill="#38355a" opacity="1.00" d=" M 101.02 200.99 C 102.68 201.07 104.34 201.15 106.00 201.25 C 106.21 204.46 103.60 205.31 101.01 204.21 C 101.01 203.40 101.01 201.79 101.02 200.99 Z" />
</g>
<g id="#83ba30ff">
<path fill="#83ba30" opacity="1.00" d=" M 209.62 201.00 C 215.82 200.85 222.02 200.89 228.21 200.96 C 227.83 211.02 226.90 221.06 226.92 231.13 C 223.83 231.20 220.73 231.13 217.65 230.87 C 217.10 226.51 214.42 223.11 209.89 222.61 C 209.66 215.41 210.06 208.19 209.62 201.00 M 216.12 217.92 C 218.05 217.94 219.99 217.95 221.92 217.95 C 222.08 214.33 221.87 209.35 219.00 207.13 C 216.16 209.30 215.98 214.33 216.12 217.92 Z" />
</g>
<g id="#db4917ff">
<path fill="#db4917" opacity="1.00" d=" M 235.58 200.98 C 241.82 200.84 248.06 200.84 254.29 201.01 C 253.72 211.33 253.02 221.66 252.92 232.00 L 249.57 232.00 C 247.47 231.79 245.39 231.50 243.31 231.16 C 243.55 226.45 240.39 222.95 235.68 222.76 C 235.71 215.50 235.91 208.23 235.58 200.98 M 241.24 209.15 C 240.87 211.44 241.05 213.77 241.10 216.07 C 243.72 216.30 246.36 216.31 249.00 216.11 C 249.04 213.49 248.98 210.88 248.79 208.27 C 246.32 208.49 243.37 207.64 241.24 209.15 Z" />
</g>
<g id="#3b385dff">
<path fill="#3b385d" opacity="1.00" d=" M 42.21 206.24 C 43.73 206.25 45.24 206.26 46.75 206.27 C 46.74 207.41 46.72 208.54 46.71 209.68 C 45.22 209.69 43.74 209.71 42.26 209.72 C 42.24 208.56 42.23 207.40 42.21 206.24 Z" />
<path fill="#3b385d" opacity="1.00" d=" M 49.22 206.24 C 50.73 206.24 52.24 206.24 53.76 206.25 C 53.75 207.40 53.73 208.55 53.72 209.70 C 52.24 209.70 50.76 209.71 49.28 209.71 C 49.26 208.55 49.24 207.40 49.22 206.24 Z" />
<path fill="#3b385d" opacity="1.00" d=" M 63.26 206.27 C 64.77 206.25 66.28 206.24 67.80 206.22 C 67.78 207.39 67.77 208.56 67.76 209.73 C 66.26 209.71 64.78 209.70 63.29 209.69 C 63.28 208.55 63.27 207.41 63.26 206.27 Z" />
<path fill="#3b385d" opacity="1.00" d=" M 108.10 206.15 C 109.65 206.17 111.21 206.20 112.76 206.23 C 112.75 207.39 112.74 208.54 112.74 209.70 C 111.23 209.71 109.72 209.72 108.21 209.73 C 108.17 208.54 108.14 207.34 108.10 206.15 Z" />
</g>
<g id="#3b385eff">
<path fill="#3b385e" opacity="1.00" d=" M 56.24 206.26 C 57.76 206.25 59.28 206.24 60.80 206.24 C 60.78 207.40 60.75 208.56 60.73 209.72 C 59.25 209.71 57.76 209.71 56.28 209.70 C 56.27 208.55 56.25 207.40 56.24 206.26 Z" />
<path fill="#3b385e" opacity="1.00" d=" M 115.10 206.13 C 116.66 206.16 118.22 206.18 119.79 206.21 C 119.77 207.38 119.76 208.54 119.74 209.71 C 118.24 209.71 116.73 209.72 115.23 209.73 C 115.18 208.53 115.14 207.33 115.10 206.13 Z" />
</g>
<g id="#3a375bff">
<path fill="#3a375b" opacity="1.00" d=" M 70.26 206.30 C 71.79 206.26 73.32 206.22 74.86 206.19 C 74.82 207.37 74.78 208.55 74.74 209.73 C 73.27 209.71 71.79 209.68 70.31 209.66 C 70.29 208.54 70.28 207.42 70.26 206.30 Z" />
<path fill="#3a375b" opacity="1.00" d=" M 70.33 211.35 C 71.79 211.32 73.26 211.29 74.72 211.27 C 74.79 212.47 74.86 213.68 74.93 214.88 C 73.37 214.83 71.81 214.77 70.25 214.72 C 70.27 213.59 70.30 212.47 70.33 211.35 Z" />
</g>
<g id="#3b365cff">
<path fill="#3b365c" opacity="1.00" d=" M 101.07 206.11 C 102.63 206.16 104.19 206.21 105.75 206.27 C 105.73 207.40 105.71 208.54 105.70 209.67 C 104.20 209.69 102.71 209.72 101.21 209.75 C 101.16 208.53 101.11 207.32 101.07 206.11 Z" />
</g>
<g id="#39375cff">
<path fill="#39375c" opacity="1.00" d=" M 160.02 206.00 C 161.55 206.16 163.07 206.32 164.60 206.49 C 164.58 207.48 164.56 208.47 164.54 209.47 C 163.10 209.59 161.66 209.71 160.22 209.83 C 160.15 208.55 160.09 207.27 160.02 206.00 Z" />
</g>
<g id="#678321ff">
<path fill="#678321" opacity="1.00" d=" M 216.12 217.92 C 215.98 214.33 216.16 209.30 219.00 207.13 C 221.87 209.35 222.08 214.33 221.92 217.95 C 219.99 217.95 218.05 217.94 216.12 217.92 Z" />
</g>
<g id="#9d3717ff">
<path fill="#9d3717" opacity="1.00" d=" M 241.24 209.15 C 243.37 207.64 246.32 208.49 248.79 208.27 C 248.98 210.88 249.04 213.49 249.00 216.11 C 246.36 216.31 243.72 216.30 241.10 216.07 C 241.05 213.77 240.87 211.44 241.24 209.15 Z" />
</g>
<g id="#3a385eff">
<path fill="#3a385e" opacity="1.00" d=" M 49.28 211.29 C 50.76 211.29 52.24 211.29 53.72 211.30 C 53.74 212.45 53.77 213.61 53.79 214.77 C 52.26 214.77 50.74 214.77 49.21 214.77 C 49.23 213.61 49.26 212.45 49.28 211.29 Z" />
</g>
<g id="#3a355cff">
<path fill="#3a355c" opacity="1.00" d=" M 94.23 211.17 C 95.64 211.29 97.05 211.41 98.47 211.53 C 98.58 212.60 98.70 213.67 98.82 214.74 C 97.20 214.84 95.59 214.94 93.98 215.04 C 94.06 213.75 94.14 212.46 94.23 211.17 Z" />
</g>
<g id="#39365dff">
<path fill="#39365d" opacity="1.00" d=" M 146.20 211.24 C 147.44 211.26 148.69 211.28 149.94 211.30 C 150.04 212.50 150.14 213.71 150.25 214.91 C 148.81 214.93 147.38 214.95 145.96 214.97 C 146.03 213.72 146.11 212.48 146.20 211.24 Z" />
</g>
<g id="#c5841fff">
<path fill="#c5841f" opacity="1.00" d=" M 187.97 212.96 C 190.83 211.97 193.91 211.92 196.89 212.35 C 198.42 218.22 188.63 218.50 187.97 212.96 Z" />
</g>
<g id="#aebdb7fe">
<path fill="#aebdb7" opacity="1.00" d=" M 55.01 218.95 C 57.30 219.01 59.60 219.01 61.90 218.95 C 61.92 219.72 61.95 221.25 61.97 222.01 C 61.98 222.76 62.00 224.25 62.00 225.00 C 62.01 227.33 62.00 229.66 62.00 232.00 L 55.00 232.00 C 55.00 227.65 55.00 223.30 55.01 218.95 Z" />
</g>
<g id="#aebeb7ff">
<path fill="#aebeb7" opacity="1.00" d=" M 85.57 219.06 C 92.67 218.90 99.77 219.13 106.87 219.02 C 106.85 219.76 106.81 221.24 106.79 221.98 C 106.78 222.72 106.76 224.19 106.76 224.92 C 106.77 227.28 106.86 229.64 106.95 232.00 L 92.96 232.00 C 92.96 229.67 92.97 227.35 92.98 225.03 C 95.26 225.00 97.55 224.90 99.84 224.80 C 99.85 224.10 99.89 222.71 99.91 222.01 C 94.57 221.82 89.22 222.02 83.88 222.01 L 84.27 221.24 C 84.69 220.51 85.13 219.78 85.57 219.06 Z" />
</g>
<g id="#809a34ff">
<path fill="#809a34" opacity="1.00" d=" M 106.87 219.02 C 108.91 219.00 110.95 219.00 113.00 219.00 C 113.00 219.75 113.00 221.24 113.00 221.99 C 110.93 221.98 108.86 221.98 106.79 221.98 C 106.81 221.24 106.85 219.76 106.87 219.02 Z" />
</g>
<g id="#aebdb6fe">
<path fill="#aebdb6" opacity="1.00" d=" M 144.09 218.95 C 146.39 219.02 148.69 219.02 150.99 218.95 C 151.00 223.30 151.00 227.65 151.00 232.00 L 144.01 232.00 C 144.00 229.66 143.98 227.33 143.99 225.00 C 144.00 224.25 144.02 222.76 144.02 222.01 C 144.04 221.25 144.07 219.71 144.09 218.95 Z" />
</g>
<g id="#848386ff">
<path fill="#848386" opacity="1.00" d=" M 61.97 222.01 C 69.27 222.00 76.58 222.00 83.88 222.01 C 89.22 222.02 94.57 221.82 99.91 222.01 C 99.89 222.71 99.85 224.10 99.84 224.80 C 97.55 224.90 95.26 225.00 92.98 225.03 C 89.99 225.03 87.00 224.98 84.01 224.99 C 76.68 225.01 69.34 224.99 62.00 225.00 C 62.00 224.25 61.98 222.76 61.97 222.01 Z" />
</g>
<g id="#848387ff">
<path fill="#848387" opacity="1.00" d=" M 106.79 221.98 C 108.86 221.98 110.93 221.98 113.00 221.99 C 123.34 222.04 133.68 221.99 144.02 222.01 C 144.02 222.76 144.00 224.25 143.99 225.00 C 133.66 224.99 123.33 225.02 113.00 224.99 C 110.92 224.97 108.84 224.94 106.76 224.92 C 106.76 224.19 106.78 222.72 106.79 221.98 Z" />
</g>
<g id="#76902fff">
<path fill="#76902f" opacity="1.00" d=" M 209.89 222.61 C 214.42 223.11 217.10 226.51 217.65 230.87 C 220.73 231.13 223.83 231.20 226.92 231.13 L 226.92 232.00 L 214.35 232.00 C 216.26 227.73 213.08 225.23 208.90 225.38 C 209.25 224.46 209.58 223.53 209.89 222.61 Z" />
</g>
<g id="#a93918ff">
<path fill="#a93918" opacity="1.00" d=" M 235.68 222.76 C 240.39 222.95 243.55 226.45 243.31 231.16 C 242.84 231.07 241.89 230.88 241.41 230.78 C 240.94 229.45 240.52 228.09 240.09 226.75 C 238.54 226.08 236.99 225.43 235.47 224.71 C 235.53 224.22 235.63 223.24 235.68 222.76 Z" />
</g>
<g id="#c9d2cefd">
<path fill="#c9d2ce" opacity="1.00" d=" M 84.01 224.99 C 87.00 224.98 89.99 225.03 92.98 225.03 C 92.97 227.35 92.96 229.67 92.96 232.00 L 84.00 232.00 C 84.00 229.66 84.01 227.32 84.01 224.99 Z" />
</g>
<g id="#644834ff">
<path fill="#644834" opacity="1.00" d=" M 233.38 232.00 C 233.37 229.40 234.27 226.97 235.47 224.71 C 236.99 225.43 238.54 226.08 240.09 226.75 C 240.52 228.09 240.94 229.45 241.41 230.78 C 241.89 230.88 242.84 231.07 243.31 231.16 C 245.39 231.50 247.47 231.79 249.57 232.00 L 233.38 232.00 Z" />
</g>
<g id="#634835ff">
<path fill="#634835" opacity="1.00" d=" M 183.03 225.20 C 187.17 225.04 190.09 227.86 188.51 232.00 L 181.35 232.00 C 181.40 229.63 182.07 227.35 183.03 225.20 Z" />
<path fill="#634835" opacity="1.00" d=" M 208.90 225.38 C 213.08 225.23 216.26 227.73 214.35 232.00 L 207.35 232.00 C 207.52 229.72 208.00 227.48 208.90 225.38 Z" />
</g>
</svg>
