<?xml version="1.0" encoding="utf-8"?>
<!-- Generator: Adobe Illustrator 16.0.0, SVG Export Plug-In . SVG Version: 6.00 Build 0)  -->
<!DOCTYPE svg PUBLIC "-//W3C//DTD SVG 1.1//EN" "http://www.w3.org/Graphics/SVG/1.1/DTD/svg11.dtd">
<svg version="1.1" id="Capa_1" xmlns="http://www.w3.org/2000/svg" xmlns:xlink="http://www.w3.org/1999/xlink" x="0px" y="0px"
	 width="277px" height="280px" viewBox="0 0 277 280" enable-background="new 0 0 277 280" xml:space="preserve">
<g id="_x23_b7bbbad7">
	<path opacity="0.84" fill="#B7BBBA" enable-background="new    " d="M135.85,12.17c-2.48-2.17-2.35-6.44,1.23-7.16
		c4.07-0.97,6.26,3.94,4.01,7.01l-1.05,0.03c-0.78,0.02-2.34,0.07-3.12,0.09L135.85,12.17z"/>
</g>
<g id="_x23_4d4e4d53">
	<path opacity="0.33" fill="#4D4E4D" enable-background="new    " d="M135.85,12.17l1.07-0.03c-0.35,4.33,0.93,8.95-0.57,13.15
		C136.09,20.92,136.01,16.55,135.85,12.17z"/>
</g>
<g id="_x23_e3e8e8fd">
	<path fill="#E3E8E8" d="M136.92,12.14c0.78-0.02,2.34-0.07,3.12-0.09c0.36,4.36-0.87,9.01,0.58,13.24
		c1.61,4.9,5.3,8.69,9.229,11.85l0.36,0.86l-0.931,0.06c-7.029-0.04-14.069-0.18-21.089,0c-0.08,0.73-0.22,2.19-0.3,2.92
		c-1.63,0.02-3.27,0.04-4.9,0.06c-1.5-0.03-4.48-0.09-5.98-0.12c-1.72-5.79,6.99-1.62,9.66-3.23c4.26-3.18,7.94-7.33,9.68-12.4
		C137.85,21.09,136.57,16.47,136.92,12.14z"/>
</g>
<g id="_x23_2e2e2e31">
	<path opacity="0.19" fill="#2E2E2E" enable-background="new    " d="M140.04,12.05l1.05-0.03c-0.17,4.42-0.26,8.85-0.47,13.27
		C139.17,21.06,140.4,16.41,140.04,12.05z"/>
</g>
<g id="_x23_1818181a">
	<path opacity="0.1" fill="#181818" enable-background="new    " d="M149.85,37.14c2.48,0.74,8.961-2.4,9.17,0.88
		c-2.949-0.01-5.869-0.02-8.81-0.02L149.85,37.14z"/>
</g>
<g id="_x23_c2cbcbff">
	<path fill="#C2CBCB" d="M128.19,38.06c7.02-0.18,14.06-0.04,21.089,0c-0.43,0.99-0.92,1.94-1.469,2.87
		c-6.641,0.17-13.281,0.1-19.92,0.05C127.97,40.25,128.11,38.79,128.19,38.06z"/>
	<path fill="#C2CBCB" d="M129.08,125.03c6.66-0.08,13.311-0.03,19.98-0.021c-0.15,2.7,0.189,5.53-0.971,8.06
		c-0.58,0.19-1.73,0.59-2.3,0.78c-2.59-0.56-4.94-2.1-7.57-2.38c-2.38,0.62-4.57,1.79-6.97,2.35c-1.11-0.32-2.22-0.61-3.33-0.89
		C127.99,130.25,128.53,127.64,129.08,125.03z"/>
</g>
<g id="_x23_a6b2b2ff">
	<path fill="#A6B2B2" d="M149.279,38.06L150.21,38c2.94,0,5.86,0.01,8.81,0.02c0.08,1.54,0.26,3.4-1.89,3.07
		c-3.19-0.94-3.47,1.31-3.19,3.9C143.63,45,133.33,45,123.02,45c-0.02-1.32-0.03-2.64-0.03-3.96c1.63-0.02,3.27-0.04,4.9-0.06
		c6.64,0.05,13.28,0.12,19.92-0.05C148.359,40,148.85,39.05,149.279,38.06z"/>
</g>
<g id="_x23_0c0d0d0d">
	<path opacity="0.05" fill="#0C0D0D" enable-background="new    " d="M153.939,44.99c-0.279-2.59,0-4.84,3.19-3.9
		c-0.67,0.64-1.989,1-1.67,2.17c0.229,5.67,0.271,11.39-0.28,17.04l-1.05-0.3C154.01,55,154.02,50,153.939,44.99z"/>
</g>
<g id="_x23_d2d8d7ff">
	<path fill="#D2D8D7" d="M123.02,45c10.31,0,20.61,0,30.919-0.01C154.02,50,154.01,55,154.13,60c-0.09,3.67-0.14,7.35-0.14,11.02
		c-2.01,0.02-4.03,0.03-6.04,0.01l-0.25-0.82c-0.03-5.12,1.03-10.38-0.28-15.42l-0.07-0.75c-0.42-10.52-17.02-9.81-18.45-0.28
		c-1.58,5.57-0.62,11.521-0.92,17.23c-1.68,0.03-3.36,0.06-5.04,0.05l-0.25-0.82c0.11-2.84,0.19-5.67,0.21-8.51
		C123.03,56.14,122.99,50.57,123.02,45z"/>
</g>
<g id="_x23_825d32fb">
	<path fill="#825D32" d="M128.9,53.76c1.43-9.53,18.03-10.24,18.45,0.28c-1.43,0.3-2.84,0.66-4.26,0.99
		c-1.16-5.2-8.87-5.29-10.16-0.13C131.61,54.46,130.25,54.08,128.9,53.76z"/>
</g>
<g id="_x23_fbaa23ff">
	<path fill="#FBAA23" d="M132.93,54.9c1.29-5.16,9-5.07,10.16,0.13c0.01,1.24,0.051,2.49,0.1,3.74
		c-3.399,0.11-6.779,0.22-10.169,0.26C132.99,57.65,132.96,56.27,132.93,54.9z"/>
</g>
<g id="_x23_0a0a090b">
	<path opacity="0.04" fill="#0A0A09" enable-background="new    " d="M128.9,53.76c1.35,0.32,2.71,0.7,4.03,1.14
		c0.03,1.37,0.06,2.75,0.09,4.13c-0.02,0.72-0.04,2.18-0.06,2.9c-3.88-1.05-1.91,7.56,2.59,3.39c-0.21,2.61,2.94,3.86,4.4,1.64
		c0.989-1.96,3.149-1.91,5.04-2.25c0.039-1.27-0.32-2.48-0.82-3.63c-0.25-0.58-0.73-1.73-0.98-2.31c-0.049-1.25-0.09-2.5-0.1-3.74
		c1.42-0.33,2.83-0.69,4.26-0.99l0.07,0.75c0.051,5.09-1.46,10.48,0.28,15.42l0.25,0.82c-6.66-0.021-13.31-0.01-19.97-0.04
		C128.28,65.28,127.32,59.33,128.9,53.76z"/>
</g>
<g id="_x23_5857575c">
	<path opacity="0.36" fill="#585757" enable-background="new    " d="M147.42,54.79c1.311,5.04,0.25,10.3,0.28,15.42
		C145.96,65.27,147.471,59.88,147.42,54.79z"/>
</g>
<g id="_x23_d88f25f6">
	<path opacity="0.96" fill="#D88F25" enable-background="new    " d="M133.02,59.03c3.39-0.04,6.77-0.15,10.169-0.26
		c0.25,0.58,0.73,1.73,0.98,2.31c-3.68,0.81-7.46,1.03-11.21,0.85C132.98,61.21,133,59.75,133.02,59.03z"/>
</g>
<g id="_x23_1919191a">
	<path opacity="0.1" fill="#191919" enable-background="new    " d="M154.13,60l1.05,0.3c-0.58,2.71-0.06,5.33,2.53,6.69
		c0.149,1.31,0.24,2.62,0.261,3.94c-1.32,0.07-2.65,0.1-3.98,0.09C153.99,67.35,154.04,63.67,154.13,60z"/>
</g>
<g id="_x23_f8ac31fe">
	<path fill="#F8AC31" d="M132.96,61.93c3.75,0.18,7.53-0.04,11.21-0.85c0.5,1.15,0.859,2.36,0.82,3.63
		c-1.891,0.34-4.051,0.29-5.04,2.25c-1.46,2.22-4.61,0.97-4.4-1.64C131.05,69.49,129.08,60.88,132.96,61.93z"/>
</g>
<g id="_x23_0c0c0c0c">
	<path opacity="0.05" fill="#0C0C0C" enable-background="new    " d="M118.1,66.14c1.35-1.29,2.23-3.14,3.94-3.99
		c0.01,2.7-0.38,5.51,0.65,8.07l0.25,0.82c-1.63,0-3.27-0.01-4.9-0.07l0.04-1.02c1.36,0.46,3.56,0,3.09-1.9
		c-0.3-1.74-2.19-0.09-3.08,0.14C118.09,67.68,118.1,66.65,118.1,66.14z"/>
</g>
<g id="_x23_2e2e2e33">
	<path opacity="0.2" fill="#2E2E2E" enable-background="new    " d="M122.04,62.15l0.86-0.44c-0.02,2.84-0.1,5.67-0.21,8.51
		C121.66,67.66,122.05,64.85,122.04,62.15z"/>
</g>
<g id="_x23_c5c9c7ff">
	<path fill="#C5C9C7" d="M112.16,71.37c4.08,0.64,1.14-5.37,3.87-5.25c0.32,1.84-1.22,5.74,2.01,4.85c1.63,0.061,3.27,0.07,4.9,0.07
		c1.68,0.01,3.36-0.02,5.04-0.05c6.66,0.03,13.31,0.02,19.97,0.04c2.01,0.02,4.03,0.01,6.04-0.01c1.33,0.01,2.66-0.02,3.98-0.09
		c-0.021-1.32-0.111-2.63-0.261-3.94c1.96-1.56,6.681-2.23,3.511,3.71c1.229,0.19,2.469,0.37,3.709,0.54
		c0.09,1.76,0.721,4.46-2.02,3.78c-0.721,0-2.16,0.01-2.881,0.02c-14.709-0.06-29.419-0.1-44.129,0.03
		C112.91,75.58,111,74.57,112.16,71.37z"/>
</g>
<g id="_x23_ac7d49fe">
	<path fill="#AC7D49" d="M116.03,66.12c0.52,0,1.56,0.01,2.07,0.02c0,0.51-0.01,1.54-0.01,2.05c0,0.44,0,1.32-0.01,1.76l-0.04,1.02
		C114.81,71.86,116.35,67.96,116.03,66.12z"/>
</g>
<g id="_x23_22222323">
	<path opacity="0.14" fill="#222223" enable-background="new    " d="M118.09,68.19c0.89-0.23,2.78-1.88,3.08-0.14
		c0.47,1.9-1.73,2.36-3.09,1.9C118.09,69.51,118.09,68.63,118.09,68.19z"/>
</g>
<g id="_x23_a3afaffc">
	<path fill="#A3AFAF" d="M115.9,75.07c14.71-0.13,29.42-0.09,44.129-0.03c-0.01,0.73-0.029,2.2-0.029,2.94l-0.891,0.09
		c-13.02,0.05-26.049-0.32-39.06,0.01c-0.33,0.23-1,0.69-1.34,0.92c-0.53-0.71-1.06-1.42-1.59-2.14
		C116.82,76.41,116.2,75.52,115.9,75.07z"/>
</g>
<g id="_x23_969b9bb8">
	<path opacity="0.72" fill="#969B9B" enable-background="new    " d="M117.12,76.86c0.53,0.72,1.06,1.43,1.59,2.14
		c0.42,8.65,0.3,17.3,0.29,25.96l-0.92,0.24c-0.08-4.31-0.15-8.63-0.35-12.93c0.04-3.51,0.89-7.18-0.49-10.53
		C117.15,80.11,117.13,78.49,117.12,76.86z"/>
</g>
<g id="_x23_c0c6c6e9">
	<path opacity="0.91" fill="#C0C6C6" enable-background="new    " d="M118.71,79c0.34-0.23,1.01-0.69,1.34-0.92
		c-0.16,8.88,0.15,17.76-0.16,26.64l-0.89,0.24C119.01,96.3,119.13,87.65,118.71,79z"/>
</g>
<g id="_x23_d0d6d6fd">
	<path fill="#D0D6D6" d="M120.05,78.08c13.01-0.33,26.04,0.04,39.06-0.01c-1.81,2.29-4.83,4.2-3.069,7.93
		c0.229,9.33-0.53,18.69-0.22,28c-12.7,0.03-25.41-0.05-38.11,0.06c0.28-2.95,0.27-5.92,0.37-8.86l0.92-0.24l0.89-0.24
		C120.2,95.84,119.89,86.96,120.05,78.08 M126.99,84.98c-3.87,2.88-1.04,7.35-1.08,11.12L125,95.96c0.01,1.5,0.01,4.49,0.01,5.98
		c1.3,0.09,2.59,0.13,3.9,0.12c0.31,0.44,0.94,1.34,1.26,1.78c-1.39,0.01-2.78,0.06-4.17,0.16c-1.54-0.86-1.61,3.98-0.25,2.83
		c8.4,0.51,16.83,0.05,25.24,0.14c0.01-0.479,0.01-1.45,0.02-1.939c0.27-2.061-3.06-0.71-4.279-1.24c0.31-0.99,0.76-1.9,1.35-2.75
		c-1.141,1.48,3.84,1.59,2.93-0.04c-0.38-0.96,0.91-4.72-0.789-3.76c0.739-3.04,2.229-6.2,0.789-9.25
		C148.71,77.15,132.16,76.09,126.99,84.98 M126,109.02V110c-0.25,0.49-0.74,1.47-0.99,1.97c8.66,0.1,17.32,0.07,25.98,0
		c0-0.49,0-1.47,0-1.96l0.01-0.979C142.67,108.95,134.33,108.95,126,109.02z"/>
</g>
<g id="_x23_d5dbdbff">
	<path fill="#D5DBDB" d="M159.109,78.07L160,77.98c0.029,12.01-0.02,24.01-0.01,36.02c-1.391,0-2.78,0.01-4.17,0
		c-0.311-9.31,0.449-18.67,0.22-28C154.279,82.27,157.3,80.36,159.109,78.07z"/>
</g>
<g id="_x23_dde2e3ff">
	<path fill="#DDE2E3" d="M126.99,84.98c5.17-8.89,21.72-7.83,24.02,3.01c1.44,3.05-0.05,6.21-0.789,9.25
		c-0.611,1.32-1.341,2.59-2.141,3.8c-0.59,0.85-1.04,1.76-1.35,2.75c-1.34,0.28-2.66,0.58-3.98,0.95c-3.18,0.12-6.35,0.33-9.53,0.03
		c-1.01-0.33-2.03-0.64-3.05-0.93c-0.32-0.44-0.95-1.34-1.26-1.78c-1.2-1.88-2.36-3.81-3-5.96
		C125.95,92.33,123.12,87.86,126.99,84.98 M136.33,82.41c-4.06,0.47-6.83,4.08-8.33,7.62c-1.23,6.54,3.91,12.1,10,12.979
		c3.779-0.76,8.471-2.09,9.63-6.31C151.62,89.74,144.12,80.32,136.33,82.41z"/>
</g>
<g id="_x23_2b2d2d35">
	<path opacity="0.21" fill="#2B2D2D" enable-background="new    " d="M117.24,81.74c1.38,3.35,0.53,7.02,0.49,10.53
		C116.44,88.9,117.18,85.23,117.24,81.74z"/>
</g>
<g id="_x23_585968ff">
	<path fill="#585968" d="M136.33,82.41c7.79-2.09,15.29,7.33,11.3,14.29c-1.159,4.22-5.851,5.55-9.63,6.31
		c-6.09-0.88-11.23-6.44-10-12.979C129.5,86.49,132.27,82.88,136.33,82.41 M134.92,85.93c0.81,2.75,1.86,5.46,3.19,8
		c1.98-0.65,2.59-3.45,3.91-5.03c-1.529,0.11-2.59,1.18-3.779,1.99C137.35,89.16,137.09,86.54,134.92,85.93z"/>
</g>
<g id="_x23_c9cdd0ff">
	<path fill="#C9CDD0" d="M134.92,85.93c2.17,0.61,2.43,3.23,3.32,4.96c1.189-0.81,2.25-1.88,3.779-1.99
		c-1.319,1.58-1.93,4.38-3.91,5.03C136.78,91.39,135.73,88.68,134.92,85.93z"/>
</g>
<g id="_x23_a4ababff">
	<path fill="#A4ABAB" d="M125,95.96l0.91,0.14c0.64,2.15,1.8,4.08,3,5.96c-1.31,0.01-2.6-0.03-3.9-0.12
		C125.01,100.45,125.01,97.46,125,95.96z"/>
</g>
<g id="_x23_9fa6a6ff">
	<path fill="#9FA6A6" d="M150.221,97.24c1.699-0.96,0.409,2.8,0.789,3.76c0.91,1.63-4.07,1.52-2.93,0.04
		C148.88,99.83,149.609,98.56,150.221,97.24z"/>
</g>
<g id="_x23_acb5b4ff">
	<path fill="#ACB5B4" d="M125.75,106.83c-1.36,1.15-1.29-3.69,0.25-2.83c1.39-0.1,2.78-0.15,4.17-0.16c1.02,0.29,2.04,0.6,3.05,0.93
		C130.57,105.19,126.11,103.37,125.75,106.83z"/>
</g>
<g id="_x23_afb7b6ff">
	<path fill="#AFB7B6" d="M142.75,104.74c1.32-0.37,2.641-0.67,3.98-0.95c1.22,0.53,4.549-0.82,4.279,1.24
		C148.25,104.93,145.5,104.83,142.75,104.74z"/>
</g>
<g id="_x23_97a0a0ff">
	<path fill="#97A0A0" d="M125.75,106.83c0.36-3.46,4.82-1.64,7.47-2.06c3.18,0.3,6.35,0.09,9.53-0.03c2.75,0.09,5.5,0.19,8.26,0.29
		c-0.01,0.49-0.01,1.46-0.02,1.939C142.58,106.88,134.15,107.34,125.75,106.83z"/>
</g>
<g id="_x23_b7c0c0ff">
	<path fill="#B7C0C0" d="M126,109.02c8.33-0.07,16.67-0.07,25,0.01l-0.01,0.979c-8.33-0.02-16.66,0-24.99-0.01V109.02z"/>
</g>
<g id="_x23_969e9dff">
	<path fill="#969E9D" d="M125.01,111.97c0.25-0.5,0.74-1.479,0.99-1.97c8.33,0.01,16.66-0.01,24.99,0.01c0,0.49,0,1.47,0,1.96
		C142.33,112.04,133.67,112.07,125.01,111.97z"/>
</g>
<g id="_x23_a77640fe">
	<path fill="#A77640" d="M112.12,122.07c1.12-3.08,3.49-5.56,5.59-8.01c13.99,2.01,28.25,0.54,42.36,0.84
		c0.609,0.72,1.22,1.45,1.83,2.17c0.229,0.27,0.68,0.8,0.91,1.07c0.67,1.32,1.42,2.6,2,3.97
		C147.25,121.9,129.68,121.97,112.12,122.07z"/>
</g>
<g id="_x23_c0b19cff">
	<path fill="#C0B19C" d="M117.71,114.06c12.7-0.11,25.41-0.03,38.11-0.06c1.39,0.01,2.779,0,4.17,0l0.08,0.9
		C145.96,114.6,131.7,116.07,117.71,114.06z"/>
</g>
<g id="_x23_b6ba9fff">
	<path fill="#B6BA9F" d="M31.93,123.95c0.49-1.15-0.87-4.25,1.11-3.95c2.83-0.93,1.74,2.32,2.03,3.98
		C34.28,123.97,32.71,123.96,31.93,123.95z"/>
</g>
<g id="_x23_b2b89cff">
	<path fill="#B2B89C" d="M243.21,120.08c3.13-1.15,2.96,1.57,2.86,3.89c-0.771,0-2.311,0-3.07,0.01c-0.04-0.51-0.109-1.51-0.15-2.01
		C242.939,121.5,243.12,120.55,243.21,120.08z"/>
</g>
<g id="_x23_875244ff">
	<path fill="#875244" d="M112.12,122.07c17.56-0.1,35.13-0.17,52.69,0.04c0.14,0.48,0.43,1.44,0.569,1.92
		c-0.78,0.689-1.58,1.37-2.39,2.02c-4.381-1.66-9.29-0.94-13.93-1.04c-6.67-0.01-13.32-0.06-19.98,0.021
		c-5.41-0.021-10.8-0.12-16.2,0.12c-0.31-0.29-0.94-0.85-1.26-1.13C111.75,123.53,111.99,122.56,112.12,122.07z"/>
</g>
<g id="_x23_47414efd">
	<path fill="#47414E" d="M26.56,127.03c-0.36-3.58,2.8-3.13,5.37-3.08c0.78,0.01,2.35,0.02,3.14,0.03
		c25.52,0.07,51.04-0.03,76.55,0.04c0.32,0.28,0.95,0.84,1.26,1.13c0.33,0.29,0.99,0.89,1.31,1.19
		C85.03,127.88,55.76,126.53,26.56,127.03z"/>
</g>
<g id="_x23_48424fff">
	<path fill="#48424F" d="M165.38,124.03c25.87-0.09,51.74,0.03,77.62-0.05c0.76-0.01,2.3-0.01,3.07-0.01
		c3.15-0.28,6.869-1.02,5.99,2.99c-27.031,0.12-54.051-0.04-81.07,0.09c-2.48-0.62-5.76,0.84-8-1
		C163.8,125.4,164.6,124.72,165.38,124.03z"/>
</g>
<g id="_x23_ced4d4fe">
	<path fill="#CED4D4" d="M112.88,125.15c5.4-0.24,10.79-0.14,16.2-0.12c-0.55,2.61-1.09,5.22-1.16,7.9
		c-4.16-1.27-7.64-4.14-11.71-5.68c-0.5-0.23-1.51-0.69-2.02-0.91C113.87,126.04,113.21,125.44,112.88,125.15z"/>
</g>
<g id="_x23_a3aeaeff">
	<path fill="#A3AEAE" d="M149.061,125.01c4.64,0.1,9.549-0.62,13.93,1.04c-0.59,0.27-1.77,0.82-2.36,1.09
		c-4.18,1.98-8.13,4.48-12.54,5.93C149.25,130.54,148.91,127.71,149.061,125.01z"/>
</g>
<g id="_x23_534e59ff">
	<path fill="#534E59" d="M114.19,126.34c0.51,0.22,1.52,0.68,2.02,0.91c-25,1.74-50.15,0.24-75.21,0.78c-4.73-0.561-10,1.22-14.44-1
		C55.76,126.53,85.03,127.88,114.19,126.34z"/>
</g>
<g id="_x23_534e5aff">
	<path fill="#534E5A" d="M160.63,127.14c0.591-0.27,1.771-0.82,2.36-1.09c2.24,1.84,5.52,0.38,8,1
		c27.02-0.13,54.039,0.03,81.07-0.09l0.08,0.89C221.66,127.63,191.029,129.03,160.63,127.14z"/>
</g>
<g id="_x23_5f5a65fe">
	<path fill="#5F5A65" d="M5.95,151.01c6.42-8.369,13.97-15.78,20.61-23.979c4.44,2.22,9.71,0.439,14.44,1
		c25.06-0.54,50.21,0.96,75.21-0.78c4.07,1.54,7.55,4.41,11.71,5.68c1.11,0.28,2.22,0.57,3.33,0.89
		c-18.18,5.37-36.16,11.43-54.18,17.31C53.36,150.87,29.66,151.04,5.95,151.01 M32.01,131.03c-1.75,5.64,6.68,1.57,8.98,2.939
		C42.74,128.34,34.31,132.4,32.01,131.03 M49.02,131c-0.79,3.42,0.87,4.42,4.99,3.02c1.22,2.62,8.42-1.07,4.77-2.88
		C56.34,131.11,51.46,131.04,49.02,131 M71.22,131.16c-1.37,0.62-1.38,2.03-0.02,2.68c3.13,0.14,9.1,1.86,8.84-2.79
		C77.11,130.87,74.15,131.03,71.22,131.16 M87.01,131.03c0,0.729,0.01,2.189,0.01,2.92c9.32,0.2,18.64,0.03,27.97,0.02
		c0-0.729-0.01-2.189-0.01-2.92C105.66,130.85,96.33,131.02,87.01,131.03 M26.33,137.34c-0.56,0.21-1.66,0.63-2.22,0.84
		c-1.89,6.15,8.05,1.33,10.92,2.79C36.36,135.67,29.21,136.74,26.33,137.34 M42.33,137.35c-2.24,0-3.23,2.32-1.11,3.5
		c8.18,0.271,16.38,0.271,24.56,0c1.6-0.78,1.69-3.29-0.43-3.28C57.9,135.88,49.91,137.32,42.33,137.35 M77.22,137.13
		c-1.44,0.78-1.25,2.42-1.24,3.82c5.79-0.55,12.8,1.61,17.94-1.11C91.21,133.83,82.21,138.34,77.22,137.13 M19.22,144.13
		c-0.95,0.69-1.38,1.63-1.29,2.82c8.28,0.08,16.57,0.2,24.85-0.11c1.35-0.62,1.39-2.04,0.02-2.67
		C34.97,143.59,27.07,144.08,19.22,144.13 M52.01,144.03c0.01,0.729,0.01,2.189,0.01,2.92c7.33,0.19,14.66,0,21.99,0.06
		c5.46,4.23,6.12-1.369,3.81-2.88C69.22,143.82,60.61,144,52.01,144.03z"/>
</g>
<g id="_x23_5f5965fe">
	<path fill="#5F5965" d="M148.09,133.07c4.41-1.45,8.36-3.95,12.54-5.93c30.399,1.89,61.03,0.49,91.511,0.71
		c7.52,6.85,13.6,15.16,20.149,22.88c-24.11,0.67-48.24-0.041-72.36,0.399c-18.039-5.771-36.02-11.72-54.14-17.28
		C146.359,133.66,147.51,133.26,148.09,133.07 M165.221,131.16c-4.16,3.26,6.229,3.74,6.779,2.9c2.93-1.3,11.311,2.64,11.04-3
		C177.1,130.81,171.15,130.95,165.221,131.16 M191.93,131.03c-0.38,4.7,7.43,3.05,9.4,2.29
		C205.15,128.23,193.439,132.36,191.93,131.03 M214.92,131.05c-0.07,1.17,0.35,2.11,1.26,2.82c8.59,0.31,17.2,0.12,25.811,0.1
		c-0.01-0.729-0.01-2.189-0.01-2.92C232.96,130.89,223.939,130.98,214.92,131.05 M183.221,137.13c-1.441,0.78-1.25,2.4-1.24,3.81
		c4.68,0.23,9.359,0.051,14.049,0.021C196.96,133.95,187,137.86,183.221,137.13 M204.221,137.15c-1.58,0.76-1.561,2.9-0.041,3.709
		c8.61,0.33,17.24,0.131,25.85,0.101c-0.01-1.41,0.201-3.05-1.26-3.82C220.59,136.88,212.4,136.87,204.221,137.15 M242.33,137.35
		c-0.57,0.21-1.689,0.63-2.26,0.84c-0.721,4.791,7.039,1.97,8.939,2.84c1.84,1.479,6.76,0.06,5.9-2.83
		C251.08,136.01,246.471,137.16,242.33,137.35 M197.221,144.13c-0.961,0.681-1.381,1.61-1.261,2.8c4.7,0.24,9.399,0.051,14.11,0.021
		C209.66,140.97,200.811,145.17,197.221,144.13 M217.221,144.12c-5.111,5.03,6.75,2.18,8.85,2.85
		C226.52,142.15,219.471,144.59,217.221,144.12 M237.221,144.141c-0.961,0.67-1.381,1.609-1.261,2.799
		c7.67,0.23,15.351,0.03,23.03,0.03c-0.01-0.729-0.01-2.189-0.01-2.92C251.73,143.87,244.471,143.92,237.221,144.141z"/>
</g>
<g id="_x23_6a646ffe">
	<path fill="#6A646F" d="M32.01,131.03c2.3,1.37,10.73-2.69,8.98,2.939C38.69,132.6,30.26,136.67,32.01,131.03z"/>
</g>
<g id="_x23_6b656ffe">
	<path fill="#6B656F" d="M49.02,131c2.44,0.04,7.32,0.11,9.76,0.14c3.65,1.81-3.55,5.5-4.77,2.88
		C49.89,135.42,48.23,134.42,49.02,131z"/>
</g>
<g id="_x23_6a646efe">
	<path fill="#6A646E" d="M71.22,131.16c2.93-0.13,5.89-0.29,8.82-0.11c0.26,4.65-5.71,2.93-8.84,2.79
		C69.84,133.19,69.85,131.78,71.22,131.16z"/>
	<path fill="#6A646E" d="M191.93,131.03c1.51,1.33,13.221-2.8,9.4,2.29C199.359,134.08,191.55,135.73,191.93,131.03z"/>
</g>
<g id="_x23_6c6670fe">
	<path fill="#6C6670" d="M87.01,131.03c9.32-0.01,18.65-0.18,27.97,0.02c0,0.73,0.01,2.19,0.01,2.92
		c-9.33,0.01-18.65,0.18-27.97-0.02C87.02,133.22,87.01,131.76,87.01,131.03z"/>
	<path fill="#6C6670" d="M165.221,131.16c5.93-0.21,11.879-0.35,17.819-0.1c0.271,5.64-8.11,1.7-11.04,3
		C171.45,134.9,161.061,134.42,165.221,131.16z"/>
	<path fill="#6C6670" d="M214.92,131.05c9.02-0.07,18.04-0.16,27.061,0c0,0.73,0,2.19,0.01,2.92c-8.61,0.021-17.221,0.21-25.811-0.1
		C215.27,133.16,214.85,132.22,214.92,131.05z"/>
</g>
<g id="_x23_e6e6dbff">
	<path fill="#E6E6DB" d="M138.22,131.47c2.629,0.28,4.98,1.82,7.57,2.38c18.12,5.56,36.101,11.509,54.14,17.28
		c0.021,0.71,0.07,2.14,0.09,2.851c-1.34,0.01-2.68,0.02-4.02,0.039c-38.33-0.029-76.67-0.039-115,0
		c-1.34-0.02-2.68-0.029-4.02-0.039c0.02-0.721,0.06-2.141,0.09-2.851c18.02-5.88,36-11.94,54.18-17.31
		C133.65,133.26,135.84,132.09,138.22,131.47 M96.23,148.42c-0.94,2.37-5.78,0.2-6.25,2.58c3.24-0.07,6.58,0.43,9.77-0.27
		c25.82,0.439,51.689,0.47,77.52-0.011c3.221,0.761,6.59-0.03,9.851,0.3c-2.94-2.67-8.45-2.34-12.16-4.039
		c-11.83-4.561-24.09-7.681-35.97-11.971C124.5,138.71,110.58,144.37,96.23,148.42z"/>
</g>
<g id="_x23_bfc0b0ff">
	<path fill="#BFC0B0" d="M96.23,148.42c14.35-4.05,28.27-9.71,42.76-13.41c11.88,4.29,24.14,7.41,35.97,11.971
		c3.71,1.699,9.22,1.369,12.16,4.039c-3.261-0.33-6.63,0.461-9.851-0.3c-8.319-3.34-17.209-4.93-25.51-8.34
		c-3.949-1.13-7.74-3.04-11.869-3.38c-0.69,0-2.081-0.01-2.781-0.02c-2.24,0.03-4.38,0.55-6.41,1.56
		c-10.16,3.89-20.88,6.04-30.95,10.19c-3.19,0.699-6.53,0.199-9.77,0.27C90.45,148.62,95.29,150.79,96.23,148.42z"/>
</g>
<g id="_x23_6a646eff">
	<path fill="#6A646E" d="M26.33,137.34c2.88-0.6,10.03-1.67,8.7,3.63c-2.87-1.46-12.81,3.36-10.92-2.79
		C24.67,137.97,25.77,137.55,26.33,137.34z"/>
	<path fill="#6A646E" d="M42.33,137.35c7.58-0.03,15.57-1.47,23.02,0.22c2.12-0.01,2.03,2.5,0.43,3.28
		c-8.18,0.271-16.38,0.271-24.56,0C39.1,139.67,40.09,137.35,42.33,137.35z"/>
	<path fill="#6A646E" d="M77.22,137.13c4.99,1.21,13.99-3.3,16.7,2.71c-5.14,2.721-12.15,0.56-17.94,1.11
		C75.97,139.55,75.78,137.91,77.22,137.13z"/>
	<path fill="#6A646E" d="M183.221,137.13c3.779,0.73,13.739-3.18,12.809,3.83c-4.689,0.03-9.369,0.21-14.049-0.021
		C181.971,139.53,181.779,137.91,183.221,137.13z"/>
	<path fill="#6A646E" d="M204.221,137.15c8.18-0.28,16.369-0.27,24.549-0.01c1.461,0.77,1.25,2.41,1.26,3.82
		c-8.609,0.03-17.239,0.229-25.85-0.101C202.66,140.05,202.641,137.91,204.221,137.15z"/>
	<path fill="#6A646E" d="M242.33,137.35c4.141-0.19,8.75-1.34,12.58,0.85c0.859,2.89-4.061,4.31-5.9,2.83
		c-1.9-0.87-9.66,1.95-8.939-2.84C240.641,137.98,241.76,137.56,242.33,137.35z"/>
</g>
<g id="_x23_cfd0bfff">
	<path fill="#CFD0BF" d="M130.7,140.54c2.03-1.01,4.17-1.53,6.41-1.56c-2.32,1.52-5.28,4.411-3.54,7.379
		c1.22,4.211,8.95,4.32,9.68-0.229c1.689-2.94-1-5.67-3.359-7.13c4.129,0.34,7.92,2.25,11.869,3.38c8.301,3.41,17.19,5,25.51,8.34
		c-25.83,0.48-51.7,0.45-77.52,0.011C109.82,146.58,120.54,144.43,130.7,140.54z"/>
</g>
<g id="_x23_e2e2d6ff">
	<path fill="#E2E2D6" d="M137.11,138.98c0.7,0.01,2.09,0.02,2.781,0.02c2.359,1.46,5.049,4.189,3.359,7.13
		c-0.73,4.55-8.46,4.44-9.68,0.229C131.83,143.391,134.79,140.5,137.11,138.98 M136,142.01c-0.03,1.76-0.5,4.891,2.05,4.98
		C142.73,148.189,142.26,136.82,136,142.01z"/>
</g>
<g id="_x23_bbbcadff">
	<path fill="#BBBCAD" d="M136,142.01c6.26-5.19,6.73,6.18,2.05,4.98C135.5,146.9,135.97,143.77,136,142.01z"/>
</g>
<g id="_x23_6c6670ff">
	<path fill="#6C6670" d="M19.22,144.13c7.85-0.05,15.75-0.54,23.58,0.04c1.37,0.63,1.33,2.05-0.02,2.67
		c-8.28,0.311-16.57,0.19-24.85,0.11C17.84,145.76,18.27,144.82,19.22,144.13z"/>
	<path fill="#6C6670" d="M197.221,144.13c3.59,1.04,12.439-3.16,12.85,2.82c-4.711,0.03-9.41,0.22-14.11-0.021
		C195.84,145.74,196.26,144.811,197.221,144.13z"/>
	<path fill="#6C6670" d="M217.221,144.12c2.25,0.47,9.299-1.97,8.85,2.85C223.971,146.3,212.109,149.15,217.221,144.12z"/>
</g>
<g id="_x23_6c6671ff">
	<path fill="#6C6671" d="M52.01,144.03c8.6-0.03,17.21-0.21,25.81,0.1c2.31,1.511,1.65,7.11-3.81,2.88
		c-7.33-0.06-14.66,0.131-21.99-0.06C52.02,146.22,52.02,144.76,52.01,144.03z"/>
</g>
<g id="_x23_6b6570ff">
	<path fill="#6B6570" d="M237.221,144.141c7.25-0.221,14.51-0.271,21.76-0.091c0,0.73,0,2.19,0.01,2.92
		c-7.68,0-15.36,0.2-23.03-0.03C235.84,145.75,236.26,144.811,237.221,144.141z"/>
</g>
<g id="_x23_cfd0beff">
	<path fill="#CFD0BE" d="M5.95,151.01c23.71,0.03,47.41-0.14,71.12,0.12c-0.03,0.71-0.07,2.13-0.09,2.851
		c-21,0.08-42.01-0.051-63.02,0.06C10.83,153.54,4.49,156.12,5.95,151.01z"/>
</g>
<g id="_x23_d0d0bfff">
	<path fill="#D0D0BF" d="M199.93,151.13c24.12-0.44,48.25,0.271,72.36-0.399c1.45,2.129,1.42,7.149-4.271,3.26
		c-8.22-3.521-3.76,5.8-5.01,9.01l-0.869-0.061c-0.121-0.459-0.361-1.359-0.48-1.819c-21.86-0.261-43.73-0.13-65.58-0.06
		c-0.03,1.449-0.07,4.34-0.09,5.789c-4.311,0.131-8.59,0.5-12.87,0.891c-6.69-1.15-13.591-1.12-20.28,0
		c-4.57-0.5-9.23-1.15-13.77-0.12c-6.99-0.71-14.271-1.31-21.2,0c-4.29,0.37-14.32-4.06-13.94,3.31h-0.91
		c-0.01-1.3-0.05-2.6-0.14-3.89c-6.65-0.11-13.35-0.38-19.96,0.59c-3.96-0.39-7.94-0.64-11.91-0.81c-0.03-1.44-0.09-4.311-0.12-5.75
		c-21.33-0.33-42.67,0.25-64-0.221c0.08-0.689,0.23-2.08,0.31-2.77c21.26-0.23,42.53,0.02,63.8-0.09c38.33,0.02,76.67,0.02,115,0
		c21.99-0.021,43.98,0.09,65.971-0.04c0.079-1.3,0.079-2.601,0-3.9c-20.65-0.17-41.301,0.04-61.951-0.069
		C200,153.27,199.95,151.84,199.93,151.13z"/>
</g>
<g id="_x23_999a8bfe">
	<path fill="#999A8B" d="M13.96,154.04c21.01-0.11,42.02,0.021,63.02-0.06c1.34,0.01,2.68,0.02,4.02,0.039c0,1.32,0,2.641,0,3.971
		c-21.27,0.109-42.54-0.141-63.8,0.09c-0.08,0.689-0.23,2.08-0.31,2.77l-0.88-0.039c0.01-1.61-0.53-3.041-1.79-4.061
		C14.15,156.07,14.03,154.72,13.96,154.04z"/>
</g>
<g id="_x23_b1b1a4ff">
	<path fill="#B1B1A4" d="M81,154.02c38.33-0.039,76.67-0.029,115,0c0,1.32,0,2.641,0,3.971c-38.33,0.02-76.67,0.02-115,0
		C81,156.66,81,155.34,81,154.02z"/>
</g>
<g id="_x23_999a8bff">
	<path fill="#999A8B" d="M196,154.02c1.34-0.02,2.68-0.029,4.02-0.039c20.65,0.109,41.301-0.101,61.951,0.069
		c0.079,1.3,0.079,2.601,0,3.9c-21.99,0.13-43.98,0.02-65.971,0.04C196,156.66,196,155.34,196,154.02z"/>
</g>
<g id="_x23_898278b0">
	<path opacity="0.69" fill="#898278" enable-background="new    " d="M14.22,156.75c1.26,1.02,1.8,2.45,1.79,4.061
		c-0.39,0.58-1.17,1.729-1.56,2.299l-0.85-0.369C13.91,160.75,14.07,158.75,14.22,156.75z"/>
</g>
<g id="_x23_885344ff">
	<path fill="#885344" d="M14.45,163.109c0.39-0.569,1.17-1.719,1.56-2.299l0.88,0.039c21.33,0.471,42.67-0.109,64,0.221
		c0.03,1.439,0.09,4.31,0.12,5.75c-3.39-0.36-2.21,4.189-0.03,5.119c0.01,0.761,0.03,2.291,0.04,3.051
		c-0.23,28.22,0.31,56.46-0.2,84.66c-4.58-0.051-2.25,5.22-2.96,8.27c-4.23,0.13-8.45,0.08-12.68,0.221
		c-3.59-0.49-2.85-3.24-2.22-5.931c-1.62-0.45-4.77,0.51-3.93-2.229c4.64-0.041,9.3,0.229,13.94-0.051
		c0.01-0.72,0.01-2.17,0.02-2.89c-4.65,0.021-9.34-0.49-13.95,0.24c-1.93,0.12-5.92,2.21-5.03-1.341c6.32,0,12.65,0.25,18.98,0.03
		c2.91-0.93,0.2-7.09,1.03-9.93c1.65-0.021,3.3-0.01,4.95-0.13c0.08-1.28,0.08-2.551,0-3.82c-1.65-0.12-3.31-0.12-4.96-0.14
		c-0.08-5.96,0.17-11.931-0.06-17.88L73,224.01c-6.31-0.029-12.63-0.25-18.93,0.061l-0.06,0.949c-0.12,4.961,0.04,9.94-0.02,14.91
		c-1.28,1.58-3.21,2.26-4.89,3.301c-0.76,2.779,3.22,2.67,4.88,3.819c0.03,1.65,0.02,3.29,0.03,4.94
		c-0.01,0.729-0.04,2.18-0.05,2.91c-2.11-1.381-3.31,1.3-4.96,2.18c-1.06-0.67-2-1.49-2.98-2.25c-0.08-10.26,0.1-20.51-0.06-30.76
		L45,224.02c-6.05,0.91-13.66-1.959-19.11,0.891c-2.16,3.73-7.34,0.609-10.89,0.939c-0.07-1.18,0-2.35,0.21-3.51
		c1.35-1,4.17-0.939,3.78-3.21c-2.59-0.8-4.92-1.81-4.01-5.021c2.99-0.159,5.99,0.011,8.98-0.209c0.09-1.271,0.09-2.541,0.01-3.801
		c-2.98-0.149-5.97,0.021-8.94-0.199c-0.94-3.28,0.84-4.44,3.95-4.11c0.96-2.81-1.62-3.56-3.76-4.2c-1.9-5.5,6.99-0.93,9.81-3.529
		c0.06,2.699-0.21,5.489,0.62,8.109l0.2,0.891c-0.77,5.6,6.69,2.09,10.08,2.97c0.03,1.31,0.1,2.62,0.2,3.93
		c4.28,0.04,8.57,0.271,12.84-0.03c0.46-2.529,0.14-4.76-2.98-3.99c-0.37-0.939-0.72-1.879-1.03-2.84l0.18-0.92
		c1.71-10.59,0.67-21.42,0.8-32.109L45,174.02c-4.31-0.109-8.61-0.06-12.91-0.09c1.07-5.25-5.68-2.649-8.88-2.76
		c-2.53,1.48-0.59,3.84,1.69,3.939c0.06,1.641,0.11,3.281,0.11,4.921c-3.33-0.04-6.67,0.11-9.99-0.12
		c-5.42-8.17,5.31-2.28,3.89-6.76c-0.37-2.07-5.03-1.041-3.94-4.131c-1.34-5.869,11.13,1.801,9.01-4.89
		C20.94,163.46,17.32,164.82,14.45,163.109 M44.22,163.13c-1.45,0.79-1.25,2.431-1.24,3.84c2.75,0,8.24,0.011,10.99,0.011
		c-0.11-2.65,1.39-7.641-4.98-4L44.22,163.13 M58.23,163.12c-1.4,0.75-1.34,2.31-1.13,3.68c3.62,1.88,8.13,1.66,11.82,0.011
		C70.38,160.609,61.45,163.6,58.23,163.12 M64.01,173.97c-2.77,0.841-9.39-1.92-9.97,1.04c-0.09,8.99-0.1,17.98-0.01,26.971
		c-0.07,1.34-0.08,2.68-0.01,4.02l-0.01,1c0,0.74,0.01,2.21,0.01,2.939c6.32,0.23,12.64,0.041,18.96,0.03
		c0-0.739,0.01-2.229,0.01-2.97l0.02-1l0.97-0.01c0.13-10.44-0.18-20.881,0.29-31.32c4.07,2.55,3.4-4.76-0.25-3.689
		C71.25,172.37,62.15,167.88,64.01,173.97 M50,217.03c0.07,1.659-0.51,3.8,1.19,4.85c2.64,0,7.94,0,10.59,0
		c1.74-1.01,1.16-3.16,1.22-4.83C58.67,216.82,54.33,217,50,217.03 M70.23,217.13c-3.41,2.54,0.48,6.25,3.76,4.91
		c4.8,2.479,6.71-1.69,6.01-5.03C77.56,217.04,72.67,217.1,70.23,217.13 M77.18,233.2c-0.91,1.03-2.63,1.95-2.06,3.59
		c1.03,1.729,3.2,1.13,4.88,1.21C80.43,235.57,79.99,233.33,77.18,233.2z"/>
</g>
<g id="_x23_8a5644fe">
	<path fill="#8A5644" d="M196.08,161.061c21.85-0.07,43.72-0.201,65.58,0.06c0.119,0.46,0.359,1.36,0.48,1.819
		c-3.391,0.011-6.74-0.08-10.111,0.15c-2.389,8.051,15-3.02,9.921,7.67c-1.13,0.62-4.14-0.54-3.931,1.311
		c-0.85,2.68,2.381,1.67,3.931,2.17c5.069,10.68-12.28-0.381-9.931,7.67c2.49,0.05,7.48,0.15,9.971,0.199c3.31,5.9-1.45,4.49-4,5.11
		c-0.42,2.57,2.91,2.65,4.43,3.87c0.28,0.88,0.551,1.77,0.83,2.66c-0.15,4.07-0.25,8.15-0.279,12.24
		c0.959,18.25-0.311,36.52-0.16,54.79c-0.36,2.39-0.69,4.79-0.99,7.2c-0.471,0.01-1.41,0.029-1.881,0.05
		c-5.52-0.04-11.039-0.04-16.549-0.11c-1.111-0.43-2.221-0.85-3.341-1.26c0.29-2.76,5.261-7.54-2.94-4.83
		c-0.02-0.46-0.06-1.38-0.08-1.85c4.641-0.041,9.301,0.22,13.941-0.051c0.01-0.72,0.01-2.17,0.02-2.89
		c-4.65,0.021-9.35-0.49-13.961,0.24c-1.879,0.13-5.449,2.06-5.18-1.21c6.351-0.16,12.721,0.17,19.07-0.15
		c0.08-1.311,0.109-2.63,0.1-3.939c-0.08-9.311,0.16-18.631-0.09-27.931c-6.31-0.08-12.619-0.229-18.93-0.02l-0.96,0.069
		c-0.16,9.28-0.011,18.57-0.04,27.87c-0.01,0.46-0.04,1.39-0.061,1.851c-1.049,0.949-2.069,1.939-3.17,2.84
		c-1.549-0.46-3.01-1.15-4.52-1.7c-0.061-0.74-0.2-2.229-0.27-2.979c-0.07-9.311,0.22-18.621-0.051-27.931
		c-6.3-0.06-12.6-0.28-18.89,0.011l-0.851,0.08c-0.08,0.459-0.219,1.369-0.289,1.829c-1.73,0.011-5.17,0.021-6.891,0.03
		c-0.02-1.32-0.02-2.641,0-3.95c1.65-0.03,3.301-0.02,4.961-0.14c0.079-1.28,0.079-2.551,0-3.82c-1.66-0.12-3.311-0.12-4.961-0.14
		c-0.06-14.32,0.04-28.64-0.029-42.96l0.01-1.01c1.779,0.01,5.33,0.02,7.109,0.02c-0.16,9.29-0.109,18.58-0.08,27.88
		c-2.689-0.34-5.979,0.64-5.049,4.021c1.629,0.119,3.27,0.119,4.899,0.149l0.14,0.97c-0.24,3.851,4.051,3.24,6.9,2.98
		c-2.25,2.97,1.3,6.2,5.08,4.02c6.15,3.48,4.73-1.3,5.09-3.93c2.41,0.4,3.47-0.689,2.93-3.08V206c0.01-1.35,0.01-2.7-0.02-4.05
		c-0.02-8.98,0.119-17.96-0.01-26.931c0-2.039-3.41-0.58-4.83-1.09c0.05-2.96-2.101-6.46-6.17-3.99
		c-3.041-0.72-5.431,1.07-6.24,3.961c-0.66,0.029-1.98,0.08-2.641,0.1c0.311-2.27-0.72-3.359-3-3.141
		c-2.22,0.211,0.061-3.899-2.07-3.76c-0.51-0.06-1.529-0.189-2.039-0.25C196.01,165.4,196.05,162.51,196.08,161.061 M200.221,163.12
		c-1.57,0.8-1.57,2.96,0,3.76c2.719-1.2,10,2.69,10.739-1.88C210.221,160.43,202.939,164.311,200.221,163.12 M216.23,163.12
		c-1.461,0.8-1.26,2.44-1.25,3.86c3.6-1.011,8.93,1.84,11.89-1.121C226.439,160.48,219.54,163.98,216.23,163.12 M241.99,173.93
		c-2.74,0.021-8.211,0.08-10.94,0.101c-0.149,9.3-0.079,18.61-0.01,27.92c-0.08,1.35-0.09,2.7-0.021,4.05l-0.01,1
		c0,0.73,0.01,2.189,0.01,2.92c-1.5,0.02-4.49,0.07-5.99,0.1c0.131,2.681-1.439,7.58,4.98,4c2.69,2.86,8.27-1.68,4.87-3.879
		c4.86,1.27,9.899,1,14.89,0.729c1.471-0.79,1.24-2.45,1.26-3.86L250.98,206c0.06-1.35,0.06-2.689-0.021-4.03
		c0.13-9.079-0.05-18.159,0.2-27.229c2.66,0.229,2.48-4.9-0.2-4.7C247.4,169.96,240.84,168.48,241.99,173.93 M221.029,218
		c-0.079,1.33-0.079,2.66,0,4c2.701-1.47,10.171,2.63,10.931-2C231.2,215.37,223.73,219.45,221.029,218 M241.971,218.03
		c-0.671,3.159,2.289,6.159,6.02,3.989c6.33,3.57,4.88-1.319,4.99-4C250.221,218.03,244.721,218.03,241.971,218.03z"/>
</g>
<g id="_x23_9b6a50f4">
	<path opacity="0.96" fill="#9B6A50" enable-background="new    " d="M13.44,253.66c0.21-30.25-0.14-60.7,0.16-90.92l0.85,0.369
		c2.87,1.711,6.49,0.351,9.53,1.021c2.12,6.69-10.35-0.979-9.01,4.89c-1.09,3.09,3.57,2.061,3.94,4.131
		c1.42,4.479-9.31-1.41-3.89,6.76c3.32,0.23,6.66,0.08,9.99,0.12c0.01,0.53,0.01,1.579,0.02,2.1c-3.3,0.61-6.66,0.72-9.99,1.04
		c-0.96,3.061,0.85,4.77,3.75,5.24c1.33,2.96-1.66,2.59-3.73,2.8c-0.1,1.21-0.11,2.431-0.04,3.649c3.28,0.371,6.91-0.439,10.01,1.08
		c0,0.53,0,1.591,0,2.121c-2.82,2.6-11.71-1.971-9.81,3.529c2.14,0.641,4.72,1.391,3.76,4.2c-3.11-0.33-4.89,0.83-3.95,4.11
		c2.97,0.22,5.96,0.05,8.94,0.199c0.08,1.26,0.08,2.53-0.01,3.801c-2.99,0.22-5.99,0.05-8.98,0.209
		c-0.91,3.211,1.42,4.221,4.01,5.021c0.39,2.271-2.43,2.21-3.78,3.21c-0.21,1.16-0.28,2.33-0.21,3.51
		c3.55-0.33,8.73,2.791,10.89-0.939c0.13,9.02,0.09,18.05,0.12,27.08c-0.01,1.33-0.01,2.66-0.01,4l-0.97-0.061
		c-1.44-6.42,2.72-14.68-1.92-20.07c0.89-2.379,2.37-4.709,1.98-7.59c-3.35,0.28-6.71,0.57-10.05,0.92
		c-4.86,7.511,3.71,2.881,3.94,5.881c1.21,4.609-9.26-1.34-3.99,6.899c0.16,3.22,6.55,0.061,8.97,1.12c1.16,3.96-4.46,1.34-6.9,2
		c-2.5,0.01-2.16,2.96-2.03,4.7c1.14,0.61,4.16-0.59,3.96,1.28c1.21,4.59-9.18-1.33-3.99,6.82c2.19,1.6,10.66-2.521,8.99,3.01
		c-2.98,0.08-5.96,0-8.93,0.22c-0.1,1.51-0.3,4.54-0.4,6.05C12.34,262.75,14.04,258.18,13.44,253.66z"/>
</g>
<g id="_x23_996244ff">
	<path fill="#996244" d="M44.22,163.13l4.77-0.149c6.37-3.641,4.87,1.35,4.98,4c-2.75,0-8.24-0.011-10.99-0.011
		C42.97,165.561,42.77,163.92,44.22,163.13z"/>
	<path fill="#996244" d="M200.221,163.12c2.719,1.19,10-2.69,10.739,1.88c-0.739,4.57-8.021,0.68-10.739,1.88
		C198.65,166.08,198.65,163.92,200.221,163.12z"/>
	<path fill="#996244" d="M216.23,163.12c3.31,0.86,10.209-2.64,10.64,2.739c-2.96,2.961-8.29,0.11-11.89,1.121
		C214.971,165.561,214.77,163.92,216.23,163.12z"/>
	<path fill="#996244" d="M205.74,173.9c0.81-2.891,3.199-4.681,6.24-3.961c4.069-2.47,6.22,1.03,6.17,3.99
		C214.01,173.95,209.87,173.95,205.74,173.9z"/>
	<path fill="#996244" d="M23.21,171.17c3.2,0.11,9.95-2.49,8.88,2.76c-1.57,0.25-4.7,0.75-6.27,1l-0.92,0.18
		C22.62,175.01,20.68,172.65,23.21,171.17z"/>
	<path fill="#996244" d="M197.971,205.9c-0.931-3.381,2.359-4.36,5.049-4.021c-0.039,1.39-0.09,2.78-0.149,4.17
		C201.24,206.02,199.6,206.02,197.971,205.9z"/>
	<path fill="#996244" d="M196.01,217.95c1.65,0.02,3.301,0.02,4.961,0.14c0.079,1.27,0.079,2.54,0,3.82
		c-1.66,0.12-3.311,0.109-4.961,0.14C195.99,220.68,195.99,219.32,196.01,217.95z"/>
	<path fill="#996244" d="M221.029,218c2.701,1.45,10.171-2.63,10.931,2c-0.76,4.63-8.229,0.53-10.931,2
		C220.95,220.66,220.95,219.33,221.029,218z"/>
	<path fill="#996244" d="M241.971,218.03c2.75,0,8.25,0,11.01-0.011c-0.11,2.681,1.34,7.57-4.99,4
		C244.26,224.189,241.3,221.189,241.971,218.03z"/>
	<path fill="#996244" d="M74.01,241.95c1.65,0.02,3.31,0.02,4.96,0.14c0.08,1.27,0.08,2.54,0,3.82c-1.65,0.12-3.3,0.109-4.95,0.13
		C74,244.68,74,243.311,74.01,241.95z"/>
	<path fill="#996244" d="M196.971,243.05c1.51-0.27,4.52-0.819,6.029-1.09c0,1.36,0,2.729-0.02,4.11
		C200.689,246.01,196.48,246.609,196.971,243.05z"/>
</g>
<g id="_x23_976044ff">
	<path fill="#976044" d="M58.23,163.12c3.22,0.479,12.15-2.511,10.69,3.69c-3.69,1.649-8.2,1.869-11.82-0.011
		C56.89,165.43,56.83,163.87,58.23,163.12z"/>
	<path fill="#976044" d="M50,217.03c4.33-0.03,8.67-0.21,13,0.02c-0.06,1.67,0.52,3.82-1.22,4.83c-2.65,0-7.95,0-10.59,0
		C49.49,220.83,50.07,218.689,50,217.03z"/>
</g>
<g id="_x23_98674bf1">
	<path opacity="0.95" fill="#98674B" enable-background="new    " d="M252.029,163.09c3.371-0.23,6.721-0.14,10.111-0.15L263.01,163
		c-0.05,9.359,0.36,18.76-0.59,28.09c-1.52-1.22-4.85-1.3-4.43-3.87c2.55-0.62,7.31,0.79,4-5.11c-2.49-0.049-7.48-0.149-9.971-0.199
		c-2.35-8.051,15,3.01,9.931-7.67c-1.55-0.5-4.78,0.51-3.931-2.17c-0.209-1.851,2.801-0.69,3.931-1.311
		C267.029,160.07,249.641,171.141,252.029,163.09z"/>
</g>
<g id="_x23_e7e7dcff">
	<path fill="#E7E7DC" d="M80.98,171.939c-2.18-0.93-3.36-5.479,0.03-5.119c3.97,0.17,7.95,0.42,11.91,0.81
		c-0.02,1.63,0.57,3.931-1.89,3.47C87.67,171.1,84.12,170.42,80.98,171.939z"/>
	<path fill="#E7E7DC" d="M203.02,201.88l0.98,0.101c0.45,0.06,1.35,0.17,1.8,0.229c4.71,0.62,9.78,1.7,14.41,0.08
		c0.45-0.07,1.351-0.22,1.8-0.29l0.98-0.05c0.029,1.35,0.029,2.7,0.02,4.05c-6.72,0.01-13.43-0.061-20.14,0.05
		C202.93,204.66,202.98,203.27,203.02,201.88z"/>
</g>
<g id="_x23_734434ff">
	<path fill="#734434" d="M92.92,167.63c6.61-0.97,13.31-0.7,19.96-0.59c0.09,1.29,0.13,2.59,0.14,3.89
		c-5.39,0.961-12.45-1.5-17.22,0.87c-0.29,0.49-0.85,1.46-1.13,1.94c-0.16,0.33-0.48,0.99-0.64,1.32c-0.17,8.97,0,17.949-0.05,26.92
		c-0.01,1.66-0.02,3.31,0.11,4.97c6.27,0.04,12.56,0.319,18.82-0.04c0.13-1.641,0.12-3.28,0.11-4.92c0-9-0.02-17.99-0.04-26.98
		l0.03-0.99c0.51-0.02,1.54-0.06,2.05-0.069c-0.15,12.01,0,24.03-0.07,36.05c-3.33-0.02-6.65-0.02-9.97,0.01
		c-1.32-0.02-2.64-0.029-3.96-0.01c-2.79-0.25-7.58-0.92-7.11,3.061c-0.05,3.629,0.03,7.299,0.07,10.939
		c-0.02,9.34-0.05,18.68-0.04,28.02c-0.01,1.311,0.02,2.621,0.11,3.931c6.31,0.14,12.62,0.04,18.93,0.06
		c-0.05,1.4,0.18,3.061-1.27,3.86c-5.92,0.239-11.84,0.12-17.76,0.2c-0.73-0.061-2.2-0.17-2.93-0.23
		c-0.18-28.279,0.03-56.56-0.08-84.84c0.02-1.311,0.03-2.609,0.05-3.9C93.49,171.561,92.9,169.26,92.92,167.63z"/>
	<path fill="#734434" d="M127.87,167.62c6.93-1.31,14.21-0.71,21.2,0c0.029,1.62-0.57,3.94,1.9,3.479
		c0.02,1.28,0.029,2.561,0.059,3.84c-0.189,14.67,0.201,29.341-0.109,44.011c-8.29,0.14-16.58,0.14-24.86-0.011
		c-0.21-14.649,0.04-29.299-0.08-43.939c0.02-1.29,0.03-2.58,0.05-3.859C128.5,171.53,127.87,169.25,127.87,167.62 M130.05,171.03
		c-0.04,0.729-0.11,2.18-0.14,2.899l-0.91,0.12l-0.96-0.05c-0.13,10.66-0.04,21.33-0.02,32l0.97-0.01l0.03,0.96
		c6.32,0.21,12.65,0.03,18.97,0.02l0.01-0.979h0.971c0.079-10.33,0.059-20.66,0-30.99h-0.98c-0.24-0.25-0.721-0.75-0.961-1.01
		c0.131-1.2-0.279-2.15-1.209-2.86C140.561,170.91,135.3,170.88,130.05,171.03 M131.23,210.13c-1.43,0.78-1.34,2.41-1.22,3.82
		c0.8,4.71,8.21,0.58,10.98,2.069c7.59,4.471,7.59-10.52,0-6.039C138.55,210.02,133.67,210.09,131.23,210.13z"/>
	<path fill="#734434" d="M25.85,207.061c6.37-0.101,12.74-0.07,19.11,0.039c0.31,0.961,0.66,1.9,1.03,2.84
		c-3.35,0-6.7,0.041-10.06,0.091C32.54,209.15,25.08,212.66,25.85,207.061z"/>
	<path fill="#734434" d="M202.73,257.8c4.619-1.569,9.629-0.649,14.399-0.8c-0.08,0.73-0.229,2.18-0.31,2.91
		c-1.551,0.06-3.1,0.109-4.641,0.17C209.529,258.9,202.96,262.2,202.73,257.8z"/>
</g>
<g id="_x23_e8e8dcff">
	<path fill="#E8E8DC" d="M113.93,170.93c-0.38-7.369,9.65-2.939,13.94-3.31c0,1.63,0.63,3.91-1.84,3.521
		c-3.69-0.091-7.36-0.141-11.05-0.181L113.93,170.93z"/>
	<path fill="#E8E8DC" d="M149.07,167.62c4.539-1.03,9.199-0.38,13.77,0.12c0.051,1.609,0.62,3.8-1.8,3.38
		c-3.37-0.06-6.71-0.11-10.069-0.021C148.5,171.561,149.1,169.24,149.07,167.62z"/>
	<path fill="#E8E8DC" d="M231,251.97l0.99,0.05c0.46,0.041,1.38,0.141,1.85,0.19c4.68,0.57,9.76,1.75,14.36,0.08l0.85-0.26
		l0.96-0.05h1.01c0.01,1.31-0.02,2.629-0.1,3.939c-6.35,0.32-12.72-0.01-19.07,0.15c-0.229-0.561-0.68-1.69-0.91-2.25
		C230.96,253.359,230.99,252.43,231,251.97z"/>
</g>
<g id="_x23_744535ff">
	<path fill="#744535" d="M162.84,167.74c6.689-1.12,13.59-1.15,20.28,0c0.05,1.49-0.3,3.39,1.72,3.56
		c0.37,29.54,0.07,59.091,0.15,88.64c-0.48,0.03-1.43,0.091-1.91,0.121l-1.051,0.01c-5.949-0.16-11.899,0.149-17.829-0.17
		c-0.2-1.23-0.38-2.461-0.55-3.681c6.42-0.319,12.85,0.011,19.27-0.3c0.08-1.3,0.12-2.6,0.1-3.89c-0.64-9.36,1.23-19.11-0.75-28.28
		c-1.319-4.2,1.811-10.28-1.539-13.609c-5.83-0.11-11.701-0.57-17.51,0.01c-2.701,1.939-0.781,5.859-1.201,8.709l-0.899-0.239
		c-0.32-14.5-0.03-29-0.11-43.49c0.01-1.34,0.02-2.68,0.03-4.01C163.46,171.54,162.891,169.35,162.84,167.74 M162.891,171.87
		c-1.771,0.16-0.521,2.39,0.159,3.11c-0.13,10.34-0.069,20.689-0.021,31.039l0.961-0.08c6.33,0.24,12.65,0.041,18.98,0.03
		c0.069-1.329,0.069-2.659,0-3.989c0.079-8.99,0.079-17.98,0-26.971c-0.24-0.25-0.721-0.76-0.961-1.01
		c-0.01-0.51-0.02-1.54-0.02-2.061l-0.02-0.909C175.641,171.109,169.04,170.25,162.891,171.87z"/>
	<path fill="#744535" d="M59.04,257.28c4.61-0.73,9.3-0.22,13.95-0.24c-0.01,0.72-0.01,2.17-0.02,2.89
		c-4.64,0.28-9.3,0.01-13.94,0.051C59.03,259.311,59.03,257.95,59.04,257.28z"/>
</g>
<g id="_x23_e5e5d9ff">
	<path fill="#E5E5D9" d="M183.12,167.74c4.28-0.391,8.56-0.76,12.87-0.891c0.51,0.061,1.529,0.19,2.039,0.25
		c0.061,1.95-0.18,3.971-2.119,4.931c-3.26-0.03-6.49,0-9.74-0.15c-0.33-0.14-1-0.44-1.33-0.58
		C182.82,171.13,183.17,169.23,183.12,167.74z"/>
</g>
<g id="_x23_9f6c50ff">
	<path fill="#9F6C50" d="M198.029,167.1c2.131-0.14-0.149,3.971,2.07,3.76c2.28-0.219,3.311,0.871,3,3.141
		c-1.779,0-5.33-0.01-7.109-0.02c-0.02-0.48-0.061-1.461-0.08-1.95C197.85,171.07,198.09,169.05,198.029,167.1z"/>
</g>
<g id="_x23_9a6244ff">
	<path fill="#9A6244" d="M241.99,173.93c-1.15-5.449,5.41-3.97,8.97-3.89c2.681-0.2,2.86,4.93,0.2,4.7
		C248.09,174.33,245.061,174.01,241.99,173.93z"/>
	<path fill="#9A6244" d="M64.01,173.97c-1.86-6.09,7.24-1.6,10.01-2.989c3.65-1.07,4.32,6.239,0.25,3.689
		c-0.34-0.13-1.01-0.39-1.35-0.52C69.95,173.91,66.98,174.04,64.01,173.97z"/>
</g>
<g id="_x23_d3d4c4ff">
	<path fill="#D3D4C4" d="M80.98,171.939c3.14-1.52,6.69-0.84,10.05-0.84c-0.02,1.291-0.03,2.59-0.05,3.9
		c-3.32-0.01-6.64,0.01-9.96-0.01C81.01,174.23,80.99,172.7,80.98,171.939z"/>
	<path fill="#D3D4C4" d="M114.98,170.96c3.69,0.04,7.36,0.09,11.05,0.181c-0.02,1.279-0.03,2.569-0.05,3.859
		c-3.29-0.02-6.56,0.02-9.85-0.04c-0.26-1.06-0.55-2.11-0.89-3.149L114.98,170.96z"/>
	<path fill="#D3D4C4" d="M120.2,227.12c3.25-1.16,3.98,4.87,0.76,4.84C117.92,233.22,118.51,228.18,120.2,227.12z"/>
</g>
<g id="_x23_845242ff">
	<path fill="#845242" d="M95.8,171.8c4.77-2.37,11.83,0.091,17.22-0.87h0.91l1.05,0.03l0.26,0.851c-0.04,0.529-0.13,1.6-0.18,2.14
		c-0.51,0.01-1.54,0.05-2.05,0.069c-1.71-0.02-5.11-0.039-6.81-0.05C105.53,169.58,98.92,172.97,95.8,171.8z"/>
</g>
<g id="_x23_7f4d3bff">
	<path fill="#7F4D3B" d="M130.05,171.03c5.25-0.15,10.511-0.12,15.771,0.1c0.93,0.71,1.34,1.66,1.209,2.86
		c-1.279,0-2.569-0.01-3.85-0.03c-0.25-4.83-8.25-0.67-10.84-1.69c-0.4,0.391-1.18,1.181-1.58,1.58l-0.85,0.08
		C129.94,173.21,130.01,171.76,130.05,171.03z"/>
</g>
<g id="_x23_d5d5c6ff">
	<path fill="#D5D5C6" d="M150.971,171.1c3.359-0.09,6.699-0.039,10.069,0.021c-0.011,1.33-0.021,2.67-0.03,4.01
		c-3.26,1-6.67-0.08-9.98-0.19C151,173.66,150.99,172.38,150.971,171.1z"/>
</g>
<g id="_x23_824f3fff">
	<path fill="#824F3F" d="M162.891,171.87c6.149-1.62,12.75-0.761,19.08-0.84l0.02,0.909c-1.86,0.381-5.33-0.979-5.18,2
		c-4.281,0.49-8.881-0.83-12.99,0.791l-0.771,0.25C162.37,174.26,161.12,172.03,162.891,171.87z"/>
</g>
<g id="_x23_855143ff">
	<path fill="#855143" d="M184.84,171.3c0.33,0.14,1,0.44,1.33,0.58c-0.029,0.78-0.09,2.34-0.12,3.12
		c-0.229,28.28,0.171,56.58-0.149,84.85l-0.91,0.09C184.91,230.391,185.21,200.84,184.84,171.3z"/>
</g>
<g id="_x23_9d6544ff">
	<path fill="#9D6544" d="M94.67,173.74c0.28-0.48,0.84-1.45,1.13-1.94c3.12,1.17,9.73-2.22,10.4,2.17
		C102.35,174,98.5,174.08,94.67,173.74z"/>
</g>
<g id="_x23_b59d90ff">
	<path fill="#B59D90" d="M115.24,171.811c0.34,1.039,0.63,2.09,0.89,3.149c-0.44,14.57,0.24,29.16-0.28,43.72l-0.88,0.211
		c0.02-1.621,0.03-3.25,0.02-4.871c0.01-1.34,0.01-2.68,0-4.02c0.07-12.02-0.08-24.04,0.07-36.05
		C115.11,173.41,115.2,172.34,115.24,171.811z"/>
</g>
<g id="_x23_9c6544ff">
	<path fill="#9C6544" d="M132.34,172.27c2.59,1.021,10.59-3.14,10.84,1.69c-4.14,0-8.28-0.04-12.42-0.11
		C131.16,173.45,131.94,172.66,132.34,172.27z"/>
</g>
<g id="_x23_9b6344ff">
	<path fill="#9B6344" d="M176.811,173.939c-0.15-2.979,3.319-1.619,5.18-2c0,0.521,0.01,1.551,0.02,2.061
		C180.27,173.99,178.54,173.97,176.811,173.939z"/>
</g>
<g id="_x23_d1d1c1ff">
	<path fill="#D1D1C1" d="M186.17,171.88c3.25,0.15,6.48,0.12,9.74,0.15c0.02,0.489,0.061,1.47,0.08,1.95l-0.01,1.01
		c-3.33-0.01-6.621,0.01-9.931,0.01C186.08,174.22,186.141,172.66,186.17,171.88z"/>
	<path fill="#D1D1C1" d="M116,223.02c15-0.05,30-0.029,45,0.011c-0.01,0.739-0.01,2.229-0.02,2.97c-14.99,0-29.971,0-44.96,0
		C116.02,225.25,116.01,223.77,116,223.02z"/>
</g>
<g id="_x23_b2a19dff">
	<path fill="#B2A19D" d="M25.82,174.93c1.57-0.25,4.7-0.75,6.27-1c4.3,0.03,8.6-0.02,12.91,0.09L44.98,175
		C38.59,175.02,32.21,174.96,25.82,174.93z"/>
</g>
<g id="_x23_9d7970ff">
	<path fill="#9D7970" d="M45,174.02l0.94,0.051c-0.13,10.689,0.91,21.52-0.8,32.109c-0.05-1.41-0.11-2.82-0.16-4.229
		c0.02-8.98,0.04-17.97,0-26.95L45,174.02z"/>
</g>
<g id="_x23_b3a29dff">
	<path fill="#B3A29D" d="M54.04,175.01c0.58-2.96,7.2-0.199,9.97-1.04c2.97,0.07,5.94-0.06,8.91,0.181l0.01,0.869
		C66.63,174.99,60.33,174.99,54.04,175.01z"/>
</g>
<g id="_x23_9e7a70ff">
	<path fill="#9E7A70" d="M72.92,174.15c0.34,0.13,1.01,0.39,1.35,0.52c-0.47,10.439-0.16,20.88-0.29,31.32L73.01,206
		c-0.01-1.34-0.01-2.68-0.02-4.01c0.03-9,0.07-17.99-0.06-26.971L72.92,174.15z"/>
</g>
<g id="_x23_ad9c98ff">
	<path fill="#AD9C98" d="M94.03,175.061c0.16-0.33,0.48-0.99,0.64-1.32c3.83,0.34,7.68,0.26,11.53,0.229
		c1.7,0.011,5.1,0.03,6.81,0.05l-0.03,0.99C106.66,175.01,100.35,174.939,94.03,175.061z"/>
</g>
<g id="_x23_8f6f66ff">
	<path fill="#8F6F66" d="M128.04,174l0.96,0.05l0.02,0.96c-0.03,8.99-0.05,17.98-0.01,26.98c-0.01,1.33-0.02,2.66-0.02,4l-0.97,0.01
		C128,195.33,127.91,184.66,128.04,174z"/>
</g>
<g id="_x23_b3a29cff">
	<path fill="#B3A29C" d="M129,174.05l0.91-0.12l0.85-0.08c4.14,0.07,8.28,0.11,12.42,0.11c1.28,0.021,2.57,0.03,3.85,0.03
		c0.24,0.26,0.721,0.76,0.961,1.01c-6.33,0-12.65-0.01-18.97,0.01L129,174.05z"/>
</g>
<g id="_x23_ab9b99ff">
	<path fill="#AB9B99" d="M163.82,174.73c4.109-1.621,8.709-0.301,12.99-0.791c1.729,0.03,3.459,0.051,5.199,0.061
		c0.24,0.25,0.721,0.76,0.961,1.01C176.58,174.96,170.189,175.17,163.82,174.73z"/>
</g>
<g id="_x23_af9b97ff">
	<path fill="#AF9B97" d="M203.1,174c0.66-0.02,1.98-0.07,2.641-0.1c4.13,0.05,8.27,0.05,12.41,0.029c1.42,0.51,4.83-0.949,4.83,1.09
		L222,175.03c-5.99,0-11.971-0.22-17.95,0.04c-0.159,8.96-0.03,17.93-0.05,26.91l-0.98-0.101
		C202.99,192.58,202.939,183.29,203.1,174z"/>
</g>
<g id="_x23_ae9b97ff">
	<path fill="#AE9B97" d="M231.05,174.03c2.729-0.021,8.2-0.08,10.94-0.101c3.07,0.08,6.1,0.4,9.17,0.811l-1.09,0.13
		c-6.01,0.2-12.021-0.05-18.021,0.2c-0.159,8.979-0.03,17.96-0.05,26.939l-0.96-0.06C230.971,192.641,230.9,183.33,231.05,174.03z"
		/>
</g>
<g id="_x23_95695bff">
	<path fill="#95695B" d="M24.9,175.109l0.92-0.18c0.25,9.01,0.18,18.03,0.21,27.051c-0.11,1.399-0.23,2.8-0.38,4.189
		c-0.83-2.62-0.56-5.41-0.62-8.109c0-0.53,0-1.591,0-2.121c0-4.609,0.02-9.199,0-13.81c-0.01-0.521-0.01-1.569-0.02-2.1
		C25.01,178.391,24.96,176.75,24.9,175.109z"/>
</g>
<g id="_x23_c2c1c5ff">
	<path fill="#C2C1C5" d="M25.82,174.93c6.39,0.03,12.77,0.09,19.16,0.07c0.04,8.98,0.02,17.97,0,26.95
		c-0.49,0.05-1.45,0.14-1.94,0.18c-0.04-1.771-0.14-5.3-0.18-7.069c0.07-5.061,0.23-10.101,0.19-15.15
		c-0.04-0.721-0.1-2.15-0.13-2.86c-3.71,0-11.13-0.01-14.83-0.01c-0.04,0.75-0.1,2.25-0.13,3c-0.02,7.39,0.1,14.79-0.13,22.19
		c-0.45-0.061-1.35-0.181-1.8-0.25C26,192.96,26.07,183.939,25.82,174.93z"/>
	<path fill="#C2C1C5" d="M54.04,175.01c6.29-0.02,12.59-0.02,18.89,0.01c0.13,8.98,0.09,17.971,0.06,26.971
		c-0.46,0.06-1.37,0.18-1.82,0.25c-0.12-4.43-0.15-8.84-0.19-13.25c0.03-3.051,0.11-6.051,0.07-9.08
		c-0.03-0.721-0.1-2.141-0.13-2.86c-4.56,0-9.16-0.43-13.7,0.11c-0.96,0.699-1.38,1.66-1.26,2.87c-0.07,7.399,0.11,14.8-0.12,22.2
		c-0.45-0.061-1.36-0.181-1.81-0.25C53.94,192.99,53.95,184,54.04,175.01z"/>
	<path fill="#C2C1C5" d="M94.03,175.061c6.32-0.121,12.63-0.051,18.95-0.051c0.02,8.99,0.04,17.98,0.04,26.98
		c-0.46,0.06-1.39,0.189-1.86,0.25c-0.22-7.44-0.1-14.881-0.11-22.311c-0.03-0.72-0.1-2.16-0.13-2.88c-3.71,0-11.13,0-14.84,0
		c-0.03,0.72-0.11,2.181-0.14,2.9c0,7.43,0.12,14.86-0.11,22.29c-0.47-0.07-1.39-0.19-1.85-0.26
		C94.03,193.01,93.86,184.03,94.03,175.061z"/>
	<path fill="#C2C1C5" d="M129.02,175.01c6.32-0.02,12.64-0.01,18.97-0.01c0,9,0.039,17.99,0,26.99c-0.461,0.06-1.37,0.18-1.83,0.25
		c-0.24-7.44-0.061-14.87-0.11-22.301c0.101-1.199-0.329-2.14-1.31-2.81c-4.551-0.149-9.12-0.37-13.66-0.05
		c-0.03,0.74-0.09,2.22-0.13,2.96c-0.01,7.39,0.1,14.79-0.11,22.2c-0.46-0.07-1.37-0.19-1.83-0.25
		C128.97,192.99,128.99,184,129.02,175.01z"/>
	<path fill="#C2C1C5" d="M163.82,174.73c6.369,0.439,12.76,0.229,19.15,0.279c0.079,8.99,0.079,17.98,0,26.971
		c-0.451,0.069-1.361,0.189-1.811,0.25c-0.82-7.761,1.029-15.94-0.79-23.521c-0.17-0.39-0.511-1.18-0.681-1.58
		c-4.539-0.14-9.08-0.37-13.609-0.04c-0.03,0.721-0.1,2.18-0.13,2.9c-0.011,7.41,0.1,14.83-0.11,22.25
		c-0.46-0.07-1.369-0.19-1.83-0.25C163.971,192.9,164.09,183.811,163.82,174.73z"/>
	<path fill="#C2C1C5" d="M25.89,224.91c6.37,0.109,12.73,0.09,19.09,0.09c0.04,9,0,17.99,0.02,26.99c-0.46,0.06-1.38,0.18-1.84,0.24
		c-0.11-4.42-0.13-8.83-0.18-13.24c0.03-3.021,0.08-5.98,0.03-8.98L43,229c-0.02-0.49-0.07-1.47-0.09-1.96
		c-4.56,0-9.15-0.42-13.69,0.12c-0.94,0.689-1.37,1.62-1.3,2.8c-0.07,2.99,0.05,6.021,0.1,9.03c-0.04,4.4-0.03,8.83-0.17,13.25
		c-0.46-0.07-1.38-0.19-1.84-0.25C25.98,242.96,26.02,233.93,25.89,224.91z"/>
	<path fill="#C2C1C5" d="M54.01,225.02c6.33-0.039,12.65-0.02,18.97-0.02c0.03,8.99,0.05,17.99,0.01,26.99
		c-0.46,0.06-1.37,0.18-1.82,0.25c-0.12-4.43-0.14-8.84-0.19-13.25C71,235.97,71.06,233,71.01,230L71,229.01
		c-0.02-0.49-0.07-1.47-0.09-1.96c-3.69-0.03-11.06-0.069-14.75-0.1c0.13,0.479,0.39,1.43,0.52,1.909
		c-0.49,3.351-0.79,6.75-0.69,10.141c-0.04,4.4,0,8.82-0.14,13.24c-0.46-0.061-1.38-0.18-1.84-0.25c-0.01-1.65,0-3.29-0.03-4.94
		c0.01-1.78,0.01-5.34,0.01-7.12C54.05,234.96,53.89,229.98,54.01,225.02z"/>
</g>
<g id="_x23_eaeadfff">
	<path fill="#EAEADF" d="M81.02,174.99c3.32,0.02,6.64,0,9.96,0.01c0.11,28.28-0.1,56.561,0.08,84.84c0.73,0.061,2.2,0.17,2.93,0.23
		c-0.01,2.63,0,5.27,0.03,7.92c-0.02,4-0.03,8-0.03,12.01H78.01c0.02-1.641,0.06-3.27,0.04-4.9c-0.05-1.439,0.22-3.17-1.31-3.939
		c-4.32-0.221-8.63-0.18-12.95-0.32c0.49-0.89,0.95-1.79,1.39-2.699c4.23-0.141,8.45-0.091,12.68-0.221
		c0.71-3.05-1.62-8.32,2.96-8.27C81.33,231.45,80.79,203.21,81.02,174.99z"/>
	<path fill="#EAEADF" d="M116.13,174.96c3.29,0.06,6.56,0.021,9.85,0.04c0.12,14.641-0.13,29.29,0.08,43.939
		c8.28,0.15,16.57,0.15,24.86,0.011c0.311-14.67-0.08-29.341,0.109-44.011c3.311,0.11,6.721,1.19,9.98,0.19
		c0.08,14.49-0.21,28.99,0.11,43.49l0.899,0.239c3.381,0.021,2.17,4.551-0.99,3.211c-15.02-0.09-30.039-0.141-45.059-0.01
		c-3.15,1.369-4.4-3.211-1-3.17l0.88-0.211C116.37,204.12,115.69,189.53,116.13,174.96z"/>
	<path fill="#EAEADF" d="M186.05,175c3.31,0,6.601-0.02,9.931-0.01c0.069,14.32-0.03,28.64,0.029,42.96c-0.02,1.37-0.02,2.729,0,4.1
		c-0.02,1.31-0.02,2.63,0,3.95c-0.02,1.33-0.02,2.67,0,4c-0.02,1.311-0.02,2.62,0,3.93c-0.02,1.381-0.02,2.76,0,4.141
		c0,7.199-0.199,14.399,0.12,21.6c4.649-0.15,2.31,5.17,3.011,8.24c3.92,0.08,7.84,0.17,11.77,0.279
		c0.4,0.461,1.189,1.381,1.59,1.841c-4.061,0.85-8.189,0.7-12.27,1.17c-1.791,0.96-1.07,3.159-1.25,4.81
		c-0.021,1.33-0.021,2.66,0,3.99h-17.01c0.029-3.96,0.1-7.9,0.229-11.84c0.319-2.721,0.69-5.38,0.88-8.1
		c0.48-0.03,1.43-0.091,1.91-0.121l0.91-0.09C186.221,231.58,185.82,203.28,186.05,175z"/>
	<path fill="#EAEADF" d="M54.01,251.99c0.46,0.07,1.38,0.189,1.84,0.25c5.04,1.04,10.27,1.04,15.32,0c0.45-0.07,1.36-0.19,1.82-0.25
		c0.01,1.32,0.01,2.65,0,3.979c-6.33,0.22-12.66-0.03-18.98-0.03l-0.05-1.039C53.97,254.17,54,252.72,54.01,251.99z"/>
</g>
<g id="_x23_835e51ff">
	<path fill="#835E51" d="M147.99,175h0.98c0.059,10.33,0.079,20.66,0,30.99H148c0-1.33,0-2.67-0.01-4
		C148.029,192.99,147.99,184,147.99,175z"/>
</g>
<g id="_x23_8e7065ff">
	<path fill="#8E7065" d="M163.05,174.98l0.771-0.25c0.27,9.08,0.15,18.17,0.189,27.26c-0.01,1.31-0.02,2.63-0.02,3.949l-0.961,0.08
		C162.98,195.67,162.92,185.32,163.05,174.98z"/>
</g>
<g id="_x23_c1c0c4ff">
	<path fill="#C1C0C4" d="M204.05,175.07c5.979-0.26,11.96-0.04,17.95-0.04c-0.01,8.979,0,17.97,0.01,26.97
		c-0.449,0.07-1.35,0.22-1.8,0.29c0-1.771,0.011-5.32,0.011-7.09c0.949-5.07,1.139-10.31,0.039-15.37l-0.15-0.891
		c-0.08-0.47-0.25-1.399-0.33-1.859c-4.569-0.09-9.139-0.32-13.699,0c-0.02,0.48-0.061,1.45-0.08,1.93l-0.02,1
		c-0.051,4.96,0.029,9.94,0,14.91c-0.051,1.82-0.131,5.471-0.181,7.29c-0.45-0.06-1.35-0.17-1.8-0.229
		C204.02,193,203.891,184.03,204.05,175.07z"/>
	<path fill="#C1C0C4" d="M94.02,224c6.3-0.01,12.6-0.09,18.91,0.05c0.26,9.32-0.01,18.65,0.08,27.97
		c-0.5-0.01-1.51-0.029-2.01-0.039c-0.07-7.66,0.17-15.32,0-22.971c-1.19-4.71-8.05-0.52-11-2.07c-1.71,0.201-4.87-0.799-4.01,2.061
		c-0.05,1.93,0,3.87,0.07,5.811c-0.03,5.72-0.06,11.439-0.07,17.17c-0.5,0.01-1.51,0.029-2.01,0.039
		C93.97,242.68,94,233.34,94.02,224z"/>
	<path fill="#C1C0C4" d="M164.02,224.03c6.08-0.171,12.16,0,18.25-0.28c1.98,9.17,0.11,18.92,0.75,28.28
		c-0.5-0.011-1.51-0.03-2.02-0.04c-0.561-7.68,1.141-15.71-0.67-23.221c-0.16-0.41-0.471-1.239-0.63-1.649
		c-4.54-0.13-9.091-0.36-13.62-0.04c-0.03,0.48-0.07,1.45-0.09,1.939c-0.07,7.65,0.029,15.301,0,22.961
		c-0.49,0.01-1.471,0.029-1.961,0.039C163.99,242.689,163.98,233.359,164.02,224.03z"/>
	<path fill="#C1C0C4" d="M204.05,225c5.96-0.02,11.921-0.09,17.9,0.04c0.18,8.979,0,17.96,0.05,26.94l-0.95,0.05
		c-0.61-7.681,1.07-15.72-0.69-23.24c-0.159-0.42-0.479-1.25-0.639-1.67c-4.551-0.13-9.111-0.36-13.641-0.04
		c-0.03,0.48-0.07,1.45-0.09,1.939l-0.01,0.99c-0.021,2.66-0.01,5.32,0.029,7.99c-0.06,4.73,0.04,9.47-0.17,14.21
		c-0.46-0.05-1.39-0.149-1.85-0.19C204.01,243.01,203.96,234,204.05,225z"/>
	<path fill="#C1C0C4" d="M232.02,225.01c5.971-0.029,11.951-0.1,17.931,0.03c0.18,8.979,0,17.96,0.06,26.94l-0.96,0.05
		c-0.61-7.681,1.07-15.72-0.69-23.24c-0.159-0.42-0.479-1.25-0.639-1.67c-4.561-0.13-9.111-0.36-13.641-0.04
		c-0.03,0.48-0.07,1.45-0.09,1.939l-0.01,0.99c-0.03,2.66-0.01,5.32,0.029,7.99c-0.06,4.73,0.04,9.47-0.17,14.21
		c-0.47-0.05-1.39-0.149-1.85-0.19C232,243.01,231.98,234.01,232.02,225.01z"/>
</g>
<g id="_x23_b5adadff">
	<path fill="#B5ADAD" d="M222,175.03l0.98-0.011c0.129,8.971-0.01,17.95,0.01,26.931l-0.98,0.05C222,193,221.99,184.01,222,175.03z"
		/>
</g>
<g id="_x23_c1c0c5ff">
	<path fill="#C1C0C5" d="M232.05,175.07c6-0.25,12.011,0,18.021-0.2c-0.11,9.04-0.07,18.069-0.07,27.11l-0.95,0.05
		c-0.26-7.39,0.56-14.91-0.7-22.23l-0.209-0.88c-0.111-0.45-0.32-1.359-0.431-1.82c-4.55-0.109-9.101-0.34-13.63-0.02
		c-0.02,0.48-0.061,1.45-0.08,1.93l-0.02,1c-0.051,4.971,0.029,9.94,0,14.91c-0.051,1.82-0.131,5.46-0.181,7.29
		c-0.45-0.05-1.35-0.149-1.8-0.2C232.02,193.03,231.891,184.05,232.05,175.07z"/>
</g>
<g id="_x23_b6adadff">
	<path fill="#B6ADAD" d="M250.07,174.87l1.09-0.13c-0.25,9.07-0.07,18.15-0.2,27.229L250,201.98
		C250,192.939,249.96,183.91,250.07,174.87z"/>
	<path fill="#B6ADAD" d="M204.04,224.061c6.29-0.291,12.59-0.07,18.89-0.011c0.271,9.31-0.02,18.62,0.051,27.931H222
		c-0.05-8.98,0.13-17.961-0.05-26.94c-5.979-0.13-11.94-0.06-17.9-0.04L204.04,224.061z"/>
</g>
<g id="_x23_9e9da3ff">
	<path fill="#9E9DA3" d="M28.09,177.04c3.7,0,11.12,0.01,14.83,0.01c0.03,0.71,0.09,2.14,0.13,2.86l-0.86-0.12
		c-4.36-0.53-9.17-1.86-13.39-0.05l-0.84,0.3C27.99,179.29,28.05,177.79,28.09,177.04z"/>
	<path fill="#9E9DA3" d="M131.08,177.08c4.54-0.32,9.109-0.1,13.66,0.05c0.98,0.67,1.41,1.61,1.31,2.81l-0.89-0.14
		c-4.34-0.59-9.14-1.85-13.36-0.06l-0.85,0.3C130.99,179.3,131.05,177.82,131.08,177.08z"/>
	<path fill="#9E9DA3" d="M56.16,226.95c3.69,0.03,11.06,0.069,14.75,0.1c0.02,0.49,0.07,1.47,0.09,1.96
		c-4.78-0.04-9.55,0.04-14.32-0.15C56.55,228.38,56.29,227.43,56.16,226.95z"/>
	<path fill="#9E9DA3" d="M95.99,229c-0.86-2.859,2.3-1.859,4.01-2.061c2.95,1.551,9.81-2.64,11,2.07l-0.98,0.01
		C105.34,228.99,100.67,228.99,95.99,229z"/>
</g>
<g id="_x23_9d9ca3ff">
	<path fill="#9D9CA3" d="M57.22,177.16c4.54-0.54,9.14-0.11,13.7-0.11c0.03,0.72,0.1,2.14,0.13,2.86l-0.86-0.12
		c-4.36-0.53-9.17-1.851-13.41-0.05l-0.82,0.29C55.84,178.82,56.26,177.859,57.22,177.16z"/>
	<path fill="#9D9CA3" d="M166.08,227.08c4.529-0.32,9.08-0.09,13.62,0.04c0.159,0.41,0.47,1.239,0.63,1.649
		c-4.79,0.15-9.561,0.221-14.34,0.25C166.01,228.53,166.05,227.561,166.08,227.08z"/>
</g>
<g id="_x23_9f9da4ff">
	<path fill="#9F9DA4" d="M96.08,177.05c3.71,0,11.13,0,14.84,0c0.03,0.72,0.1,2.16,0.13,2.88l-0.89-0.14
		c-4.36-0.649-9.12-1.729-13.39-0.101l-0.83,0.261C95.97,179.23,96.05,177.77,96.08,177.05z"/>
</g>
<g id="_x23_9d9ca2ff">
	<path fill="#9D9CA2" d="M166.08,177.09c4.529-0.33,9.07-0.1,13.609,0.04c0.17,0.4,0.511,1.19,0.681,1.58
		c-4.47,0.63-9.261-0.59-13.56,0.99l-0.86,0.29C165.98,179.27,166.05,177.811,166.08,177.09z"/>
	<path fill="#9D9CA2" d="M29.22,227.16c4.54-0.54,9.13-0.12,13.69-0.12c0.02,0.49,0.07,1.47,0.09,1.96
		c-4.71,0.38-9.7-0.939-14.25,0.71l-0.83,0.25C27.85,228.78,28.28,227.85,29.22,227.16z"/>
</g>
<g id="_x23_9d9ba2ff">
	<path fill="#9D9BA2" d="M206.08,177.08c4.561-0.32,9.13-0.09,13.699,0c0.08,0.46,0.25,1.39,0.33,1.859
		c-4.709,0.03-9.409,0.051-14.109,0.07C206.02,178.53,206.061,177.561,206.08,177.08z"/>
	<path fill="#9D9BA2" d="M234.08,177.08c4.529-0.32,9.08-0.09,13.63,0.02c0.11,0.461,0.319,1.37,0.431,1.82
		c-4.721,0.04-9.431,0.07-14.141,0.09C234.02,178.53,234.061,177.561,234.08,177.08z"/>
</g>
<g id="_x23_727682ff">
	<path fill="#727682" d="M28.8,179.74c4.22-1.811,9.03-0.48,13.39,0.05C37.72,179.859,33.26,179.93,28.8,179.74z"/>
	<path fill="#727682" d="M56.78,179.74c4.24-1.801,9.05-0.48,13.41,0.05C65.72,179.859,61.25,179.939,56.78,179.74z"/>
	<path fill="#727682" d="M206,179.01c4.7-0.02,9.4-0.04,14.109-0.07l0.15,0.891c-4.77,0.109-9.52,0.16-14.279,0.18L206,179.01z"/>
	<path fill="#727682" d="M234,179.01c4.71-0.02,9.42-0.05,14.141-0.09l0.209,0.88c-4.8,0.13-9.58,0.19-14.369,0.21L234,179.01z"/>
</g>
<g id="_x23_7d7f89ff">
	<path fill="#7D7F89" d="M96.77,179.689c4.27-1.629,9.03-0.549,13.39,0.101c-3.06,0.06-6.1,0.2-9.15,0.25
		C99.59,179.93,98.18,179.811,96.77,179.689z"/>
</g>
<g id="_x23_83838bff">
	<path fill="#83838B" d="M131.8,179.74c4.22-1.79,9.021-0.53,13.36,0.06C140.7,179.88,136.25,179.939,131.8,179.74z"/>
</g>
<g id="_x23_737782ff">
	<path fill="#737782" d="M166.811,179.7c4.299-1.58,9.09-0.36,13.56-0.99c1.819,7.58-0.03,15.76,0.79,23.521l-1.08-0.101
		c-0.13-7.36,0.04-14.71-0.141-22.06c-1.479-0.021-4.449-0.07-5.939-0.09C172.2,179.91,168.609,179.77,166.811,179.7z"/>
</g>
<g id="_x23_6b717cff">
	<path fill="#6B717C" d="M27.96,180.04l0.84-0.3c0.14,5.08,0.19,10.17,0.22,15.25c-0.02,1.779-0.08,5.34-0.11,7.109l-1.08,0.131
		C28.06,194.83,27.94,187.43,27.96,180.04z"/>
</g>
<g id="_x23_50596eff">
	<path fill="#50596E" d="M28.8,179.74c4.46,0.189,8.92,0.119,13.39,0.05l0.86,0.12c0.04,5.05-0.12,10.09-0.19,15.15l-0.71,0.01
		c-4.38-0.051-8.75-0.061-13.13-0.08C28.99,189.91,28.94,184.82,28.8,179.74z"/>
	<path fill="#50596E" d="M57.06,230.08c4.65-0.3,9.3-0.04,13.95-0.08c0.05,3-0.01,5.97-0.03,8.99l-0.99,0.02
		c-4.34-0.02-8.67-0.01-13-0.01C56.98,236.04,56.98,233.02,57.06,230.08z"/>
</g>
<g id="_x23_717780ff">
	<path fill="#717780" d="M55.96,180.03l0.82-0.29c0.1,3.07,0.19,6.17,0.25,9.26c-0.04,4.359-0.03,8.73-0.1,13.109l-1.09,0.121
		C56.07,194.83,55.89,187.43,55.96,180.03z"/>
</g>
<g id="_x23_51596fff">
	<path fill="#51596F" d="M56.78,179.74c4.47,0.199,8.94,0.119,13.41,0.05l0.86,0.12c0.04,3.029-0.04,6.029-0.07,9.08l-0.99,0.02
		c-4.32-0.02-8.64-0.01-12.96-0.01C56.97,185.91,56.88,182.811,56.78,179.74z"/>
</g>
<g id="_x23_51596eff">
	<path fill="#51596E" d="M95.94,179.95l0.83-0.261c1.41,0.121,2.82,0.24,4.24,0.351c-0.01,7.3-0.01,14.61-0.01,21.92
		c-1.72,0.07-3.45,0.17-5.17,0.28C96.06,194.811,95.94,187.38,95.94,179.95z"/>
	<path fill="#51596E" d="M165.99,229.02c4.779-0.029,9.55-0.1,14.34-0.25c-0.29,5.73-0.34,11.471-0.359,17.221
		c-4.301,0.04-8.601-0.16-12.891,0.08c-0.03,1.479-0.09,4.43-0.12,5.91h-0.97C166.02,244.32,165.92,236.67,165.99,229.02z"/>
</g>
<g id="_x23_353e44ff">
	<path fill="#353E44" d="M101.01,180.04c3.05-0.05,6.09-0.19,9.15-0.25c-0.2,7.44-0.2,14.89-0.09,22.34
		c-3.03-0.1-6.04-0.14-9.07-0.17C101,194.65,101,187.34,101.01,180.04z"/>
</g>
<g id="_x23_7c7e85ff">
	<path fill="#7C7E85" d="M110.16,179.79l0.89,0.14c0.01,7.43-0.11,14.87,0.11,22.311l-1.09-0.11
		C109.96,194.68,109.96,187.23,110.16,179.79z"/>
</g>
<g id="_x23_686f75ff">
	<path fill="#686F75" d="M130.95,180.04l0.85-0.3c0.24,7.449,0.24,14.9,0.12,22.359l-1.08,0.141
		C131.05,194.83,130.94,187.43,130.95,180.04z"/>
	<path fill="#686F75" d="M41.99,239.01l0.99-0.02c0.05,4.41,0.07,8.82,0.18,13.24l-1.09-0.11C42,247.75,42,243.37,41.99,239.01z"/>
</g>
<g id="_x23_353e45ff">
	<path fill="#353E45" d="M131.8,179.74c4.45,0.199,8.9,0.14,13.36,0.06c-0.2,7.431-0.2,14.87-0.09,22.31
		c-4.381-0.09-8.771-0.149-13.15-0.01C132.04,194.641,132.04,187.189,131.8,179.74z"/>
	<path fill="#353E45" d="M29.02,194.99c4.38,0.02,8.75,0.029,13.13,0.08c0.03,1.76,0.09,5.26,0.12,7.02
		c-4.45-0.08-8.91-0.13-13.36,0.01C28.94,200.33,29,196.77,29.02,194.99z"/>
	<path fill="#353E45" d="M56.99,239c4.33,0,8.66-0.01,13,0.01c0.01,4.36,0.01,8.74,0.08,13.11c-4.38-0.101-8.76-0.16-13.14-0.021
		C57,247.73,56.99,243.359,56.99,239z"/>
</g>
<g id="_x23_7c7f84ff">
	<path fill="#7C7F84" d="M145.16,179.8l0.89,0.14c0.05,7.431-0.13,14.86,0.11,22.301l-1.09-0.131
		C144.96,194.67,144.96,187.23,145.16,179.8z"/>
</g>
<g id="_x23_6a6f73ff">
	<path fill="#6A6F73" d="M165.95,179.99l0.86-0.29c0.229,7.479,0.229,14.96,0.119,22.44l-1.09,0.1
		C166.05,194.82,165.939,187.4,165.95,179.99z"/>
</g>
<g id="_x23_363f46ff">
	<path fill="#363F46" d="M166.811,179.7c1.799,0.069,5.39,0.21,7.189,0.28c0,7.33,0,14.649,0,21.979c-1.77,0.05-5.3,0.13-7.07,0.181
		C167.04,194.66,167.04,187.18,166.811,179.7z"/>
</g>
<g id="_x23_50586eff">
	<path fill="#50586E" d="M174,179.98c1.49,0.02,4.46,0.069,5.939,0.09c0.181,7.35,0.011,14.699,0.141,22.06
		c-2.03-0.1-4.051-0.14-6.08-0.17C174,194.63,174,187.311,174,179.98z"/>
	<path fill="#50586E" d="M205.98,180.01c4.76-0.02,9.51-0.07,14.279-0.18c-0.14,4.75-0.359,9.51-0.14,14.27
		c-4.649,0.41-9.75-1.26-14.14,0.82C206.01,189.95,205.93,184.97,205.98,180.01z"/>
	<path fill="#50586E" d="M233.98,180.01c4.789-0.02,9.569-0.08,14.369-0.21c-0.24,4.71-0.35,9.45-0.379,14.181
		c-4.611,0.5-9.641-1.09-13.99,0.939C234.01,189.95,233.93,184.98,233.98,180.01z"/>
</g>
<g id="_x23_a7a8acff">
	<path fill="#A7A8AC" d="M220.26,179.83c1.1,5.061,0.91,10.3-0.039,15.37l-0.101-1.101C219.9,189.34,220.12,184.58,220.26,179.83z"
		/>
</g>
<g id="_x23_acabafff">
	<path fill="#ACABAF" d="M248.35,179.8c1.26,7.32,0.44,14.841,0.7,22.23l-0.84,0.25c-0.101-2.771-0.181-5.54-0.239-8.3
		C248,189.25,248.109,184.51,248.35,179.8z"/>
</g>
<g id="_x23_895443ff">
	<path fill="#895443" d="M15.04,183.17c3.33-0.32,6.69-0.43,9.99-1.04c0.02,4.61,0,9.2,0,13.81c-3.1-1.52-6.73-0.709-10.01-1.08
		c-0.07-1.219-0.06-2.439,0.04-3.649c2.07-0.21,5.06,0.16,3.73-2.8C15.89,187.939,14.08,186.23,15.04,183.17z"/>
</g>
<g id="_x23_353f45ff">
	<path fill="#353F45" d="M57.03,189c4.32,0,8.64-0.01,12.96,0.01c0.01,4.36,0.01,8.74,0.08,13.11c-4.38-0.101-8.76-0.15-13.14-0.011
		C57,197.73,56.99,193.359,57.03,189z"/>
	<path fill="#353F45" d="M97.09,236.02c4.3-0.01,8.59-0.029,12.89-0.02c0.05,5.33,0.01,10.641,0.02,15.98
		c-4.34,0.02-8.67,0.05-13.01,0C96.99,246.66,97.03,241.33,97.09,236.02z"/>
	<path fill="#353F45" d="M206.01,238c4.65,0,9.301-0.01,13.961,0c0.049,4.76,0.079,9.51,0.229,14.28
		c-4.79-0.19-9.58-0.341-14.36-0.07C206.05,247.47,205.95,242.73,206.01,238z"/>
	<path fill="#353F45" d="M234.01,238c4.65,0,9.301-0.01,13.961,0c0.049,4.76,0.079,9.51,0.229,14.29c-4.8-0.2-9.58-0.351-14.36-0.08
		C234.05,247.47,233.95,242.73,234.01,238z"/>
</g>
<g id="_x23_696f74ff">
	<path fill="#696F74" d="M69.99,189.01l0.99-0.02c0.04,4.41,0.07,8.82,0.19,13.25l-1.1-0.12C70,197.75,70,193.37,69.99,189.01z"/>
</g>
<g id="_x23_364047ff">
	<path fill="#364047" d="M205.98,194.92c4.39-2.08,9.49-0.41,14.14-0.82l0.101,1.101c0,1.77-0.011,5.319-0.011,7.09
		c-4.8-0.21-9.61-0.351-14.41-0.08C205.85,200.391,205.93,196.74,205.98,194.92z"/>
	<path fill="#364047" d="M233.98,194.92c4.35-2.029,9.379-0.439,13.99-0.939c0.059,2.76,0.139,5.529,0.239,8.3
		c-4.81-0.19-9.61-0.341-14.41-0.07C233.85,200.38,233.93,196.74,233.98,194.92z"/>
</g>
<g id="_x23_1d1d1c20">
	<path opacity="0.13" fill="#1D1D1C" enable-background="new    " d="M263.25,193.75c1.63,4.22,2.25,8.73,1.83,13.26
		c-0.53-0.26-1.58-0.76-2.109-1.02C263,201.9,263.1,197.82,263.25,193.75z"/>
</g>
<g id="_x23_696e73ff">
	<path fill="#696E73" d="M42.15,195.07l0.71-0.01c0.04,1.77,0.14,5.299,0.18,7.069l-0.77-0.04
		C42.24,200.33,42.18,196.83,42.15,195.07z"/>
</g>
<g id="_x23_e9e9dfff">
	<path fill="#E9E9DF" d="M26.03,201.98c0.45,0.069,1.35,0.189,1.8,0.25c5.01,1.029,10.22,1.109,15.21-0.101
		c0.49-0.04,1.45-0.13,1.94-0.18c0.05,1.409,0.11,2.819,0.16,4.229c-6.5-0.16-13-0.33-19.49-0.01
		C25.8,204.78,25.92,203.38,26.03,201.98z"/>
	<path fill="#E9E9DF" d="M54.03,201.98c0.45,0.069,1.36,0.189,1.81,0.25c5.04,1.06,10.28,1.05,15.33,0.01
		c0.45-0.07,1.36-0.19,1.82-0.25c0.01,1.33,0.01,2.67,0.02,4.01c-6.33,0-12.66,0-18.99,0C53.95,204.66,53.96,203.32,54.03,201.98z"
		/>
	<path fill="#E9E9DF" d="M93.98,201.98c0.46,0.069,1.38,0.189,1.85,0.26c5.05,1.029,10.28,1.05,15.33,0
		c0.47-0.061,1.4-0.19,1.86-0.25c0.01,1.64,0.02,3.279-0.11,4.92c-6.26,0.359-12.55,0.08-18.82,0.04
		C93.96,205.29,93.97,203.641,93.98,201.98z"/>
	<path fill="#E9E9DF" d="M129.01,201.99c0.46,0.06,1.37,0.18,1.83,0.25c5.04,1.04,10.27,1.04,15.32,0
		c0.46-0.07,1.369-0.19,1.83-0.25c0.01,1.33,0.01,2.67,0.01,4c-6.34,0-12.67,0.02-19.01,0C128.99,204.65,129,203.32,129.01,201.99z"
		/>
	<path fill="#E9E9DF" d="M164.01,201.99c0.461,0.06,1.37,0.18,1.83,0.25c5.04,1.04,10.27,1.05,15.32-0.01
		c0.449-0.061,1.359-0.181,1.811-0.25c0.069,1.33,0.069,2.66,0,3.989c-6.33,0.011-12.65,0.21-18.98-0.03
		C163.99,204.62,164,203.3,164.01,201.99z"/>
</g>
<g id="_x23_adb0acff">
	<path fill="#ADB0AC" d="M27.83,202.23l1.08-0.131c4.45-0.14,8.91-0.09,13.36-0.01l0.77,0.04
		C38.05,203.34,32.84,203.26,27.83,202.23z"/>
</g>
<g id="_x23_adb0adff">
	<path fill="#ADB0AD" d="M55.84,202.23l1.09-0.121c4.38-0.14,8.76-0.09,13.14,0.011l1.1,0.12
		C66.12,203.28,60.88,203.29,55.84,202.23z"/>
</g>
<g id="_x23_a5a8a7ff">
	<path fill="#A5A8A7" d="M95.83,202.24c1.72-0.11,3.45-0.21,5.17-0.28c3.03,0.03,6.04,0.07,9.07,0.17l1.09,0.11
		C106.11,203.29,100.88,203.27,95.83,202.24z"/>
</g>
<g id="_x23_aeb0adff">
	<path fill="#AEB0AD" d="M130.84,202.24l1.08-0.141c4.38-0.14,8.77-0.08,13.15,0.01l1.09,0.131
		C141.109,203.28,135.88,203.28,130.84,202.24z"/>
</g>
<g id="_x23_a0a4a4ff">
	<path fill="#A0A4A4" d="M165.84,202.24l1.09-0.1c1.771-0.051,5.301-0.131,7.07-0.181c2.029,0.03,4.05,0.07,6.08,0.17l1.08,0.101
		C176.109,203.29,170.88,203.28,165.84,202.24z"/>
</g>
<g id="_x23_abadaaff">
	<path fill="#ABADAA" d="M205.8,202.21c4.8-0.271,9.61-0.13,14.41,0.08C215.58,203.91,210.51,202.83,205.8,202.21z"/>
</g>
<g id="_x23_e7e6dcff">
	<path fill="#E7E6DC" d="M231.04,201.95l0.96,0.06c0.45,0.051,1.35,0.15,1.8,0.2c4.71,0.57,9.79,1.75,14.41,0.07l0.84-0.25
		l0.95-0.05l0.96-0.011c0.08,1.341,0.08,2.681,0.021,4.03c-6.66-0.01-13.311,0-19.961,0C230.95,204.65,230.96,203.3,231.04,201.95z"
		/>
</g>
<g id="_x23_abadabff">
	<path fill="#ABADAB" d="M233.8,202.21c4.8-0.271,9.601-0.12,14.41,0.07C243.59,203.96,238.51,202.78,233.8,202.21z"/>
</g>
<g id="_x23_957364ff">
	<path fill="#957364" d="M25.65,206.17c6.49-0.32,12.99-0.15,19.49,0.01l-0.18,0.92c-6.37-0.109-12.74-0.14-19.11-0.039
		L25.65,206.17z"/>
	<path fill="#957364" d="M128.99,205.99c6.34,0.02,12.67,0,19.01,0l-0.01,0.979c-6.32,0.011-12.65,0.19-18.97-0.02L128.99,205.99z"
		/>
	<path fill="#957364" d="M202.87,206.05c6.71-0.11,13.42-0.04,20.14-0.05v1.01c-6.67-0.01-13.34-0.02-20,0.01L202.87,206.05z"/>
</g>
<g id="_x23_967365ff">
	<path fill="#967365" d="M54.02,206c6.33,0,12.66,0,18.99,0l-0.02,1c-6.33,0-12.66,0-18.98,0L54.02,206z"/>
</g>
<g id="_x23_967265ff">
	<path fill="#967265" d="M231.02,206c6.65,0,13.301-0.01,19.961,0l0.049,1.01c-6.68-0.02-13.35-0.02-20.02-0.01L231.02,206z"/>
</g>
<g id="_x23_744435ff">
	<path fill="#744435" d="M54.01,207c6.32,0,12.65,0,18.98,0c0,0.74-0.01,2.23-0.01,2.97c-6.32,0.011-12.64,0.2-18.96-0.03
		C54.02,209.21,54.01,207.74,54.01,207z"/>
</g>
<g id="_x23_744434ff">
	<path fill="#744434" d="M203.01,207.02c6.66-0.029,13.33-0.02,20-0.01c0.54,2.391-0.52,3.48-2.93,3.08
		c-3.4-0.06-6.77-0.1-10.17-0.09C207.061,210.26,202.77,210.87,203.01,207.02z"/>
</g>
<g id="_x23_764636ff">
	<path fill="#764636" d="M231.01,207c6.67-0.01,13.34-0.01,20.02,0.01c-0.02,1.41,0.211,3.07-1.26,3.86
		c-4.99,0.271-10.029,0.54-14.89-0.729c-1.29-0.121-2.569-0.201-3.86-0.221C231.02,209.189,231.01,207.73,231.01,207z"/>
</g>
<g id="_x23_9b6444ff">
	<path fill="#9B6444" d="M35.93,210.03c3.36-0.05,6.71-0.091,10.06-0.091c3.12-0.77,3.44,1.461,2.98,3.99
		c-4.27,0.301-8.56,0.07-12.84,0.03C36.03,212.65,35.96,211.34,35.93,210.03z"/>
	<path fill="#9B6444" d="M209.91,210c3.4-0.01,6.77,0.03,10.17,0.09c-0.359,2.63,1.061,7.41-5.09,3.93
		C211.21,216.2,207.66,212.97,209.91,210z"/>
	<path fill="#9B6444" d="M225.029,210.02c1.5-0.029,4.49-0.08,5.99-0.1c1.291,0.02,2.57,0.1,3.86,0.221
		c3.399,2.199-2.18,6.739-4.87,3.879C223.59,217.6,225.16,212.7,225.029,210.02z"/>
</g>
<g id="_x23_986143ff">
	<path fill="#986143" d="M93.95,213.061c-0.47-3.98,4.32-3.311,7.11-3.061c-0.03,1.34-0.09,2.67-0.19,4.01
		C98.42,214.391,96.11,214.07,93.95,213.061z"/>
</g>
<g id="_x23_865143ff">
	<path fill="#865143" d="M101.06,210c1.32-0.02,2.64-0.01,3.96,0.01c-3.14,6.131,6.39,3.49,9.97,4.01c0.01,1.621,0,3.25-0.02,4.871
		c-3.4-0.041-2.15,4.539,1,3.17l0.03,0.959c0.01,0.75,0.02,2.23,0.02,2.98c-0.13,13.98,0.13,27.97-0.07,41.95
		c-6.04,0.13-12.06,0.03-18.09,0.08c-1.28-0.021-2.56-0.04-3.84-0.04c-0.03-2.65-0.04-5.29-0.03-7.92
		c5.92-0.08,11.84,0.039,17.76-0.2c1.45-0.8,1.22-2.46,1.27-3.86c0.02-1.33,0.02-2.66-0.01-3.99c-0.09-9.319,0.18-18.649-0.08-27.97
		c-6.31-0.14-12.61-0.06-18.91-0.05c-0.04-3.641-0.12-7.311-0.07-10.939c2.16,1.01,4.47,1.33,6.92,0.949
		C100.97,212.67,101.03,211.34,101.06,210z"/>
</g>
<g id="_x23_9b6443ff">
	<path fill="#9B6443" d="M105.02,210.01c3.32-0.029,6.64-0.029,9.97-0.01c0.01,1.34,0.01,2.68,0,4.02
		C111.41,213.5,101.88,216.141,105.02,210.01z"/>
</g>
<g id="_x23_824f40ff">
	<path fill="#824F40" d="M131.23,210.13c2.44-0.04,7.32-0.11,9.76-0.149c7.59-4.48,7.59,10.51,0,6.039
		c-2.77-1.489-10.18,2.641-10.98-2.069C129.89,212.54,129.8,210.91,131.23,210.13z"/>
</g>
<g id="_x23_875243ff">
	<path fill="#875243" d="M163.221,210.15c5.809-0.58,11.68-0.12,17.51-0.01c3.35,3.329,0.22,9.409,1.539,13.609
		c-6.09,0.28-12.17,0.109-18.25,0.28l-0.97,0.06c0.3,10.67-0.979,21.561,0.601,32.13c0.17,1.22,0.35,2.45,0.55,3.681
		c5.93,0.319,11.88,0.01,17.829,0.17c0.041,2.689,0.091,5.38,0.171,8.09c-1.39-0.08-2.761-0.12-4.14-0.13
		c-5.681-0.091-11.351,0.069-17.011-0.08c-0.19-13.99,0.05-27.97-0.069-41.95c0.01-0.74,0.01-2.23,0.02-2.97l0.029-0.96
		c3.16,1.34,4.371-3.19,0.99-3.211C162.439,216.01,160.52,212.09,163.221,210.15 M168.029,215.02
		c-0.079,1.311-0.079,2.631-0.01,3.961c2.74,0,8.211,0,10.951,0c0.069-1.32,0.079-2.641,0.01-3.961
		C176.24,215.02,170.77,215.02,168.029,215.02z"/>
</g>
<g id="_x23_996243ff">
	<path fill="#996243" d="M168.029,215.02c2.74,0,8.211,0,10.951,0c0.069,1.32,0.06,2.641-0.01,3.961c-2.74,0-8.211,0-10.951,0
		C167.95,217.65,167.95,216.33,168.029,215.02z"/>
</g>
<g id="_x23_986144ff">
	<path fill="#986144" d="M70.23,217.13c2.44-0.03,7.33-0.09,9.77-0.12c0.7,3.34-1.21,7.51-6.01,5.03
		C70.71,223.38,66.82,219.67,70.23,217.13z"/>
	<path fill="#986144" d="M196.01,233.93c1.32,0.021,2.631,0.08,3.95,0.18c0.09,1.261,0.09,2.521,0,3.781
		c-1.319,0.09-2.63,0.149-3.95,0.18C195.99,236.689,195.99,235.311,196.01,233.93z"/>
</g>
<g id="_x23_dcddcfff">
	<path fill="#DCDDCF" d="M115.97,222.061c15.02-0.131,30.04-0.08,45.059,0.01L161,223.03c-15-0.04-30-0.061-45-0.011L115.97,222.061
		z"/>
</g>
<g id="_x23_b7aeaeff">
	<path fill="#B7AEAE" d="M25.89,224.91c5.45-2.85,13.06,0.02,19.11-0.891L44.98,225C38.62,225,32.26,225.02,25.89,224.91z"/>
</g>
<g id="_x23_9c786fff">
	<path fill="#9C786F" d="M45,224.02l0.96,0.051c0.16,10.25-0.02,20.5,0.06,30.76l-0.75,0.37c-0.07-0.81-0.2-2.41-0.27-3.21
		c-0.02-9,0.02-17.99-0.02-26.99L45,224.02z"/>
</g>
<g id="_x23_b7aeadff">
	<path fill="#B7AEAD" d="M54.07,224.07c6.3-0.311,12.62-0.09,18.93-0.061L72.98,225c-6.32,0-12.64-0.02-18.97,0.02L54.07,224.07z"/>
</g>
<g id="_x23_9f7b70ff">
	<path fill="#9F7B70" d="M73,224.01l0.95,0.061c0.23,5.949-0.02,11.92,0.06,17.88c-0.01,1.36-0.01,2.729,0.01,4.09
		c-0.83,2.84,1.88,9-1.03,9.93c0.01-1.329,0.01-2.659,0-3.979c0.04-9,0.02-18-0.01-26.99L73,224.01z"/>
</g>
<g id="_x23_9d7a70ff">
	<path fill="#9D7A70" d="M163.05,224.09l0.97-0.06c-0.039,9.329-0.029,18.659,0.01,27.989c-0.109,1.4-0.229,2.801-0.379,4.2
		C162.07,245.65,163.35,234.76,163.05,224.09z"/>
</g>
<g id="_x23_ae9a94ff">
	<path fill="#AE9A94" d="M203.189,224.141l0.851-0.08l0.01,0.939c-0.09,9-0.04,18.01-0.06,27.02l-1-0.06
		c-0.02-1.97,0.01-3.93-0.01-5.89c0.02-1.381,0.02-2.75,0.02-4.11c0.02-3.99,0.02-7.979-0.02-11.96
		c-0.01-1.34-0.041-2.689-0.08-4.03C202.971,225.51,203.109,224.6,203.189,224.141z"/>
</g>
<g id="_x23_ab9894ff">
	<path fill="#AB9894" d="M231.04,224.1l0.96-0.069l0.02,0.979c-0.039,9-0.02,18-0.029,27.01l-0.99-0.05
		C231.029,242.67,230.88,233.38,231.04,224.1z"/>
</g>
<g id="_x23_b6aeaeff">
	<path fill="#B6AEAE" d="M232,224.03c6.311-0.21,12.62-0.061,18.93,0.02c0.25,9.3,0.01,18.62,0.09,27.931h-1.01
		c-0.06-8.98,0.12-17.961-0.06-26.94c-5.979-0.13-11.96-0.06-17.931-0.03L232,224.03z"/>
</g>
<g id="_x23_e9e9deff">
	<path fill="#E9E9DE" d="M116.02,226c14.99,0,29.97,0,44.96,0c0.119,13.98-0.121,27.96,0.069,41.95
		c5.66,0.149,11.33-0.011,17.011,0.08c-0.031,0.729-0.07,2.21-0.101,2.95c-5.72,0.199-11.601-0.53-17.229,0.739
		c-3.551,0.05-7.4,1-10.75-0.64c-0.07-12.35,0.18-24.689-0.03-37.03c-7.65-0.08-15.3-0.22-22.94-0.02l-0.96,0.069
		c-0.19,12.291,0.04,24.59-0.07,36.9c-9.06-0.02-18.12-0.07-27.18,0.23c-0.73-0.84-1.05-1.91-0.94-3.2
		c6.03-0.05,12.05,0.05,18.09-0.08C116.15,253.97,115.89,239.98,116.02,226 M120.2,227.12c-1.69,1.06-2.28,6.1,0.76,4.84
		C124.18,231.99,123.45,225.96,120.2,227.12 M137.21,227.12c-2.82,1.7-0.54,6.26,2.59,4.75
		C142.6,230.38,139.49,226.53,137.21,227.12 M155.24,227.2c-2.69,0.88-2.33,5.42,0.72,4.78
		C159.17,232.05,158.45,225.88,155.24,227.2z"/>
</g>
<g id="_x23_9a6344ff">
	<path fill="#9A6344" d="M196.01,226c1.721-0.01,5.16-0.02,6.891-0.03c0.039,1.341,0.07,2.69,0.08,4.03c-1.74,0-5.23,0-6.971,0
		C195.99,228.67,195.99,227.33,196.01,226z"/>
</g>
<g id="_x23_d4d4c5ff">
	<path fill="#D4D4C5" d="M137.21,227.12c2.28-0.59,5.39,3.26,2.59,4.75C136.67,233.38,134.39,228.82,137.21,227.12z"/>
</g>
<g id="_x23_d4d4c4ff">
	<path fill="#D4D4C4" d="M155.24,227.2c3.21-1.32,3.93,4.85,0.72,4.78C152.91,232.62,152.55,228.08,155.24,227.2z"/>
</g>
<g id="_x23_9c9ba1ff">
	<path fill="#9C9BA1" d="M206.08,227.08c4.529-0.32,9.09-0.09,13.641,0.04c0.159,0.42,0.479,1.25,0.639,1.67
		c-4.799,0.14-9.58,0.2-14.369,0.229C206.01,228.53,206.05,227.561,206.08,227.08z"/>
</g>
<g id="_x23_9c9ba2ff">
	<path fill="#9C9BA2" d="M234.08,227.08c4.529-0.32,9.08-0.09,13.641,0.04c0.159,0.42,0.479,1.25,0.639,1.67
		c-4.799,0.14-9.58,0.2-14.369,0.229C234.01,228.53,234.05,227.561,234.08,227.08z"/>
</g>
<g id="_x23_8a5643ff">
	<path fill="#8A5643" d="M15.04,229.189c3.34-0.35,6.7-0.64,10.05-0.92c0.39,2.881-1.09,5.211-1.98,7.59
		c4.64,5.391,0.48,13.65,1.92,20.07L26,255.99c6.29,0.09,12.59,0.05,18.88-0.021c-0.4,3.811-4.9-0.26-5.57,3.13
		c-0.13-0.49-0.38-1.47-0.51-1.959c-4.25-0.15-8.52-0.371-12.77-0.08c-0.01,0.72-0.01,2.17-0.02,2.89c4.37,0.08,8.73,0.09,13.1,0.06
		c0.33,2.51-2.34,1.801-3.94,2.221c0.8,2.68,1.23,5.439-2.3,5.869c-6-0.1-12-0.119-18-0.13l-0.21-0.8c0.1-1.51,0.3-4.54,0.4-6.05
		c2.97-0.22,5.95-0.14,8.93-0.22c1.67-5.53-6.8-1.41-8.99-3.01c-5.19-8.15,5.2-2.23,3.99-6.82c0.2-1.87-2.82-0.67-3.96-1.28
		c-0.13-1.74-0.47-4.69,2.03-4.7c2.44-0.66,8.06,1.96,6.9-2c-2.42-1.06-8.81,2.1-8.97-1.12c-5.27-8.239,5.2-2.29,3.99-6.899
		C18.75,232.07,10.18,236.7,15.04,229.189z"/>
</g>
<g id="_x23_636978ff">
	<path fill="#636978" d="M28.75,229.71c4.55-1.649,9.54-0.33,14.25-0.71l0.01,1.01C38.26,229.96,33.5,230.05,28.75,229.71z"/>
</g>
<g id="_x23_676d7bff">
	<path fill="#676D7B" d="M55.99,239c-0.1-3.391,0.2-6.79,0.69-10.141c4.77,0.19,9.54,0.11,14.32,0.15l0.01,0.99
		c-4.65,0.04-9.3-0.22-13.95,0.08c-0.08,2.939-0.08,5.96-0.07,8.92H55.99z"/>
</g>
<g id="_x23_50596dff">
	<path fill="#50596D" d="M95.99,229c4.68-0.01,9.35-0.01,14.03,0.02c-0.01,1.75-0.03,5.23-0.04,6.98c-4.3-0.01-8.59,0.01-12.89,0.02
		c-0.26-0.3-0.77-0.91-1.03-1.209C95.99,232.87,95.94,230.93,95.99,229z"/>
</g>
<g id="_x23_757a81ff">
	<path fill="#757A81" d="M110.02,229.02l0.98-0.01c0.17,7.65-0.07,15.311,0,22.971h-1c-0.01-5.34,0.03-10.65-0.02-15.98
		C109.99,234.25,110.01,230.77,110.02,229.02z"/>
</g>
<g id="_x23_747983ff">
	<path fill="#747983" d="M180.33,228.77c1.811,7.511,0.109,15.541,0.67,23.221l-0.99-0.01c-0.01-2-0.01-4-0.039-5.99
		C179.99,240.24,180.04,234.5,180.33,228.77z"/>
</g>
<g id="_x23_656b79ff">
	<path fill="#656B79" d="M205.99,229.02c4.789-0.029,9.57-0.09,14.369-0.229l-0.239,1.11c-4.72,0.069-9.431,0.1-14.14,0.109
		L205.99,229.02z"/>
</g>
<g id="_x23_b1b1b4ff">
	<path fill="#B1B1B4" d="M220.359,228.79c1.761,7.521,0.08,15.56,0.69,23.24l-0.85,0.25c-0.15-4.771-0.181-9.521-0.229-14.28
		c0.01-2.71,0.059-5.41,0.149-8.1L220.359,228.79z"/>
</g>
<g id="_x23_656a78ff">
	<path fill="#656A78" d="M233.99,229.02c4.789-0.029,9.57-0.09,14.369-0.229l-0.239,1.11c-4.729,0.069-9.431,0.1-14.14,0.109
		L233.99,229.02z"/>
</g>
<g id="_x23_b1b0b5ff">
	<path fill="#B1B0B5" d="M248.359,228.79c1.761,7.521,0.08,15.56,0.69,23.24l-0.85,0.26c-0.15-4.78-0.181-9.53-0.229-14.29
		c0.01-2.71,0.059-5.41,0.149-8.1L248.359,228.79z"/>
</g>
<g id="_x23_515a6fff">
	<path fill="#515A6F" d="M27.92,229.96l0.83-0.25c4.75,0.34,9.51,0.25,14.26,0.3c0.05,3,0,5.96-0.03,8.98l-0.99,0.02
		c-4.33-0.02-8.65-0.01-12.98,0l-0.99-0.02C27.97,235.98,27.85,232.95,27.92,229.96z"/>
</g>
<g id="_x23_885444ff">
	<path fill="#885444" d="M196.01,230c1.74,0,5.23,0,6.971,0c0.039,3.98,0.039,7.97,0.02,11.96c-1.51,0.271-4.52,0.82-6.029,1.09
		c-0.49,3.56,3.719,2.96,6.01,3.021c0.02,1.96-0.01,3.92,0.01,5.89c-0.02,1.33,0.01,2.66,0.1,3.99c6.61,0.09,13.23,0.19,19.85-0.05
		c-0.239,1.3-1.399,2.119-2.699,1.789c-1.02-0.31-2.061-0.539-3.11-0.689c-4.771,0.15-9.78-0.77-14.399,0.8
		c-2.51-0.149-1.61,2.57-1.73,4.17c2.75-1.63,10.9,3.08,11.18-1.89c1.541-0.061,3.09-0.11,4.641-0.17c-0.2,0.51-0.6,1.54-0.801,2.05
		c-4-0.979-1.93,2.521-2.02,4.88c-0.95,0.641-1.98,1.09-3.09,1.35c-3.93-0.109-7.85-0.199-11.77-0.279
		c-0.701-3.07,1.639-8.391-3.011-8.24c-0.319-7.2-0.12-14.4-0.12-21.6c1.32-0.03,2.631-0.09,3.95-0.18
		c0.09-1.261,0.09-2.521,0-3.781c-1.319-0.1-2.63-0.159-3.95-0.18C195.99,232.62,195.99,231.311,196.01,230z"/>
</g>
<g id="_x23_4e576cff">
	<path fill="#4E576C" d="M205.98,230.01c4.709-0.01,9.42-0.04,14.14-0.109c-0.091,2.689-0.14,5.39-0.149,8.1
		c-4.66-0.01-9.311,0-13.961,0C205.971,235.33,205.96,232.67,205.98,230.01z"/>
</g>
<g id="_x23_4f576dff">
	<path fill="#4F576D" d="M233.98,230.01c4.709-0.01,9.41-0.04,14.14-0.109c-0.091,2.689-0.14,5.39-0.149,8.1
		c-4.66-0.01-9.311,0-13.961,0C233.971,235.33,233.95,232.67,233.98,230.01z"/>
</g>
<g id="_x23_976043ff">
	<path fill="#976043" d="M77.18,233.2c2.81,0.13,3.25,2.37,2.82,4.8c-1.68-0.08-3.85,0.52-4.88-1.21
		C74.55,235.15,76.27,234.23,77.18,233.2z"/>
</g>
<g id="_x23_aaa196ff">
	<path fill="#AAA196" d="M126.05,234.1l0.96-0.069c-0.02,12.979-0.02,25.96,0,38.939l-0.99-0.01l-0.03-0.97l-0.01-0.99
		C126.09,258.689,125.86,246.391,126.05,234.1z"/>
</g>
<g id="_x23_5c473bff">
	<path fill="#5C473B" d="M127.01,234.03c7.64-0.2,15.29-0.061,22.94,0.02c0.21,12.341-0.04,24.681,0.03,37.03c0,0.47,0,1.41,0,1.88
		c-0.74,0.01-2.23,0.01-2.98,0.021c-0.17-11.65,0.279-23.301-0.1-34.931c-5.631-0.1-11.26-0.22-16.891-0.03l-0.96,0.07
		c-0.17,11.62-0.01,23.26-0.05,34.891c-0.5,0-1.49-0.011-1.99-0.011C126.99,259.99,126.99,247.01,127.01,234.03z"/>
</g>
<g id="_x23_71767bff">
	<path fill="#71767B" d="M96.06,234.811c0.26,0.299,0.77,0.909,1.03,1.209c-0.06,5.311-0.1,10.641-0.1,15.961h-1
		C96,246.25,96.03,240.53,96.06,234.811z"/>
</g>
<g id="_x23_6d513dff">
	<path fill="#6D513D" d="M129.05,238.09l0.96-0.07c-0.03,11.65-0.01,23.311-0.01,34.971l-1-0.01
		C129.04,261.35,128.88,249.71,129.05,238.09z"/>
</g>
<g id="_x23_825d40ff">
	<path fill="#825D40" d="M130.01,238.02c5.63-0.189,11.26-0.069,16.891,0.03c0.379,11.63-0.07,23.28,0.1,34.931
		c-5.67,0.039-11.34,0.06-17,0.01C130,261.33,129.98,249.67,130.01,238.02 M132.01,240c0,1.5-0.01,4.5-0.01,6h4.99
		c0-1.5,0.01-4.5,0.01-6H132.01 M139.01,240c-1.66,5.65,0.33,7.65,5.98,6C146.65,240.34,144.66,238.34,139.01,240 M132.01,248
		c0,1.5-0.01,4.5-0.01,6h4.99c0-1.5,0.01-4.5,0.01-6H132.01 M138.99,248.01c0.029,2.46-1.19,6.59,2.06,6.98
		C147.63,256.84,146.76,242.71,138.99,248.01 M132.03,256c0,1.75-0.02,5.25-0.02,7h4.96c0-1.75,0.02-5.25,0.02-7H132.03
		 M140.23,256.13c-3.851,2.46-0.311,10.28,4.729,6.87c0.011-1.75,0.021-5.26,0.021-7.02L140.23,256.13z"/>
</g>
<g id="_x23_7b7e83ff">
	<path fill="#7B7E83" d="M28.02,238.99l0.99,0.02c-0.02,4.36-0.01,8.73-0.08,13.09l-1.08,0.141
		C27.99,247.82,27.98,243.391,28.02,238.99z"/>
</g>
<g id="_x23_343e44ff">
	<path fill="#343E44" d="M29.01,239.01c4.33-0.01,8.65-0.02,12.98,0c0.01,4.36,0.01,8.74,0.08,13.11
		c-4.38-0.101-8.76-0.16-13.14-0.021C29,247.74,28.99,243.37,29.01,239.01z"/>
</g>
<g id="_x23_7a7f84ff">
	<path fill="#7A7F84" d="M55.99,239h1c0,4.359,0.01,8.73-0.06,13.1l-1.08,0.141C55.99,247.82,55.95,243.4,55.99,239z"/>
</g>
<g id="_x23_696e74ff">
	<path fill="#696E74" d="M69.99,239.01l0.99-0.02c0.05,4.41,0.07,8.82,0.19,13.25l-1.1-0.12C70,247.75,70,243.37,69.99,239.01z"/>
</g>
<g id="_x23_986348ff">
	<path fill="#986348" d="M49.1,243.23c1.68-1.041,3.61-1.721,4.89-3.301c0,1.78,0,5.34-0.01,7.12
		C52.32,245.9,48.34,246.01,49.1,243.23z"/>
</g>
<g id="_x23_45352cff">
	<path fill="#45352C" d="M132.01,240H137c0,1.5-0.01,4.5-0.01,6H132C132,244.5,132.01,241.5,132.01,240z"/>
</g>
<g id="_x23_4d3a2fff">
	<path fill="#4D3A2F" d="M139.01,240c5.65-1.66,7.641,0.34,5.98,6C139.34,247.65,137.35,245.65,139.01,240z"/>
</g>
<g id="_x23_364046ff">
	<path fill="#364046" d="M167.08,246.07c4.29-0.24,8.59-0.04,12.891-0.08c0.029,1.99,0.029,3.99,0.039,5.99
		c-4.359,0.02-8.699,0.05-13.05,0C166.99,250.5,167.05,247.55,167.08,246.07z"/>
</g>
<g id="_x23_47362dff">
	<path fill="#47362D" d="M132.01,248H137c0,1.5-0.01,4.5-0.01,6H132C132,252.5,132.01,249.5,132.01,248z"/>
</g>
<g id="_x23_513d30ff">
	<path fill="#513D30" d="M138.99,248.01c7.77-5.3,8.64,8.83,2.06,6.98C137.8,254.6,139.02,250.47,138.99,248.01z"/>
	<path fill="#513D30" d="M140.23,256.13l4.75-0.149c0,1.76-0.01,5.27-0.021,7.02C139.92,266.41,136.38,258.59,140.23,256.13z"/>
</g>
<g id="_x23_e9eadfff">
	<path fill="#E9EADF" d="M26.01,251.99c0.46,0.06,1.38,0.18,1.84,0.25c5.04,1.04,10.27,1.04,15.31-0.01
		c0.46-0.061,1.38-0.181,1.84-0.24c0.07,0.8,0.2,2.4,0.27,3.21l-0.39,0.77c-6.29,0.07-12.59,0.11-18.88,0.021
		C26,254.65,26,253.32,26.01,251.99z"/>
</g>
<g id="_x23_c5c8c1ff">
	<path fill="#C5C8C1" d="M27.85,252.24l1.08-0.141c4.38-0.14,8.76-0.08,13.14,0.021l1.09,0.11
		C38.12,253.28,32.89,253.28,27.85,252.24z"/>
</g>
<g id="_x23_c5c8c0ff">
	<path fill="#C5C8C0" d="M55.85,252.24l1.08-0.141c4.38-0.14,8.76-0.08,13.14,0.021l1.1,0.12
		C66.12,253.28,60.89,253.28,55.85,252.24z"/>
</g>
<g id="_x23_e8e8ddff">
	<path fill="#E8E8DD" d="M93.98,252.02c0.5-0.01,1.51-0.029,2.01-0.039h1c4.34,0.05,8.67,0.02,13.01,0h1
		c0.5,0.01,1.51,0.029,2.01,0.039c0.03,1.33,0.03,2.66,0.01,3.99c-6.31-0.02-12.62,0.08-18.93-0.06
		C94,254.641,93.97,253.33,93.98,252.02z"/>
	<path fill="#E8E8DD" d="M164.029,252.02c0.49-0.01,1.471-0.029,1.961-0.039h0.97c4.351,0.05,8.69,0.02,13.05,0l0.99,0.01
		c0.51,0.01,1.52,0.029,2.02,0.04c0.021,1.29-0.02,2.59-0.1,3.89c-6.42,0.311-12.85-0.02-19.27,0.3
		C163.8,254.82,163.92,253.42,164.029,252.02z"/>
</g>
<g id="_x23_e8e7dcff">
	<path fill="#E8E7DC" d="M202.99,251.96l1,0.06c0.46,0.041,1.39,0.141,1.85,0.19c4.689,0.56,9.76,1.75,14.36,0.07l0.85-0.25
		l0.95-0.05h0.98c0.069,0.75,0.209,2.239,0.27,2.979l-0.311,0.94c-6.619,0.24-13.239,0.14-19.85,0.05
		C203,254.62,202.971,253.29,202.99,251.96z"/>
</g>
<g id="_x23_c4c6bfff">
	<path fill="#C4C6BF" d="M205.84,252.21c4.78-0.271,9.57-0.12,14.36,0.07C215.6,253.96,210.529,252.77,205.84,252.21z"/>
	<path fill="#C4C6BF" d="M233.84,252.21c4.78-0.271,9.561-0.12,14.36,0.08C243.6,253.96,238.52,252.78,233.84,252.21z"/>
</g>
<g id="_x23_96b457ff">
	<path fill="#96B457" d="M49,257.08c1.65-0.88,2.85-3.561,4.96-2.18l0.05,1.039c-0.89,3.551,3.1,1.461,5.03,1.341
		c-0.01,0.67-0.01,2.03-0.01,2.7c-0.84,2.739,2.31,1.779,3.93,2.229c-0.63,2.69-1.37,5.44,2.22,5.931
		c-0.44,0.909-0.9,1.81-1.39,2.699c-1.5,1.67,0.64,3.48,1.21,5.12c-2.74-0.649-4.34,1.479-4.29,4.04H49.86
		c1.32-1.91,2.06-4.88,5.71-3.42c-1.02-3.33,1.53-4.26,3.21-5.84c-1.45-2.311-3.86-4.25-3.02-7.5c-2.78,1.109-4.81-0.44-6.73-2.32
		c-1.45,3-3.98,3.38-6.92,2.189c0.24,1.521,0.79,3.011,0.75,4.58c-1.44,0.791-4.25,2.701-1.51,3.9c2.47,0.88,1.31,3.41,1.04,5.301
		c3.39-1.44,5.08,1.239,6.87,3.109H36.94c1.88-2.87-0.53-3.71-3.08-4.189c0.9-1.931,3.2-4.17,0.64-5.811
		c-0.41-0.48-1.23-1.43-1.63-1.9c3.53-0.43,3.1-3.189,2.3-5.869c1.6-0.42,4.27,0.289,3.94-2.221l0.2-0.91
		c0.67-3.39,5.17,0.681,5.57-3.13l0.39-0.77l0.75-0.37C47,255.59,47.94,256.41,49,257.08z"/>
	<path fill="#96B457" d="M227.77,256.66c1.101-0.9,2.121-1.891,3.17-2.84c0.23,0.56,0.681,1.689,0.91,2.25
		c-0.27,3.27,3.301,1.34,5.18,1.21c0,0.68,0,2.03,0,2.7c0.021,0.47,0.061,1.39,0.08,1.85c8.201-2.71,3.23,2.07,2.94,4.83
		c1.12,0.41,2.229,0.83,3.341,1.26c-0.521,0.98-1.051,1.96-1.591,2.93c-1.489,1.65,0.89,3.32,1.32,4.961
		c-2.29,0.549-4.74,1.319-4.39,4.189H227.85c1.34-1.91,2.03-4.88,5.721-3.42c-1.07-3.33,1.539-4.26,3.209-5.84
		c-1.439-2.311-3.879-4.25-3.02-7.5c-2.779,1.109-4.81-0.44-6.73-2.32c-1.439,2.88-3.859,3.51-6.729,2.13
		c0.271,1.521,0.88,3.07,0.54,4.64c-1.42,0.801-4.23,2.711-1.49,3.9c2.471,0.88,1.311,3.41,1.041,5.301
		c3.369-1.44,5.09,1.239,6.869,3.109h-12.119c1.979-2.891-0.811-3.65-3.281-4.189c0.891-1.92,3.211-4.16,0.641-5.78
		c-0.4-0.46-1.189-1.38-1.59-1.841c1.109-0.26,2.14-0.709,3.09-1.35c0.09-2.359-1.98-5.859,2.02-4.88
		c3.49,0.87,0.541-4.93,4.221-4.271c1.3,0.33,2.46-0.489,2.699-1.789l0.311-0.94C224.76,255.51,226.221,256.2,227.77,256.66z"/>
</g>
<g id="_x23_4b392eff">
	<path fill="#4B392E" d="M132.03,256h4.96c0,1.75-0.02,5.25-0.02,7h-4.96C132.01,261.25,132.03,257.75,132.03,256z"/>
</g>
<g id="_x23_754535ff">
	<path fill="#754535" d="M26.03,257.061c4.25-0.291,8.52-0.07,12.77,0.08c0.13,0.489,0.38,1.469,0.51,1.959l-0.2,0.91
		c-4.37,0.03-8.73,0.021-13.1-0.06C26.02,259.23,26.02,257.78,26.03,257.061z"/>
</g>
<g id="_x23_898048ff">
	<path fill="#898048" d="M217.13,257c1.05,0.15,2.091,0.38,3.11,0.689c-3.68-0.659-0.73,5.141-4.221,4.271
		c0.201-0.51,0.601-1.54,0.801-2.05C216.9,259.18,217.05,257.73,217.13,257z"/>
</g>
<g id="_x23_754635ff">
	<path fill="#754635" d="M237.029,257.28c4.611-0.73,9.311-0.22,13.961-0.24c-0.01,0.72-0.01,2.17-0.02,2.89
		c-4.641,0.271-9.301,0.01-13.941,0.051C237.029,259.311,237.029,257.96,237.029,257.28z"/>
</g>
<g id="_x23_955f44ff">
	<path fill="#955F44" d="M201,261.97c0.12-1.6-0.779-4.319,1.73-4.17c0.229,4.4,6.799,1.101,9.449,2.28
		C211.9,265.05,203.75,260.34,201,261.97z"/>
</g>
<g id="_x23_d3c7bbff">
	<path fill="#D3C7BB" d="M182.029,260.07l1.051-0.01c-0.189,2.72-0.561,5.379-0.88,8.1C182.12,265.45,182.07,262.76,182.029,260.07z
		"/>
</g>
<g id="_x23_759a51ff">
	<path fill="#759A51" d="M42.11,263.109c2.94,1.19,5.47,0.811,6.92-2.189c1.92,1.88,3.95,3.43,6.73,2.32
		c-0.84,3.25,1.57,5.189,3.02,7.5c-1.68,1.58-4.23,2.51-3.21,5.84c-3.65-1.46-4.39,1.51-5.71,3.42h-0.6
		c-1.79-1.87-3.48-4.55-6.87-3.109c0.27-1.891,1.43-4.421-1.04-5.301c-2.74-1.199,0.07-3.109,1.51-3.9
		C42.9,266.12,42.35,264.63,42.11,263.109 M47,268c-0.04,1.76-0.5,4.9,2.05,4.99c1.78,0.479,3.42-1.17,2.94-2.94
		C51.9,267.5,48.77,267.96,47,268z"/>
</g>
<g id="_x23_749951ff">
	<path fill="#749951" d="M220.3,263.05c2.87,1.38,5.29,0.75,6.729-2.13c1.921,1.88,3.951,3.43,6.73,2.32
		c-0.859,3.25,1.58,5.189,3.02,7.5c-1.67,1.58-4.279,2.51-3.209,5.84c-3.69-1.46-4.381,1.51-5.721,3.42h-0.59
		c-1.779-1.87-3.5-4.55-6.869-3.109c0.27-1.891,1.43-4.421-1.041-5.301c-2.74-1.189,0.07-3.1,1.49-3.9
		C221.18,266.12,220.57,264.57,220.3,263.05 M227.221,267.38c-3.65-0.14-2.841,6.58,0.729,5.61
		C231.15,272.689,230.79,266.63,227.221,267.38z"/>
</g>
<g id="_x23_7d77738a">
	<path opacity="0.54" fill="#7D7773" enable-background="new    " d="M261.82,267.98c0.3-2.41,0.63-4.811,0.99-7.2
		c0.039,2.8,0.09,5.6,0.129,8.399C262.66,268.88,262.1,268.28,261.82,267.98z"/>
</g>
<g id="_x23_93b356ff">
	<path fill="#93B356" d="M227.221,267.38c3.569-0.75,3.93,5.31,0.729,5.61C224.38,273.96,223.57,267.24,227.221,267.38z"/>
</g>
<g id="_x23_e7e8dcff">
	<path fill="#E7E8DC" d="M13.73,271.21c-0.61-1.53-1.53-3.83,1.14-3.24c6,0.011,12,0.03,18,0.13c0.4,0.471,1.22,1.42,1.63,1.9
		C28.11,273.53,20.62,270,13.73,271.21z"/>
</g>
<g id="_x23_94b455ff">
	<path fill="#94B455" d="M47,268c1.77-0.04,4.9-0.5,4.99,2.05c0.48,1.771-1.16,3.42-2.94,2.94C46.5,272.9,46.96,269.76,47,268z"/>
</g>
<g id="_x23_d0cfc2ff">
	<path fill="#D0CFC2" d="M94.02,267.99c1.28,0,2.56,0.02,3.84,0.04c-0.11,1.29,0.21,2.36,0.94,3.2c8.71,1.699,18.19,0.39,27.19,0.76
		l0.03,0.97c-1.64,0.021-3.29,0.021-4.92,0.149c-0.07,1.23-0.1,2.461-0.09,3.69l-0.85-0.06c-6.94-1.051-13.99-0.9-20.98-0.65
		c-1.1,1.02-1.15,2.54-1.46,3.91h-3.73C93.99,275.99,94,271.99,94.02,267.99z"/>
</g>
<g id="_x23_cfcec1ff">
	<path fill="#CFCEC1" d="M178.061,268.03c1.379,0.01,2.75,0.05,4.14,0.13c-0.13,3.939-0.2,7.88-0.229,11.84h-3.851
		c-0.06-1.32-0.149-2.63-0.271-3.939c-7.25-0.17-14.5,0.01-21.75-0.19l-0.14-0.95c-0.2-2.64-2.19-3.29-5.979-1.96
		c0-0.47,0-1.41,0-1.88c3.35,1.64,7.199,0.689,10.75,0.64c5.709,0.22,11.439,0.431,17.17,0.24l0.06-0.979
		C177.99,270.24,178.029,268.76,178.061,268.03z"/>
</g>
<g id="_x23_e6e6dafe">
	<path fill="#E6E6DA" d="M243.391,267.92c5.51,0.07,11.029,0.07,16.549,0.11c0.311,1,0.621,2,0.92,3.01
		c-6.359,0.01-12.709,0.06-19.06-0.19C242.34,269.88,242.87,268.9,243.391,267.92z"/>
</g>
<g id="_x23_d1d0c4fc">
	<path fill="#D1D0C4" d="M259.939,268.03c0.471-0.021,1.41-0.04,1.881-0.05c0.279,0.3,0.84,0.899,1.119,1.199
		c0.07,1.98,0.101,3.961,0.09,5.94c-6.539,1.38-13.279,0.979-19.909,0.69c-0.431-1.641-2.81-3.311-1.32-4.961
		c6.351,0.25,12.7,0.2,19.06,0.19C260.561,270.03,260.25,269.03,259.939,268.03z"/>
</g>
<g id="_x23_d1d1c3ff">
	<path fill="#D1D1C3" d="M34.5,270c2.56,1.641,0.26,3.88-0.64,5.811C27.26,276,20.65,276.02,14.05,276
		c-0.06-1.609-0.15-3.2-0.32-4.79C20.62,270,28.11,273.53,34.5,270z"/>
	<path fill="#D1D1C3" d="M212.5,270.03c2.57,1.62,0.25,3.86-0.641,5.78c-4.299,0.109-8.59,0.17-12.879,0.199
		c0.18-1.65-0.541-3.85,1.25-4.81C204.311,270.73,208.439,270.88,212.5,270.03z"/>
</g>
<g id="_x23_d2d1c4ff">
	<path fill="#D2D1C4" d="M65,275.96c-0.57-1.64-2.71-3.45-1.21-5.12c4.32,0.141,8.63,0.1,12.95,0.32c1.53,0.77,1.26,2.5,1.31,3.939
		C73.8,276.21,69.35,275.93,65,275.96z"/>
</g>
<g id="_x23_dbdaceff">
	<path fill="#DBDACE" d="M98.8,271.23c9.06-0.301,18.12-0.25,27.18-0.23l0.01,0.99C116.99,271.62,107.51,272.93,98.8,271.23z"/>
	<path fill="#DBDACE" d="M160.73,271.72c5.629-1.27,11.51-0.54,17.229-0.739l-0.06,0.979
		C172.17,272.15,166.439,271.939,160.73,271.72z"/>
</g>
<g id="_x23_897a5fff">
	<path fill="#897A5F" d="M121.1,273.109c1.63-0.129,3.28-0.129,4.92-0.149l0.99,0.01c0.5,0,1.49,0.011,1.99,0.011l1,0.01
		c5.66,0.05,11.33,0.029,17-0.01c0.75-0.011,2.24-0.011,2.98-0.021c3.789-1.33,5.779-0.68,5.979,1.96
		c-0.36,0.439-1.06,1.33-1.42,1.78c-11.16,0.45-22.37,0.569-33.53,0.1C121,275.57,121.03,274.34,121.1,273.109z"/>
</g>
<g id="_x23_ddddd2ff">
	<path fill="#DDDDD2" d="M65,275.96c4.35-0.03,8.8,0.25,13.05-0.86c0.02,1.631-0.02,3.26-0.04,4.9h-17.3
		C60.66,277.439,62.26,275.311,65,275.96z"/>
	<path fill="#DDDDD2" d="M243.12,275.811c6.63,0.289,13.37,0.689,19.909-0.69c0,1.62-0.02,3.25-0.029,4.88h-24.27
		C238.38,277.13,240.83,276.359,243.12,275.811z"/>
	<path fill="#DDDDD2" d="M14.05,276c6.6,0.02,13.21,0,19.81-0.189c2.55,0.479,4.96,1.319,3.08,4.189H13.99
		C14.01,278.66,14.03,277.33,14.05,276z"/>
</g>
<g id="_x23_a19580ff">
	<path fill="#A19580" d="M154.54,276.7c0.36-0.45,1.06-1.341,1.42-1.78l0.14,0.95c0.45,2.649,6.23-0.21,5.141,4.13h-45.45
		c-0.58-3.141,1.9-3.33,4.37-3.26l0.85,0.06C132.17,277.27,143.38,277.15,154.54,276.7z"/>
</g>
<g id="_x23_dcdbd1ff">
	<path fill="#DCDBD1" d="M99.18,276.09c6.99-0.25,14.04-0.4,20.98,0.65c-2.47-0.07-4.95,0.119-4.37,3.26H97.72
		C98.03,278.63,98.08,277.109,99.18,276.09z"/>
</g>
<g id="_x23_dcddd2ff">
	<path fill="#DCDDD2" d="M156.1,275.87c7.25,0.2,14.5,0.021,21.75,0.19c0.121,1.31,0.211,2.619,0.271,3.939h-16.88
		C162.33,275.66,156.55,278.52,156.1,275.87z"/>
</g>
<g id="_x23_dcddd1ff">
	<path fill="#DCDDD1" d="M198.98,276.01c4.289-0.029,8.58-0.09,12.879-0.199c2.471,0.539,5.261,1.299,3.281,4.189h-16.16
		C198.96,278.67,198.96,277.34,198.98,276.01z"/>
</g>
<text transform="matrix(1 0 0 1 119.7769 165.4707)" fill="#4C4C4C" font-family="'Arial-BoldMT'" font-size="8">ESCUELA</text>
</svg>
