<?xml version="1.0" encoding="utf-8"?>
<!-- Generator: Adobe Illustrator 16.0.0, SVG Export Plug-In . SVG Version: 6.00 Build 0)  -->
<!DOCTYPE svg PUBLIC "-//W3C//DTD SVG 1.1//EN" "http://www.w3.org/Graphics/SVG/1.1/DTD/svg11.dtd">
<svg version="1.1" id="Capa_1" xmlns="http://www.w3.org/2000/svg" xmlns:xlink="http://www.w3.org/1999/xlink" x="0px" y="0px"
	 width="225px" height="193px" viewBox="0 0 225 193" enable-background="new 0 0 225 193" xml:space="preserve">
<g id="_x23_ff6a4aff">
	<path fill="#FF6A4A" d="M36.98,23c0.4-5.66-0.86-11.93,0.76-17.21C49.21,6.23,60.7,5.94,72.18,5.96
		c8.93,0.53,18.55-0.97,27.05,0.79c-0.15,5.41-0.29,10.83-0.22,16.24c-0.02,2.01-0.02,4.01,0,6.02c-0.02,23.33-0.02,46.65,0,69.98
		c-0.02,2.01-0.02,4.01,0,6.02c-0.02,9.96-0.04,19.92,0.01,29.891c-20.67,0.189-41.35,0.119-62.02,0.039
		c-0.01-9.979,0.02-19.959,0.01-29.939c0.01-1.97-0.01-3.95-0.19-5.92l-0.06-0.83c0.51-23.08,0.13-46.18,0.23-69.26
		C37.01,26.99,37.01,25,36.98,23 M45.24,28.13c-0.28,0.28-0.83,0.83-1.11,1.11c-0.29,29.92-0.09,59.84-0.1,89.77
		c0.65,1.03-0.63,6.51,1.98,6.99c14.33,0,28.66,0.04,42.98-0.03l0.97,0.021c0.08-32.33,0.05-64.66,0.01-96.99L89,29.01l-0.02-0.96
		C74.4,27.94,59.81,27.9,45.24,28.13z"/>
</g>
<g id="_x23_7fbb75fe">
	<path fill="#7FBB75" d="M109.03,6.05c2.65-0.11,5.31-0.13,7.97-0.05c0,1.33,0,2.66,0,3.99c-2.66,0.04-5.32,0.03-7.97-0.04
		C108.95,8.65,108.95,7.35,109.03,6.05z"/>
</g>
<g id="_x23_73a96ae6">
	<path opacity="0.9" fill="#73A96A" enable-background="new    " d="M117,6c0.5,0,1.5,0,2,0c0,1.33,0,2.66,0.01,3.98
		c-0.51,0.01-1.51,0.01-2.01,0.01C117,8.66,117,7.33,117,6z"/>
</g>
<g id="_x23_80bc76ff">
	<path fill="#80BC76" d="M119,6c26.67,0,53.33-0.01,80,0.01c0,1.32,0,2.65,0,3.98c-1.33,0.01-2.66,0.02-3.99,0.03
		c-24.01-0.03-48.02-0.04-72.029,0c-0.49,0-1.471,0-1.961,0c-0.5-0.01-1.51-0.03-2.01-0.04C119,8.66,119,7.33,119,6z"/>
</g>
<g id="_x23_73a96ae7">
	<path opacity="0.91" fill="#73A96A" enable-background="new    " d="M199,6.01c0.5,0,1.5-0.01,2-0.01c0,1.33,0,2.67,0,4
		c-0.5,0-1.5-0.01-2-0.01C199,8.66,199,7.33,199,6.01z"/>
</g>
<g id="_x23_80bb76fe">
	<path fill="#80BB76" d="M201,6c3-0.05,5.95-0.01,8.971,0.06c0.079,1.29,0.079,2.58,0,3.87c-2.99,0.2-6,0.09-8.971,0.07
		C201,8.67,201,7.33,201,6z"/>
</g>
<g id="_x23_7e7f79fd">
	<path fill="#7E7F79" d="M122.98,10.02c24.01-0.04,48.02-0.03,72.029,0c0,0.74-0.02,2.22-0.029,2.97c-0.74,0-2.23,0.02-2.98,0.03
		c-21.98-0.02-43.971-0.05-65.95,0c-0.76-0.01-2.271-0.02-3.03-0.03C123.01,12.25,122.99,10.77,122.98,10.02z"/>
</g>
<g id="_x23_aaaa99ee">
	<path opacity="0.93" fill="#AAAA99" enable-background="new    " d="M123.02,12.99c0.76,0.01,2.271,0.02,3.03,0.03
		c0.03,3.36,0.091,6.76-1.079,9.95c-0.49,0-1.48,0.01-1.971,0.01C123,19.65,122.99,16.32,123.02,12.99z"/>
</g>
<g id="_x23_b9b8a5ff">
	<path fill="#B9B8A5" d="M126.05,13.02c21.979-0.05,43.97-0.02,65.95,0c-0.01,3.32,0,6.65,0,9.97
		c-22.34,0.01-44.68,0.04-67.029-0.021C126.141,19.78,126.08,16.38,126.05,13.02z"/>
</g>
<g id="_x23_acac9aef">
	<path opacity="0.94" fill="#ACAC9A" enable-background="new    " d="M192,13.02c0.75-0.01,2.24-0.03,2.98-0.03
		c0.039,3.33,0.01,6.66,0.02,10c-0.75,0-2.25,0-3,0C192,19.67,191.99,16.34,192,13.02z"/>
</g>
<g id="_x23_484e56da">
	<path opacity="0.85" fill="#484E56" enable-background="new    " d="M17.1,23.11c1.34-0.08,2.68-0.11,4.02-0.1
		c-1.51,1.74-3.31,3.44-3.33,5.93l-1-0.03C16.87,27.46,17.02,24.56,17.1,23.11z"/>
</g>
<g id="_x23_545b64f8">
	<path opacity="0.97" fill="#545B64" enable-background="new    " d="M21.12,23.01c5.29-0.06,10.58,0.01,15.86-0.01
		c0.03,2,0.03,3.99,0.01,5.99L36,29.01c-5.58-0.01-11.16-0.14-16.74,0.07c-0.08,0.4-0.24,1.2-0.32,1.6l-0.92,0.4
		c-0.06-0.54-0.18-1.6-0.23-2.14C17.81,26.45,19.61,24.75,21.12,23.01z"/>
</g>
<g id="_x23_3b434efd">
	<path fill="#3B434E" d="M99.01,22.99c1.66,0,3.32,0.01,4.99,0.02c0,1.99,0,3.98,0,5.97c-1.66,0.02-3.33,0.03-4.99,0.03
		C98.99,27,98.99,25,99.01,22.99z"/>
</g>
<g id="_x23_535963f9">
	<path opacity="0.98" fill="#535963" enable-background="new    " d="M104,23.01c5.67-0.03,11.33-0.01,17,0.021
		c0,1.979,0,3.96,0,5.939c-0.5,0.01-1.51,0.021-2.01,0.03c-0.471-0.01-1.4-0.02-1.87-0.02c-4.38-0.04-8.75,0.03-13.12,0
		C104,26.99,104,25,104,23.01z"/>
</g>
<g id="_x23_3c434efe">
	<path fill="#3C434E" d="M121,23.03c0.5-0.021,1.5-0.04,2-0.05c0.49,0,1.48-0.01,1.971-0.01C147.32,23.03,169.66,23,192,22.99
		c0.75,0,2.25,0,3,0c7.62,0.06,15.25-0.12,22.87,0.08c0.08,1.46,0.22,4.39,0.29,5.85l-1.08,0.05L216.01,29l-1.029,0.02
		c-0.48,0-1.451,0.01-1.94,0.01C188.689,28.97,164.35,29,140,29.01c-6.34-0.04-12.67,0.03-19-0.04C121,26.99,121,25.01,121,23.03z"
		/>
</g>
<g id="_x23_f46b4eff">
	<path fill="#F46B4E" d="M45.24,28.13c14.57-0.23,29.16-0.19,43.74-0.08L89,29.01c-14.32,0.07-28.64-0.18-42.95,0.06
		c-0.12,32.31-0.03,64.62-0.04,96.93c-2.61-0.48-1.33-5.96-1.98-6.99c0.01-29.93-0.19-59.85,0.1-89.77
		C44.41,28.96,44.96,28.41,45.24,28.13z"/>
</g>
<g id="_x23_e0dfbfff">
	<path fill="#E0DFBF" d="M19.26,29.08C24.84,28.87,30.42,29,36,29.01c-0.01,20.33,0.04,40.66-0.05,61
		c-0.14,2.72-0.23,5.64,0.81,8.24l0.06,0.83c-4.94-0.07-9.88-0.05-14.82-0.1c-0.05-21,0.08-41.99-0.02-62.98
		c0.15-1.38-0.91-2.33-1.68-3.3c-0.34-0.5-1.02-1.51-1.36-2.02C19.02,30.28,19.18,29.48,19.26,29.08z"/>
	<path fill="#E0DFBF" d="M99.01,29.01c1.66,0,3.33-0.01,4.99-0.03c4.37,0.03,8.74-0.04,13.12,0c2.239,22.95-0.07,46.19,1.159,69.23
		l-0.26,0.81c-4.68,0.03-9.35-0.05-14.02-0.01c-1.66-0.01-3.33-0.02-4.99-0.02C98.99,75.66,98.99,52.34,99.01,29.01z"/>
	<path fill="#E0DFBF" d="M22.02,105.04c5-0.11,9.99-0.03,14.99-0.04c0.01,9.98-0.02,19.96-0.01,29.939
		c-2.58,0.36-7.48-1.199-3.98,4.94c0.19,0.33,0.57,1,0.76,1.34c2.61,2.75,5.29,5.46,8.15,7.95c0.16,14.61,0.03,29.221,0.07,43.83
		h-8.95c-0.78-2.53,1.88-8.189-2.03-8.09c-0.1-7.61,0.17-15.221-0.08-22.82c-0.74-0.029-2.21-0.07-2.94-0.1
		c-0.5-0.01-1.5-0.021-2-0.03c-0.03-0.44-0.11-1.33-0.15-1.771c0.19-3.1,1.54-7.399-2.61-6.209l-0.14,0.83l-0.17,1.06
		c-0.48,0.03-1.46,0.1-1.94,0.13c-0.5,0-1.49,0-1.99,0c0.01-9.95-0.04-19.9,0.03-29.84l0.98-0.16c1.18-0.08,3.1-0.49,2.96-2.04
		C23.21,117.65,23.27,111.25,22.02,105.04z"/>
	<path fill="#E0DFBF" d="M99.01,105.01c1.66-0.01,3.33-0.01,4.99-0.029c4.69,0.039,9.37,0,14.07,0.05
		c-1.26,11.739-1.541,23.569-0.57,35.35c0.66,1.94,0.66,6.681-2.439,6.8c-3.451-4.24-7.181-8.399-11.811-11.39
		c-1.18-0.96-2.83-0.66-4.23-0.89C98.97,124.93,98.99,114.97,99.01,105.01z"/>
</g>
<g id="_x23_e2d7b7ff">
	<path fill="#E2D7B7" d="M36,29.01l0.99-0.02c-0.1,23.08,0.28,46.18-0.23,69.26c-1.04-2.6-0.95-5.52-0.81-8.24
		C36.04,69.67,35.99,49.34,36,29.01z"/>
</g>
<g id="_x23_66737bff">
	<path fill="#66737B" d="M46.05,29.07c14.31-0.24,28.63,0.01,42.95-0.06c0,32.32,0.01,64.64-0.01,96.96
		C74.67,126.04,60.34,126,46.01,126C46.02,93.69,45.93,61.38,46.05,29.07 M49.05,32.03c-0.07,21.05-0.14,42.1,0.05,63.15
		c-0.14,1.27-0.16,2.54-0.07,3.82c-0.1,2-0.1,4,0.02,6c-0.13,5.66-0.13,11.33-0.02,16.99L49,122.97c12.34,0.07,24.67,0.07,37.01,0
		l0.95,0.021c0.17-6,0.07-12.01-0.01-18c0.12-1.99,0.12-3.99-0.01-5.971C87.07,76.68,87,54.33,86.97,31.99l-0.98,0.06
		C73.68,31.92,61.36,31.99,49.05,32.03z"/>
	<path fill="#66737B" d="M184.05,48.03c4.97-0.03,9.97-0.17,14.94,0.03c0.01,10.98,0.02,21.96,0,32.94c-4.99-0.01-9.971,0-14.961,0
		C183.98,70.01,183.91,59.02,184.05,48.03 M186.05,50.01c-0.19,9.66-0.03,19.34-0.021,29.01l0.98-0.08
		c3.32,0.17,6.641,0.11,9.98,0.03l0.96,0.021c0.19-9.33,0.03-18.66,0.021-27.99L197,51.01l-0.02-0.96
		c-3.32-0.16-6.67-0.11-9.98-0.02L186.05,50.01z"/>
	<path fill="#66737B" d="M42.01,141.02c17-0.06,33.99-0.02,50.99,0c0,7.33-0.03,14.65,0.01,21.98c-0.04,10,0,20-0.01,30h-5
		c-0.02-10,0.04-20-0.01-30c-0.04-6.33,0.19-12.66-0.02-18.98l-0.06-0.97c-6.29-0.04-12.58-0.319-18.86,0.05
		c-0.13,6.291-0.09,12.601-0.04,18.9c-0.03,10.33,0,20.66-0.01,31h-3c-0.02-10,0.04-20-0.01-30c-0.04-6.33,0.19-12.66-0.02-18.99
		l-0.06-0.96c-6.28-0.05-12.57-0.3-18.84,0.03l-0.05,0.939c-0.11,6.32-0.06,12.641-0.01,18.971c-0.03,10,0,20-0.01,30.01h-5
		c-0.04-14.609,0.09-29.22-0.07-43.83C41.96,146.45,41.99,143.73,42.01,141.02z"/>
</g>
<g id="_x23_95706aff">
	<path fill="#95706A" d="M89,29.01L89.97,29c0.04,32.33,0.07,64.66-0.01,96.99l-0.97-0.021C89.01,93.65,89,61.33,89,29.01z"/>
</g>
<g id="_x23_d7d6b8ff">
	<path fill="#D7D6B8" d="M117.12,28.98c0.47,0,1.399,0.01,1.87,0.02c0.029,20.33-0.04,40.67,0.06,61.01
		c-0.04,2.68,0.33,5.63-0.771,8.2C117.05,75.17,119.359,51.93,117.12,28.98z"/>
</g>
<g id="_x23_a3a38bff">
	<path fill="#A3A38B" d="M118.99,29c0.5-0.01,1.51-0.02,2.01-0.03c6.33,0.07,12.66,0,19,0.04c0,6.31,0,12.62,0,18.93
		c-2.66-0.04-5.311,0.01-7.95,0.14c-0.04,10.95-0.25,21.91,0.03,32.86c5.029,0.13,10.07-0.02,15.09,0.22
		c-2.54,2.63-10.939-2.3-7.18,5.85c-0.02,3.99-0.02,7.98,0.01,11.98c-6.01,0.029-12-0.03-18,0.029c-1.33,0-2.65,0-3.98,0l0.26-0.81
		c1.101-2.57,0.73-5.52,0.771-8.2C118.95,69.67,119.02,49.33,118.99,29z"/>
	<path fill="#A3A38B" d="M119.029,105.03c0.74-0.021,2.221-0.04,2.961-0.05c6,0.029,12,0,18.01,0.029
		c-0.7,6.91,1.49,14.33-0.92,20.99c-1.51,0.03-4.51,0.09-6.01,0.12c-0.25,19.96,0.1,39.92-0.131,59.89
		c-4.629-0.07-9.27,0.2-13.89-0.09c-0.19-9.311,0.021-18.62-0.06-27.92c0-2.96,0.02-5.891-0.02-8.84
		C119.061,134.45,118.939,119.74,119.029,105.03z"/>
</g>
<g id="_x23_b6b69bff">
	<path fill="#B6B69B" d="M140,29.01c24.35-0.01,48.689-0.04,73.04,0.021c-2.11,14.21-0.59,28.66-1.05,42.97
		c0.4,8.99-1.29,18.35,1.949,27.01C189.29,98.99,164.65,99.02,140,98.99c-0.029-4-0.029-7.99-0.01-11.98
		c-3.76-8.15,4.64-3.22,7.18-5.85c1.801-10.33,0.57-22.16,0.76-33.08l-0.949-0.06c-1.74-0.02-5.23-0.06-6.98-0.08
		C140,41.63,140,35.32,140,29.01 M158.05,48.03c-0.14,10.99-0.069,21.979-0.021,32.97l-0.039,0.97c3.75,0.01,11.26,0.01,15.01,0.01
		L172.99,81l0.96-0.02c0.17-10.99,0.03-22,0.021-33l-0.98,0.08C168.02,47.86,163.02,48,158.05,48.03 M184.05,48.03
		c-0.14,10.99-0.069,21.979-0.021,32.97l-0.039,0.97c3.75,0.01,11.26,0.01,15.01,0.01L198.99,81l0.96-0.02
		c0.17-10.99,0.03-22,0.021-33l-0.98,0.08C194.02,47.86,189.02,48,184.05,48.03z"/>
</g>
<g id="_x23_b1b298f9">
	<path opacity="0.98" fill="#B1B298" enable-background="new    " d="M213.04,29.03c0.489,0,1.46-0.01,1.94-0.01
		c-2.181,15.53-0.41,31.34-1,46.98c0.59,6.69-1.601,14.05,1.799,20.24c0.061,0.69,0.181,2.07,0.24,2.76c-0.52,0-1.56,0.01-2.08,0.01
		c-3.239-8.66-1.549-18.02-1.949-27.01C212.45,57.69,210.93,43.24,213.04,29.03z"/>
</g>
<g id="_x23_abab94eb">
	<path opacity="0.92" fill="#ABAB94" enable-background="new    " d="M214.98,29.02L216.01,29c-0.14,22.41,0.25,44.83-0.23,67.24
		c-3.399-6.19-1.209-13.55-1.799-20.24C214.57,60.36,212.8,44.55,214.98,29.02z"/>
</g>
<g id="_x23_0c0c0c0d">
	<path opacity="0.05" fill="#0C0C0C" enable-background="new    " d="M216.01,29l1.07-0.03c-0.16,20.35-0.061,40.7-0.09,61.04
		c-0.44,3.08,0.369,6.05,0.9,9.03c-0.461-0.01-1.4-0.03-1.871-0.04c-0.06-0.689-0.18-2.07-0.24-2.76
		C216.26,73.83,215.87,51.41,216.01,29z"/>
</g>
<g id="_x23_0d0d0d0d">
	<path opacity="0.05" fill="#0D0D0D" enable-background="new    " d="M18.02,31.08l0.92-0.4c0.38,21.86-0.43,43.75,0.35,65.59
		c-0.08,0.68-0.25,2.03-0.34,2.71c-0.45,0.01-1.36,0.029-1.82,0.05C19.07,76.45,17.48,53.72,18.02,31.08z"/>
</g>
<g id="_x23_b3b3a0c5">
	<path opacity="0.77" fill="#B3B3A0" enable-background="new    " d="M18.94,30.68c0.34,0.51,1.02,1.52,1.36,2.02
		c-1.19,21.15,0.91,42.55-1.01,63.57C18.51,74.43,19.32,52.54,18.94,30.68z"/>
</g>
<g id="_x23_9be2eeff">
	<path fill="#9BE2EE" d="M49.05,32.03c12.31-0.04,24.63-0.11,36.94,0.02c-0.03,21.71,0.1,43.42-0.05,65.13
		c-0.53-0.28-1.59-0.84-2.11-1.12c-0.19-2.9,2.04-8.72-4.88-5.04c-0.17,1.89,0.28,3.72,1.27,5.33c-1.17,0.42-2.42,0.791-3.43-0.19
		c-0.16-2.91,2.15-8.82-4.84-5.14c-0.17,1.88,0.27,3.71,1.27,5.31c-1.14,0.41-2.38,0.77-3.42-0.09c0.11-1.75,0.22-3.5,0.17-5.24
		c-6.62-3.51-4.61,2.14-5,4.98c-0.49,0-1.45,0.01-1.93,0.02c-0.41-2.7,1.6-8.33-4.66-4.83c-0.2,0.39-0.59,1.19-0.79,1.58
		c-0.29,0.38-0.89,1.13-1.19,1.5c1.17-4.59-6.6-5.03-5.69-0.37c-0.4,0.32-1.21,0.97-1.61,1.3C48.91,74.13,48.98,53.08,49.05,32.03
		 M51,34v5h5v-5H51 M58,34v5h5v-5H58 M65,34.01c0.08,1.66-0.54,3.83,1.2,4.85c2.62,0.18,7.45,1.37,3.8-4.86L65,34.01 M72,34.01
		c0.08,1.66-0.54,3.83,1.2,4.85c2.62,0.18,7.45,1.37,3.8-4.86L72,34.01 M79,34.01c0.08,1.66-0.54,3.83,1.2,4.85
		c2.63,0.18,7.44,1.37,3.8-4.86L79,34.01 M51,41v5h5v-5H51 M58,41v5h5v-5H58 M65,41v5h5v-5H65 M72,41v5h5v-5H72 M79,41.01
		c0.08,1.66-0.54,3.83,1.2,4.85c2.63,0.18,7.44,1.37,3.8-4.86L79,41.01 M51,48v5h5v-5H51 M58,48v5h5v-5H58 M65,48v5h5v-5H65 M72,48
		v5h5v-5H72 M79,48.01c0.08,1.66-0.54,3.83,1.2,4.85c2.63,0.18,7.44,1.37,3.8-4.86L79,48.01 M51,55v5h5v-5H51 M58,55v5h5v-5H58
		 M65,55v5h5v-5H65 M73.2,55.14c-2.51,1.81-1.75,9.09,3.8,4.86C80.65,53.75,75.82,54.97,73.2,55.14 M80.2,55.14
		c-2.51,1.81-1.75,9.09,3.8,4.86C87.64,53.75,82.83,54.97,80.2,55.14 M51,62v5h5v-5H51 M58,62v5h5v-5H58 M65,62v5h5v-5H65
		 M73.2,62.14c-2.51,1.81-1.75,9.09,3.8,4.86C80.65,60.75,75.82,61.97,73.2,62.14 M80.2,62.14c-2.51,1.81-1.75,9.09,3.8,4.86
		C87.64,60.75,82.83,61.97,80.2,62.14 M51,69v5h5v-5H51 M58,69v5h5v-5H58 M66.2,69.14c-2.51,1.81-1.75,9.09,3.8,4.86
		C73.65,67.75,68.82,68.97,66.2,69.14 M73.2,69.14c-2.51,1.81-1.75,9.09,3.8,4.86C80.65,67.75,75.82,68.97,73.2,69.14 M80.2,69.14
		c-2.51,1.81-1.75,9.09,3.8,4.86C87.64,67.75,82.83,68.97,80.2,69.14 M53.22,76.38c-3.95-0.25-2.5,7.56,1.12,5.07
		C57.35,80.99,56.41,75.67,53.22,76.38 M59.21,76.13c-2.7,1.8-1.1,7.35,2.58,5.75C64.59,79.78,62.7,75.41,59.21,76.13 M66.2,76.14
		c-3.69,2.37,0.7,8.77,3.67,4.64C73.53,74.75,68.73,75.99,66.2,76.14 M73.19,76.38c-3.36,2.37,0,7.36,3.81,5.61
		C79.69,77.63,76.08,75.85,73.19,76.38 M81.29,76.3c-2.94,0.07-3.1,4.15-1.09,5.56c1.26,0.17,2.53,0.22,3.8,0.14
		C85.69,80.83,84,74.76,81.29,76.3 M51,84v5h5v-5H51 M58,84v5h5v-5H58 M65,84.01c0.08,1.66-0.54,3.83,1.2,4.85
		c2.62,0.18,7.45,1.36,3.8-4.86L65,84.01 M72,84.01c0.08,1.66-0.54,3.83,1.2,4.85c2.62,0.18,7.45,1.36,3.8-4.86L72,84.01 M79,84.01
		c0.08,1.66-0.54,3.83,1.2,4.85c2.63,0.18,7.44,1.36,3.8-4.86L79,84.01z"/>
</g>
<g id="_x23_81b0baff">
	<path fill="#81B0BA" d="M85.99,32.05l0.98-0.06c0.03,22.34,0.1,44.69-0.03,67.029l-0.95-0.029c-0.01-0.45-0.04-1.36-0.05-1.811
		C86.09,75.47,85.96,53.76,85.99,32.05z"/>
</g>
<g id="_x23_dbdbbbfa">
	<path opacity="0.98" fill="#DBDBBB" enable-background="new    " d="M20.3,32.7c0.77,0.97,1.83,1.92,1.68,3.3
		c0.1,20.99-0.03,41.98,0.02,62.98c-0.76,0-2.29,0-3.05,0c0.09-0.681,0.26-2.03,0.34-2.71C21.21,75.25,19.11,53.85,20.3,32.7z"/>
</g>
<g id="_x23_c2f9fdff">
	<path fill="#C2F9FD" d="M51,34h5v5h-5V34z"/>
</g>
<g id="_x23_c1f8fdff">
	<path fill="#C1F8FD" d="M58,34h5v5h-5V34z"/>
	<path fill="#C1F8FD" d="M65,41h5v5h-5V41z"/>
	<path fill="#C1F8FD" d="M72,48h5v5h-5V48z"/>
	<path fill="#C1F8FD" d="M51,69h5v5h-5V69z"/>
	<path fill="#C1F8FD" d="M51,84h5v5h-5V84z"/>
	<path fill="#C1F8FD" d="M72,108h5v5h-5V108z"/>
</g>
<g id="_x23_c0f7fdff">
	<path fill="#C0F7FD" d="M65,34.01L70,34c3.65,6.23-1.18,5.04-3.8,4.86C64.46,37.84,65.08,35.67,65,34.01z"/>
	<path fill="#C0F7FD" d="M79,48.01L84,48c3.64,6.23-1.17,5.04-3.8,4.86C78.46,51.84,79.08,49.67,79,48.01z"/>
	<path fill="#C0F7FD" d="M80.2,55.14c2.63-0.17,7.44-1.39,3.8,4.86C78.45,64.23,77.69,56.95,80.2,55.14z"/>
	<path fill="#C0F7FD" d="M58,69h5v5h-5V69z"/>
	<path fill="#C0F7FD" d="M72,115h5v5h-5V115z"/>
	<path fill="#C0F7FD" d="M79,115.01l5-0.01c3.64,6.22-1.17,5.04-3.8,4.859C78.46,118.84,79.08,116.67,79,115.01z"/>
</g>
<g id="_x23_bff7fcff">
	<path fill="#BFF7FC" d="M72,34.01L77,34c3.65,6.23-1.18,5.04-3.8,4.86C71.46,37.84,72.08,35.67,72,34.01z"/>
	<path fill="#BFF7FC" d="M79,34.01L84,34c3.64,6.23-1.17,5.04-3.8,4.86C78.46,37.84,79.08,35.67,79,34.01z"/>
	<path fill="#BFF7FC" d="M72,41h5v5h-5V41z"/>
	<path fill="#BFF7FC" d="M73.2,62.14c2.62-0.17,7.45-1.39,3.8,4.86C71.45,71.23,70.69,63.95,73.2,62.14z"/>
	<path fill="#BFF7FC" d="M66.2,69.14c2.62-0.17,7.45-1.39,3.8,4.86C64.45,78.23,63.69,70.95,66.2,69.14z"/>
	<path fill="#BFF7FC" d="M65,84.01L70,84c3.65,6.22-1.18,5.04-3.8,4.86C64.46,87.84,65.08,85.67,65,84.01z"/>
	<path fill="#BFF7FC" d="M71.95,91.02c6.99-3.68,4.68,2.23,4.84,5.14c-1.2,0.02-2.38,0.07-3.57,0.17
		C72.22,94.73,71.78,92.9,71.95,91.02z"/>
	<path fill="#BFF7FC" d="M78.95,91.02c6.92-3.68,4.69,2.14,4.88,5.04c-1.21,0.06-2.41,0.16-3.61,0.29
		C79.23,94.74,78.78,92.91,78.95,91.02z"/>
</g>
<g id="_x23_c4f9fdff">
	<path fill="#C4F9FD" d="M51,41h5v5h-5V41z"/>
</g>
<g id="_x23_c2f8fdff">
	<path fill="#C2F8FD" d="M58,41h5v5h-5V41z"/>
	<path fill="#C2F8FD" d="M65,48h5v5h-5V48z"/>
	<path fill="#C2F8FD" d="M65,55h5v5h-5V55z"/>
	<path fill="#C2F8FD" d="M58,62h5v5h-5V62z"/>
	<path fill="#C2F8FD" d="M58.38,91.17c6.26-3.5,4.25,2.13,4.66,4.83c-2.75,0.18-6.06,0.59-5.45-3.25
		C57.79,92.36,58.18,91.56,58.38,91.17z"/>
	<path fill="#C2F8FD" d="M65,108h5v5h-5V108z"/>
	<path fill="#C2F8FD" d="M65,115h5v5h-5V115z"/>
</g>
<g id="_x23_bff6fcff">
	<path fill="#BFF6FC" d="M79,41.01L84,41c3.64,6.23-1.17,5.04-3.8,4.86C78.46,44.84,79.08,42.67,79,41.01z"/>
	<path fill="#BFF6FC" d="M80.2,62.14c2.63-0.17,7.44-1.39,3.8,4.86C78.45,71.23,77.69,63.95,80.2,62.14z"/>
</g>
<g id="_x23_c4f9feff">
	<path fill="#C4F9FE" d="M51,48h5v5h-5V48z"/>
	<path fill="#C4F9FE" d="M51,55h5v5h-5V55z"/>
	<path fill="#C4F9FE" d="M58,108h5v5h-5V108z"/>
	<path fill="#C4F9FE" d="M51,115h5v5h-5V115z"/>
</g>
<g id="_x23_c3f9feff">
	<path fill="#C3F9FE" d="M58,48h5v5h-5V48z"/>
	<path fill="#C3F9FE" d="M58,55h5v5h-5V55z"/>
	<path fill="#C3F9FE" d="M58,115h5v5h-5V115z"/>
</g>
<g id="_x23_67737bff">
	<path fill="#67737B" d="M132.05,48.08c2.64-0.13,5.29-0.18,7.95-0.14c1.75,0.02,5.24,0.06,6.98,0.08
		c0.069,11.05-0.121,22.1,0.189,33.14c-5.02-0.24-10.061-0.09-15.09-0.22C131.8,69.99,132.01,59.03,132.05,48.08 M134.05,50.01
		c-0.2,9.66-0.021,19.33-0.021,29l0.98-0.05c1.66,0.1,3.33,0.1,4.99-0.01c1.66,0.11,3.33,0.11,4.99,0.01l0.96,0.03
		c0.2-9.66,0.021-19.33,0.021-29l-0.98,0.05c-1.66-0.1-3.33-0.1-4.99,0.01c-1.66-0.11-3.33-0.11-4.99-0.02L134.05,50.01z"/>
</g>
<g id="_x23_848a86ff">
	<path fill="#848A86" d="M146.98,48.02l0.949,0.06c-0.189,10.92,1.041,22.75-0.76,33.08C146.859,70.12,147.05,59.07,146.98,48.02z"
		/>
</g>
<g id="_x23_67747bff">
	<path fill="#67747B" d="M158.05,48.03c4.97-0.03,9.97-0.17,14.94,0.03c0.01,10.98,0.02,21.96,0,32.94c-4.99-0.01-9.971,0-14.961,0
		C157.98,70.01,157.91,59.02,158.05,48.03 M160.05,50.01c-0.19,9.66-0.03,19.34-0.021,29.01l0.98-0.08
		c3.32,0.17,6.641,0.11,9.98,0.03l0.96,0.021c0.19-9.33,0.03-18.66,0.021-27.99L171,51.01l-0.02-0.96
		c-3.32-0.16-6.67-0.11-9.98-0.02L160.05,50.01z"/>
</g>
<g id="_x23_868e89ff">
	<path fill="#868E89" d="M172.99,48.06l0.98-0.08c0.01,11,0.149,22.01-0.021,33L172.99,81C173.01,70.02,173,59.04,172.99,48.06z"/>
</g>
<g id="_x23_8e948aff">
	<path fill="#8E948A" d="M198.99,48.06l0.98-0.08c0.01,11,0.149,22.01-0.021,33L198.99,81C199.01,70.02,199,59.04,198.99,48.06z"/>
</g>
<g id="_x23_6a89a5ff">
	<path fill="#6A89A5" d="M134.05,50.01l0.96,0.021c-0.02,9.65-0.02,19.29,0,28.93l-0.98,0.05
		C134.029,69.34,133.85,59.67,134.05,50.01z"/>
</g>
<g id="_x23_70a7ddff">
	<path fill="#70A7DD" d="M135.01,50.03c1.66-0.09,3.33-0.09,4.99,0.02c0,9.63,0,19.27,0,28.9c-1.66,0.11-3.33,0.11-4.99,0.01
		C134.99,69.32,134.99,59.68,135.01,50.03z"/>
</g>
<g id="_x23_96deecff">
	<path fill="#96DEEC" d="M140,50.05c1.66-0.11,3.33-0.11,4.99-0.01c0.01,9.64,0.02,19.28,0,28.92c-1.66,0.1-3.33,0.1-4.99-0.01
		C140,69.32,140,59.68,140,50.05z"/>
</g>
<g id="_x23_7396a9ff">
	<path fill="#7396A9" d="M144.99,50.04l0.98-0.05c0,9.67,0.18,19.34-0.021,29l-0.96-0.03C145.01,69.32,145,59.68,144.99,50.04z"/>
</g>
<g id="_x23_7ca2adff">
	<path fill="#7CA2AD" d="M160.05,50.01L161,50.03l0.02,0.97c-0.039,9.32-0.02,18.63-0.01,27.94l-0.98,0.08
		C160.02,69.35,159.859,59.67,160.05,50.01z"/>
</g>
<g id="_x23_8ac4d0ff">
	<path fill="#8AC4D0" d="M161,50.03c3.311-0.09,6.66-0.14,9.98,0.02l0.02,0.96C167.66,51,164.35,51,161.02,51L161,50.03z"/>
	<path fill="#8AC4D0" d="M47.01,162.99l0.99,0.02c0,10,0,19.99,0,29.99h-1C47.01,182.99,46.98,172.99,47.01,162.99z"/>
</g>
<g id="_x23_7ea8b3ff">
	<path fill="#7EA8B3" d="M186.05,50.01L187,50.03l0.02,0.97c-0.039,9.32-0.02,18.63-0.01,27.94l-0.98,0.08
		C186.02,69.35,185.859,59.67,186.05,50.01z"/>
</g>
<g id="_x23_8ac4cfff">
	<path fill="#8AC4CF" d="M187,50.03c3.311-0.09,6.66-0.14,9.98,0.02l0.02,0.96C193.66,51,190.35,51,187.02,51L187,50.03z"/>
</g>
<g id="_x23_96e0edff">
	<path fill="#96E0ED" d="M161.02,51c3.33,0,6.641,0,9.98,0.01c0,9.32,0.01,18.64-0.01,27.96c-3.34,0.08-6.66,0.14-9.98-0.03
		C161,69.63,160.98,60.32,161.02,51z"/>
	<path fill="#96E0ED" d="M48,163.01c6-0.02,11.99-0.01,17.99-0.01c0.05,10-0.01,20,0.01,30H48C48,183,48,173.01,48,163.01
		 M60.21,168.12c-2.39,1.3-1.17,5.72,1.74,4.87C65.77,172.609,63.81,166.25,60.21,168.12z"/>
</g>
<g id="_x23_74888eff">
	<path fill="#74888E" d="M171,51.01l0.971-0.01c0.01,9.33,0.17,18.66-0.021,27.99l-0.96-0.021C171.01,69.65,171,60.33,171,51.01z"/>
</g>
<g id="_x23_96dfecff">
	<path fill="#96DFEC" d="M187.02,51c3.33,0,6.641,0,9.98,0.01c0,9.32,0.01,18.64-0.01,27.96c-3.34,0.08-6.66,0.14-9.98-0.03
		C187,69.63,186.98,60.32,187.02,51z"/>
</g>
<g id="_x23_6e878eff">
	<path fill="#6E878E" d="M197,51.01l0.971-0.01c0.01,9.33,0.17,18.66-0.021,27.99l-0.96-0.021C197.01,69.65,197,60.33,197,51.01z"/>
</g>
<g id="_x23_c1f7fcff">
	<path fill="#C1F7FC" d="M73.2,55.14c2.62-0.17,7.45-1.39,3.8,4.86C71.45,64.23,70.69,56.95,73.2,55.14z"/>
</g>
<g id="_x23_c3f9fdff">
	<path fill="#C3F9FD" d="M51,62h5v5h-5V62z"/>
	<path fill="#C3F9FD" d="M50.71,93.88c-0.91-4.66,6.86-4.22,5.69,0.37C56.07,97.34,50.19,97.27,50.71,93.88z"/>
</g>
<g id="_x23_c1f7fdff">
	<path fill="#C1F7FD" d="M65,62h5v5h-5V62z"/>
	<path fill="#C1F7FD" d="M64.97,95.98c0.39-2.84-1.62-8.49,5-4.98c0.05,1.74-0.06,3.49-0.17,5.24
		C68.19,96.09,66.58,96.02,64.97,95.98z"/>
</g>
<g id="_x23_bef6fcff">
	<path fill="#BEF6FC" d="M73.2,69.14c2.62-0.17,7.45-1.39,3.8,4.86C71.45,78.23,70.69,70.95,73.2,69.14z"/>
	<path fill="#BEF6FC" d="M80.2,69.14c2.63-0.17,7.44-1.39,3.8,4.86C78.45,78.23,77.69,70.95,80.2,69.14z"/>
	<path fill="#BEF6FC" d="M72,84.01L77,84c3.65,6.22-1.18,5.04-3.8,4.86C71.46,87.84,72.08,85.67,72,84.01z"/>
	<path fill="#BEF6FC" d="M79,84.01L84,84c3.64,6.22-1.17,5.04-3.8,4.86C78.46,87.84,79.08,85.67,79,84.01z"/>
</g>
<g id="_x23_c0f7fcff">
	<path fill="#C0F7FC" d="M53.22,76.38c3.19-0.71,4.13,4.61,1.12,5.07C50.72,83.94,49.27,76.13,53.22,76.38z"/>
	<path fill="#C0F7FC" d="M58,84h5v5h-5V84z"/>
	<path fill="#C0F7FC" d="M79,108h5v5h-5V108z"/>
</g>
<g id="_x23_bdf6fcff">
	<path fill="#BDF6FC" d="M59.21,76.13c3.49-0.72,5.38,3.65,2.58,5.75C58.11,83.48,56.51,77.93,59.21,76.13z"/>
</g>
<g id="_x23_bcf5fbff">
	<path fill="#BCF5FB" d="M66.2,76.14c2.53-0.15,7.33-1.39,3.67,4.64C66.9,84.91,62.51,78.51,66.2,76.14z"/>
</g>
<g id="_x23_bbf4fbff">
	<path fill="#BBF4FB" d="M73.19,76.38c2.89-0.53,6.5,1.25,3.81,5.61C73.19,83.74,69.83,78.75,73.19,76.38z"/>
	<path fill="#BBF4FB" d="M81.29,76.3C84,74.76,85.69,80.83,84,82c-1.27,0.08-2.54,0.03-3.8-0.14C78.19,80.45,78.35,76.37,81.29,76.3
		z"/>
</g>
<g id="_x23_989c8fff">
	<path fill="#989C8F" d="M158.029,81c4.99,0,9.971-0.01,14.961,0l0.01,0.98c-3.75,0-11.26,0-15.01-0.01L158.029,81z"/>
</g>
<g id="_x23_989c8eff">
	<path fill="#989C8E" d="M184.029,81c4.99,0,9.971-0.01,14.961,0l0.01,0.98c-3.75,0-11.26,0-15.01-0.01L184.029,81z"/>
</g>
<g id="_x23_94dbe9ff">
	<path fill="#94DBE9" d="M56.4,94.25c0.3-0.37,0.9-1.12,1.19-1.5c-0.61,3.84,2.7,3.43,5.45,3.25c0.48-0.01,1.44-0.02,1.93-0.02
		c1.61,0.04,3.22,0.11,4.83,0.26c1.04,0.859,2.28,0.5,3.42,0.09c1.19-0.1,2.37-0.15,3.57-0.17c1.01,0.98,2.26,0.61,3.43,0.19
		c1.2-0.13,2.4-0.23,3.61-0.29c0.52,0.28,1.58,0.84,2.11,1.12c0.01,0.45,0.04,1.36,0.05,1.811C73.67,99.01,61.35,99,49.03,99
		c-0.09-1.28-0.07-2.55,0.07-3.82c0.4-0.33,1.21-0.98,1.61-1.3C50.19,97.27,56.07,97.34,56.4,94.25z"/>
</g>
<g id="_x23_575e66ff">
	<path fill="#575E66" d="M17.13,99.03c0.46-0.021,1.37-0.04,1.82-0.05c0.76,0,2.29,0,3.05,0c4.94,0.05,9.88,0.029,14.82,0.1
		c0.18,1.97,0.2,3.95,0.19,5.92c-5,0.01-9.99-0.07-14.99,0.04c-0.5,0.01-1.52,0.021-2.03,0.03l-1.01,0.01
		c-0.49-0.05-1.48-0.141-1.97-0.18C16.99,102.939,16.96,100.98,17.13,99.03z"/>
</g>
<g id="_x23_75a5c9ff">
	<path fill="#75A5C9" d="M49.03,99c12.32,0,24.64,0.01,36.96-0.01l0.95,0.029c0.13,1.98,0.13,3.98,0.01,5.971l-0.97,0.02
		C73.67,104.99,61.36,105,49.05,105C48.93,103,48.93,101,49.03,99z"/>
</g>
<g id="_x23_3c444fff">
	<path fill="#3C444F" d="M99.01,98.99c1.66,0,3.33,0.01,4.99,0.02c0,1.99,0,3.98,0,5.971c-1.66,0.02-3.33,0.02-4.99,0.029
		C98.99,103,98.99,101,99.01,98.99z"/>
	<path fill="#3C444F" d="M122,99.02c6-0.06,11.99,0,18-0.029c24.65,0.029,49.29,0,73.939,0.02c0.521,0,1.561-0.01,2.08-0.01
		c0.471,0.01,1.41,0.03,1.871,0.04c0.199,1.61,0.219,3.24,0.039,4.86c-31.97,0.22-63.949,0.05-95.92,0.09
		C122.01,102.33,122,100.68,122,99.02z"/>
</g>
<g id="_x23_545b65ff">
	<path fill="#545B65" d="M104,99.01c4.67-0.04,9.34,0.04,14.02,0.01c1.33,0,2.65,0,3.98,0c0,1.66,0.01,3.311,0.01,4.971l-0.02,0.99
		c-0.74,0.01-2.221,0.029-2.961,0.05h-0.959c-4.7-0.05-9.38-0.011-14.07-0.05C104,102.99,104,101,104,99.01z"/>
</g>
<g id="_x23_444b54ff">
	<path fill="#444B54" d="M122.01,103.99c31.971-0.04,63.95,0.13,95.92-0.09c-0.199,0.319-0.609,0.97-0.81,1.289l-1.03-0.049
		c-0.51-0.021-1.51-0.061-2.02-0.091c-24.69-0.13-49.381-0.03-74.07-0.04c-6.01-0.029-12.01,0-18.01-0.029L122.01,103.99z"/>
</g>
<g id="_x23_a5a593b6">
	<path opacity="0.71" fill="#A5A593" enable-background="new    " d="M18.98,105.08l1.01-0.01C20,112.05,20,119.03,20.01,126
		l-0.98,0.16C18.95,119.13,19.03,112.1,18.98,105.08z"/>
</g>
<g id="_x23_d8d8b9f6">
	<path opacity="0.96" fill="#D8D8B9" enable-background="new    " d="M19.99,105.07c0.51-0.01,1.53-0.021,2.03-0.03
		c1.25,6.21,1.19,12.61,0.95,18.92c0.14,1.55-1.78,1.96-2.96,2.04C20,119.03,20,112.05,19.99,105.07z"/>
</g>
<g id="_x23_98e0edff">
	<path fill="#98E0ED" d="M49.05,105c12.31,0,24.62-0.01,36.93,0.01c0.02,5.66,0.02,11.32,0,16.98c-12.32,0.01-24.63,0.01-36.95,0
		C48.92,116.33,48.92,110.66,49.05,105 M51,108v5h5v-5H51 M58,108v5h5v-5H58 M65,108v5h5v-5H65 M72,108v5h5v-5H72 M79,108v5h5v-5H79
		 M51,115v5h5v-5H51 M58,115v5h5v-5H58 M65,115v5h5v-5H65 M72,115v5h5v-5H72 M79,115.01c0.08,1.66-0.54,3.83,1.2,4.85
		c2.63,0.181,7.44,1.36,3.8-4.859L79,115.01z"/>
</g>
<g id="_x23_81afb9ff">
	<path fill="#81AFB9" d="M85.98,105.01l0.97-0.02c0.08,5.99,0.18,12,0.01,18l-0.95-0.021l-0.03-0.979
		C86,116.33,86,110.67,85.98,105.01z"/>
</g>
<g id="_x23_d9d8baff">
	<path fill="#D9D8BA" d="M118.07,105.03h0.959c-0.09,14.71,0.031,29.42-0.059,44.13c-1.591-0.12-3.16-0.43-3.91-1.98
		c3.1-0.119,3.1-4.859,2.439-6.8C116.529,128.6,116.811,116.77,118.07,105.03z"/>
</g>
<g id="_x23_b6b69cff">
	<path fill="#B6B69C" d="M140,105.01c24.689,0.01,49.38-0.09,74.07,0.04c-0.771,6.521-1.66,13.101-0.87,19.66
		c0.44,0.39,1.31,1.17,1.739,1.56c0.141,19.9,0.021,39.811,0.061,59.711c-4.65-0.041-9.311,0.229-13.95-0.061
		c-0.22-19.95,0.12-39.91-0.11-59.859c-20.619-0.181-41.239,0-61.859-0.061C141.49,119.34,139.3,111.92,140,105.01 M165.26,112.17
		c-1.97,1.26-2.779,3.38-2.17,5.66c1.82,1.35,4.93,3.529,6.721,0.99C173.41,116.311,170.25,108.72,165.26,112.17z"/>
</g>
<g id="_x23_adad95ef">
	<path opacity="0.94" fill="#ADAD95" enable-background="new    " d="M214.07,105.05c0.51,0.03,1.51,0.07,2.02,0.091
		c-0.14,6.949-0.02,13.909-0.14,20.869l-1.011,0.26c-0.43-0.39-1.299-1.17-1.739-1.56C212.41,118.15,213.3,111.57,214.07,105.05z"/>
</g>
<g id="_x23_0e0e0d0e">
	<path opacity="0.05" fill="#0E0E0D" enable-background="new    " d="M216.09,105.141l1.03,0.049
		c-0.22,23.931-0.16,47.871-0.06,71.811c-0.371,3.2,0.93,6.109,1.76,9.09c-0.711-0.029-2.11-0.08-2.811-0.1
		c-0.07-20,0.08-39.99-0.06-59.98C216.07,119.05,215.95,112.09,216.09,105.141z"/>
</g>
<g id="_x23_c4fafeff">
	<path fill="#C4FAFE" d="M51,108h5v5h-5V108z"/>
</g>
<g id="_x23_b9b9a8ff">
	<path fill="#B9B9A8" d="M165.26,112.17c4.99-3.45,8.15,4.141,4.551,6.65c-1.791,2.539-4.9,0.359-6.721-0.99
		C162.48,115.55,163.29,113.43,165.26,112.17 M166.01,114.01c-0.67,2.53,0.44,3.65,2.98,2.98
		C169.65,114.45,168.54,113.34,166.01,114.01z"/>
</g>
<g id="_x23_dbdccfff">
	<path fill="#DBDCCF" d="M166.01,114.01c2.53-0.67,3.641,0.44,2.98,2.98C166.45,117.66,165.34,116.54,166.01,114.01z"/>
</g>
<g id="_x23_8ecedbff">
	<path fill="#8ECEDB" d="M49.03,121.99c12.32,0.01,24.63,0.01,36.95,0l0.03,0.979c-12.34,0.07-24.67,0.07-37.01,0L49.03,121.99z"/>
</g>
<g id="_x23_dfdfd3ff">
	<path fill="#DFDFD3" d="M133.07,126.12c1.5-0.03,4.5-0.09,6.01-0.12c20.62,0.061,41.24-0.12,61.859,0.061
		c0.23,19.949-0.109,39.909,0.11,59.859c4.64,0.29,9.3,0.02,13.95,0.061l1.01,0.01c0.7,0.02,2.1,0.07,2.811,0.1
		c0.06,1.73,0.199,5.18,0.26,6.91H198.02c-0.01-1.34-0.029-2.67-0.049-4c0.02-3.62-0.051-7.23,0.229-10.83
		c1.62-16.29,0.6-32.75,0.72-49.1l-0.939-0.061c-20.32,0-40.65-0.09-60.971,0.03l-0.96,0.06c-0.14,16.301-0.03,32.601-0.04,48.9
		c-0.029,3.65-0.01,7.32-0.01,10.98c-0.75,0.01-2.24,0.039-2.98,0.05c-0.02-0.761-0.06-2.271-0.08-3.021
		C133.17,166.04,132.82,146.08,133.07,126.12z"/>
</g>
<g id="_x23_bdbda3ff">
	<path fill="#BDBDA3" d="M214.939,126.27l1.011-0.26c0.14,19.99-0.011,39.98,0.06,59.98l-1.01-0.01
		C214.96,166.08,215.08,146.17,214.939,126.27z"/>
</g>
<g id="_x23_8c9492ff">
	<path fill="#8C9492" d="M136.05,129.1l0.96-0.06c0.061,15.97-0.16,31.94,0.061,47.91c20.34,0.2,40.689-0.11,61.029,0.13l0.101,1.09
		c-20.729-0.37-41.46-0.08-62.19-0.17C136.02,161.7,135.91,145.4,136.05,129.1z"/>
</g>
<g id="_x23_67787dff">
	<path fill="#67787D" d="M137.01,129.04c20.32-0.12,40.65-0.03,60.971-0.03c0.109,16.03-0.141,32.051,0.119,48.07
		c-20.34-0.24-40.689,0.07-61.029-0.13C136.85,160.98,137.07,145.01,137.01,129.04 M139.01,131.03c0,0.489,0,1.47,0,1.96
		c0,0.75,0.01,2.24,0.01,2.979c5.371,0.11,10.74,0.101,16.11-0.03l0.92,0.091l-0.06-4.98C150.33,130.83,144.66,130.99,139.01,131.03
		 M158.01,131.03c0,0.489,0,1.479,0,1.97c-0.48,1.75-0.15,2.75,0.99,3l0.02,0.95c5.99,0.22,11.98,0.03,17.98,0.02l-0.02-0.979
		c0.01-0.75,0.01-2.24,0.01-2.99c0-0.49,0-1.46,0-1.939C170.66,130.83,164.33,131.01,158.01,131.03 M179.71,133.72
		c0.08,0.55,0.24,1.65,0.319,2.2c5.031,0.27,10.061,0.08,15.101,0.02l0.92,0.091c3.3-9.04-7.989-3.54-12.05-5.061
		C180.18,124.67,177.27,134.26,179.71,133.72 M159,138.02V139l-1,0.02l0.01,4.91c6.311,0.25,12.631,0.051,18.95,0.04
		c0.101-1.649,0.101-3.31,0.011-4.96l0.02-0.96C171,137.83,164.99,138.01,159,138.02 M139,139.03v4.939c5.33,0.101,10.66,0.101,16,0
		v-4.939C149.66,138.93,144.33,138.93,139,139.03 M180,139.03v4.939c3.75,0,11.25,0,15,0v-4.939
		C191.25,139.03,183.75,139.03,180,139.03 M138.99,146.03l0.039,0.979c-0.079,1.32-0.079,2.65-0.01,3.99l-0.01,0.96
		c5.66,0.19,11.32,0.05,16.99,0l0.04-4.97l-0.95,0.029l-0.119-0.989C149.641,145.93,144.32,145.92,138.99,146.03 M157.99,146.03
		l0.05,0.979c-0.101,1.641-0.11,3.29,0,4.93c6.3,0.24,12.61,0.041,18.92,0.03c0.101-1.649,0.101-3.31,0.011-4.96l0.02-0.96
		C170.66,145.84,164.32,146.01,157.99,146.03 M179.99,146.03l0.05,0.979c-0.101,1.65-0.101,3.311,0,4.971
		c3.681-0.03,11.05-0.09,14.729-0.11c1.521-0.761,2.15-5.011,0.23-4.87v-0.98C191.25,146.02,183.74,146.02,179.99,146.03
		 M138.99,154.03l0.039,0.97c-0.079,1.33-0.079,2.66-0.01,3.99L139,159.97c5.32,0.101,10.65,0.101,15.971,0l0.119-0.989l0.939,0.029
		L156,154.05C150.33,153.84,144.66,154,138.99,154.03 M158.04,154.03c-0.101,1.649-0.101,3.31,0,4.96l-0.03,0.96
		c6.33,0.21,12.66,0.03,19,0.02l-0.05-0.979c0.101-1.641,0.101-3.29,0-4.93C170.66,153.82,164.34,154.02,158.04,154.03
		 M180.04,154.02c-0.101,1.65-0.101,3.32,0,4.971l-0.05,0.979c3.75,0.011,11.26,0.011,15.01,0.011V159
		c1.92,0.141,1.29-4.109-0.23-4.87C191.09,154.109,183.721,154.05,180.04,154.02 M139,162.03v4.939c5.33,0.101,10.66,0.101,16,0
		v-4.939C149.66,161.93,144.33,161.93,139,162.03 M158,162.04l0.01,4.899c6.32,0.24,12.66,0.041,18.99,0.021l-0.01-4.899
		C170.67,161.82,164.33,162.02,158,162.04 M180,162.03v4.939c3.75,0,11.25,0,15,0v-4.939C191.25,162.03,183.75,162.03,180,162.03
		 M139,170.03v4.939c5.33,0.101,10.66,0.101,16,0v-4.939C149.66,169.93,144.33,169.93,139,170.03 M158,170.04l0.01,4.899
		c6.32,0.24,12.66,0.03,18.99,0.021l-0.01-4.899C170.67,169.82,164.33,170.02,158,170.04 M180,170.03v4.939c3.75,0,11.25,0,15,0
		v-4.939C191.25,170.03,183.75,170.03,180,170.03z"/>
</g>
<g id="_x23_d5d6cbff">
	<path fill="#D5D6CB" d="M197.98,129.01l0.939,0.061c-0.12,16.35,0.9,32.81-0.72,49.1l-0.101-1.09
		C197.84,161.061,198.09,145.04,197.98,129.01z"/>
</g>
<g id="_x23_68a88fff">
	<path fill="#68A88F" d="M139.01,131.03c5.65-0.04,11.32-0.2,16.98,0.02l0.06,4.98l-0.92-0.091c-0.08-0.72-0.239-2.149-0.319-2.869
		c-5.271-0.11-10.531-0.131-15.801-0.08C139.01,132.5,139.01,131.52,139.01,131.03z"/>
</g>
<g id="_x23_67a98eff">
	<path fill="#67A98E" d="M158.01,131.03c6.32-0.021,12.65-0.2,18.98,0.03c0,0.479,0,1.449,0,1.939c-6.33,0-12.65,0-18.98,0
		C158.01,132.51,158.01,131.52,158.01,131.03z"/>
</g>
<g id="_x23_68a68eff">
	<path fill="#68A68E" d="M179.71,133.72c-2.44,0.54,0.47-9.05,4.29-2.75c4.061,1.521,15.35-3.979,12.05,5.061l-0.92-0.091
		c-0.08-0.72-0.239-2.18-0.319-2.899C189.74,132.689,184.7,132.91,179.71,133.72z"/>
</g>
<g id="_x23_83ceaeff">
	<path fill="#83CEAE" d="M139.01,132.99c5.27-0.051,10.53-0.03,15.801,0.08c0.08,0.72,0.239,2.149,0.319,2.869
		c-5.37,0.131-10.739,0.141-16.11,0.03C139.02,135.23,139.01,133.74,139.01,132.99z"/>
	<path fill="#83CEAE" d="M158.01,133c6.33,0,12.65,0,18.98,0c0,0.75,0,2.24-0.01,2.99C170.99,136,164.99,136,159,136
		C157.859,135.75,157.529,134.75,158.01,133z"/>
	<path fill="#83CEAE" d="M179.71,133.72c4.99-0.81,10.03-1.03,15.101-0.68c0.08,0.72,0.239,2.18,0.319,2.899
		c-5.04,0.061-10.069,0.25-15.101-0.02C179.95,135.37,179.79,134.27,179.71,133.72z"/>
	<path fill="#83CEAE" d="M139,139.03c5.33-0.101,10.66-0.101,16,0v4.939c-5.34,0.101-10.67,0.101-16,0V139.03z"/>
	<path fill="#83CEAE" d="M158,139.02l1-0.02c5.99,0,11.971,0,17.971,0.01c0.09,1.65,0.09,3.311-0.011,4.96
		c-6.319,0.011-12.64,0.21-18.95-0.04L158,139.02z"/>
	<path fill="#83CEAE" d="M180,139.03c3.75,0,11.25,0,15,0v4.939c-3.75,0-11.25,0-15,0V139.03z"/>
	<path fill="#83CEAE" d="M139,170.03c5.33-0.101,10.66-0.101,16,0v4.939c-5.34,0.101-10.67,0.101-16,0V170.03z"/>
	<path fill="#83CEAE" d="M158,170.04c6.33-0.021,12.67-0.22,18.99,0.021l0.01,4.899c-6.33,0.01-12.67,0.22-18.99-0.021L158,170.04z"
		/>
	<path fill="#83CEAE" d="M180,170.03c3.75,0,11.25,0,15,0v4.939c-3.75,0-11.25,0-15,0V170.03z"/>
</g>
<g id="_x23_ff9480ff">
	<path fill="#FF9480" d="M33.02,139.88c-3.5-6.14,1.4-4.58,3.98-4.94c20.67,0.08,41.35,0.15,62.02-0.039
		c1.4,0.229,3.05-0.07,4.23,0.89c-0.12,1.71-0.2,3.43-0.41,5.14c-3.28,0.08-6.56,0.08-9.84,0.09c-17-0.02-33.99-0.06-50.99,0
		c-2.74,0.03-5.49,0.09-8.23,0.2C33.59,140.88,33.21,140.21,33.02,139.88z"/>
</g>
<g id="_x23_c8c7b3ff">
	<path fill="#C8C7B3" d="M103.25,135.79c4.63,2.99,8.36,7.149,11.811,11.39c0.75,1.551,2.319,1.86,3.91,1.98
		c0.039,2.949,0.02,5.88,0.02,8.84c-2.67-0.02-5.33-0.02-7.99,0c-2.72,0.01-8.17,0.03-10.89,0.05c-0.13,1.64-0.13,3.3-0.15,4.95
		c-1.74,0-5.21,0-6.95,0c-0.04-7.33-0.01-14.65-0.01-21.98c3.28-0.01,6.56-0.01,9.84-0.09C103.05,139.22,103.13,137.5,103.25,135.79
		z"/>
</g>
<g id="_x23_6c8887ff">
	<path fill="#6C8887" d="M159,136c5.99,0,11.99,0,17.98-0.01l0.02,0.979c-6,0.011-11.99,0.2-17.98-0.02L159,136z"/>
	<path fill="#6C8887" d="M159,138.02c5.99-0.01,12-0.189,17.99,0.03l-0.02,0.96c-6-0.01-11.98-0.01-17.971-0.01V138.02z"/>
</g>
<g id="_x23_c9c9b3ff">
	<path fill="#C9C9B3" d="M33.78,141.22c2.74-0.11,5.49-0.17,8.23-0.2c-0.02,2.711-0.05,5.431-0.08,8.15
		C39.07,146.68,36.39,143.97,33.78,141.22z"/>
</g>
<g id="_x23_79a2b5ff">
	<path fill="#79A2B5" d="M47.07,143.08c6.27-0.33,12.56-0.08,18.84-0.03l0.06,0.96c-6.32-0.01-12.64-0.029-18.95,0.01L47.07,143.08z
		"/>
</g>
<g id="_x23_7aa5bfff">
	<path fill="#7AA5BF" d="M69.05,143.1c6.28-0.369,12.57-0.09,18.86-0.05l0.06,0.97c-5.97,0.021-11.95-0.209-17.92,0.051
		c-0.14,5.97-0.05,11.949-0.06,17.939L69.01,162C68.96,155.7,68.92,149.391,69.05,143.1z"/>
</g>
<g id="_x23_86c1ecff">
	<path fill="#86C1EC" d="M47.02,144.02c6.31-0.039,12.63-0.02,18.95-0.01c0.21,6.33-0.02,12.66,0.02,18.99
		c-6,0-11.99-0.01-17.99,0.01l-0.99-0.02C46.96,156.66,46.91,150.34,47.02,144.02z"/>
	<path fill="#86C1EC" d="M70.05,144.07c5.97-0.26,11.95-0.03,17.92-0.051c0.21,6.32-0.02,12.65,0.02,18.98c-6,0-11.98,0-17.97,0
		l-0.03-0.99C70,156.02,69.91,150.04,70.05,144.07z"/>
</g>
<g id="_x23_76a094ff">
	<path fill="#76A094" d="M138.99,146.03c5.33-0.11,10.65-0.101,15.98,0l0.119,0.989c-5.359-0.02-10.71-0.029-16.061-0.01
		L138.99,146.03z"/>
	<path fill="#76A094" d="M157.99,146.03c6.33-0.021,12.67-0.19,19,0.02l-0.02,0.96c-6.32-0.01-12.621-0.02-18.931,0L157.99,146.03z"
		/>
	<path fill="#76A094" d="M179.99,146.03c3.75-0.011,11.26-0.011,15.01-0.011V147c-5,0-9.98,0-14.96,0.01L179.99,146.03z"/>
	<path fill="#76A094" d="M139.02,158.99c5.36,0.02,10.711,0,16.07-0.01l-0.119,0.989c-5.32,0.101-10.65,0.101-15.971,0
		L139.02,158.99z"/>
	<path fill="#76A094" d="M158.04,158.99c6.3,0.02,12.61,0,18.92,0l0.05,0.979c-6.34,0.011-12.67,0.19-19-0.02L158.04,158.99z"/>
	<path fill="#76A094" d="M180.04,158.99c4.979,0.01,9.96,0,14.96,0.01v0.98c-3.75,0-11.26,0-15.01-0.011L180.04,158.99z"/>
</g>
<g id="_x23_83cdaeff">
	<path fill="#83CDAE" d="M139.029,147.01c5.351-0.02,10.701-0.01,16.061,0.01c-0.04,1.311-0.119,2.621-0.22,3.931
		c-5.29,0.09-10.57,0.1-15.851,0.05C138.95,149.66,138.95,148.33,139.029,147.01z"/>
	<path fill="#83CDAE" d="M139.029,155c5.271-0.061,10.551-0.04,15.841,0.05c0.101,1.31,0.18,2.62,0.22,3.931
		c-5.359,0.01-10.71,0.029-16.07,0.01C138.95,157.66,138.95,156.33,139.029,155z"/>
	<path fill="#83CDAE" d="M139,162.03c5.33-0.101,10.66-0.101,16,0v4.939c-5.34,0.101-10.67,0.101-16,0V162.03z"/>
	<path fill="#83CDAE" d="M180,162.03c3.75,0,11.25,0,15,0v4.939c-3.75,0-11.25,0-15,0V162.03z"/>
</g>
<g id="_x23_7bb5a0ff">
	<path fill="#7BB5A0" d="M155.09,147.02l0.95-0.029l-0.04,4.97c-5.67,0.05-11.33,0.19-16.99,0l0.01-0.96
		c5.28,0.05,10.561,0.04,15.851-0.05C154.971,149.641,155.05,148.33,155.09,147.02z"/>
	<path fill="#7BB5A0" d="M138.99,154.03c5.67-0.03,11.34-0.19,17.01,0.02l0.029,4.96l-0.939-0.029
		c-0.04-1.311-0.119-2.621-0.22-3.931c-5.29-0.09-10.57-0.11-15.841-0.05L138.99,154.03z"/>
</g>
<g id="_x23_82caacff">
	<path fill="#82CAAC" d="M158.04,147.01c6.31-0.02,12.61-0.01,18.931,0c0.09,1.65,0.09,3.311-0.011,4.96
		c-6.31,0.011-12.62,0.21-18.92-0.03C157.93,150.3,157.939,148.65,158.04,147.01z"/>
</g>
<g id="_x23_81c8abff">
	<path fill="#81C8AB" d="M180.04,147.01C185.02,147,190,147,195,147c1.92-0.141,1.29,4.109-0.23,4.87
		c-3.68,0.021-11.049,0.08-14.729,0.11C179.939,150.32,179.939,148.66,180.04,147.01z"/>
</g>
<g id="_x23_97b458ff">
	<path fill="#97B458" d="M13.05,152.01c3.2-1.04,3.19,1.54,3.01,3.98C15.97,165.66,16,175.33,16,185c-0.75,0-2.25-0.01-3-0.01
		c-0.01-6.35,0.04-12.69-0.02-19.04C13.01,161.3,12.94,156.65,13.05,152.01z"/>
</g>
<g id="_x23_a7bf6dff">
	<path fill="#A7BF6D" d="M23.24,153.98c4.15-1.19,2.8,3.109,2.61,6.209c0.43-2.979-0.49-4.779-2.75-5.379L23.24,153.98z"/>
</g>
<g id="_x23_82caabff">
	<path fill="#82CAAB" d="M158.04,154.03c6.3-0.011,12.62-0.21,18.92,0.03c0.101,1.64,0.101,3.289,0,4.93c-6.31,0-12.62,0.02-18.92,0
		C157.939,157.34,157.939,155.68,158.04,154.03z"/>
</g>
<g id="_x23_81c8aaff">
	<path fill="#81C8AA" d="M180.04,154.02c3.681,0.03,11.05,0.09,14.729,0.11c1.521,0.761,2.15,5.011,0.23,4.87
		c-5-0.01-9.98,0-14.96-0.01C179.939,157.34,179.939,155.67,180.04,154.02z"/>
</g>
<g id="_x23_95b455ff">
	<path fill="#95B455" d="M23.1,154.811c2.26,0.6,3.18,2.399,2.75,5.379c0.04,0.44,0.12,1.33,0.15,1.771c0.02,7.67,0,15.351,0,23.03
		c-0.75,0-2.25,0.01-3,0.01c-0.01-9.71,0.04-19.42-0.07-29.13L23.1,154.811z"/>
</g>
<g id="_x23_7f933aff">
	<path fill="#7F933A" d="M16.06,155.99c0.49,0.01,1.46,0.02,1.95,0.029C18,165.68,18,175.34,18,185c-0.5,0-1.5,0-2,0
		C16,175.33,15.97,165.66,16.06,155.99z"/>
</g>
<g id="_x23_95b153ff">
	<path fill="#95B153" d="M18.01,156.02L19,156c0.5,0,1.49,0,1.99,0c0.02,9.67,0.01,19.33,0.01,29c-0.75,0-2.25,0-3,0
		C18,175.34,18,165.68,18.01,156.02z"/>
</g>
<g id="_x23_7c8f37ff">
	<path fill="#7C8F37" d="M20.99,156c0.48-0.03,1.46-0.1,1.94-0.13c0.11,9.71,0.06,19.42,0.07,29.13c-0.5,0-1.5,0-2,0
		C21,175.33,21.01,165.67,20.99,156z"/>
	<path fill="#7C8F37" d="M26,161.96c0.5,0.01,1.5,0.021,2,0.03c0,7.66,0,15.31,0,22.979c-0.5,0-1.5,0.011-2,0.021
		C26,177.311,26.02,169.63,26,161.96z"/>
</g>
<g id="_x23_fefefdff">
	<path fill="#FEFEFD" d="M100.11,158.05c2.72-0.02,8.17-0.04,10.89-0.05c0,11.66,0,23.33,0,35h-11c-0.04-10,0.08-20-0.04-30
		C99.98,161.35,99.98,159.689,100.11,158.05 M105.18,161.2c-0.89,1.03-2.66,1.95-2.05,3.59c1.28,2.39,5.7,1.18,4.85-1.729
		C108.3,161.5,106.09,161.77,105.18,161.2 M102.21,167.9c-0.06,0.51-0.18,1.529-0.24,2.029c2.21-0.479,8.12,1.79,6.82-2.029
		C107.99,166.22,103,166.22,102.21,167.9 M102.01,172.05c-0.72,3.66,4.76,1.38,6.98,1.9C109.71,170.29,104.23,172.561,102.01,172.05
		 M102.21,178.1c0.79,1.67,5.78,1.67,6.58,0c0.06-0.51,0.18-1.529,0.24-2.029C106.82,176.55,100.91,174.27,102.21,178.1
		 M102.01,180.01c-1.53,4.71,4.26,2.67,6.98,2.98C110.53,178.29,104.71,180.29,102.01,180.01z"/>
</g>
<g id="_x23_c7c7beff">
	<path fill="#C7C7BE" d="M111,158c2.66-0.02,5.32-0.02,7.99,0c0.08,9.3-0.131,18.609,0.06,27.92c4.62,0.29,9.261,0.02,13.89,0.09
		c0.021,0.75,0.061,2.26,0.08,3.021c-0.02,1.37,0.381,2.689,0.851,3.97H111C111,181.33,111,169.66,111,158z"/>
</g>
<g id="_x23_fea492ff">
	<path fill="#FEA492" d="M105.18,161.2c0.91,0.569,3.12,0.3,2.8,1.86c0.85,2.909-3.57,4.119-4.85,1.729
		C102.52,163.15,104.29,162.23,105.18,161.2z"/>
</g>
<g id="_x23_9bb95cff">
	<path fill="#9BB95C" d="M28,161.99c0.73,0.029,2.2,0.07,2.94,0.1c0.25,7.6-0.02,15.21,0.08,22.82c-0.76,0.01-2.27,0.04-3.02,0.06
		C28,177.3,28,169.65,28,161.99z"/>
</g>
<g id="_x23_87bdc9ff">
	<path fill="#87BDC9" d="M69.01,162l0.98,0.01l0.03,0.99C69.99,173,70,183,70,193h-1C69.01,182.66,68.98,172.33,69.01,162z"/>
</g>
<g id="_x23_83cdadff">
	<path fill="#83CDAD" d="M158,162.04c6.33-0.021,12.67-0.22,18.99,0.021l0.01,4.899c-6.33,0.021-12.67,0.22-18.99-0.021L158,162.04z
		"/>
</g>
<g id="_x23_97e0edff">
	<path fill="#97E0ED" d="M70.02,163c5.99,0,11.97,0,17.97,0c0.05,10-0.01,20,0.01,30H70C70,183,69.99,173,70.02,163 M73.21,168.12
		c-1.7,1.05-2.29,6.1,0.75,4.84C77.18,173,76.45,166.96,73.21,168.12z"/>
</g>
<g id="_x23_e0e0bfff">
	<path fill="#E0E0BF" d="M93.01,163c1.74,0,5.21,0,6.95,0c0.12,10,0,20,0.04,30h-7C93.01,183,92.97,173,93.01,163z"/>
</g>
<g id="_x23_96b456ff">
	<path fill="#96B456" d="M8.05,166.1c0.75-0.02,2.24-0.08,2.99-0.1c-0.62,6.3-0.59,12.63-1.03,18.93c-0.5,0-1.52-0.02-2.03-0.029
		C8.01,178.63,7.9,172.359,8.05,166.1z"/>
</g>
<g id="_x23_82963dff">
	<path fill="#82963D" d="M11.04,166c0.48-0.01,1.46-0.04,1.94-0.05c0.06,6.35,0.01,12.69,0.02,19.04
		c-0.75-0.021-2.24-0.04-2.99-0.061C10.45,178.63,10.42,172.3,11.04,166z"/>
</g>
<g id="_x23_ecebe8ff">
	<path fill="#ECEBE8" d="M102.21,167.9c0.79-1.681,5.78-1.681,6.58,0C106.6,168.12,104.4,168.12,102.21,167.9z"/>
</g>
<g id="_x23_f0fafcff">
	<path fill="#F0FAFC" d="M60.21,168.12c3.6-1.87,5.56,4.489,1.74,4.87C59.04,173.84,57.82,169.42,60.21,168.12z"/>
</g>
<g id="_x23_f7fcfdff">
	<path fill="#F7FCFD" d="M73.21,168.12c3.24-1.16,3.97,4.88,0.75,4.84C70.92,174.22,71.51,169.17,73.21,168.12z"/>
</g>
<g id="_x23_cbcbc4ff">
	<path fill="#CBCBC4" d="M102.21,167.9c2.19,0.22,4.39,0.22,6.58,0c1.3,3.819-4.61,1.55-6.82,2.029
		C102.03,169.43,102.15,168.41,102.21,167.9z"/>
</g>
<g id="_x23_c8c8c0ff">
	<path fill="#C8C8C0" d="M102.01,172.05c2.22,0.511,7.7-1.76,6.98,1.9C106.77,173.43,101.29,175.71,102.01,172.05z"/>
</g>
<g id="_x23_cdcec6ff">
	<path fill="#CDCEC6" d="M102.21,178.1c-1.3-3.83,4.61-1.55,6.82-2.029c-0.06,0.5-0.18,1.52-0.24,2.029
		C106.6,177.88,104.4,177.88,102.21,178.1z"/>
</g>
<g id="_x23_e6e6e3ff">
	<path fill="#E6E6E3" d="M102.21,178.1c2.19-0.22,4.39-0.22,6.58,0C107.99,179.77,103,179.77,102.21,178.1z"/>
</g>
<g id="_x23_c7c7b4ff">
	<path fill="#C7C7B4" d="M136.01,178c20.73,0.09,41.461-0.2,62.19,0.17c-0.28,3.6-0.21,7.21-0.229,10.83
		c-3.011-0.02-5.98-0.02-8.971,0c-2.98-0.03-5.93-0.13-8.891,0.08c-0.1,1.3-0.149,2.609-0.17,3.92h-0.879
		c-0.021-1.33-0.09-2.65-0.19-3.97c-2.591-0.15-5.181-0.14-7.761,0.03c-0.1,1.31-0.149,2.619-0.17,3.939h-0.869
		c-0.03-1.32-0.1-2.63-0.2-3.939c-2.979-0.091-5.899-0.101-8.87-0.061c-3.01-0.03-6-0.02-9,0.01c-3.01-0.029-6-0.029-9,0
		c-1.75-0.01-5.25-0.02-7-0.029C136,185.32,135.98,181.65,136.01,178 M161.83,181.061c1.75,4.42,7.91,0.6,11.16,1.939
		C173.9,177.7,164.279,182.8,161.83,181.061 M161.83,184.061c1.75,4.42,7.91,0.6,11.16,1.939
		C173.9,180.7,164.279,185.8,161.83,184.061z"/>
</g>
<g id="_x23_d7d7d1ff">
	<path fill="#D7D7D1" d="M102.01,180.01c2.7,0.28,8.52-1.72,6.98,2.98C106.27,182.68,100.48,184.72,102.01,180.01z"/>
</g>
<g id="_x23_e5e6deff">
	<path fill="#E5E6DE" d="M161.83,181.061c2.449,1.739,12.07-3.36,11.16,1.939C169.74,181.66,163.58,185.48,161.83,181.061z"/>
</g>
<g id="_x23_a5a8a2ff">
	<path fill="#A5A8A2" d="M161.83,184.061c2.449,1.739,12.07-3.36,11.16,1.939C169.74,184.66,163.58,188.48,161.83,184.061z"/>
</g>
<g id="_x23_4e4d53ff">
	<path fill="#4E4D53" d="M5.96,193c0.69-2.641-2.21-8.41,2.02-8.1c0.51,0.01,1.53,0.029,2.03,0.029c0.75,0.021,2.24,0.04,2.99,0.061
		c0.75,0,2.25,0.01,3,0.01c0.5,0,1.5,0,2,0c0.75,0,2.25,0,3,0c0.5,0,1.5,0,2,0c0.75,0,2.25-0.01,3-0.01c0.5-0.01,1.5-0.021,2-0.021
		c0.75-0.02,2.26-0.05,3.02-0.06c3.91-0.1,1.25,5.56,2.03,8.09H5.96z"/>
</g>
<g id="_x23_6c767aff">
	<path fill="#6C767A" d="M133.02,189.03c0.74-0.011,2.23-0.04,2.98-0.05c1.75,0.01,5.25,0.02,7,0.029c0,1.33-0.01,2.66-0.01,3.99
		h-9.12C133.4,191.72,133,190.4,133.02,189.03z"/>
</g>
<g id="_x23_ffca4eff">
	<path fill="#FFCA4E" d="M143,189.01c3-0.029,5.99-0.029,9,0c0,1.33,0,2.66,0,3.99h-9.01C142.99,191.67,143,190.34,143,189.01z"/>
</g>
<g id="_x23_66727aff">
	<path fill="#66727A" d="M152,189.01c3-0.029,5.99-0.04,9-0.01c0,1.33,0,2.66,0,4h-9C152,191.67,152,190.34,152,189.01z"/>
	<path fill="#66727A" d="M189,189c2.99-0.02,5.96-0.02,8.971,0c0.02,1.33,0.039,2.66,0.049,4H189C189,191.66,189,190.33,189,189z"/>
</g>
<g id="_x23_fdca50ff">
	<path fill="#FDCA50" d="M161,189c2.971-0.04,5.891-0.03,8.87,0.061c0.101,1.31,0.17,2.619,0.2,3.939H161
		C161,191.66,161,190.33,161,189z"/>
</g>
<g id="_x23_66727bff">
	<path fill="#66727B" d="M171.109,189.061c2.58-0.17,5.17-0.181,7.761-0.03c0.101,1.319,0.17,2.64,0.19,3.97h-8.121
		C170.96,191.68,171.01,190.37,171.109,189.061z"/>
</g>
<g id="_x23_feca50ff">
	<path fill="#FECA50" d="M180.109,189.08c2.961-0.21,5.91-0.11,8.891-0.08c0,1.33,0,2.66,0,4h-9.061
		C179.96,191.689,180.01,190.38,180.109,189.08z"/>
</g>
<text transform="matrix(1 0 0 1 43.0122 21.5)" fill="#EDEDED" font-family="'Arial-BoldMT'" font-size="10">HOSPITAL</text>
</svg>
