<?xml version="1.0" encoding="utf-8"?>
<!-- Generator: Adobe Illustrator 16.0.0, SVG Export Plug-In . SVG Version: 6.00 Build 0)  -->
<!DOCTYPE svg PUBLIC "-//W3C//DTD SVG 1.1//EN" "http://www.w3.org/Graphics/SVG/1.1/DTD/svg11.dtd">
<svg version="1.1" xmlns="http://www.w3.org/2000/svg" xmlns:xlink="http://www.w3.org/1999/xlink" x="0px" y="0px" width="269px"
	 height="220px" viewBox="0 0 269 220" enable-background="new 0 0 269 220" xml:space="preserve">
<g id="Capa_1">
	<g id="_x23_8a9badff">
		<path fill="#8A9BAD" d="M96.92,0h79.16c0.21,3.17,0.99,6.94-3.051,6.08C148.68,5.95,124.32,5.96,99.97,6.07
			C95.93,6.95,96.69,3.17,96.92,0z"/>
	</g>
	<g id="_x23_3f5064fe">
		<path fill="#3F5064" d="M99.97,6.07c24.35-0.11,48.709-0.12,73.059,0.01L173,7.03c-24.34-0.05-48.67-0.04-73-0.01L99.97,6.07z"/>
	</g>
	<g id="_x23_28384dff">
		<path fill="#28384D" d="M100,7.02c24.33-0.03,48.66-0.04,73,0.01c-0.01,0.49-0.02,1.47-0.02,1.97c-3.34,0-6.65-0.03-9.98,0.01
			c-0.5,0-1.5,0-2,0c-3.68-0.02-7.33-0.04-11,0c-0.5,0-1.5,0-2,0c-3.34-0.02-6.66-0.04-10,0c-0.75,0-2.25,0-3,0
			c-3.34-0.02-6.66-0.04-10,0c-0.5,0-1.5,0-2,0c-3.67-0.02-7.33-0.04-11,0c-0.5,0-1.5,0-2,0C106.67,8.99,103.35,9,100.02,9
			C100.02,8.5,100.01,7.52,100,7.02z"/>
	</g>
	<g id="_x23_15628eff">
		<path fill="#15628E" d="M100.02,9c3.33,0,6.65-0.01,9.98,0.01c-0.06,11.97,0.14,23.94-0.06,35.91c-3.32,0.09-6.62,0.11-9.93,0.09
			C99.96,33,100,21,100.02,9z"/>
		<path fill="#15628E" d="M163,9.01c3.33-0.04,6.641-0.01,9.98-0.01c0.069,12-0.021,24,0.029,36.01c-3.31,0.021-6.64,0-9.949-0.09
			C162.859,32.95,163.061,20.98,163,9.01z"/>
	</g>
	<g id="_x23_375167ff">
		<path fill="#375167" d="M110,9.01c0.5,0,1.5,0,2,0c0.06,11.99-0.14,23.98,0.06,35.96c2.73,0,8.17,0,10.89,0
			C123.12,32.98,122.94,21,123,9.01c0.5,0,1.5,0,2,0c0.09,11.87-0.24,23.74,0.16,35.6c0.43,0.15,1.31,0.43,1.75,0.58
			c0.01,0.4,0.03,1.21,0.04,1.61c-0.45,0.14-1.33,0.41-1.78,0.55c-0.35,11.87-0.21,23.75-0.11,35.62c3.29,0.07,6.62,0.11,9.92-0.17
			c1.01-0.07,2.02-0.08,3.04-0.03c3.291,0.12,6.621,0.38,9.931,0.17c0.09-11.89,0.2-23.79-0.06-35.68
			c-0.431-0.09-1.301-0.27-1.74-0.36c0-0.42,0-1.26,0-1.68c0.42-0.16,1.26-0.47,1.689-0.63c0.4-11.85,0.061-23.72,0.16-35.58
			c0.5,0,1.5,0,2,0c0.061,11.99-0.141,23.98,0.061,35.96c2.729,0,8.17,0,10.89,0C161.12,32.98,160.939,21,161,9.01c0.5,0,1.5,0,2,0
			c0.061,11.97-0.141,23.94,0.061,35.91c3.31,0.09,6.64,0.11,9.949,0.09c-0.01,0.49-0.029,1.48-0.029,1.98
			c-3.32,0.01-6.621-0.13-9.931,0.1c-0.12,11.95-0.14,23.9,0.011,35.85c3.289,0.08,6.619,0.09,9.93,0.07c0,0.49,0,1.48,0,1.98
			c-3.32,0.01-6.631-0.13-9.94,0.1c-0.069,11.3-0.19,22.6-0.01,33.891c0.91,2.899,7.12,0.239,9.95,1.029c0,0.49,0,1.48,0,1.98
			c-3.32,0-6.631-0.131-9.94,0.1c-0.11,12.301-0.12,24.6-0.03,36.891c0.91,2.91,7.131,0.239,9.961,1.02v0.99
			c-2.51,1.1-8.67-1.561-9.961,1.029c-0.01,11.98-0.16,23.98,0.021,35.961c0.899,2.899,7.12,0.25,9.94,1l0.039,0.959
			c-24.35,0.101-48.7,0.091-73.049,0.011l0.04-0.96c2.49-1.12,8.69,1.59,9.98-1.01c-0.01-11.99,0.14-23.98-0.03-35.961
			c-0.92-2.92-7.11-0.239-9.95-1.02l0.02-0.99c2.49-1.13,8.67,1.57,9.95-1.029c0.05-12.311,0.11-24.621-0.04-36.92
			c-3.31-0.091-6.61-0.091-9.92-0.07c0-0.49,0.01-1.48,0.01-1.98c2.49-1.119,8.67,1.561,9.95-1.029
			c-0.01-11.3,0.22-22.621-0.07-33.911c-3.3-0.1-6.59-0.1-9.9-0.08c0-0.49,0-1.48,0-1.98c3.3-0.02,6.63,0.13,9.94-0.1
			c0.11-11.95,0.13-23.9-0.01-35.85c-3.32-0.09-6.61-0.09-9.93-0.07c0-0.49,0-1.48,0-1.98c3.31,0.021,6.61,0,9.93-0.09
			C110.14,32.95,109.94,20.98,110,9.01 M112.03,47c-0.08,11.99-0.06,23.98,0,35.97c0.78-0.01,2.34-0.03,3.12-0.04
			c1.56,0.16,3.14,0.16,4.7,0c0.78,0.01,2.34,0.03,3.12,0.04c0.08-11.99,0.06-23.99,0-35.99l-0.98,0.07c-2.99-0.16-6-0.13-8.98-0.03
			L112.03,47 M150.029,47c-0.069,11.98-0.09,23.95,0.031,35.93c0.459,0.05,1.379,0.14,1.84,0.19c0.459-0.08,1.39-0.23,1.85-0.31
			c1.811,0.05,5.41,0.14,7.221,0.19c0.079-12.01,0.059-24.01,0-36.02l-0.98,0.07c-2.99-0.16-6-0.13-8.98-0.03L150.029,47
			 M112.03,84.99c-0.07,11.66-0.07,23.32,0,34.979c2.73,0,8.2,0.011,10.93,0.011c0.09-11.67,0.07-23.331,0.01-35l-0.98,0.07
			c-2.99-0.16-6-0.13-8.98-0.02L112.03,84.99 M125.06,85.04c-0.19,11.31-0.05,22.64-0.03,33.96c2.5,0.25,7.48,0.74,9.97,0.99
			l-0.01-0.99l0.96-0.02c0.19-11.331,0.021-22.67,0.021-34l-0.98,0.08C131.69,84.86,128.36,85.01,125.06,85.04 M137.05,85.01
			c-0.19,11.33-0.021,22.66-0.021,33.99h0.98c2.5,0.24,7.51,0.74,10.01,0.98l-0.08-0.98c0.211-11.31,0.031-22.63,0.031-33.94
			c-3.32-0.18-6.65-0.13-9.961-0.03L137.05,85.01 M150.029,84.99c-0.069,11.66-0.069,23.32,0,34.979
			c2.73,0,8.201,0.011,10.931,0.011c0.09-11.67,0.069-23.331,0.011-35l-0.98,0.07c-2.99-0.16-6-0.13-8.98-0.02L150.029,84.99
			 M124.99,121.01l0.04,0.99c-0.07,12.33-0.07,24.67,0,37c2.5,0.25,7.48,0.74,9.97,0.99l-0.01-0.99l0.97-0.02
			c0.12-12.32,0.05-24.65,0.011-36.98h-0.98C132.49,121.76,127.49,121.26,124.99,121.01 M112.05,122.01
			c-0.16,12.65-0.04,25.311-0.02,37.96c2.73,0.011,8.18,0.011,10.91,0.011c0.19-12.66,0.04-25.34,0.03-38l-0.98,0.069
			c-2.99-0.159-6-0.13-8.98-0.03L112.05,122.01 M137.04,122.01c-0.12,12.32-0.05,24.66-0.011,36.99h0.98
			c2.5,0.24,7.5,0.74,10.01,0.98L147.95,159c0.13-12.311,0.06-24.63,0.021-36.939c-3.32-0.181-6.65-0.131-9.961-0.03L137.04,122.01
			 M150.05,122.01c-0.159,12.65-0.04,25.311-0.021,37.96c2.73,0.011,8.181,0.011,10.91,0.011c0.19-12.66,0.041-25.34,0.031-38
			l-0.98,0.069c-2.99-0.159-6-0.13-8.98-0.03L150.05,122.01 M113.01,162l-0.97,0.02c-0.12,12.311-0.06,24.641,0,36.961
			c2.49,0,7.47,0.01,9.96,0.02l-0.01-0.98l0.98-0.039c0.08-11.99,0.06-23.99,0-35.98l-0.97,0.01l-0.02-0.96
			C119.58,161.76,113,158.72,113.01,162 M124.98,161.02l0.08,0.98c-0.21,12-0.03,24-0.03,36c2.5,0.25,7.48,0.74,9.97,0.99
			l-0.01-0.99l0.98-0.01c0.079-12,0.059-23.99,0-35.99h-0.98C132.49,161.76,127.48,161.26,124.98,161.02 M138,161.01l0.01,0.99
			l-0.98,0.01c-0.079,11.99-0.059,23.99,0,35.99h0.98c2.5,0.24,7.51,0.74,10.01,0.98l-0.08-0.98c0.211-12,0.031-24,0.031-36
			C145.471,161.76,140.49,161.26,138,161.01 M151.01,162l-0.98,0.01c-0.079,11.99-0.059,23.98-0.01,35.98l0.99,0.029
			c2.48,0.24,7.45,0.721,9.94,0.961c0.14-12.32,0.05-24.65,0.021-36.98L160,162.01l-0.02-0.96
			C157.58,161.76,151.01,158.72,151.01,162z"/>
	</g>
	<g id="_x23_176693ff">
		<path fill="#176693" d="M112,9.01c3.67-0.04,7.33-0.02,11,0c-0.06,11.99,0.12,23.97-0.05,35.96c-2.72,0-8.16,0-10.89,0
			C111.86,32.99,112.06,21,112,9.01z"/>
	</g>
	<g id="_x23_156796ff">
		<path fill="#156796" d="M125,9.01c3.34-0.04,6.66-0.02,10,0c0.04,6.96-0.13,13.93,0.13,20.89c-1.54,3.13-4.69,3.6-8.03,3.3
			c-0.1,3.99-0.17,7.99-0.19,11.99c-0.44-0.15-1.32-0.43-1.75-0.58C124.76,32.75,125.09,20.88,125,9.01z"/>
	</g>
	<g id="_x23_315670ff">
		<path fill="#315670" d="M135,9.01c0.75,0,2.25,0,3,0c-0.04,6.96,0.12,13.92-0.12,20.87c-0.909-0.22-1.851-0.22-2.75,0.02
			C134.87,22.94,135.04,15.97,135,9.01z"/>
	</g>
	<g id="_x23_156896ff">
		<path fill="#156896" d="M138,9.01c3.34-0.04,6.66-0.02,10,0c-0.1,11.86,0.24,23.73-0.16,35.58c-0.43,0.16-1.27,0.47-1.689,0.63
			c-0.051-4.01-0.131-8.02-0.26-12.02c-3.67,1.14-6.381-0.47-8.011-3.32C138.12,22.93,137.96,15.97,138,9.01z"/>
	</g>
	<g id="_x23_17618dff">
		<path fill="#17618D" d="M150,9.01c3.67-0.04,7.32-0.02,11,0c-0.061,11.99,0.12,23.97-0.05,35.96c-2.72,0-8.16,0-10.89,0
			C149.859,32.99,150.061,21,150,9.01z"/>
	</g>
	<g id="_x23_c3bebdff">
		<path fill="#C3BEBD" d="M236.04,27c0.479,0,1.431,0.02,1.91,0.03c0.229,5.979,0,11.97,0.05,17.96c-0.5,0-1.5,0-2,0
			C235.98,38.99,235.91,32.99,236.04,27z"/>
	</g>
	<g id="_x23_7e95a9ff">
		<path fill="#7E95A9" d="M135.13,29.9c0.899-0.24,1.841-0.24,2.75-0.02c1.63,2.85,4.341,4.46,8.011,3.32
			c0.129,4,0.209,8.01,0.26,12.02c0,0.42,0,1.26,0,1.68c-1.25,4.39-3.74,8.49-8.131,10.22c-0.76,0-2.279,0-3.04,0
			c-4.47-1.71-6.88-5.9-8.03-10.32c-0.01-0.4-0.03-1.21-0.04-1.61c0.02-4,0.09-8,0.19-11.99C130.44,33.5,133.59,33.03,135.13,29.9
			 M135.32,33.37c-1.93,1.1-4.05,1.68-6.25,1.83c-0.25,6.52-1.16,17.37,6.98,19.79c8.82-1.06,8.83-13.18,7.89-19.75
			C140.811,35.65,138.25,32.49,135.32,33.37z"/>
	</g>
	<g id="_x23_687f90ff">
		<path fill="#687F90" d="M135.32,33.37c2.93-0.88,5.49,2.28,8.619,1.87c0.94,6.57,0.931,18.69-7.89,19.75
			c-8.14-2.42-7.23-13.271-6.98-19.79C131.27,35.05,133.39,34.47,135.32,33.37 M133.27,39.99c0.42,0.29,1.24,0.87,1.66,1.15
			c0.02,2.72,0.07,8.14,0.089,10.85L135.99,52l0.029,0.99c0.24-0.24,0.74-0.74,0.99-0.99l0.971-0.01
			c0.02-2.71,0.069-8.13,0.09-10.85c0.42-0.28,1.24-0.86,1.66-1.15C139.16,38.08,133.84,38.08,133.27,39.99z"/>
	</g>
	<g id="_x23_8fa9b7ff">
		<path fill="#8FA9B7" d="M133.27,39.99c0.57-1.91,5.89-1.91,6.46,0C137.57,39.95,135.42,39.95,133.27,39.99z"/>
	</g>
	<g id="_x23_a4ceeaff">
		<path fill="#A4CEEA" d="M133.27,39.99c2.15-0.04,4.3-0.04,6.46,0c-0.42,0.29-1.24,0.87-1.66,1.15l-1.051,0.05h-1.039l-1.05-0.05
			C134.51,40.86,133.69,40.28,133.27,39.99z"/>
	</g>
	<g id="_x23_aeb5b2ff">
		<path fill="#AEB5B2" d="M134.93,41.14l1.05,0.05c0,3.6,0.029,7.21,0.01,10.81l-0.971-0.01C135,49.28,134.95,43.86,134.93,41.14z"
			/>
		<path fill="#AEB5B2" d="M137.02,41.19l1.051-0.05c-0.021,2.72-0.07,8.14-0.09,10.85L137.01,52C136.99,48.4,137,44.79,137.02,41.19
			z"/>
	</g>
	<g id="_x23_d2dddaff">
		<path fill="#D2DDDA" d="M135.98,41.19h1.039c-0.02,3.6-0.029,7.21-0.01,10.81c-0.25,0.25-0.75,0.75-0.99,0.99L135.99,52
			C136.01,48.4,135.98,44.79,135.98,41.19z"/>
	</g>
	<g id="_x23_4a4037ff">
		<path fill="#4A4037" d="M173.01,45.01C194,44.98,215,45.03,236,44.99c0.5,0,1.5,0,2,0c8.66,0.07,17.32-0.11,25.99,0.06
			c0.48,3.28,1.05,6.86-3.01,6.12c-23.711-0.37-47.41-0.06-71.11-0.19C184.25,50.97,178.63,51,173.02,51
			c-0.02-1.34-0.029-2.68-0.039-4.01C172.98,46.49,173,45.5,173.01,45.01z"/>
	</g>
	<g id="_x23_1a72aeff">
		<path fill="#1A72AE" d="M100.01,46.99c3.32-0.021,6.61-0.021,9.93,0.07c0.14,11.95,0.12,23.9,0.01,35.85
			c-3.31,0.23-6.64,0.08-9.94,0.1C99.96,71.01,100,59,100.01,46.99z"/>
		<path fill="#1A72AE" d="M151.01,47.02c2.98-0.1,5.99-0.13,8.98,0.03c-0.17,11.25,0.34,22.53-0.11,33.77
			c-1.771,1.28-3.81,1.94-6.13,1.99c-0.46,0.08-1.391,0.23-1.85,0.31C149.23,71.4,151.96,58.96,151.01,47.02z"/>
		<path fill="#1A72AE" d="M163.05,47.09c3.31-0.23,6.61-0.09,9.931-0.1c0.01,1.33,0.02,2.67,0.039,4.01
			c-0.06,10.67,0.021,21.34-0.029,32.01c-3.311,0.021-6.641,0.01-9.93-0.07C162.91,70.99,162.93,59.04,163.05,47.09z"/>
	</g>
	<g id="_x23_1e6ca1ff">
		<path fill="#1E6CA1" d="M112.03,47l0.98,0.02c0.08,10.99-0.19,21.98,0.02,32.97c-0.29,1.56,1.01,2.25,2.12,2.94
			c-0.78,0.01-2.34,0.03-3.12,0.04C111.97,70.98,111.95,58.99,112.03,47z"/>
	</g>
	<g id="_x23_1a71aeff">
		<path fill="#1A71AE" d="M113.01,47.02c2.98-0.1,5.99-0.13,8.98,0.03c-0.08,10.98,0.19,21.96-0.02,32.94
			c0.29,1.56-1.02,2.24-2.12,2.94c-1.56,0.16-3.14,0.16-4.7,0c-1.11-0.69-2.41-1.38-2.12-2.94C112.82,69,113.09,58.01,113.01,47.02z
			"/>
	</g>
	<g id="_x23_256594ff">
		<path fill="#256594" d="M121.99,47.05l0.98-0.07c0.06,12,0.08,24,0,35.99c-0.78-0.01-2.34-0.03-3.12-0.04
			c1.1-0.7,2.41-1.38,2.12-2.94C122.18,69.01,121.91,58.03,121.99,47.05z"/>
		<path fill="#256594" d="M150.029,47l0.98,0.02c0.95,11.94-1.779,24.38,0.891,36.1c-0.461-0.05-1.381-0.14-1.84-0.19
			C149.939,70.95,149.96,58.98,150.029,47z"/>
	</g>
	<g id="_x23_1b72afff">
		<path fill="#1B72AF" d="M125.17,47.35c0.45-0.14,1.33-0.41,1.78-0.55c1.15,4.42,3.56,8.61,8.03,10.32
			c0.02,8.56,0.049,17.12,0,25.68c-3.3,0.28-6.63,0.24-9.92,0.17C124.96,71.1,124.82,59.22,125.17,47.35z"/>
		<path fill="#1B72AF" d="M146.15,46.9c0.439,0.09,1.31,0.27,1.74,0.36c0.26,11.89,0.149,23.79,0.06,35.68
			c-3.31,0.21-6.64-0.05-9.931-0.17c-0.01-8.55-0.069-17.1,0-25.65C142.41,55.39,144.9,51.29,146.15,46.9z"/>
	</g>
	<g id="_x23_1e6ca2ff">
		<path fill="#1E6CA2" d="M159.99,47.05l0.98-0.07c0.059,12.01,0.079,24.01,0,36.02c-1.811-0.05-5.41-0.14-7.221-0.19
			c2.32-0.05,4.359-0.71,6.13-1.99C160.33,69.58,159.82,58.3,159.99,47.05z"/>
	</g>
	<g id="_x23_6d4e2fff">
		<path fill="#6D4E2F" d="M173.02,51c5.61,0,11.23-0.03,16.851-0.02c-0.61,6.07-2.49,13.05,0.36,18.79
			c2.279,1.35,10.119-1.94,9.76,3.1c-3.11,1.03-6.461,0.72-9.61,1.52c-1.55,2.05-3.909,2.95-6.19,3.95
			c-0.84,2.95,2.92,2.73,4.801,2.5c0.85,5.9-1.52,13.01,0.689,18.48c6.641,1.61,14.301,0.15,21.301,0.73c0,0.73,0,2.18,0,2.9
			c-6.92,0.18-13.86-0.15-20.78,0.17c-4,4.99,1.8,13.899-2.46,18.729c-4.57,0.23-9.141-0.02-13.7,0.24
			c0.08,2.65-1.37,7.44,4.96,3.88c2.57,1.521,7.73-1.78,9.721,1.28c2.129,3.77-4.451,1.16-6.73,1.78c-2.86-1.011-4.58,4.34-1.32,4.3
			c2.4,1.65,9.42-1.46,8.359,3.51c-1.579,1.061-5.27,0.29-4.979,2.9c2.44,0.08,4.81,0.76,6.03,3.06c-1.65,0.87-3.43,1.46-5.051,2.39
			c-0.85,3.261,3.07,3.42,4.91,5.03c0.261,2.94,0.4,6.12-0.92,8.86c-4.6,0.08-9.229-0.46-13.799,0.08
			c-1.391,0.779-1.24,2.37-1.291,3.74c4.881,0.609,10.301-1.101,14.87,1.289c0.21,1.32,0.36,2.65,0.44,4
			c-0.42,5.11,3.31,11.841-2.311,14.92c0.49,2.801,4.15,4.41,3.051,7.711c-0.44,0.01-1.33,0.039-1.771,0.05
			c-0.94-0.83-1.569-0.89-1.87-0.16c-0.73,2.13-1.51,4.25-2.38,6.34c-3.66-0.04-7.3-0.05-10.95-0.05
			c-0.05-11.67,0.051-23.34-0.02-35.01l-0.01-1V160l0.01-0.99c0.029-12.35,0.02-24.68,0-37.02c0-0.5,0-1.49,0-1.98v-1
			c0.02-11.35,0.039-22.68,0-34.02c0-0.5,0-1.49,0-1.98C173.04,72.34,172.96,61.67,173.02,51 M174.029,92.02
			c-0.079,1.32-0.079,2.64,0,3.96c2.48,0,7.461,0,9.941,0c0.069-1.32,0.069-2.64,0-3.96C181.49,92.02,176.51,92.02,174.029,92.02z"
			/>
	</g>
	<g id="_x23_7a5936ff">
		<path fill="#7A5936" d="M189.87,50.98c23.7,0.13,47.399-0.18,71.11,0.19l0.06,1c-22.86,3.44-46.021-1.42-68.88,2.06
			c-0.35,4.54-1.25,9.06-1.16,13.64c4.34,0.3,14.49-1.48,10.99,6.99c-4.801,0.12-13.6-1.29-13,5.98
			c-1.881,0.23-5.641,0.45-4.801-2.5c2.281-1,4.641-1.9,6.19-3.95c3.149-0.8,6.5-0.49,9.61-1.52c0.359-5.04-7.48-1.75-9.76-3.1
			C187.38,64.03,189.26,57.05,189.87,50.98z"/>
	</g>
	<g id="_x23_7f5d37ff">
		<path fill="#7F5D37" d="M192.16,54.23c22.859-3.48,46.02,1.38,68.88-2.06c0.84,3.19,0.8,6.43,0.101,9.63
			c-3.561-0.86-10.961-1.57-10.061,3.98c2.439,2.68,6.75,0.68,9.96,1.31c0.66,10.93,0.69,21.72,0.2,32.66
			c-11.41,0.55-22.84-0.02-34.25,0.33c-0.02,1.43-0.34,3.32,1.66,3.32c10.91,0.95,22.17,1.31,33.05-0.49
			c-0.171,7.02-0.601,14.06,0.05,21.09c-1.41,7.28-0.641,14.75-0.141,22.1c-0.31,4.67-0.68,9.34,0.15,14
			c-9.779-1.81-19.82-1.09-29.71-1.039c-3.61,0.049-2.78,8.92,2.95,4.01c8.76,0.729,17.529-0.48,26.3,0.14
			c-0.149,9-1.319,18.25,0.931,27.09c-0.92,4.06-2.051,8.28-1.291,12.61c-2.68,0.14-5.42-0.141-7.879,1.02
			c0.09-4.6,0.119-10.83-3.9-14.02c-0.2,0.49-0.61,1.46-0.811,1.949c-0.82,2.15-1.649,4.301-2.58,6.41
			c-0.879-3.01-1.72-6.16-3.77-8.629c-1.971,2.299-2.49,5.39-3.3,8.219l-0.8,0.551c-1.44-2.68-1.291-7.44-4.45-8.44l-0.271,0.64
			c-2.52,5.301-3.38,11.871-1.26,17.41c-0.72,0-2.17-0.01-2.891-0.01c-0.119-15.369-2.279-30.64-3.119-45.97
			c-1.16-2.17-3.82-3.17-5.311-5.149c6.99-1.4,14.141-0.58,21.2-1.051c1.57-0.76,1.57-2.98-0.06-3.67
			c-10.25-0.35-20.51-0.24-30.76-0.109c-1.11,3.5,2.619,4.01,5.109,4.59c-1.82,1.619-3.93,3.14-5.04,5.369
			c-0.229,3.99-0.87,7.961-1.06,11.961c-5.34-0.041-10.68-0.021-16.01,0.08c0.08,1.659-0.5,3.83,1.279,4.81
			c4.85-0.13,10.07,1.14,14.721-0.771c-0.641,9.98-1.91,19.931-2.021,29.95c-0.72-0.03-2.17-0.09-2.89-0.13
			c2.57-5.52,1.92-12.52-1.811-17.29c-2.46-1.33-2.83,4.36-3.51,6.229c-0.4,0.031-1.2,0.091-1.6,0.121
			c-0.471-2.011-1.561-8.09-3.971-6.371c-1.47,2.99-2.369,6.24-2.459,9.591c-1.171-3.11-2.271-6.25-3.511-9.33
			c0.44-0.011,1.33-0.04,1.771-0.05c1.1-3.301-2.561-4.91-3.051-7.711c5.62-3.079,1.891-9.81,2.311-14.92
			c0.57-3.09-1.01-6.08-0.221-9.109c1.32-2.74,1.181-5.92,0.92-8.86c-1.84-1.61-5.76-1.77-4.91-5.03c1.621-0.93,3.4-1.52,5.051-2.39
			c-1.221-2.3-3.59-2.979-6.03-3.06c-0.29-2.61,3.4-1.84,4.979-2.9c3.211-0.42,0.5-3.109,0.121-4.93
			c2.82-8.6,0.16-17.96,2.029-26.83c7.16-0.72,14.82,1.14,21.75-1.25c0.51-2.26-0.17-4.44-2.209-5.63
			c-6.531-0.18-13.051-0.28-19.57-0.28c-0.311-5.19-0.41-10.38-0.541-15.57c-0.399-0.38-1.219-1.13-1.619-1.51
			c-0.6-7.27,8.199-5.86,13-5.98c3.5-8.47-6.65-6.69-10.99-6.99C190.91,63.29,191.811,58.77,192.16,54.23 M203.96,55.04
			c0.021,1.39-0.17,3.01,1.22,3.83c10.19,0.27,20.4,0.22,30.6-0.01c1.441-0.78,1.24-2.41,1.24-3.8
			C226,54.86,214.98,55.01,203.96,55.04 M193.221,62.14c-1.451,0.78-1.24,2.42-1.24,3.82c8.68,0.11,17.369,0.09,26.06-0.01
			c-0.04-1.38,0.2-3.02-1.24-3.79C208.96,61.61,201.07,62.06,193.221,62.14 M231.96,70.05c-0.12,1.52,0,3.95,2.08,3.89
			c6.319,0.03,12.91,0.75,19.06-0.81c1.721-0.15,0.711-2.5-0.279-2.99C245.87,69.8,238.91,69.99,231.96,70.05 M209.029,77.03
			c-0.079,1.31-0.079,2.62,0,3.92c8.971,0.16,17.961,0.06,26.941,0.02c0.069-1.31,0.069-2.62,0-3.92
			C226.99,76.88,218.01,76.99,209.029,77.03 M193.33,84.35c-2.68-0.08-3.17,3.2-1.141,4.51c6.851,0.33,13.73,0.22,20.59-0.01
			c3.421-2.5-1.35-4.49-3.75-4.57C203.9,85.83,198.62,82.56,193.33,84.35 M203.029,92.03c-0.079,1.31-0.079,2.62,0,3.92
			c7.33,0.19,14.671,0.06,22.011,0c-0.03-1.38,0.16-3-1.22-3.82C216.891,91.81,209.95,91.99,203.029,92.03 M239.029,92.03
			c-0.079,1.31-0.079,2.63-0.01,3.939c5.25,0.14,10.5,0.1,15.76-0.12c1.57-0.76,1.551-2.9,0.041-3.71
			C249.55,91.91,244.29,91.87,239.029,92.03 M231.23,114.15c-1.74,0.939-1.701,3.709-0.041,4.72c6.84,0.31,13.721,0.21,20.58-0.021
			c1.73-0.939,1.701-3.709,0.041-4.72C244.96,113.811,238.08,113.92,231.23,114.15 M215.029,137.03c-0.079,1.31-0.079,2.62,0,3.92
			c10.57,0.09,21.16,0.21,31.74-0.13c1.891-0.76,0.431-2.41,0.051-3.69C236.23,136.77,225.62,137.05,215.029,137.03 M230.99,174.04
			c0.1,1.64-0.53,3.81,1.21,4.8c5.909,0.551,11.87,0.03,17.81,0.15c3.28,1.96,5.07-0.44,6.801-2.221
			c1.25-2.81-4.41-4.369-5.801-2.76C244.33,173.939,237.66,173.95,230.99,174.04z"/>
	</g>
	<g id="_x23_8a6138ff">
		<path fill="#8A6138" d="M203.96,55.04c11.021-0.03,22.04-0.18,33.06,0.02c0,1.39,0.201,3.02-1.24,3.8
			c-10.199,0.23-20.409,0.28-30.6,0.01C203.79,58.05,203.98,56.43,203.96,55.04z"/>
	</g>
	<g id="_x23_325875ff">
		<path fill="#325875" d="M134.98,57.12c0.76,0,2.28,0,3.04,0c-0.069,8.55-0.01,17.1,0,25.65c-1.02-0.05-2.029-0.04-3.04,0.03
			C135.029,74.24,135,65.68,134.98,57.12z"/>
	</g>
	<g id="_x23_745533fe">
		<path fill="#745533" d="M251.08,65.78c-0.9-5.55,6.5-4.84,10.061-3.98c1.35,1.6,0.629,3.61-0.101,5.29
			C257.83,66.46,253.52,68.46,251.08,65.78z"/>
	</g>
	<g id="_x23_886138ff">
		<path fill="#886138" d="M193.221,62.14c7.85-0.08,15.739-0.53,23.579,0.02c1.44,0.77,1.2,2.41,1.24,3.79
			c-8.69,0.1-17.38,0.12-26.06,0.01C191.98,64.56,191.77,62.92,193.221,62.14z"/>
	</g>
	<g id="_x23_876138ff">
		<path fill="#876138" d="M231.96,70.05c6.95-0.06,13.91-0.25,20.86,0.09c0.99,0.49,2,2.84,0.279,2.99
			c-6.149,1.56-12.74,0.84-19.06,0.81C231.96,74,231.84,71.57,231.96,70.05z"/>
		<path fill="#876138" d="M203.029,92.03c6.921-0.04,13.861-0.22,20.791,0.1c1.38,0.82,1.189,2.44,1.22,3.82
			c-7.34,0.06-14.681,0.19-22.011,0C202.95,94.65,202.95,93.34,203.029,92.03z"/>
		<path fill="#876138" d="M235,163.07c-5.73,4.91-6.561-3.961-2.95-4.01c9.89-0.051,19.931-0.771,29.71,1.039
			c0.08,1.07-0.07,2.101-0.46,3.11C252.529,162.59,243.76,163.8,235,163.07z"/>
	</g>
	<g id="_x23_715130ff">
		<path fill="#715130" d="M209.029,77.03c8.98-0.04,17.961-0.15,26.941,0.02c0.069,1.3,0.069,2.61,0,3.92
			c-8.98,0.04-17.971,0.14-26.941-0.02C208.95,79.65,208.95,78.34,209.029,77.03z"/>
	</g>
	<g id="_x23_775734ff">
		<path fill="#775734" d="M188.99,80.84c0.4,0.38,1.22,1.13,1.619,1.51c0.131,5.19,0.23,10.38,0.541,15.57
			c6.52,0,13.039,0.1,19.57,0.28c2.039,1.19,2.719,3.37,2.209,5.63c-6.93,2.39-14.59,0.53-21.75,1.25
			c-1.869,8.87,0.791,18.23-2.029,26.83c0.379,1.82,3.09,4.51-0.121,4.93c1.061-4.97-5.959-1.859-8.359-3.51
			c-3.26,0.04-1.54-5.311,1.32-4.3c2.279-0.62,8.859,1.989,6.73-1.78c-1.99-3.061-7.15,0.24-9.721-1.28
			c-6.33,3.561-4.88-1.229-4.96-3.88c4.56-0.26,9.13-0.01,13.7-0.24c4.26-4.83-1.54-13.74,2.46-18.729
			c6.92-0.32,13.86,0.01,20.78-0.17c0-0.72,0-2.17,0-2.9c-7-0.58-14.66,0.88-21.301-0.73C187.471,93.85,189.84,86.74,188.99,80.84z"
			/>
	</g>
	<g id="_x23_8a6038ff">
		<path fill="#8A6038" d="M193.33,84.35c5.29-1.79,10.57,1.48,15.699-0.07c2.4,0.08,7.171,2.07,3.75,4.57
			c-6.859,0.23-13.739,0.34-20.59,0.01C190.16,87.55,190.65,84.27,193.33,84.35z"/>
	</g>
	<g id="_x23_1a78aeff">
		<path fill="#1A78AE" d="M100.01,84.99c3.31-0.021,6.6-0.021,9.9,0.08c0.29,11.29,0.06,22.61,0.07,33.911
			c-3.33,0-6.64,0.02-9.96,0.029L99.98,118C100.02,107,99.96,96,100.01,84.99z"/>
	</g>
	<g id="_x23_236d99ff">
		<path fill="#236D99" d="M112.03,84.99l0.98,0.04c0.12,11.31-0.26,22.63,0.08,33.93c2.93,0.01,5.92,0.22,8.86-0.04
			c0.17-11.29,0.02-22.58,0.04-33.87l0.98-0.07c0.06,11.67,0.08,23.33-0.01,35c-2.73,0-8.2-0.011-10.93-0.011
			C111.96,108.31,111.96,96.65,112.03,84.99z"/>
		<path fill="#236D99" d="M150.029,84.99l0.98,0.04c0.12,11.31-0.26,22.63,0.08,33.93c2.92,0.01,5.92,0.22,8.86-0.04
			c0.17-11.29,0.01-22.58,0.04-33.87l0.98-0.07c0.059,11.67,0.079,23.33-0.011,35c-2.729,0-8.2-0.011-10.931-0.011
			C149.96,108.31,149.96,96.65,150.029,84.99z"/>
	</g>
	<g id="_x23_1a79aeff">
		<path fill="#1A79AE" d="M113.01,85.03c2.98-0.11,5.99-0.14,8.98,0.02c-0.02,11.29,0.13,22.58-0.04,33.87
			c-2.94,0.26-5.93,0.05-8.86,0.04C112.75,107.66,113.13,96.34,113.01,85.03z"/>
		<path fill="#1A79AE" d="M151.01,85.03c2.98-0.11,5.99-0.14,8.98,0.02c-0.03,11.29,0.13,22.58-0.04,33.87
			c-2.94,0.26-5.94,0.05-8.86,0.04C150.75,107.66,151.13,96.34,151.01,85.03z"/>
		<path fill="#1A79AE" d="M163.05,85.09c3.31-0.23,6.62-0.09,9.94-0.1c0.039,11.34,0.02,22.67,0,34.02
			c-3.33-0.02-6.631,0-9.95-0.029C162.859,107.69,162.98,96.39,163.05,85.09z"/>
	</g>
	<g id="_x23_4f8eb9ff">
		<path fill="#4F8EB9" d="M125.06,85.04c3.3-0.03,6.63-0.18,9.93,0.02c0.01,11.31,0.02,22.63,0,33.94c-3.33-0.01-6.64,0-9.96,0
			C125.01,107.68,124.87,96.35,125.06,85.04z"/>
		<path fill="#4F8EB9" d="M138.01,85.03c3.311-0.1,6.641-0.15,9.961,0.03c0,11.31,0.18,22.63-0.031,33.94
			c-3.319-0.01-6.619,0-9.93,0C137.99,107.67,137.99,96.35,138.01,85.03z"/>
		<path fill="#4F8EB9" d="M138.01,122.03c3.311-0.101,6.641-0.15,9.961,0.03c0.039,12.31,0.109,24.629-0.021,36.939
			c-3.32-0.01-6.62,0-9.94,0C137.99,146.67,137.99,134.35,138.01,122.03z"/>
		<path fill="#4F8EB9" d="M151.01,122.02c2.98-0.1,5.99-0.129,8.98,0.03c-0.04,12.29,0.14,24.58-0.04,36.87
			c-2.95,0.26-5.96,0.05-8.89,0.05C150.859,146.65,151.061,134.34,151.01,122.02z"/>
	</g>
	<g id="_x23_406380ff">
		<path fill="#406380" d="M134.99,85.06l0.98-0.08c0,11.33,0.17,22.67-0.021,34l-0.96,0.02C135.01,107.69,135,96.37,134.99,85.06z"
			/>
	</g>
	<g id="_x23_3e6380ff">
		<path fill="#3E6380" d="M137.05,85.01l0.96,0.021c-0.02,11.32-0.02,22.64,0,33.97h-0.98
			C137.029,107.67,136.859,96.34,137.05,85.01z"/>
	</g>
	<g id="_x23_745734ff">
		<path fill="#745734" d="M174.029,92.02c2.48,0,7.461,0,9.941,0c0.069,1.32,0.069,2.64,0,3.96c-2.48,0-7.461,0-9.941,0
			C173.95,94.66,173.95,93.34,174.029,92.02z"/>
	</g>
	<g id="_x23_715230ff">
		<path fill="#715230" d="M239.029,92.03c5.261-0.16,10.521-0.12,15.791,0.11c1.51,0.81,1.529,2.95-0.041,3.71
			c-5.26,0.22-10.51,0.26-15.76,0.12C238.95,94.66,238.95,93.34,239.029,92.03z"/>
	</g>
	<g id="_x23_876137ff">
		<path fill="#876137" d="M226.99,100.08c11.41-0.35,22.84,0.22,34.25-0.33c0.48,1.01,0.64,2.06,0.46,3.16
			c-10.88,1.8-22.14,1.44-33.05,0.49C226.65,103.4,226.971,101.51,226.99,100.08z"/>
	</g>
	<g id="_x23_c5c1bfff">
		<path fill="#C5C1BF" d="M33.02,103c0.48,0,1.45,0.02,1.93,0.02c0.26,4.77-0.08,9.55-0.18,14.32c-0.4-0.01-1.19-0.04-1.58-0.06
			C32.88,112.53,32.96,107.75,33.02,103z"/>
	</g>
	<g id="_x23_bfbcbaff">
		<path fill="#BFBCBA" d="M43.11,117.35c0.77-2.069-2.55-9.22,0.85-8.28c0.08,2.76,0.05,5.52-0.08,8.28H43.11z"/>
	</g>
	<g id="_x23_725331ff">
		<path fill="#725331" d="M231.23,114.15c6.85-0.23,13.729-0.34,20.58-0.021c1.66,1.011,1.689,3.78-0.041,4.72
			c-6.859,0.23-13.74,0.33-20.58,0.021C229.529,117.859,229.49,115.09,231.23,114.15z"/>
	</g>
	<g id="_x23_585141ff">
		<path fill="#585141" d="M33.19,117.28c0.39,0.02,1.18,0.05,1.58,0.06c2.68,1.11,5.57,0.391,8.34,0.01h0.77
			c18.65,1.45,37.41,0.271,56.1,0.65l0.04,1.01l0.01,1c0,0.5-0.01,1.49-0.01,1.98L99.99,123c-31.12,0.141-62.24-0.29-93.35,0.21
			c-0.14-1.29-0.43-3.86-0.57-5.149C15.1,117.689,24.2,118.609,33.19,117.28z"/>
	</g>
	<g id="_x23_246b96ff">
		<path fill="#246B96" d="M100.02,119.01c3.32-0.01,6.63-0.029,9.96-0.029c-1.28,2.59-7.46-0.09-9.95,1.029L100.02,119.01z"/>
	</g>
	<g id="_x23_46769aff">
		<path fill="#46769A" d="M125.03,119c3.32,0,6.63-0.01,9.96,0l0.01,0.99C132.51,119.74,127.53,119.25,125.03,119z"/>
	</g>
	<g id="_x23_46779aff">
		<path fill="#46779A" d="M138.01,119c3.311,0,6.61-0.01,9.93,0l0.08,0.98C145.52,119.74,140.51,119.24,138.01,119z"/>
	</g>
	<g id="_x23_246c98ff">
		<path fill="#246C98" d="M163.04,118.98c3.319,0.029,6.62,0.01,9.95,0.029v1C170.16,119.22,163.95,121.88,163.04,118.98z"/>
	</g>
	<g id="_x23_426679ff">
		<path fill="#426679" d="M124.99,121.01c2.5,0.25,7.5,0.75,10,0.99c-3.33-0.01-6.63,0-9.96,0L124.99,121.01z"/>
	</g>
	<g id="_x23_4186b3ff">
		<path fill="#4186B3" d="M100.02,121.99c3.31-0.021,6.61-0.021,9.92,0.07c0.15,12.299,0.09,24.609,0.04,36.92
			c-3.32,0-6.63,0.02-9.95,0.029c-0.02-1.34-0.04-2.67-0.05-4c0-1.75,0.01-5.26,0.01-7.01c0.02-3.02,0.03-6.02,0-9.03
			c0.02-1.659,0.02-3.31,0-4.97c0-0.75,0-2.25,0-3c0.02-1.67,0.02-3.34-0.01-5c0.01-0.75,0.01-2.25,0.01-3L100.02,121.99z"/>
	</g>
	<g id="_x23_4b7e93ff">
		<path fill="#4B7E93" d="M112.05,122.01l0.96,0.01c0.05,12.32-0.15,24.631,0.05,36.95c2.94,0,5.94,0.21,8.89-0.05
			c0.18-12.29,0-24.58,0.04-36.87l0.98-0.069c0.01,12.66,0.16,25.34-0.03,38c-2.73,0-8.18,0-10.91-0.011
			C112.01,147.32,111.89,134.66,112.05,122.01z"/>
	</g>
	<g id="_x23_5697aeff">
		<path fill="#5697AE" d="M113.01,122.02c2.98-0.1,5.99-0.129,8.98,0.03c-0.04,12.29,0.14,24.58-0.04,36.87
			c-2.95,0.26-5.95,0.05-8.89,0.05C112.86,146.65,113.06,134.34,113.01,122.02z"/>
		<path fill="#5697AE" d="M113.01,162c3,0,5.98-0.01,8.99,0.01c-0.01,12,0.01,24.01-0.01,36.01c-2.97,0.021-5.97-0.06-8.93-0.109
			C112.86,185.939,113.05,173.97,113.01,162z"/>
		<path fill="#5697AE" d="M163.02,162.02c3.32-0.02,6.631-0.029,9.971-0.029c0.07,11.67-0.03,23.34,0.02,35.01l-0.029,1
			c-3.33-0.02-6.621,0.01-9.94-0.02C162.859,186,163.01,174,163.02,162.02z"/>
	</g>
	<g id="_x23_63a7b3ff">
		<path fill="#63A7B3" d="M125.03,122c3.33,0,6.63-0.01,9.96,0c0.01,12.33,0.02,24.67,0,37c-3.33-0.01-6.63,0-9.96,0
			C124.96,146.67,124.96,134.33,125.03,122z"/>
		<path fill="#63A7B3" d="M125.06,162c3.32,0,6.61-0.01,9.93,0c0.01,12,0.02,24,0,36c-3.33-0.02-6.63,0-9.96,0
			C125.03,186,124.85,174,125.06,162z"/>
	</g>
	<g id="_x23_44697eff">
		<path fill="#44697E" d="M134.99,122h0.98c0.039,12.33,0.109,24.66-0.011,36.98l-0.97,0.02C135.01,146.67,135,134.33,134.99,122z"
			/>
	</g>
	<g id="_x23_40637fff">
		<path fill="#40637F" d="M137.04,122.01l0.97,0.021c-0.02,12.319-0.02,24.64,0,36.97h-0.98
			C136.99,146.67,136.92,134.33,137.04,122.01z"/>
	</g>
	<g id="_x23_47789bff">
		<path fill="#47789B" d="M150.05,122.01l0.96,0.01c0.051,12.32-0.15,24.631,0.051,36.95c2.93,0,5.939,0.21,8.89-0.05
			c0.18-12.29,0-24.58,0.04-36.87l0.98-0.069c0.01,12.66,0.159,25.34-0.031,38c-2.729,0-8.18,0-10.91-0.011
			C150.01,147.32,149.891,134.66,150.05,122.01z"/>
	</g>
	<g id="_x23_4186b4ff">
		<path fill="#4186B4" d="M163.05,122.09c3.31-0.23,6.62-0.1,9.94-0.1c0.02,12.34,0.029,24.67,0,37.02
			c-3.34-0.02-6.641,0-9.971-0.029C162.93,146.689,162.939,134.391,163.05,122.09z"/>
	</g>
	<g id="_x23_453b32ff">
		<path fill="#453B32" d="M6.64,123.21c31.11-0.5,62.23-0.069,93.35-0.21c0,0.75,0,2.25-0.01,3c-30.63-0.13-61.28,0.24-91.91-0.16
			c-0.38-0.199-1.15-0.609-1.53-0.82C6.56,124.57,6.61,123.66,6.64,123.21z"/>
		<path fill="#453B32" d="M6.7,131.22c31.09-0.52,62.2-0.069,93.29-0.22c0,0.75,0,2.25,0,3c-31.07-0.13-62.14,0.26-93.21-0.2
			C6.76,133.16,6.72,131.87,6.7,131.22z"/>
	</g>
	<g id="_x23_585041ff">
		<path fill="#585041" d="M6.7,131.22c-0.54-2.02-0.6-4.09-0.16-6.2c0.38,0.211,1.15,0.621,1.53,0.82
			c30.63,0.4,61.28,0.03,91.91,0.16c0.03,1.66,0.03,3.33,0.01,5C68.9,131.15,37.79,130.7,6.7,131.22z"/>
		<path fill="#585041" d="M6.04,138.91c0.19-1.28,0.56-3.83,0.74-5.11c31.07,0.46,62.14,0.07,93.21,0.2c0.02,1.66,0.02,3.311,0,4.97
			c-4.36,0.38-8.97-0.7-13.22,0.7c-0.39,0.01-1.17,0.03-1.56,0.04c-13.02-0.71-26.47-1.76-39.4-0.06l-0.84,0.229l-0.8-0.11
			c-3.7-0.629-7.42-0.89-11.17-0.789c-6-0.03-12-0.011-18,0.05C12.01,139.02,9.03,138.97,6.04,138.91z"/>
	</g>
	<g id="_x23_705131ff">
		<path fill="#705131" d="M215.029,137.03c10.591,0.02,21.201-0.261,31.791,0.1c0.38,1.28,1.84,2.931-0.051,3.69
			c-10.58,0.34-21.17,0.22-31.74,0.13C214.95,139.65,214.95,138.34,215.029,137.03z"/>
	</g>
	<g id="_x23_d4af80fd">
		<path fill="#D4AF80" d="M15,139.03c6-0.061,12-0.08,18-0.05c0,2.989,0,6.01-0.01,9.02c-5,0-9.99-0.03-14.99,0.02
			c-0.5,0-1.5-0.01-2-0.01l-0.99-0.029C14.98,145,15,142,15,139.03z"/>
	</g>
	<g id="_x23_393939ff">
		<path fill="#393939" d="M33,138.98c3.75-0.101,7.47,0.16,11.17,0.789c-0.08,2.74-0.14,5.48-0.2,8.23c-3.66-0.01-7.32,0-10.98,0
			C33,144.99,33,141.97,33,138.98z"/>
		<path fill="#393939" d="M45.81,139.65c12.93-1.7,26.38-0.65,39.4,0.06c-0.1,2.76-0.18,5.521-0.24,8.29
			c-13.1,0.12-26.2-0.27-39.28,0.2C45.78,145.35,45.82,142.5,45.81,139.65z"/>
		<path fill="#393939" d="M86.77,139.67c4.25-1.4,8.86-0.32,13.22-0.7c0.03,3.011,0.02,6.011,0,9.03c-4.32,0-8.64,0-12.96,0
			C86.98,145.22,86.9,142.439,86.77,139.67z"/>
	</g>
	<g id="_x23_8f8379ff">
		<path fill="#8F8379" d="M44.17,139.77l0.8,0.11c0.11,2.771-0.05,5.62,0.72,8.32c0.1,1.64,0.31,4.93,0.41,6.569
			c-0.48-0.09-1.46-0.279-1.95-0.379c-0.1-2.131-0.15-4.261-0.18-6.391C44.03,145.25,44.09,142.51,44.17,139.77z"/>
	</g>
	<g id="_x23_736a63ff">
		<path fill="#736A63" d="M44.97,139.88l0.84-0.229c0.01,2.85-0.03,5.699-0.12,8.55C44.92,145.5,45.08,142.65,44.97,139.88z"/>
	</g>
	<g id="_x23_82776fff">
		<path fill="#82776F" d="M85.21,139.71c0.39-0.01,1.17-0.03,1.56-0.04c0.13,2.77,0.21,5.55,0.26,8.33
			c-0.03,1.65-0.08,3.29-0.14,4.939c-0.43,0.311-1.29,0.94-1.72,1.25c-0.09-2.06-0.16-4.129-0.2-6.189
			C85.03,145.23,85.11,142.47,85.21,139.71z"/>
	</g>
	<g id="_x23_cbb992db">
		<path opacity="0.86" fill="#CBB992" enable-background="new    " d="M15.01,147.98L16,148.01c0.03,22.641-0.05,45.28,0,67.91
			c-0.23,1.85,0.48,3.34,2.21,4.08h-3.19C14.98,195.99,14.99,171.98,15.01,147.98z"/>
	</g>
	<g id="_x23_e6cf9cfa">
		<path opacity="0.98" fill="#E6CF9C" enable-background="new    " d="M16,148.01c0.5,0,1.5,0.01,2,0.01
			c0.15,21.9-0.29,43.811,0.19,65.7c3.3,4.54,9.96,1.511,14.82,2.36v1.02c-3.98,0.57-7.97,1.07-11.93,1.721
			c-1.8-0.75-3.38-1.94-5.08-2.9C15.95,193.29,16.03,170.65,16,148.01z"/>
	</g>
	<g id="_x23_ebd3a0fe">
		<path fill="#EBD3A0" d="M18,148.02c5-0.05,9.99-0.02,14.99-0.02c0.01,1.76,0.02,5.29,0.02,7.05c0,1.74,0,5.21,0,6.95
			c-0.04,18.02,0.01,36.05,0,54.08c-4.86-0.85-11.52,2.18-14.82-2.36C17.71,191.83,18.15,169.92,18,148.02z"/>
	</g>
	<g id="_x23_444343ff">
		<path fill="#444343" d="M32.99,148c3.66,0,7.32-0.01,10.98,0c0.03,2.13,0.08,4.26,0.18,6.391c-3.7,0.34-7.42,0.56-11.14,0.659
			C33.01,153.29,33,149.76,32.99,148z"/>
	</g>
	<g id="_x23_414141ff">
		<path fill="#414141" d="M45.69,148.2c13.08-0.47,26.18-0.08,39.28-0.2c0.04,2.061,0.11,4.13,0.2,6.189
			c-12.71,1.521-26.12,0.91-39.07,0.58C46,153.13,45.79,149.84,45.69,148.2z"/>
	</g>
	<g id="_x23_414142ff">
		<path fill="#414142" d="M87.03,148c4.32,0,8.64,0,12.96,0c0,1.75-0.01,5.26-0.01,7.01c-4.28-0.08-8.56,0.19-12.82-0.13
			c-0.07-0.479-0.21-1.45-0.27-1.94C86.95,151.29,87,149.65,87.03,148z"/>
	</g>
	<g id="_x23_8c6239ff">
		<path fill="#8C6239" d="M210.98,152.061c10.25-0.131,20.51-0.24,30.76,0.109c1.63,0.689,1.63,2.91,0.06,3.67
			c-7.06,0.471-14.21-0.35-21.2,1.051c-1.26-1.86-2.91-1.381-4.51-0.24C213.6,156.07,209.87,155.561,210.98,152.061z"/>
	</g>
	<g id="_x23_9c8e82fe">
		<path fill="#9C8E82" d="M85.17,154.189c0.43-0.31,1.29-0.939,1.72-1.25c0.06,0.49,0.2,1.461,0.27,1.94
			c4.26,0.32,8.54,0.05,12.82,0.13c0.01,1.33,0.03,2.66,0.05,4v1l-0.02,0.99l-0.04,0.99c-4.32,0.01-8.65-0.021-12.97,0.02
			c-0.5,0-1.5,0-2,0c-6-0.029-12-0.06-18,0h-1h-1h-1c-5.98,0-11.97-0.199-17.95,0.061c-0.16,19.31,0.02,38.619-0.06,57.93h-2.03
			c0.07-0.7,0.2-2.09,0.27-2.78c1.65-18.319,0.44-36.78,0.73-55.149l-0.97-0.051c-3.67-0.1-7.32-0.029-10.98-0.02
			c0-1.74,0-5.21,0-6.95c3.72-0.1,7.44-0.319,11.14-0.659c0.49,0.1,1.47,0.289,1.95,0.379C59.05,155.1,72.46,155.71,85.17,154.189z"
			/>
	</g>
	<g id="_x23_a0a091ff">
		<path fill="#A0A091" d="M216.09,156.65c1.6-1.141,3.25-1.62,4.51,0.24c1.49,1.979,4.15,2.979,5.311,5.149
			c-4.96-0.03-9.91-0.07-14.86-0.021C212.16,159.79,214.27,158.27,216.09,156.65z"/>
	</g>
	<g id="_x23_3e6e8fff">
		<path fill="#3E6E8F" d="M100.03,159.01c3.32-0.01,6.63-0.029,9.95-0.029c-1.28,2.6-7.46-0.101-9.95,1.029V159.01z"/>
	</g>
	<g id="_x23_4e7e8eff">
		<path fill="#4E7E8E" d="M125.03,159c3.33,0,6.63-0.01,9.96,0l0.01,0.99C132.51,159.74,127.53,159.25,125.03,159z"/>
	</g>
	<g id="_x23_457292ff">
		<path fill="#457292" d="M138.01,159c3.32,0,6.62-0.01,9.94,0l0.069,0.98C145.51,159.74,140.51,159.24,138.01,159z"/>
	</g>
	<g id="_x23_3d6e8fff">
		<path fill="#3D6E8F" d="M163.02,158.98c3.33,0.029,6.631,0.01,9.971,0.029l-0.01,0.99C170.15,159.22,163.93,161.891,163.02,158.98
			z"/>
	</g>
	<g id="_x23_755834ff">
		<path fill="#755834" d="M175.221,159.16c4.569-0.54,9.199,0,13.799-0.08c-0.789,3.029,0.791,6.02,0.221,9.109
			c-0.08-1.35-0.23-2.68-0.44-4c-4.569-2.39-9.989-0.68-14.87-1.289C173.98,161.53,173.83,159.939,175.221,159.16z"/>
	</g>
	<g id="_x23_426c84ff">
		<path fill="#426C84" d="M100.01,161c2.84,0.78,9.03-1.9,9.95,1.02c-3.34-0.02-6.66-0.02-9.99-0.029L100.01,161z"/>
		<path fill="#426C84" d="M151.01,162c0-3.28,6.57-0.24,8.971-0.95l0.02,0.96C156.99,161.99,154.01,162,151.01,162z"/>
	</g>
	<g id="_x23_436d83ff">
		<path fill="#436D83" d="M113.01,162c-0.01-3.28,6.57-0.24,8.97-0.95l0.02,0.96C118.99,161.99,116.01,162,113.01,162z"/>
	</g>
	<g id="_x23_487484ff">
		<path fill="#487484" d="M124.98,161.02c2.5,0.24,7.51,0.74,10.01,0.98c-3.32-0.01-6.61,0-9.93,0L124.98,161.02z"/>
	</g>
	<g id="_x23_466e86ff">
		<path fill="#466E86" d="M138,161.01c2.49,0.25,7.471,0.75,9.971,0.99c-3.33-0.01-6.641,0-9.961,0L138,161.01z"/>
	</g>
	<g id="_x23_416b85ff">
		<path fill="#416B85" d="M163.02,162.02c1.291-2.59,7.451,0.07,9.961-1.029l0.01,1C169.65,161.99,166.34,162,163.02,162.02z"/>
	</g>
	<g id="_x23_424242ff">
		<path fill="#424242" d="M33.01,162c3.66-0.01,7.31-0.08,10.98,0.02c0.19,18.4-0.33,36.811,0.24,55.2
			c-0.07,0.69-0.2,2.08-0.27,2.78H33.04c-0.01-0.73-0.02-2.18-0.03-2.9v-1.02C33.02,198.05,32.97,180.02,33.01,162z"/>
		<path fill="#424242" d="M87,162.01c4.32-0.04,8.65-0.01,12.97-0.02C100.05,174,99.94,186,100.02,198l-0.01,0.99l-0.04,0.96
			c-1.11,0.47-4.15-0.87-3.91,1c0.01,0.69,0.02,2.069,0.02,2.77c0,0.5,0.01,1.5,0.01,2.011c-0.06,3.709-0.14,7.449-0.07,11.17
			c0,0.77,0,2.319-0.01,3.1H87C87,200.67,87,181.34,87,162.01z"/>
	</g>
	<g id="_x23_b9a692fe">
		<path fill="#B9A692" d="M43.99,162.02l0.97,0.051c-0.29,18.369,0.92,36.83-0.73,55.149C43.66,198.83,44.18,180.42,43.99,162.02z"
			/>
	</g>
	<g id="_x23_383838ff">
		<path fill="#383838" d="M46.05,162.07c5.98-0.26,11.97-0.061,17.95-0.061c0,19.33,0,38.66,0,57.99H45.99
			C46.07,200.689,45.89,181.38,46.05,162.07 M52.05,175.01c0.71,2.391-2.32,9.021,0.94,8.96c1.33,0.07,2.66,0.08,3.99,0
			c0.07-1.319,0.06-2.649-0.02-3.97c0.1-1.66,0.1-3.32,0-4.97c-1.32-0.08-2.64-0.08-3.96-0.011L52.05,175.01 M60.03,191.02
			c-0.41,2.521-0.3,5.03,2.94,3.961C63.38,192.45,63.27,189.95,60.03,191.02z"/>
		<path fill="#383838" d="M67,162.01c6-0.06,12-0.029,18,0c0,19.33,0,38.66,0,57.99H67C67,200.67,67,181.34,67,162.01 M68.03,191.02
			c-0.41,2.521-0.3,5.03,2.94,3.961C71.38,192.45,71.27,189.95,68.03,191.02z"/>
	</g>
	<g id="_x23_676058fe">
		<path fill="#676058" d="M64,162.01h1c0.05,18.98-0.09,37.96,0.03,56.93l0.95,0.121c0.09-19.021-0.02-38.03,0.02-57.051h1
			c0,19.33,0,38.66,0,57.99h-3C64,200.67,64,181.34,64,162.01z"/>
	</g>
	<g id="_x23_c1ad95fd">
		<path fill="#C1AD95" d="M65,162.01h1c-0.04,19.021,0.07,38.03-0.02,57.051l-0.95-0.121C64.91,199.97,65.05,180.99,65,162.01z"/>
	</g>
	<g id="_x23_a39481fd">
		<path fill="#A39481" d="M85,162.01c0.5,0,1.5,0,2,0c0,19.33,0,38.66,0,57.99h-2C85,200.67,85,181.34,85,162.01z"/>
	</g>
	<g id="_x23_5797adff">
		<path fill="#5797AD" d="M99.97,161.99c3.33,0.01,6.65,0.01,9.99,0.029c0.17,11.98,0.02,23.971,0.03,35.961
			c-3.33,0-6.64,0.02-9.97,0.02C99.94,186,100.05,174,99.97,161.99z"/>
	</g>
	<g id="_x23_4b7d93ff">
		<path fill="#4B7D93" d="M112.04,162.02l0.97-0.02c0.04,11.97-0.15,23.939,0.05,35.91c2.96,0.05,5.96,0.13,8.93,0.109L122,199
			c-2.49-0.01-7.47-0.02-9.96-0.02C111.98,186.66,111.92,174.33,112.04,162.02z"/>
		<path fill="#4B7D93" d="M150.029,162.01l0.98-0.01c-0.01,12.01-0.02,24.01,0,36.02l-0.99-0.029
			C149.971,185.99,149.95,174,150.029,162.01z"/>
	</g>
	<g id="_x23_4a7d92ff">
		<path fill="#4A7D92" d="M122,162.01l0.97-0.01c0.06,11.99,0.08,23.99,0,35.98l-0.98,0.039C122.01,186.02,121.99,174.01,122,162.01
			z"/>
	</g>
	<g id="_x23_456a7eff">
		<path fill="#456A7E" d="M134.99,162h0.98c0.059,12,0.079,23.99,0,35.99l-0.98,0.01C135.01,186,135,174,134.99,162z"/>
	</g>
	<g id="_x23_44687eff">
		<path fill="#44687E" d="M137.029,162.01l0.98-0.01c-0.01,12-0.02,24,0,36h-0.98C136.971,186,136.95,174,137.029,162.01z"/>
	</g>
	<g id="_x23_629eb2ff">
		<path fill="#629EB2" d="M138.01,162c3.32,0,6.631-0.01,9.961,0c0,12,0.18,24-0.031,36c-3.319-0.02-6.619,0-9.93,0
			C137.99,186,138,174,138.01,162z"/>
	</g>
	<g id="_x23_5697adff">
		<path fill="#5697AD" d="M151.01,162c3,0,5.98-0.01,8.99,0.01c-0.061,11.971,0.141,23.94-0.061,35.9c-3,0.05-5.949,0.13-8.93,0.109
			C150.99,186.01,151,174.01,151.01,162z"/>
	</g>
	<g id="_x23_4c7c94ff">
		<path fill="#4C7C94" d="M160,162.01l0.971-0.01c0.029,12.33,0.119,24.66-0.021,36.98c-2.49-0.24-7.46-0.721-9.94-0.961
			c2.98,0.021,5.93-0.06,8.93-0.109C160.141,185.95,159.939,173.98,160,162.01z"/>
	</g>
	<g id="_x23_8a8a7fff">
		<path fill="#8A8A7F" d="M211.05,162.02c4.95-0.05,9.9-0.01,14.86,0.021c0.84,15.33,3,30.601,3.119,45.97
			c-7.029,0-14.049-0.07-21.069,0.04c0.11-10.02,1.38-19.97,2.021-29.95c0.029-1.369,0.029-2.75,0.01-4.119
			C210.18,169.98,210.82,166.01,211.05,162.02 M218.24,170.46c-1.17,1.06-2.65,1.49-4.17,1.771c0.4,0.949,2.32,1.93,1.17,3.01
			c-2.881,2.369,2.34,1.71,3.47,3.6c0.13-1.73,1.71-1.81,3.06-2.109c-0.6-1.42,0.9-4.24-0.799-4.67
			C219.189,172.73,219.24,169.811,218.24,170.46 M213,183.02c-0.88,5.211,8.5,0.261,11,1.961C224.88,179.77,215.48,184.7,213,183.02
			 M216.01,187.04c-1.01,3.24,3.141,1.649,4.98,1.92C221.99,185.71,217.84,187.311,216.01,187.04z"/>
	</g>
	<g id="_x23_daca5fff">
		<path fill="#DACA5F" d="M218.24,170.46c1-0.649,0.949,2.271,2.73,1.601c1.699,0.43,0.199,3.25,0.799,4.67
			c-1.35,0.3-2.93,0.379-3.06,2.109c-1.13-1.89-6.351-1.23-3.47-3.6c1.15-1.08-0.77-2.061-1.17-3.01
			C215.59,171.95,217.07,171.52,218.24,170.46z"/>
	</g>
	<g id="_x23_725231ff">
		<path fill="#725231" d="M193.98,174.061c5.33-0.101,10.67-0.121,16.01-0.08c0.02,1.369,0.02,2.75-0.01,4.119
			c-4.65,1.91-9.871,0.641-14.721,0.771C193.48,177.891,194.061,175.72,193.98,174.061z"/>
		<path fill="#725231" d="M230.99,174.04c6.67-0.09,13.34-0.101,20.02-0.03c1.391-1.609,7.051-0.05,5.801,2.76
			c-1.73,1.78-3.521,4.181-6.801,2.221c-5.939-0.12-11.9,0.4-17.81-0.15C230.46,177.85,231.09,175.68,230.99,174.04z"/>
	</g>
	<g id="_x23_9e7c38ff">
		<path fill="#9E7C38" d="M52.05,175.01l0.95,0.01c0,1.66,0,3.32,0.02,4.98c-0.01,1.32-0.02,2.65-0.03,3.97
			C49.73,184.03,52.76,177.4,52.05,175.01z"/>
	</g>
	<g id="_x23_f5c34dff">
		<path fill="#F5C34D" d="M53,175.02c1.32-0.069,2.64-0.069,3.96,0.011c0.1,1.649,0.1,3.31,0,4.97c-1.31,0-2.63,0-3.94,0
			C53,178.34,53,176.68,53,175.02z"/>
	</g>
	<g id="_x23_cd8a22ff">
		<path fill="#CD8A22" d="M53.02,180c1.31,0,2.63,0,3.94,0c0.08,1.32,0.09,2.65,0.02,3.97c-1.33,0.08-2.66,0.07-3.99,0
			C53,182.65,53.01,181.32,53.02,180z"/>
	</g>
	<g id="_x23_9f9f92ff">
		<path fill="#9F9F92" d="M213,183.02c2.48,1.681,11.88-3.25,11,1.961C221.5,183.28,212.12,188.23,213,183.02z"/>
	</g>
	<g id="_x23_9d9e90ff">
		<path fill="#9D9E90" d="M216.01,187.04c1.83,0.271,5.98-1.33,4.98,1.92C219.15,188.689,215,190.28,216.01,187.04z"/>
	</g>
	<g id="_x23_737c3aff">
		<path fill="#737C3A" d="M186.34,190.71c0.301-0.729,0.93-0.67,1.87,0.16c1.24,3.08,2.34,6.22,3.511,9.33
			c0.119,1.81,0.369,5.44,0.489,7.26c-1.7,0.39-3.45,0.55-5.19,0.521C186.98,202.22,187.23,196.42,186.34,190.71z"/>
	</g>
	<g id="_x23_af6885ff">
		<path fill="#AF6885" d="M194.18,190.609c2.41-1.719,3.5,4.36,3.971,6.371c-0.051,2.689-0.101,5.399-0.141,8.109
			c0.03,0.71,0.09,2.13,0.12,2.84c-0.78-0.01-2.34-0.039-3.12-0.05C194.73,202.15,195.65,196.21,194.18,190.609z"/>
	</g>
	<g id="_x23_8ba05fff">
		<path fill="#8BA05F" d="M199.75,196.859c0.68-1.869,1.05-7.56,3.51-6.229c-0.199,5.71-0.27,11.44-0.22,17.16
			c-1.05-0.08-2.11-0.07-3.149,0.04c0.409-1.35,0.34-2.95-0.711-3.98C199.29,201.51,199.48,199.18,199.75,196.859z"/>
	</g>
	<g id="_x23_ad6883ff">
		<path fill="#AD6883" d="M233.45,189.97c3.159,1,3.01,5.761,4.45,8.44c-0.28,3.189-0.67,6.4-0.95,9.6c-0.74,0-2.22,0-2.96,0
			c-0.27-5.77,0.689-11.76-0.811-17.4L233.45,189.97z"/>
	</g>
	<g id="_x23_90a867ff">
		<path fill="#90A867" d="M238.7,197.859c0.81-2.829,1.329-5.92,3.3-8.219c0,6.119,0.01,12.25-0.029,18.379c-0.521,0-1.57,0-2.101,0
			C239.279,204.65,239.01,201.25,238.7,197.859z"/>
	</g>
	<g id="_x23_707d37ff">
		<path fill="#707D37" d="M242,189.641c2.05,2.469,2.891,5.619,3.77,8.629c0.23,3.25,0.66,6.511,1.291,9.711
			c-1.701,0.029-3.4,0.039-5.09,0.039C242.01,201.891,242,195.76,242,189.641z"/>
	</g>
	<g id="_x23_8e81beff">
		<path fill="#8E81BE" d="M249.16,189.91c4.02,3.189,3.99,9.42,3.9,14.02c-0.351,1.34-0.761,2.67-1.131,4
			c-0.72,0.01-2.17,0.03-2.89,0.03c-0.06-5.37-0.04-10.76-0.69-16.101C248.55,191.37,248.96,190.4,249.16,189.91z"/>
	</g>
	<g id="_x23_8e825cff">
		<path fill="#8E825C" d="M60.03,191.02c3.24-1.069,3.35,1.431,2.94,3.961C59.73,196.05,59.62,193.54,60.03,191.02z"/>
		<path fill="#8E825C" d="M68.03,191.02c3.24-1.069,3.35,1.431,2.94,3.961C67.73,196.05,67.62,193.54,68.03,191.02z"/>
	</g>
	<g id="_x23_90a967ff">
		<path fill="#90A967" d="M186.34,190.71c0.891,5.71,0.641,11.51,0.68,17.271c-0.52,0-1.549,0-2.06,0
			c-0.63-3.61-0.989-7.271-1-10.931C184.83,194.96,185.609,192.84,186.34,190.71z"/>
	</g>
	<g id="_x23_fa7fafff">
		<path fill="#FA7FAF" d="M194.18,190.609c1.471,5.601,0.551,11.541,0.83,17.271c-0.939-0.12-1.869-0.26-2.8-0.42
			c-0.12-1.819-0.37-5.45-0.489-7.26C191.811,196.85,192.71,193.6,194.18,190.609z"/>
	</g>
	<g id="_x23_707a36ff">
		<path fill="#707A36" d="M203.26,190.63c3.73,4.771,4.381,11.771,1.811,17.29c-0.51-0.029-1.521-0.09-2.03-0.13
			C202.99,202.07,203.061,196.34,203.26,190.63z"/>
	</g>
	<g id="_x23_f97eaeff">
		<path fill="#F97EAE" d="M233.18,190.609c1.5,5.641,0.541,11.631,0.811,17.4c-0.51,0-1.551,0-2.07,0.01
			C229.8,202.48,230.66,195.91,233.18,190.609z"/>
	</g>
	<g id="_x23_b391efff">
		<path fill="#B391EF" d="M248.35,191.859c0.65,5.341,0.631,10.73,0.69,16.101c-0.5,0.01-1.49,0.021-1.979,0.021
			c-0.631-3.2-1.061-6.461-1.291-9.711C246.7,196.16,247.529,194.01,248.35,191.859z"/>
	</g>
	<g id="_x23_735735ff">
		<path fill="#735735" d="M173.01,197c3.65,0,7.29,0.01,10.95,0.05c0.011,3.66,0.37,7.32,1,10.931c-4.05-0.971-3.271,2.8-3.01,6
			c-1.65,0.02-3.3,0.029-4.94,0.05c-0.029-4.37,0.061-8.73-0.06-13.091c0.19-1.859-2.81-0.529-3.931-1l-0.039-0.959V198L173.01,197z
			"/>
	</g>
	<g id="_x23_926d60ff">
		<path fill="#926D60" d="M198.15,196.98c0.399-0.03,1.199-0.09,1.6-0.121c-0.27,2.32-0.46,4.65-0.57,6.99
			c-0.289,0.311-0.88,0.931-1.17,1.24C198.05,202.38,198.1,199.67,198.15,196.98z"/>
	</g>
	<g id="_x23_446f86ff">
		<path fill="#446F86" d="M100.02,198c3.33,0,6.64-0.02,9.97-0.02c-1.29,2.6-7.49-0.11-9.98,1.01L100.02,198z"/>
	</g>
	<g id="_x23_497688ff">
		<path fill="#497688" d="M125.03,198c3.33,0,6.63-0.02,9.96,0l0.01,0.99C132.51,198.74,127.53,198.25,125.03,198z"/>
	</g>
	<g id="_x23_4a7288ff">
		<path fill="#4A7288" d="M138.01,198c3.311,0,6.61-0.02,9.93,0l0.08,0.98C145.52,198.74,140.51,198.24,138.01,198z"/>
	</g>
	<g id="_x23_466f86ff">
		<path fill="#466F86" d="M163.04,197.98c3.319,0.029,6.61,0,9.94,0.02v0.98C170.16,198.23,163.939,200.88,163.04,197.98z"/>
	</g>
	<g id="_x23_7b8444ff">
		<path fill="#7B8444" d="M237.9,198.41l0.8-0.551c0.31,3.391,0.579,6.791,1.17,10.16c-0.729,0-2.19-0.01-2.92-0.01
			C237.23,204.811,237.62,201.6,237.9,198.41z"/>
	</g>
	<g id="_x23_feeed6ff">
		<path fill="#FEEED6" d="M96.06,200.95c-0.24-1.87,2.8-0.53,3.91-1c24.35,0.08,48.7,0.09,73.049-0.011
			c1.121,0.471,4.121-0.859,3.931,1c-1.21,2.17-3.2,2.841-5.96,2.011c-23.99,0.1-47.99,0.08-71.98,0.02
			C97.51,203.22,96.79,201.98,96.06,200.95z"/>
	</g>
	<g id="_x23_ebcf9ffe">
		<path fill="#EBCF9F" d="M96.06,200.95c0.73,1.03,1.45,2.27,2.95,2.02c23.99,0.061,47.99,0.08,71.98-0.02
			c2.76,0.83,4.75,0.159,5.96-2.011c0.12,4.36,0.03,8.721,0.06,13.091c-0.01,0.53-0.039,1.59-0.05,2.12
			c-24-0.36-47.99-0.051-71.99-0.131c-1.69,0.061-3.29-0.51-4.81-1.209c0.59-4.03,0.91-9.841-4.08-11.091
			C96.08,203.02,96.07,201.641,96.06,200.95z"/>
	</g>
	<g id="_x23_755736fc">
		<path fill="#755736" d="M253.061,203.93c2.459-1.16,5.199-0.88,7.879-1.02c3.33,2.98-0.81,7.23,0.041,10.87l-0.91,0.159
			c-0.45,0.061-1.35,0.19-1.811,0.25c-0.539-0.039-1.63-0.109-2.17-0.14c-0.05-1.479-0.14-4.45-0.18-5.93
			c-1.33-0.101-2.65-0.17-3.98-0.19C252.3,206.6,252.71,205.27,253.061,203.93z"/>
	</g>
	<g id="_x23_e4ca9af8">
		<path opacity="0.97" fill="#E4CA9A" enable-background="new    " d="M96.08,203.72c4.99,1.25,4.67,7.061,4.08,11.091
			c1.52,0.699,3.12,1.27,4.81,1.209c24,0.08,47.99-0.229,71.99,0.131c0.021,0.459,0.06,1.38,0.08,1.84
			c-25.61-0.11-51.23,0.26-76.83-0.16c-4.79-2.49,0.7-10.46-4.12-12.1C96.09,205.22,96.08,204.22,96.08,203.72z"/>
	</g>
	<g id="_x23_74813dff">
		<path fill="#74813D" d="M199.18,203.85c1.051,1.03,1.12,2.631,0.711,3.98c-0.44,0.02-1.32,0.08-1.761,0.1
			c-0.03-0.71-0.09-2.13-0.12-2.84C198.3,204.78,198.891,204.16,199.18,203.85z"/>
	</g>
	<g id="_x23_d7bf92ea">
		<path opacity="0.92" fill="#D7BF92" enable-background="new    " d="M96.09,205.73c4.82,1.64-0.67,9.609,4.12,12.1
			c25.6,0.42,51.22,0.05,76.83,0.16L177,219c-24.68,0.03-49.37-0.05-74.05,0.04c-2.6-0.16-5.63,0.54-6.93-2.14
			C95.95,213.18,96.03,209.439,96.09,205.73z"/>
	</g>
	<g id="_x23_98b259ff">
		<path fill="#98B259" d="M192.21,207.46c0.931,0.16,1.86,0.3,2.8,0.42c0.78,0.011,2.34,0.04,3.12,0.05
			c0.44-0.02,1.32-0.08,1.761-0.1c1.039-0.11,2.1-0.12,3.149-0.04c0.51,0.04,1.521,0.101,2.03,0.13c0.72,0.04,2.17,0.1,2.89,0.13
			c0.03,1.97,0.04,3.95,0.05,5.931c-8.689,0.02-17.369,0.06-26.06,0c-0.261-3.2-1.04-6.971,3.01-6c0.511,0,1.54,0,2.06,0
			C188.76,208.01,190.51,207.85,192.21,207.46z"/>
	</g>
	<g id="_x23_767663ff">
		<path fill="#767663" d="M207.96,208.05c7.021-0.11,14.04-0.04,21.069-0.04c-0.02,1.99-0.029,3.98-0.039,5.98
			c-7,0.01-13.99,0.05-20.98-0.01C208,212,207.99,210.02,207.96,208.05z"/>
	</g>
	<g id="_x23_98b358ff">
		<path fill="#98B358" d="M229.029,208.01c0.721,0,2.171,0.01,2.891,0.01c0.52-0.01,1.561-0.01,2.07-0.01c0.74,0,2.22,0,2.96,0
			c0.729,0,2.19,0.01,2.92,0.01c0.53,0,1.58,0,2.101,0c1.689,0,3.389-0.01,5.09-0.039c0.489,0,1.479-0.011,1.979-0.021
			c0.72,0,2.17-0.021,2.89-0.03c1.33,0.021,2.65,0.09,3.98,0.19c0.04,1.479,0.13,4.45,0.18,5.93c-9.04-0.1-18.07-0.02-27.1-0.06
			C229,211.99,229.01,210,229.029,208.01z"/>
	</g>
	<g id="_x23_b9a089fc">
		<path fill="#B9A089" d="M177.01,214.03c1.641-0.021,3.29-0.03,4.94-0.05c8.69,0.06,17.37,0.02,26.06,0
			c6.99,0.06,13.98,0.02,20.98,0.01c9.029,0.04,18.06-0.04,27.1,0.06c0.54,0.03,1.631,0.101,2.17,0.14
			c-1.57,1.851-3.66,2.431-6.26,1.761c-25.01,0.149-50.05-0.08-75.04,0.2C176.971,215.62,177,214.561,177.01,214.03z"/>
	</g>
	<g id="_x23_b19a83f2">
		<path opacity="0.95" fill="#B19A83" enable-background="new    " d="M258.26,214.189c0.461-0.06,1.36-0.189,1.811-0.25
			c-0.36,2.65,1.119,7.5-5.08,4.08c-25.98-0.33-52.01,0.4-77.95-0.029c-0.021-0.46-0.06-1.381-0.08-1.84
			c24.99-0.28,50.03-0.051,75.04-0.2C254.6,216.62,256.689,216.04,258.26,214.189z"/>
	</g>
	<g id="_x23_8f7c6ac3">
		<path opacity="0.76" fill="#8F7C6A" enable-background="new    " d="M260.07,213.939l0.91-0.159
			c2.58,0.569,3.289,2.649,2.119,6.22H177v-1l0.04-1.01c25.94,0.43,51.97-0.301,77.95,0.029
			C261.189,221.439,259.71,216.59,260.07,213.939z"/>
	</g>
	<g id="_x23_d9c394eb">
		<path opacity="0.92" fill="#D9C394" enable-background="new    " d="M16,215.92c1.7,0.96,3.28,2.15,5.08,2.9
			c3.96-0.65,7.95-1.15,11.93-1.721c0.01,0.721,0.02,2.17,0.03,2.9H18.21C16.48,219.26,15.77,217.77,16,215.92z"/>
	</g>
	<g id="_x23_bfa881cf">
		<path opacity="0.81" fill="#BFA881" enable-background="new    " d="M96.02,216.9c1.3,2.68,4.33,1.979,6.93,2.14l0.12,0.96h-7.06
			C96.02,219.22,96.02,217.67,96.02,216.9z"/>
	</g>
	<g id="_x23_cfb88de2">
		<path opacity="0.89" fill="#CFB88D" enable-background="new    " d="M102.95,219.04c24.68-0.09,49.37-0.01,74.05-0.04v1h-73.93
			L102.95,219.04z"/>
	</g>
</g>
<g id="Capa_2">
	
		<text transform="matrix(1 0 0 1 44.084 133.0908)" opacity="0.9" fill="#DBDBDB" font-family="'Arial-BoldMT'" font-size="10.5271">POLICÍA</text>
</g>
</svg>
