<?xml version="1.0" encoding="UTF-8" ?>
<!DOCTYPE svg PUBLIC "-//W3C//DTD SVG 1.1//EN" "http://www.w3.org/Graphics/SVG/1.1/DTD/svg11.dtd">
<svg width="335pt" height="156pt" viewBox="0 0 335 156" version="1.1" xmlns="http://www.w3.org/2000/svg">
<g id="#819e32fd">
<path fill="#819e32" opacity="1.00" d=" M 136.15 29.10 C 137.97 23.76 137.74 16.30 143.01 12.78 C 142.93 22.07 143.22 31.37 142.75 40.65 C 142.25 41.80 142.51 43.01 142.78 44.18 C 142.96 47.20 143.93 50.01 144.89 52.82 C 142.12 55.78 143.46 60.39 142.94 63.98 C 143.10 70.02 142.49 76.17 143.71 82.13 C 143.95 83.20 143.74 84.18 143.08 85.08 C 140.90 93.13 142.39 101.74 141.95 110.02 C 140.95 113.36 142.22 116.25 143.74 118.98 C 141.05 124.48 141.46 131.43 142.87 137.17 C 144.30 139.54 142.86 142.26 142.87 144.81 C 141.82 145.12 140.79 145.46 139.78 145.85 C 135.31 143.78 130.50 141.49 128.00 137.01 C 124.17 131.42 126.54 124.27 126.13 118.00 C 128.48 88.28 130.84 58.48 136.15 29.10 Z" />
</g>
<g id="#808132fc">
<path fill="#808132" opacity="1.00" d=" M 143.01 12.78 C 146.14 14.89 146.90 19.60 147.99 22.99 C 152.35 39.61 153.61 56.82 156.27 73.74 C 156.25 78.68 155.35 84.50 158.07 88.97 C 159.83 90.90 158.73 93.78 157.96 96.00 C 156.06 100.03 159.53 104.18 159.41 108.36 C 158.70 116.79 161.73 125.65 158.87 133.88 C 157.51 140.28 151.75 143.45 146.02 145.15 C 145.23 145.07 143.65 144.90 142.87 144.81 C 142.86 142.26 144.30 139.54 142.87 137.17 C 143.63 131.75 141.32 125.46 144.51 120.58 C 146.45 117.32 141.06 114.58 143.07 111.00 C 142.87 102.36 142.93 93.72 143.08 85.08 C 143.74 84.18 143.95 83.20 143.71 82.13 C 142.49 76.17 143.10 70.02 142.94 63.98 C 143.46 60.39 142.12 55.78 144.89 52.82 C 143.93 50.01 142.96 47.20 142.78 44.18 C 145.11 44.40 146.78 43.77 145.94 41.17 C 145.15 41.04 143.55 40.78 142.75 40.65 C 143.22 31.37 142.93 22.07 143.01 12.78 M 144.02 31.03 C 142.95 34.27 145.45 34.38 147.98 33.97 C 149.05 30.73 146.54 30.62 144.02 31.03 M 148.20 51.13 C 145.87 52.19 147.43 55.82 149.80 54.87 C 152.13 53.81 150.57 50.18 148.20 51.13 M 146.02 66.98 C 144.92 70.28 147.47 70.38 150.05 69.96 C 150.47 67.52 148.04 66.55 146.02 66.98 M 145.20 74.13 C 142.87 75.19 144.43 78.82 146.80 77.87 C 149.13 76.81 147.57 73.18 145.20 74.13 M 151.21 88.12 C 149.52 89.08 149.10 93.23 151.96 91.96 C 155.09 92.06 154.11 86.97 151.21 88.12 M 148.20 100.13 C 145.87 101.19 147.43 104.82 149.80 103.87 C 152.13 102.81 150.57 99.18 148.20 100.13 M 152.01 106.01 C 151.34 108.54 152.45 109.66 154.99 108.99 C 155.65 106.45 154.54 105.34 152.01 106.01 M 152.20 117.13 C 149.87 118.19 151.43 121.82 153.80 120.87 C 156.13 119.81 154.57 116.18 152.20 117.13 M 146.19 121.15 C 143.86 122.20 145.45 125.81 147.79 124.88 C 150.00 123.34 149.34 119.55 146.19 121.15 M 148.20 130.18 C 145.79 131.19 148.46 133.50 149.85 133.91 C 151.92 132.25 151.37 128.55 148.20 130.18 Z" />
</g>
<g id="#727c0bff">
<path fill="#727c0b" opacity="1.00" d=" M 144.02 31.03 C 146.54 30.62 149.05 30.73 147.98 33.97 C 145.45 34.38 142.95 34.27 144.02 31.03 Z" />
</g>
<g id="#717c07ff">
<path fill="#717c07" opacity="1.00" d=" M 142.78 44.18 C 142.51 43.01 142.25 41.80 142.75 40.65 C 143.55 40.78 145.15 41.04 145.94 41.17 C 146.78 43.77 145.11 44.40 142.78 44.18 Z" />
</g>
<g id="#717b08ff">
<path fill="#717b08" opacity="1.00" d=" M 148.20 51.13 C 150.57 50.18 152.13 53.81 149.80 54.87 C 147.43 55.82 145.87 52.19 148.20 51.13 Z" />
<path fill="#717b08" opacity="1.00" d=" M 146.02 66.98 C 148.04 66.55 150.47 67.52 150.05 69.96 C 147.47 70.38 144.92 70.28 146.02 66.98 Z" />
</g>
<g id="#b8c18ce2">
<path fill="#b8c18c" opacity="0.89" d=" M 256.91 51.08 C 259.45 52.15 261.89 53.48 264.28 54.86 C 260.28 54.83 255.83 52.70 252.30 55.30 C 250.83 58.14 250.22 61.32 249.19 64.32 C 249.07 61.48 248.95 58.65 248.83 55.81 C 251.27 53.86 254.08 52.41 256.91 51.08 Z" />
</g>
<g id="#b7c66dfe">
<path fill="#b7c66d" opacity="1.00" d=" M 265.15 55.23 C 267.79 53.87 270.26 52.17 273.01 51.02 C 273.00 58.27 273.03 65.52 272.88 72.77 C 267.95 74.94 263.22 77.64 258.90 80.86 L 258.11 80.84 C 252.36 77.13 246.44 73.54 240.13 70.84 C 241.73 68.15 245.59 67.13 248.11 65.15 L 248.92 65.20 C 251.61 66.78 254.14 68.68 257.00 69.97 C 259.69 68.74 262.13 67.02 264.71 65.56 C 264.82 62.97 265.04 57.81 265.15 55.23 Z" />
</g>
<g id="#97a957fe">
<path fill="#97a957" opacity="1.00" d=" M 273.01 51.02 C 276.13 52.43 279.09 54.20 281.98 56.05 C 282.00 59.30 281.80 62.58 282.14 65.83 C 285.00 67.16 287.48 70.42 290.91 69.95 C 293.72 68.94 296.14 67.12 298.82 65.84 C 300.94 66.94 303.11 67.95 305.19 69.12 C 305.03 69.50 304.72 70.24 304.56 70.61 C 298.88 73.44 293.75 77.28 288.00 79.95 C 283.05 78.04 279.15 73.62 273.77 72.96 L 272.88 72.77 C 273.03 65.52 273.00 58.27 273.01 51.02 Z" />
</g>
<g id="#b7c76dfe">
<path fill="#b7c76d" opacity="1.00" d=" M 287.02 53.02 C 290.89 49.14 294.63 54.15 298.15 55.81 C 298.12 58.93 297.64 62.14 298.65 65.15 L 298.82 65.84 C 296.14 67.12 293.72 68.94 290.91 69.95 C 287.48 70.42 285.00 67.16 282.14 65.83 C 281.80 62.58 282.00 59.30 281.98 56.05 C 283.63 54.98 285.30 53.97 287.02 53.02 Z" />
</g>
<g id="#ccd699fc">
<path fill="#ccd699" opacity="1.00" d=" M 252.30 55.30 C 255.83 52.70 260.28 54.83 264.28 54.86 L 265.15 55.23 C 265.04 57.81 264.82 62.97 264.71 65.56 C 262.13 67.02 259.69 68.74 257.00 69.97 C 254.14 68.68 251.61 66.78 248.92 65.20 L 249.19 64.32 C 250.22 61.32 250.83 58.14 252.30 55.30 Z" />
</g>
<g id="#1819161b">
<path fill="#181916" opacity="0.11" d=" M 248.11 65.15 C 248.54 62.22 246.67 58.08 248.83 55.81 C 248.95 58.65 249.07 61.48 249.19 64.32 L 248.92 65.20 L 248.11 65.15 Z" />
</g>
<g id="#b5be87e2">
<path fill="#b5be87" opacity="0.89" d=" M 298.15 55.81 C 300.17 58.19 298.20 62.25 298.65 65.15 C 297.64 62.14 298.12 58.93 298.15 55.81 Z" />
</g>
<g id="#676664f2">
<path fill="#676664" opacity="0.95" d=" M 183.19 58.05 C 188.52 58.27 193.62 60.34 198.88 61.16 C 198.55 62.08 198.23 63.01 197.94 63.95 C 192.63 62.53 187.36 60.95 181.96 59.90 C 182.27 59.43 182.88 58.51 183.19 58.05 Z" />
</g>
<g id="#696864f2">
<path fill="#696864" opacity="0.95" d=" M 226.11 61.13 C 231.26 59.93 236.39 58.35 241.71 58.06 C 241.81 58.53 242.00 59.45 242.09 59.92 C 236.66 61.11 231.32 62.64 225.94 64.06 C 225.98 63.33 226.07 61.86 226.11 61.13 Z" />
</g>
<g id="#e2c464fa">
<path fill="#e2c464" opacity="0.98" d=" M 181.96 59.90 C 187.36 60.95 192.63 62.53 197.94 63.95 C 197.93 64.73 197.91 66.29 197.90 67.07 C 192.53 66.06 187.41 63.94 182.04 62.87 C 182.02 62.13 181.98 60.64 181.96 59.90 Z" />
</g>
<g id="#ddc05ff4">
<path fill="#ddc05f" opacity="0.96" d=" M 225.94 64.06 C 231.32 62.64 236.66 61.11 242.09 59.92 C 242.31 60.91 242.52 61.90 242.72 62.90 C 237.55 64.21 232.44 65.70 227.21 66.70 C 226.83 66.26 226.09 65.39 225.72 64.95 L 225.94 64.06 Z" />
</g>
<g id="#abb7b7ed">
<path fill="#abb7b7" opacity="0.93" d=" M 198.88 61.16 C 204.77 62.60 208.15 68.00 212.01 72.16 C 215.91 67.64 219.51 61.97 226.11 61.13 C 226.07 61.86 225.98 63.33 225.94 64.06 L 225.72 64.95 C 223.73 65.17 221.64 65.72 220.25 67.24 C 216.72 70.88 212.77 75.15 214.14 80.79 C 212.63 80.84 211.12 80.87 209.61 80.86 C 211.58 73.21 204.56 66.39 197.94 63.95 C 198.23 63.01 198.55 62.08 198.88 61.16 Z" />
</g>
<g id="#b7b7b7ff">
<path fill="#b7b7b7" opacity="1.00" d=" M 9.00 68.99 C 7.38 66.77 8.99 62.50 11.82 63.01 C 12.08 63.29 12.59 63.86 12.85 64.14 L 12.97 65.04 C 13.14 65.51 13.49 66.46 13.66 66.93 C 14.22 67.26 15.33 67.91 15.89 68.23 L 15.75 68.87 C 12.76 73.38 21.71 70.14 24.18 71.40 C 21.47 73.76 12.88 68.40 12.99 72.99 L 12.98 73.99 C 12.95 78.65 12.95 83.33 13.01 88.00 L 13.01 89.01 C 12.97 111.34 13.02 133.67 13.00 156.00 L 9.00 156.00 C 9.02 127.00 8.98 97.99 9.00 68.99 Z" />
</g>
<g id="#10151017">
<path fill="#101510" opacity="0.09" d=" M 11.82 63.01 C 15.31 62.81 18.78 63.25 22.22 63.74 C 19.09 63.85 15.97 63.99 12.85 64.14 C 12.59 63.86 12.08 63.29 11.82 63.01 Z" />
</g>
<g id="#e1e7e2ed">
<path fill="#e1e7e2" opacity="0.93" d=" M 12.85 64.14 C 15.97 63.99 19.09 63.85 22.22 63.74 C 24.14 63.88 26.07 63.93 28.00 64.06 L 27.98 65.01 C 22.97 65.01 17.97 64.98 12.97 65.04 L 12.85 64.14 Z" />
</g>
<g id="#2035264b">
<path fill="#203526" opacity="0.29" d=" M 28.00 64.06 L 28.93 64.13 C 29.26 71.63 28.75 79.16 29.12 86.67 C 30.39 86.94 32.92 87.49 34.19 87.77 C 32.78 87.85 31.37 87.95 29.97 88.07 L 29.02 88.15 L 28.16 88.21 C 28.04 83.48 28.06 78.74 27.97 74.01 L 27.96 73.03 L 27.95 72.08 C 27.96 70.31 27.97 66.78 27.98 65.01 L 28.00 64.06 Z" />
</g>
<g id="#fdfefdff">
<path fill="#fdfefd" opacity="1.00" d=" M 12.97 65.04 C 17.97 64.98 22.97 65.01 27.98 65.01 C 27.97 66.78 27.96 70.31 27.95 72.08 C 26.96 71.88 25.98 71.68 24.99 71.46 L 26.01 71.11 C 27.58 70.90 27.49 67.31 26.24 66.75 C 22.36 65.95 17.45 64.90 13.66 66.93 C 13.49 66.46 13.14 65.51 12.97 65.04 Z" />
</g>
<g id="#c2c2c2ff">
<path fill="#c2c2c2" opacity="1.00" d=" M 13.66 66.93 C 17.45 64.90 22.36 65.95 26.24 66.75 C 22.05 66.87 17.86 66.93 13.66 66.93 Z" />
</g>
<g id="#747374ff">
<path fill="#747374" opacity="1.00" d=" M 13.66 66.93 C 17.86 66.93 22.05 66.87 26.24 66.75 C 27.49 67.31 27.58 70.90 26.01 71.11 C 26.39 69.07 24.69 68.87 23.14 68.65 C 20.65 67.30 18.23 67.16 15.89 68.23 C 15.33 67.91 14.22 67.26 13.66 66.93 Z" />
</g>
<g id="#f2f2f2ff">
<path fill="#f2f2f2" opacity="1.00" d=" M 15.89 68.23 C 18.23 67.16 20.65 67.30 23.14 68.65 C 21.29 68.70 17.60 68.82 15.75 68.87 L 15.89 68.23 Z" />
</g>
<g id="#1e1e1eff">
<path fill="#1e1e1e" opacity="1.00" d=" M 24.18 71.40 C 21.71 70.14 12.76 73.38 15.75 68.87 C 17.60 68.82 21.29 68.70 23.14 68.65 C 24.69 68.87 26.39 69.07 26.01 71.11 L 24.99 71.46 L 24.18 71.40 Z" />
</g>
<g id="#8da04dfc">
<path fill="#8da04d" opacity="1.00" d=" M 305.19 69.12 C 305.45 69.30 305.97 69.65 306.23 69.83 C 306.17 70.32 306.03 71.29 305.96 71.78 C 299.59 74.03 294.53 79.40 288.00 81.02 C 282.88 79.44 277.79 76.53 273.77 72.96 C 279.15 73.62 283.05 78.04 288.00 79.95 C 293.75 77.28 298.88 73.44 304.56 70.61 C 304.72 70.24 305.03 69.50 305.19 69.12 Z" />
</g>
<g id="#9caa67f5">
<path fill="#9caa67" opacity="0.96" d=" M 306.23 69.83 C 308.11 72.55 306.26 76.87 306.96 79.98 L 306.02 79.87 C 305.98 77.17 305.96 74.48 305.96 71.78 C 306.03 71.29 306.17 70.32 306.23 69.83 Z" />
</g>
<g id="#eaeaeaff">
<path fill="#eaeaea" opacity="1.00" d=" M 12.99 72.99 C 12.88 68.40 21.47 73.76 24.18 71.40 L 24.99 71.46 C 25.98 71.68 26.96 71.88 27.95 72.08 L 27.96 73.03 C 22.97 73.01 17.98 73.00 12.99 72.99 Z" />
<path fill="#eaeaea" opacity="1.00" d=" M 65.06 142.99 C 71.03 143.01 77.01 143.00 82.98 143.00 L 83.01 143.99 C 77.05 144.04 71.08 144.07 65.12 143.95 L 65.06 142.99 Z" />
</g>
<g id="#98a957ff">
<path fill="#98a957" opacity="1.00" d=" M 240.13 70.84 C 246.44 73.54 252.36 77.13 258.11 80.84 C 256.76 86.31 257.18 92.01 256.68 97.58 C 251.52 101.23 244.68 102.51 241.16 108.24 L 240.73 108.95 C 238.87 106.37 240.78 101.94 240.18 98.94 C 243.05 96.85 246.05 94.95 248.93 92.85 C 248.90 89.96 249.28 87.06 248.87 84.18 C 245.94 82.33 242.97 80.58 239.97 78.86 C 239.97 76.18 240.02 73.51 240.13 70.84 Z" />
</g>
<g id="#54545465">
<path fill="#545454" opacity="0.40" d=" M 65.66 72.81 C 71.03 71.23 76.84 72.02 82.26 72.84 C 76.73 72.90 71.19 73.18 65.66 72.81 Z" />
</g>
<g id="#889b44ff">
<path fill="#889b44" opacity="1.00" d=" M 288.00 81.02 C 294.53 79.40 299.59 74.03 305.96 71.78 C 305.96 74.48 305.98 77.17 306.02 79.87 C 302.84 82.65 295.94 83.09 297.98 89.03 C 295.29 95.50 302.29 96.64 306.04 99.09 C 306.00 102.09 306.01 105.12 306.00 108.13 C 300.04 104.73 294.21 101.01 288.01 98.08 C 282.85 100.69 277.13 102.92 273.20 107.29 C 272.87 113.15 272.97 119.02 273.01 124.89 C 271.71 124.94 270.41 124.98 269.11 125.01 C 267.74 124.34 266.38 123.65 265.03 122.95 C 264.96 119.69 265.23 116.43 264.83 113.19 C 262.48 111.10 259.71 109.45 256.93 108.02 C 253.53 108.59 250.80 111.35 247.77 112.91 C 245.35 111.72 242.97 110.46 240.73 108.95 L 241.16 108.24 C 246.97 104.66 253.68 102.27 258.85 97.75 C 259.12 92.12 259.01 86.49 258.90 80.86 C 263.22 77.64 267.95 74.94 272.88 72.77 L 273.77 72.96 C 277.79 76.53 282.88 79.44 288.00 81.02 M 273.87 80.09 C 271.22 81.26 268.76 82.77 266.35 84.36 C 263.45 87.38 267.04 91.39 266.20 94.84 C 269.09 96.14 271.50 99.44 274.94 98.99 C 277.71 97.52 280.46 95.85 282.87 93.83 C 283.13 90.22 283.70 85.88 280.75 83.24 C 278.50 82.09 276.21 81.04 273.87 80.09 Z" />
</g>
<g id="#929393ff">
<path fill="#929393" opacity="1.00" d=" M 12.99 72.99 C 17.98 73.00 22.97 73.01 27.96 73.03 L 27.97 74.01 C 22.97 74.00 17.97 74.01 12.98 73.99 L 12.99 72.99 Z" />
</g>
<g id="#23242434">
<path fill="#232424" opacity="0.20" d=" M 40.89 73.74 C 42.79 72.08 45.15 71.87 47.97 73.11 L 47.95 73.90 C 46.18 73.86 42.65 73.78 40.89 73.74 Z" />
</g>
<g id="#46494958">
<path fill="#464949" opacity="0.35" d=" M 47.97 73.11 C 53.87 73.01 59.77 73.01 65.66 72.81 L 66.04 73.92 C 60.01 74.00 53.98 74.00 47.95 73.90 L 47.97 73.11 Z" />
</g>
<g id="#727675f9">
<path fill="#727675" opacity="0.98" d=" M 65.66 72.81 C 71.19 73.18 76.73 72.90 82.26 72.84 L 81.96 73.93 C 76.65 73.97 71.34 74.09 66.04 73.92 L 65.66 72.81 Z" />
</g>
<g id="#45474753">
<path fill="#454747" opacity="0.33" d=" M 82.26 72.84 C 90.24 73.37 98.35 72.28 106.24 73.73 C 98.15 74.01 90.05 74.09 81.96 73.93 L 82.26 72.84 Z" />
</g>
<g id="#f3dadaff">
<path fill="#f3dada" opacity="1.00" d=" M 12.98 73.99 C 17.97 74.01 22.97 74.00 27.97 74.01 C 28.06 78.74 28.04 83.48 28.16 88.21 C 23.11 88.09 18.06 87.98 13.01 88.00 C 12.95 83.33 12.95 78.65 12.98 73.99 Z" />
</g>
<g id="#ae5f5ff1">
<path fill="#ae5f5f" opacity="0.95" d=" M 39.93 74.85 C 40.17 74.57 40.65 74.02 40.89 73.74 C 42.65 73.78 46.18 73.86 47.95 73.90 C 53.98 74.00 60.01 74.00 66.04 73.92 C 71.34 74.09 76.65 73.97 81.96 73.93 C 90.05 74.09 98.15 74.01 106.24 73.73 C 106.74 73.97 107.74 74.44 108.25 74.67 C 106.52 74.90 104.79 75.12 103.08 75.47 L 102.23 75.62 C 90.48 74.49 78.66 75.13 66.87 74.99 C 59.20 74.97 51.54 75.01 43.87 74.96 C 42.56 74.92 41.24 74.89 39.93 74.85 Z" />
</g>
<g id="#717b07ff">
<path fill="#717b07" opacity="1.00" d=" M 145.20 74.13 C 147.57 73.18 149.13 76.81 146.80 77.87 C 144.43 78.82 142.87 75.19 145.20 74.13 Z" />
</g>
<g id="#6e6e6879">
<path fill="#6e6e68" opacity="0.47" d=" M 156.27 73.74 C 158.11 78.60 157.85 83.87 158.07 88.97 C 155.35 84.50 156.25 78.68 156.27 73.74 Z" />
</g>
<g id="#bd5a5af2">
<path fill="#bd5a5a" opacity="0.95" d=" M 37.88 82.80 C 38.88 80.27 38.17 76.97 39.93 74.85 C 41.24 74.89 42.56 74.92 43.87 74.96 C 43.21 78.33 42.36 81.92 43.61 85.24 L 43.86 86.13 L 42.80 86.21 C 41.77 86.25 40.75 86.40 39.75 86.66 C 39.32 86.76 38.45 86.95 38.02 87.04 C 37.97 85.63 37.92 84.22 37.88 82.80 Z" />
</g>
<g id="#877f7fff">
<path fill="#877f7f" opacity="1.00" d=" M 43.87 74.96 C 51.54 75.01 59.20 74.97 66.87 74.99 L 67.12 75.76 C 61.69 74.92 64.61 81.57 63.91 84.91 C 63.47 84.93 62.58 84.97 62.14 85.00 C 62.45 82.11 64.46 78.15 61.73 76.15 C 56.15 75.92 50.56 75.79 44.99 76.06 C 44.81 79.06 44.69 82.24 45.85 85.08 C 45.29 85.12 44.17 85.20 43.61 85.24 C 42.36 81.92 43.21 78.33 43.87 74.96 Z" />
</g>
<g id="#726c6bff">
<path fill="#726c6b" opacity="1.00" d=" M 66.87 74.99 C 78.66 75.13 90.48 74.49 102.23 75.62 C 99.40 75.88 96.56 76.03 93.77 76.56 C 89.25 79.82 81.26 73.98 78.16 79.00 C 77.96 74.51 71.03 78.01 68.03 76.79 C 67.80 76.53 67.35 76.02 67.12 75.76 L 66.87 74.99 Z" />
</g>
<g id="#ca5252ff">
<path fill="#ca5252" opacity="1.00" d=" M 103.08 75.47 C 104.79 75.12 106.52 74.90 108.25 74.67 C 108.11 78.41 107.98 82.16 107.97 85.91 L 107.22 86.20 L 106.33 86.40 C 105.51 86.31 103.86 86.15 103.04 86.06 L 103.18 85.17 C 103.67 82.01 104.83 78.47 103.08 75.47 Z" />
</g>
<g id="#897272b7">
<path fill="#897272" opacity="0.72" d=" M 108.25 74.67 C 108.74 75.64 109.12 76.65 109.39 77.71 C 109.23 80.53 109.08 83.36 108.95 86.18 L 108.88 87.21 C 108.66 86.89 108.20 86.24 107.97 85.91 C 107.98 82.16 108.11 78.41 108.25 74.67 Z" />
</g>
<g id="#565858ff">
<path fill="#565858" opacity="1.00" d=" M 44.99 76.06 C 50.56 75.79 56.15 75.92 61.73 76.15 C 64.46 78.15 62.45 82.11 62.14 85.00 C 56.71 85.10 51.28 84.93 45.85 85.08 C 44.69 82.24 44.81 79.06 44.99 76.06 M 51.19 77.40 C 48.16 78.00 47.46 81.66 49.20 83.92 C 53.07 82.43 60.73 86.64 57.88 78.21 C 56.81 76.16 54.96 77.44 53.74 78.54 C 52.64 79.28 52.32 76.69 51.19 77.40 Z" />
</g>
<g id="#565757ff">
<path fill="#565757" opacity="1.00" d=" M 63.91 84.91 C 64.61 81.57 61.69 74.92 67.12 75.76 C 67.35 76.02 67.80 76.53 68.03 76.79 C 65.15 78.18 67.34 81.50 67.06 83.92 C 66.49 84.16 65.35 84.63 64.78 84.87 L 63.91 84.91 Z" />
</g>
<g id="#5b5b5bff">
<path fill="#5b5b5b" opacity="1.00" d=" M 93.77 76.56 C 96.56 76.03 99.40 75.88 102.23 75.62 C 101.97 78.49 102.47 81.54 101.31 84.25 C 100.73 84.21 99.56 84.13 98.98 84.08 C 98.50 82.74 98.17 81.35 97.94 79.95 C 100.48 77.10 95.71 76.88 93.77 76.56 Z" />
</g>
<g id="#7f8282ff">
<path fill="#7f8282" opacity="1.00" d=" M 102.23 75.62 L 103.08 75.47 C 103.10 78.70 103.07 81.94 103.18 85.17 C 102.64 85.15 101.55 85.10 101.00 85.08 L 101.31 84.25 C 102.47 81.54 101.97 78.49 102.23 75.62 Z" />
</g>
<g id="#b96666ff">
<path fill="#b96666" opacity="1.00" d=" M 103.08 75.47 C 104.83 78.47 103.67 82.01 103.18 85.17 C 103.07 81.94 103.10 78.70 103.08 75.47 Z" />
</g>
<g id="#a5a5a5ff">
<path fill="#a5a5a5" opacity="1.00" d=" M 51.19 77.40 C 52.32 76.69 52.64 79.28 53.74 78.54 C 54.96 77.44 56.81 76.16 57.88 78.21 C 60.73 86.64 53.07 82.43 49.20 83.92 C 47.46 81.66 48.16 78.00 51.19 77.40 Z" />
</g>
<g id="#a6a6a6ff">
<path fill="#a6a6a6" opacity="1.00" d=" M 67.06 83.92 C 67.34 81.50 65.15 78.18 68.03 76.79 C 71.03 78.01 77.96 74.51 78.16 79.00 L 78.14 79.81 C 78.08 81.20 78.02 82.60 77.98 83.99 C 74.33 84.02 70.70 84.01 67.06 83.92 M 68.90 79.15 C 69.25 82.67 74.51 81.63 77.01 80.83 C 75.32 77.99 71.37 81.08 68.90 79.15 Z" />
</g>
<g id="#9d9d9dff">
<path fill="#9d9d9d" opacity="1.00" d=" M 78.16 79.00 C 81.26 73.98 89.25 79.82 93.77 76.56 C 95.71 76.88 100.48 77.10 97.94 79.95 C 95.09 79.05 92.02 79.65 89.14 79.90 C 89.25 80.24 89.47 80.91 89.58 81.24 C 89.18 82.55 90.07 83.31 91.09 83.96 C 87.42 83.97 83.76 84.03 80.09 83.99 C 79.81 82.37 80.62 79.72 78.14 79.81 L 78.16 79.00 Z" />
</g>
<g id="#1819191a">
<path fill="#181919" opacity="0.10" d=" M 109.39 77.71 C 110.31 80.35 109.94 83.18 110.00 85.94 L 108.95 86.18 C 109.08 83.36 109.23 80.53 109.39 77.71 Z" />
</g>
<g id="#818181ff">
<path fill="#818181" opacity="1.00" d=" M 68.90 79.15 C 71.37 81.08 75.32 77.99 77.01 80.83 C 74.51 81.63 69.25 82.67 68.90 79.15 Z" />
</g>
<g id="#8e8e8eff">
<path fill="#8e8e8e" opacity="1.00" d=" M 89.14 79.90 C 92.02 79.65 95.09 79.05 97.94 79.95 C 98.17 81.35 98.50 82.74 98.98 84.08 C 96.97 84.01 94.95 83.99 92.93 83.97 C 93.75 83.20 94.61 82.45 95.22 81.50 C 93.34 81.55 91.46 81.41 89.58 81.24 C 89.47 80.91 89.25 80.24 89.14 79.90 Z" />
</g>
<g id="#b6c66cfe">
<path fill="#b6c66c" opacity="1.00" d=" M 232.10 84.22 C 234.52 82.16 237.36 80.66 239.97 78.86 C 242.97 80.58 245.94 82.33 248.87 84.18 C 249.28 87.06 248.90 89.96 248.93 92.85 C 246.05 94.95 243.05 96.85 240.18 98.94 C 237.58 97.06 234.77 95.50 232.09 93.75 C 232.09 91.37 232.09 86.60 232.10 84.22 Z" />
</g>
<g id="#6d6d6dff">
<path fill="#6d6d6d" opacity="1.00" d=" M 78.14 79.81 C 80.62 79.72 79.81 82.37 80.09 83.99 C 79.56 83.99 78.51 83.99 77.98 83.99 C 78.02 82.60 78.08 81.20 78.14 79.81 Z" />
</g>
<g id="#818e32ff">
<path fill="#818e32" opacity="1.00" d=" M 273.87 80.09 C 276.21 81.04 278.50 82.09 280.75 83.24 C 283.70 85.88 283.13 90.22 282.87 93.83 C 280.46 95.85 277.71 97.52 274.94 98.99 C 271.50 99.44 269.09 96.14 266.20 94.84 C 267.04 91.39 263.45 87.38 266.35 84.36 C 268.76 82.77 271.22 81.26 273.87 80.09 Z" />
</g>
<g id="#828d33fd">
<path fill="#828d33" opacity="1.00" d=" M 297.98 89.03 C 295.94 83.09 302.84 82.65 306.02 79.87 L 306.96 79.98 C 310.59 82.78 317.98 83.17 315.01 89.97 C 317.06 95.91 310.17 96.34 307.00 99.12 L 306.04 99.09 C 302.29 96.64 295.29 95.50 297.98 89.03 Z" />
</g>
<g id="#c0c0c0ff">
<path fill="#c0c0c0" opacity="1.00" d=" M 89.58 81.24 C 91.46 81.41 93.34 81.55 95.22 81.50 C 94.61 82.45 93.75 83.20 92.93 83.97 C 92.47 83.97 91.55 83.97 91.09 83.96 C 90.07 83.31 89.18 82.55 89.58 81.24 Z" />
</g>
<g id="#828383ff">
<path fill="#828383" opacity="1.00" d=" M 210.97 84.13 C 208.37 84.55 209.17 82.47 209.61 80.86 C 209.43 84.22 213.08 82.78 215.03 82.21 C 215.17 83.57 214.51 84.23 213.04 84.18 C 212.52 84.17 211.49 84.14 210.97 84.13 Z" />
</g>
<g id="#616162f5">
<path fill="#616162" opacity="0.96" d=" M 209.61 80.86 C 211.12 80.87 212.63 80.84 214.14 80.79 C 214.36 81.15 214.81 81.85 215.03 82.21 C 213.08 82.78 209.43 84.22 209.61 80.86 Z" />
</g>
<g id="#91a350ff">
<path fill="#91a350" opacity="1.00" d=" M 258.11 80.84 L 258.90 80.86 C 259.01 86.49 259.12 92.12 258.85 97.75 C 253.68 102.27 246.97 104.66 241.16 108.24 C 244.68 102.51 251.52 101.23 256.68 97.58 C 257.18 92.01 256.76 86.31 258.11 80.84 Z" />
</g>
<g id="#1e1e1e20">
<path fill="#1e1e1e" opacity="0.13" d=" M 36.89 98.06 C 37.06 92.97 36.73 87.81 37.88 82.80 C 37.92 84.22 37.97 85.63 38.02 87.04 C 38.04 91.07 37.91 95.10 37.62 99.12 C 37.44 98.86 37.07 98.33 36.89 98.06 Z" />
</g>
<g id="#444d4dff">
<path fill="#444d4d" opacity="1.00" d=" M 64.78 84.87 C 65.35 84.63 66.49 84.16 67.06 83.92 C 70.70 84.01 74.33 84.02 77.98 83.99 C 78.51 83.99 79.56 83.99 80.09 83.99 C 83.76 84.03 87.42 83.97 91.09 83.96 C 91.55 83.97 92.47 83.97 92.93 83.97 C 94.95 83.99 96.97 84.01 98.98 84.08 C 99.56 84.13 100.73 84.21 101.31 84.25 L 101.00 85.08 C 88.93 84.86 76.85 85.19 64.78 84.87 Z" />
</g>
<g id="#b0bebefe">
<path fill="#b0bebe" opacity="1.00" d=" M 210.97 84.13 C 211.49 84.14 212.52 84.17 213.04 84.18 C 212.95 94.05 212.87 103.92 213.24 113.78 C 213.14 117.26 212.95 120.75 213.20 124.23 C 213.26 126.66 213.09 129.26 214.84 131.14 C 212.85 131.00 210.85 130.92 208.86 130.87 C 209.14 130.64 209.70 130.17 209.98 129.93 C 212.00 124.47 210.74 117.77 210.81 111.78 C 211.13 102.57 210.99 93.35 210.97 84.13 Z" />
</g>
<g id="#9e6a6aff">
<path fill="#9e6a6a" opacity="1.00" d=" M 43.61 85.24 C 44.17 85.20 45.29 85.12 45.85 85.08 C 51.28 84.93 56.71 85.10 62.14 85.00 C 62.58 84.97 63.47 84.93 63.91 84.91 L 64.78 84.87 C 76.85 85.19 88.93 84.86 101.00 85.08 C 101.55 85.10 102.64 85.15 103.18 85.17 L 103.04 86.06 C 83.31 86.01 63.58 85.85 43.86 86.13 L 43.61 85.24 Z" />
</g>
<g id="#809230ff">
<path fill="#809230" opacity="1.00" d=" M 141.95 110.02 C 142.39 101.74 140.90 93.13 143.08 85.08 C 142.93 93.72 142.87 102.36 143.07 111.00 C 141.06 114.58 146.45 117.32 144.51 120.58 C 141.32 125.46 143.63 131.75 142.87 137.17 C 141.46 131.43 141.05 124.48 143.74 118.98 C 142.22 116.25 140.95 113.36 141.95 110.02 Z" />
</g>
<g id="#823636ff">
<path fill="#823636" opacity="1.00" d=" M 39.75 86.66 C 40.75 86.40 41.77 86.25 42.80 86.21 C 57.79 87.91 72.94 86.58 88.00 87.02 C 94.07 86.64 100.35 87.85 106.33 86.40 L 107.22 86.20 C 106.96 86.68 106.43 87.63 106.17 88.11 C 84.46 88.02 62.73 87.79 41.03 88.13 L 40.98 89.10 C 40.93 92.80 40.99 96.52 40.80 100.22 C 40.15 95.72 40.05 91.19 39.75 86.66 Z" />
</g>
<g id="#a43c3cff">
<path fill="#a43c3c" opacity="1.00" d=" M 42.80 86.21 L 43.86 86.13 C 63.58 85.85 83.31 86.01 103.04 86.06 C 103.86 86.15 105.51 86.31 106.33 86.40 C 100.35 87.85 94.07 86.64 88.00 87.02 C 72.94 86.58 57.79 87.91 42.80 86.21 Z" />
</g>
<g id="#a24544fe">
<path fill="#a24544" opacity="1.00" d=" M 107.22 86.20 L 107.97 85.91 C 108.20 86.24 108.66 86.89 108.88 87.21 C 108.94 90.46 108.87 93.73 108.99 96.98 C 109.03 98.07 109.30 99.10 109.83 100.06 C 109.11 101.24 108.74 102.62 109.10 103.98 C 109.07 107.40 108.62 110.94 109.66 114.26 C 109.83 117.15 109.97 120.06 110.13 122.95 C 109.00 123.28 104.46 122.17 106.91 124.09 C 106.51 125.11 106.12 126.14 105.76 127.17 C 104.81 121.62 97.69 124.89 93.79 123.52 C 94.08 123.15 94.65 122.40 94.93 122.03 C 99.25 121.96 103.58 122.10 107.90 122.02 C 107.75 121.70 107.46 121.07 107.31 120.75 L 107.01 120.02 L 107.13 119.15 C 108.04 115.70 108.07 112.24 107.23 108.78 C 107.08 107.59 106.93 106.41 106.78 105.22 C 106.85 99.77 107.29 94.28 106.25 88.88 L 106.17 88.11 C 106.43 87.63 106.96 86.68 107.22 86.20 Z" />
</g>
<g id="#46383862">
<path fill="#463838" opacity="0.38" d=" M 108.95 86.18 L 110.00 85.94 C 110.05 89.66 109.94 93.38 109.91 97.11 L 108.99 96.98 C 108.87 93.73 108.94 90.46 108.88 87.21 L 108.95 86.18 Z" />
</g>
<g id="#a14c4cfb">
<path fill="#a14c4c" opacity="1.00" d=" M 38.02 87.04 C 38.45 86.95 39.32 86.76 39.75 86.66 C 40.05 91.19 40.15 95.72 40.80 100.22 C 41.64 106.57 40.59 112.80 39.96 119.07 C 39.95 119.54 39.93 120.48 39.92 120.95 C 39.41 120.99 38.40 121.06 37.90 121.09 C 37.66 115.40 38.88 109.37 37.16 103.85 C 37.21 102.26 37.43 100.69 37.62 99.12 C 37.91 95.10 38.04 91.07 38.02 87.04 Z" />
</g>
<g id="#8f9190f1">
<path fill="#8f9190" opacity="0.95" d=" M 113.77 87.76 C 114.34 86.18 116.53 87.23 117.78 87.12 C 120.36 89.55 118.44 93.90 119.09 96.97 C 117.41 96.99 115.73 96.99 114.06 97.00 C 113.97 93.91 113.93 90.84 113.77 87.76 Z" />
</g>
<g id="#0d20123a">
<path fill="#0d2012" opacity="0.23" d=" M 13.01 88.00 C 18.06 87.98 23.11 88.09 28.16 88.21 C 23.15 89.02 18.07 89.04 13.01 89.01 L 13.01 88.00 Z" />
</g>
<g id="#615e5dc7">
<path fill="#615e5d" opacity="0.78" d=" M 29.02 88.15 L 29.97 88.07 C 29.99 90.97 29.86 93.89 30.11 96.78 C 31.41 97.02 32.71 97.25 34.02 97.47 C 34.97 97.68 35.93 97.88 36.89 98.06 C 37.07 98.33 37.44 98.86 37.62 99.12 C 37.43 100.69 37.21 102.26 37.16 103.85 C 34.67 104.54 35.11 101.92 34.60 100.34 C 32.87 99.35 31.01 98.59 29.23 97.68 C 28.72 94.53 29.07 91.31 29.02 88.15 Z" />
</g>
<g id="#979998ff">
<path fill="#979998" opacity="1.00" d=" M 29.97 88.07 C 31.37 87.95 32.78 87.85 34.19 87.77 C 34.11 90.99 34.06 94.24 34.02 97.47 C 32.71 97.25 31.41 97.02 30.11 96.78 C 29.86 93.89 29.99 90.97 29.97 88.07 Z" />
</g>
<g id="#616161af">
<path fill="#616161" opacity="0.69" d=" M 34.19 87.77 C 36.44 90.13 33.84 94.68 34.02 97.47 C 34.06 94.24 34.11 90.99 34.19 87.77 Z" />
</g>
<g id="#c1a8a7ff">
<path fill="#c1a8a7" opacity="1.00" d=" M 41.03 88.13 C 62.73 87.79 84.46 88.02 106.17 88.11 L 106.25 88.88 C 84.77 89.27 63.29 88.67 41.82 89.20 L 40.98 89.10 L 41.03 88.13 Z" />
</g>
<g id="#676868ea">
<path fill="#676868" opacity="0.92" d=" M 113.16 97.18 C 113.25 94.10 112.37 90.60 113.77 87.76 C 113.93 90.84 113.97 93.91 114.06 97.00 L 113.16 97.18 Z" />
</g>
<g id="#727a0cfd">
<path fill="#727a0c" opacity="1.00" d=" M 151.21 88.12 C 154.11 86.97 155.09 92.06 151.96 91.96 C 149.10 93.23 149.52 89.08 151.21 88.12 Z" />
</g>
<g id="#ebecebff">
<path fill="#ebeceb" opacity="1.00" d=" M 40.98 89.10 L 41.82 89.20 C 52.16 90.60 62.64 89.84 73.04 90.21 C 73.01 91.40 72.97 92.58 72.94 93.77 C 72.55 94.04 71.78 94.58 71.39 94.85 C 71.06 98.19 71.39 101.70 70.14 104.88 C 65.45 108.92 60.96 113.23 56.89 117.90 C 56.45 118.21 55.59 118.82 55.15 119.13 C 50.37 119.09 45.60 119.03 40.82 119.19 L 39.96 119.07 C 40.59 112.80 41.64 106.57 40.80 100.22 C 40.99 96.52 40.93 92.80 40.98 89.10 Z" />
</g>
<g id="#f0f5f4ff">
<path fill="#f0f5f4" opacity="1.00" d=" M 41.82 89.20 C 63.29 88.67 84.77 89.27 106.25 88.88 C 106.21 89.37 106.12 90.35 106.08 90.84 C 96.82 89.38 87.38 89.99 78.05 90.06 C 76.49 90.02 76.19 92.06 75.31 93.03 C 75.43 91.38 74.97 90.44 73.92 90.19 L 73.04 90.21 C 62.64 89.84 52.16 90.60 41.82 89.20 Z" />
</g>
<g id="#d5cccbfd">
<path fill="#d5cccb" opacity="1.00" d=" M 106.25 88.88 C 107.29 94.28 106.85 99.77 106.78 105.22 C 105.92 100.47 105.92 95.64 106.08 90.84 C 106.12 90.35 106.21 89.37 106.25 88.88 Z" />
</g>
<g id="#848583ff">
<path fill="#848583" opacity="1.00" d=" M 73.04 90.21 L 73.92 90.19 C 74.04 99.84 74.00 109.49 74.00 119.14 L 73.17 119.34 C 72.92 110.82 73.06 102.29 72.94 93.77 C 72.97 92.58 73.01 91.40 73.04 90.21 Z" />
</g>
<g id="#b9b9b8ff">
<path fill="#b9b9b8" opacity="1.00" d=" M 73.92 90.19 C 74.97 90.44 75.43 91.38 75.31 93.03 C 75.41 93.54 75.60 94.57 75.70 95.09 C 74.53 97.32 74.30 99.60 75.03 101.93 C 75.07 107.39 74.80 112.90 75.77 118.31 L 75.84 119.19 L 74.84 119.23 L 74.00 119.14 C 74.00 109.49 74.04 99.84 73.92 90.19 Z" />
</g>
<g id="#ebedecff">
<path fill="#ebedec" opacity="1.00" d=" M 75.31 93.03 C 76.19 92.06 76.49 90.02 78.05 90.06 C 87.38 89.99 96.82 89.38 106.08 90.84 C 105.92 95.64 105.92 100.47 106.78 105.22 C 106.93 106.41 107.08 107.59 107.23 108.78 C 107.16 112.23 107.03 115.70 107.13 119.15 C 102.37 119.05 97.62 119.06 92.86 119.11 L 92.07 118.98 C 86.67 114.16 81.37 109.21 76.58 103.77 L 76.80 102.92 C 78.10 100.12 77.90 97.72 76.22 95.72 L 75.70 95.09 C 75.60 94.57 75.41 93.54 75.31 93.03 Z" />
</g>
<g id="#75c0e7fd">
<path fill="#75c0e7" opacity="1.00" d=" M 174.74 101.75 C 175.66 96.18 181.01 92.65 186.08 91.05 C 193.60 89.95 201.19 95.07 202.36 102.71 C 202.62 112.82 200.54 123.32 202.76 133.27 C 203.96 136.37 201.33 136.21 199.00 136.00 C 198.94 125.35 199.14 114.70 198.95 104.05 C 191.98 103.91 185.01 103.87 178.05 104.06 C 177.88 114.70 178.05 125.36 178.00 136.01 C 177.25 136.00 175.77 135.98 175.02 135.97 C 174.89 124.57 175.26 113.15 174.74 101.75 M 184.01 100.99 L 184.02 101.95 C 186.41 101.53 191.13 103.22 192.00 101.00 C 193.61 101.85 193.59 97.19 192.00 98.00 C 188.84 98.35 182.42 95.84 184.01 100.99 Z" />
</g>
<g id="#d4d5d4ff">
<path fill="#d4d5d4" opacity="1.00" d=" M 71.39 94.85 C 71.78 94.58 72.55 94.04 72.94 93.77 C 73.06 102.29 72.92 110.82 73.17 119.34 C 72.66 119.28 71.65 119.16 71.14 119.11 L 71.24 118.21 C 72.05 110.52 72.88 102.51 71.39 94.85 Z" />
</g>
<g id="#656565ff">
<path fill="#656565" opacity="1.00" d=" M 71.39 94.85 C 72.88 102.51 72.05 110.52 71.24 118.21 C 71.12 117.74 70.88 116.78 70.77 116.30 C 70.73 113.46 70.97 110.61 70.53 107.80 C 70.44 106.83 70.29 105.85 70.14 104.88 C 71.39 101.70 71.06 98.19 71.39 94.85 Z" />
</g>
<g id="#787978ff">
<path fill="#787978" opacity="1.00" d=" M 75.03 101.93 C 74.30 99.60 74.53 97.32 75.70 95.09 L 76.22 95.72 C 76.06 97.85 76.08 100.01 75.67 102.11 L 75.03 101.93 Z" />
</g>
<g id="#aeafaeff">
<path fill="#aeafae" opacity="1.00" d=" M 76.22 95.72 C 77.90 97.72 78.10 100.12 76.80 102.92 C 76.52 102.72 75.96 102.32 75.67 102.11 C 76.08 100.01 76.06 97.85 76.22 95.72 Z" />
</g>
<g id="#5b5555b5">
<path fill="#5b5555" opacity="0.71" d=" M 108.99 96.98 L 109.91 97.11 C 109.39 100.15 112.24 98.72 113.16 97.18 L 114.06 97.00 C 115.73 96.99 117.41 96.99 119.09 96.97 C 117.23 98.62 114.63 99.20 112.48 100.45 C 111.82 101.55 112.19 103.46 110.78 103.96 C 111.43 102.66 111.38 100.69 109.83 100.06 C 109.30 99.10 109.03 98.07 108.99 96.98 Z" />
</g>
<g id="#bfddf1fe">
<path fill="#bfddf1" opacity="1.00" d=" M 184.01 100.99 C 182.42 95.84 188.84 98.35 192.00 98.00 C 193.59 97.19 193.61 101.85 192.00 101.00 C 189.33 101.00 186.67 100.99 184.01 100.99 Z" />
</g>
<g id="#6b7f34fe">
<path fill="#6b7f34" opacity="1.00" d=" M 273.20 107.29 C 277.13 102.92 282.85 100.69 288.01 98.08 C 294.21 101.01 300.04 104.73 306.00 108.13 L 306.03 109.06 C 303.54 110.71 300.83 111.99 298.10 113.17 C 295.44 111.64 292.70 110.24 289.88 109.06 C 286.54 109.55 283.38 111.69 281.19 114.28 C 280.97 117.16 280.98 120.08 281.15 122.97 C 279.88 123.98 278.58 124.94 277.26 125.87 C 275.94 125.18 274.46 125.05 273.01 124.89 C 272.97 119.02 272.87 113.15 273.20 107.29 Z" />
</g>
<g id="#99a766f2">
<path fill="#99a766" opacity="0.95" d=" M 306.04 99.09 L 307.00 99.12 C 306.47 102.24 308.22 106.75 306.03 109.06 L 306.00 108.13 C 306.01 105.12 306.00 102.09 306.04 99.09 Z" />
</g>
<g id="#353230f1">
<path fill="#353230" opacity="0.95" d=" M 109.83 100.06 C 111.38 100.69 111.43 102.66 110.78 103.96 L 109.98 104.37 L 109.10 103.98 C 108.74 102.62 109.11 101.24 109.83 100.06 Z" />
</g>
<g id="#717b09ff">
<path fill="#717b09" opacity="1.00" d=" M 148.20 100.13 C 150.57 99.18 152.13 102.81 149.80 103.87 C 147.43 104.82 145.87 101.19 148.20 100.13 Z" />
</g>
<g id="#9ed1eeff">
<path fill="#9ed1ee" opacity="1.00" d=" M 184.01 100.99 C 186.67 100.99 189.33 101.00 192.00 101.00 C 191.13 103.22 186.41 101.53 184.02 101.95 L 184.01 100.99 Z" />
</g>
<g id="#939392ff">
<path fill="#939392" opacity="1.00" d=" M 75.03 101.93 L 75.67 102.11 C 75.96 102.32 76.52 102.72 76.80 102.92 L 76.58 103.77 C 75.69 105.69 75.93 107.64 77.72 108.88 C 77.27 112.04 77.29 115.41 75.77 118.31 C 74.80 112.90 75.07 107.39 75.03 101.93 Z" />
</g>
<g id="#93c1dae9">
<path fill="#93c1da" opacity="0.91" d=" M 174.08 135.92 C 174.00 124.54 173.37 113.06 174.74 101.75 C 175.26 113.15 174.89 124.57 175.02 135.97 L 174.08 135.92 Z" />
</g>
<g id="#799aadb7">
<path fill="#799aad" opacity="0.72" d=" M 202.36 102.71 C 204.31 112.70 202.40 123.15 202.76 133.27 C 200.54 123.32 202.62 112.82 202.36 102.71 Z" />
</g>
<g id="#5d53537c">
<path fill="#5d5353" opacity="0.49" d=" M 37.16 103.85 C 38.88 109.37 37.66 115.40 37.90 121.09 L 37.56 122.12 C 36.41 116.11 37.21 109.91 37.16 103.85 Z" />
</g>
<g id="#727170ff">
<path fill="#727170" opacity="1.00" d=" M 77.72 108.88 C 75.93 107.64 75.69 105.69 76.58 103.77 C 81.37 109.21 86.67 114.16 92.07 118.98 C 91.38 119.06 89.99 119.21 89.30 119.29 L 88.29 119.03 C 84.97 115.45 81.66 111.81 77.72 108.88 Z" />
</g>
<g id="#8b8181e7">
<path fill="#8b8181" opacity="0.91" d=" M 109.10 103.98 L 109.98 104.37 C 110.05 104.97 110.19 106.17 110.26 106.77 C 110.11 108.64 109.81 112.39 109.66 114.26 C 108.62 110.94 109.07 107.40 109.10 103.98 Z" />
</g>
<g id="#5193c1ff">
<path fill="#5193c1" opacity="1.00" d=" M 178.05 104.06 C 185.01 103.87 191.98 103.91 198.95 104.05 C 199.14 114.70 198.94 125.35 199.00 136.00 L 198.00 136.00 C 197.95 125.69 198.13 115.37 197.94 105.06 C 191.64 105.01 185.34 104.72 179.05 105.10 C 178.87 115.40 179.04 125.70 179.00 136.00 L 178.00 136.01 C 178.05 125.36 177.88 114.70 178.05 104.06 Z" />
</g>
<g id="#797978ff">
<path fill="#797978" opacity="1.00" d=" M 56.89 117.90 C 60.96 113.23 65.45 108.92 70.14 104.88 C 70.29 105.85 70.44 106.83 70.53 107.80 L 70.01 108.70 C 66.52 112.16 63.07 115.75 58.74 118.16 C 58.27 118.10 57.35 117.96 56.89 117.90 Z" />
</g>
<g id="#3975a7fe">
<path fill="#3975a7" opacity="1.00" d=" M 179.05 105.10 C 185.34 104.72 191.64 105.01 197.94 105.06 C 198.13 115.37 197.95 125.69 198.00 136.00 C 196.33 136.01 194.67 136.00 193.00 136.02 C 189.98 135.98 187.00 135.98 183.99 136.02 C 182.33 136.01 180.66 136.02 179.00 136.00 C 179.04 125.70 178.87 115.40 179.05 105.10 M 182.02 112.99 C 181.85 117.31 181.99 121.63 182.03 125.96 C 182.52 125.97 183.51 126.00 184.00 126.01 L 184.02 126.96 C 186.44 126.24 192.93 129.25 193.00 126.00 L 193.99 125.98 L 194.96 125.99 C 195.14 121.65 195.03 117.31 195.00 112.98 C 196.11 109.02 191.26 107.41 188.00 108.97 C 184.30 106.78 181.22 109.83 182.02 112.99 Z" />
</g>
<g id="#707a04ff">
<path fill="#707a04" opacity="1.00" d=" M 152.01 106.01 C 154.54 105.34 155.65 106.45 154.99 108.99 C 152.45 109.66 151.34 108.54 152.01 106.01 Z" />
</g>
<g id="#57414181">
<path fill="#574141" opacity="0.51" d=" M 110.26 106.77 C 111.09 112.13 110.99 117.56 111.21 122.97 L 110.13 122.95 C 109.97 120.06 109.83 117.15 109.66 114.26 C 109.81 112.39 110.11 108.64 110.26 106.77 Z" />
</g>
<g id="#c3c4c3ff">
<path fill="#c3c4c3" opacity="1.00" d=" M 70.53 107.80 C 70.97 110.61 70.73 113.46 70.77 116.30 C 70.14 113.82 69.89 111.28 70.01 108.70 L 70.53 107.80 Z" />
</g>
<g id="#818d32fe">
<path fill="#818d32" opacity="1.00" d=" M 247.77 112.91 C 250.80 111.35 253.53 108.59 256.93 108.02 C 259.71 109.45 262.48 111.10 264.83 113.19 C 265.23 116.43 264.96 119.69 265.03 122.95 C 262.11 124.38 259.28 126.33 256.09 126.97 C 253.36 125.78 250.77 124.29 248.27 122.68 C 247.72 119.46 247.93 116.16 247.77 112.91 Z" />
</g>
<g id="#eaecebff">
<path fill="#eaeceb" opacity="1.00" d=" M 58.74 118.16 C 63.07 115.75 66.52 112.16 70.01 108.70 C 69.89 111.28 70.14 113.82 70.77 116.30 C 70.88 116.78 71.12 117.74 71.24 118.21 L 71.14 119.11 C 67.11 119.05 63.09 119.01 59.07 118.99 L 58.74 118.16 Z" />
</g>
<g id="#e8eae9ff">
<path fill="#e8eae9" opacity="1.00" d=" M 75.77 118.31 C 77.29 115.41 77.27 112.04 77.72 108.88 C 81.66 111.81 84.97 115.45 88.29 119.03 C 84.14 119.01 79.99 119.07 75.84 119.19 L 75.77 118.31 Z" />
</g>
<g id="#b27070ff">
<path fill="#b27070" opacity="1.00" d=" M 107.23 108.78 C 108.07 112.24 108.04 115.70 107.13 119.15 C 107.03 115.70 107.16 112.23 107.23 108.78 Z" />
</g>
<g id="#919293ff">
<path fill="#919293" opacity="1.00" d=" M 182.02 112.99 C 181.22 109.83 184.30 106.78 188.00 108.97 C 191.26 107.41 196.11 109.02 195.00 112.98 L 194.00 113.01 C 190.00 113.00 186.01 112.99 182.02 112.99 Z" />
</g>
<g id="#808c31fe">
<path fill="#808c31" opacity="1.00" d=" M 281.19 114.28 C 283.38 111.69 286.54 109.55 289.88 109.06 C 292.70 110.24 295.44 111.64 298.10 113.17 C 298.04 116.37 297.96 119.55 297.81 122.75 C 296.14 124.56 293.87 125.62 291.81 126.90 C 290.22 126.95 288.64 126.96 287.05 126.96 C 285.20 125.47 283.23 124.12 281.15 122.97 C 280.98 120.08 280.97 117.16 281.19 114.28 Z" />
</g>
<g id="#14141416">
<path fill="#141414" opacity="0.09" d=" M 209.98 129.93 C 210.08 123.87 209.72 117.77 210.81 111.78 C 210.74 117.77 212.00 124.47 209.98 129.93 Z" />
</g>
<g id="#525457ff">
<path fill="#525457" opacity="1.00" d=" M 182.02 112.99 C 186.01 112.99 190.00 113.00 194.00 113.01 C 193.99 117.33 194.00 121.65 193.99 125.98 L 193.00 126.00 C 189.98 125.99 187.00 125.99 184.00 126.01 C 183.51 126.00 182.52 125.97 182.03 125.96 C 181.99 121.63 181.85 117.31 182.02 112.99 M 183.97 114.02 C 184.72 117.78 184.67 121.28 183.98 125.05 C 189.32 125.25 184.97 119.66 186.78 116.91 C 187.84 114.35 186.44 113.38 183.97 114.02 M 188.00 116.00 L 188.00 121.00 L 193.00 121.00 L 193.00 116.00 L 188.00 116.00 Z" />
</g>
<g id="#465c6efe">
<path fill="#465c6e" opacity="1.00" d=" M 194.00 113.01 L 195.00 112.98 C 195.03 117.31 195.14 121.65 194.96 125.99 L 193.99 125.98 C 194.00 121.65 193.99 117.33 194.00 113.01 Z" />
</g>
<g id="#8e8d91ff">
<path fill="#8e8d91" opacity="1.00" d=" M 183.97 114.02 C 186.44 113.38 187.84 114.35 186.78 116.91 C 184.97 119.66 189.32 125.25 183.98 125.05 C 184.67 121.28 184.72 117.78 183.97 114.02 Z" />
</g>
<g id="#494a4a54">
<path fill="#494a4a" opacity="0.33" d=" M 213.24 113.78 C 213.92 117.27 213.91 120.75 213.20 124.23 C 212.95 120.75 213.14 117.26 213.24 113.78 Z" />
</g>
<g id="#8e8e91ff">
<path fill="#8e8e91" opacity="1.00" d=" M 188.00 116.00 L 193.00 116.00 L 193.00 121.00 L 188.00 121.00 L 188.00 116.00 Z" />
</g>
<g id="#727b0bff">
<path fill="#727b0b" opacity="1.00" d=" M 152.20 117.13 C 154.57 116.18 156.13 119.81 153.80 120.87 C 151.43 121.82 149.87 118.19 152.20 117.13 Z" />
</g>
<g id="#803837ff">
<path fill="#803837" opacity="1.00" d=" M 55.15 119.13 C 55.59 118.82 56.45 118.21 56.89 117.90 C 57.35 117.96 58.27 118.10 58.74 118.16 L 59.07 118.99 C 62.59 120.92 68.70 120.43 73.17 119.34 L 74.00 119.14 L 74.84 119.23 C 79.58 119.81 84.64 120.86 89.30 119.29 C 89.99 119.21 91.38 119.06 92.07 118.98 L 92.86 119.11 C 97.50 120.17 102.28 120.00 107.01 120.02 L 107.31 120.75 C 103.65 122.06 97.92 119.13 94.93 122.03 C 94.65 122.40 94.08 123.15 93.79 123.52 L 93.08 123.50 C 92.07 122.86 91.18 122.02 90.11 121.46 C 79.09 120.72 67.96 120.70 56.94 121.35 C 56.03 121.72 55.33 122.41 54.82 123.43 L 54.10 123.43 C 53.57 123.08 52.50 122.37 51.96 122.02 C 48.24 120.47 43.90 121.20 39.92 120.95 C 39.93 120.48 39.95 119.54 39.96 119.07 L 40.82 119.19 C 45.40 119.44 50.89 121.45 55.15 119.13 Z" />
</g>
<g id="#a36d6dff">
<path fill="#a36d6d" opacity="1.00" d=" M 40.82 119.19 C 45.60 119.03 50.37 119.09 55.15 119.13 C 50.89 121.45 45.40 119.44 40.82 119.19 Z" />
</g>
<g id="#9e6564ff">
<path fill="#9e6564" opacity="1.00" d=" M 59.07 118.99 C 63.09 119.01 67.11 119.05 71.14 119.11 C 71.65 119.16 72.66 119.28 73.17 119.34 C 68.70 120.43 62.59 120.92 59.07 118.99 Z" />
</g>
<g id="#9f6564ff">
<path fill="#9f6564" opacity="1.00" d=" M 74.84 119.23 L 75.84 119.19 C 79.99 119.07 84.14 119.01 88.29 119.03 L 89.30 119.29 C 84.64 120.86 79.58 119.81 74.84 119.23 Z" />
</g>
<g id="#a16b6bff">
<path fill="#a16b6b" opacity="1.00" d=" M 92.86 119.11 C 97.62 119.06 102.37 119.05 107.13 119.15 L 107.01 120.02 C 102.28 120.00 97.50 120.17 92.86 119.11 Z" />
</g>
<g id="#c08988ff">
<path fill="#c08988" opacity="1.00" d=" M 37.90 121.09 C 38.40 121.06 39.41 120.99 39.92 120.95 C 43.90 121.20 48.24 120.47 51.96 122.02 C 47.16 121.97 42.36 121.94 37.56 122.12 L 37.90 121.09 Z" />
</g>
<g id="#a64646ff">
<path fill="#a64646" opacity="1.00" d=" M 54.82 123.43 C 55.33 122.41 56.03 121.72 56.94 121.35 C 67.93 122.11 79.14 122.71 90.11 121.46 C 91.18 122.02 92.07 122.86 93.08 123.50 C 89.76 123.88 86.41 124.15 83.09 123.64 C 80.29 123.19 77.34 122.50 74.66 123.71 C 74.32 123.72 73.64 123.74 73.30 123.74 C 70.90 123.34 68.50 123.08 66.08 122.97 C 66.02 124.32 66.00 125.68 66.03 127.03 C 63.55 126.05 66.12 120.08 59.98 123.87 C 58.69 123.76 56.11 123.54 54.82 123.43 Z" />
</g>
<g id="#bc8383ff">
<path fill="#bc8383" opacity="1.00" d=" M 56.94 121.35 C 67.96 120.70 79.09 120.72 90.11 121.46 C 79.14 122.71 67.93 122.11 56.94 121.35 Z" />
</g>
<g id="#c08a8aff">
<path fill="#c08a8a" opacity="1.00" d=" M 94.93 122.03 C 97.92 119.13 103.65 122.06 107.31 120.75 C 107.46 121.07 107.75 121.70 107.90 122.02 C 103.58 122.10 99.25 121.96 94.93 122.03 Z" />
</g>
<g id="#737b0dff">
<path fill="#737b0d" opacity="1.00" d=" M 146.19 121.15 C 149.34 119.55 150.00 123.34 147.79 124.88 C 145.45 125.81 143.86 122.20 146.19 121.15 Z" />
</g>
<g id="#a04b49ff">
<path fill="#a04b49" opacity="1.00" d=" M 37.56 122.12 C 42.36 121.94 47.16 121.97 51.96 122.02 C 52.50 122.37 53.57 123.08 54.10 123.43 C 50.33 124.89 42.93 121.39 42.23 127.11 C 42.90 123.87 40.37 123.73 37.83 123.83 L 37.67 122.85 L 37.56 122.12 Z" />
</g>
<g id="#35322f4d">
<path fill="#35322f" opacity="0.30" d=" M 37.81 143.21 C 36.20 136.60 37.03 129.57 37.67 122.85 L 37.83 123.83 C 37.91 125.24 37.98 126.66 38.02 128.09 C 38.00 129.38 38.00 130.68 38.00 131.98 C 37.99 135.72 37.99 139.47 37.81 143.21 Z" />
</g>
<g id="#c95454ff">
<path fill="#c95454" opacity="1.00" d=" M 54.10 123.43 L 54.82 123.43 C 56.11 123.54 58.69 123.76 59.98 123.87 C 66.12 120.08 63.55 126.05 66.03 127.03 C 69.63 127.45 74.00 128.32 73.30 123.74 C 73.64 123.74 74.32 123.72 74.66 123.71 C 73.67 129.33 82.86 128.31 83.09 123.64 C 86.41 124.15 89.76 123.88 93.08 123.50 L 93.79 123.52 C 97.69 124.89 104.81 121.62 105.76 127.17 C 106.67 128.50 108.66 127.74 110.02 128.10 C 110.01 129.39 109.99 130.69 109.97 131.98 C 104.71 131.95 99.45 132.19 94.21 131.79 C 80.82 130.50 67.20 130.50 53.81 131.79 C 48.81 131.96 43.81 131.95 38.82 132.23 L 38.00 131.98 C 38.00 130.68 38.00 129.38 38.02 128.09 C 39.31 127.65 41.73 128.77 42.23 127.11 C 42.93 121.39 50.33 124.89 54.10 123.43 Z" />
</g>
<g id="#893838ff">
<path fill="#893838" opacity="1.00" d=" M 66.08 122.97 C 68.50 123.08 70.90 123.34 73.30 123.74 C 74.00 128.32 69.63 127.45 66.03 127.03 C 66.00 125.68 66.02 124.32 66.08 122.97 Z" />
</g>
<g id="#8a3939ff">
<path fill="#8a3939" opacity="1.00" d=" M 74.66 123.71 C 77.34 122.50 80.29 123.19 83.09 123.64 C 82.86 128.31 73.67 129.33 74.66 123.71 Z" />
</g>
<g id="#88513eef">
<path fill="#88513e" opacity="0.94" d=" M 106.91 124.09 C 104.46 122.17 109.00 123.28 110.13 122.95 L 111.21 122.97 C 111.42 124.65 111.17 126.32 111.05 127.99 L 110.02 128.10 C 108.66 127.74 106.67 128.50 105.76 127.17 C 108.17 127.19 111.11 127.40 109.97 124.10 C 109.20 124.10 107.67 124.09 106.91 124.09 Z" />
</g>
<g id="#c76e25fe">
<path fill="#c76e25" opacity="1.00" d=" M 37.83 123.83 C 40.37 123.73 42.90 123.87 42.23 127.11 C 41.73 128.77 39.31 127.65 38.02 128.09 C 37.98 126.66 37.91 125.24 37.83 123.83 Z" />
</g>
<g id="#dc7a1eff">
<path fill="#dc7a1e" opacity="1.00" d=" M 106.91 124.09 C 107.67 124.09 109.20 124.10 109.97 124.10 C 111.11 127.40 108.17 127.19 105.76 127.17 C 106.12 126.14 106.51 125.11 106.91 124.09 Z" />
</g>
<g id="#ad8260fb">
<path fill="#ad8260" opacity="1.00" d=" M 269.11 125.01 C 270.41 124.98 271.71 124.94 273.01 124.89 C 274.46 125.05 275.94 125.18 277.26 125.87 C 277.26 127.59 277.27 131.04 277.27 132.76 C 277.97 135.91 277.61 139.07 277.14 142.23 C 276.87 145.13 276.98 148.04 276.98 150.96 C 275.24 150.96 271.77 150.96 270.03 150.96 C 269.95 150.53 269.77 149.67 269.69 149.24 C 269.26 141.47 270.65 133.44 269.35 125.81 L 269.11 125.01 Z" />
</g>
<g id="#426381ff">
<path fill="#426381" opacity="1.00" d=" M 184.00 126.01 C 187.00 125.99 189.98 125.99 193.00 126.00 C 192.93 129.25 186.44 126.24 184.02 126.96 L 184.00 126.01 Z" />
</g>
<g id="#4d4a4753">
<path fill="#4d4a47" opacity="0.33" d=" M 269.35 125.81 C 270.65 133.44 269.26 141.47 269.69 149.24 C 268.77 144.66 267.28 140.13 267.57 135.42 C 268.82 132.36 269.23 129.10 269.35 125.81 Z" />
</g>
<g id="#cca47afe">
<path fill="#cca47a" opacity="1.00" d=" M 288.00 133.11 C 284.50 134.73 282.66 128.02 285.91 127.18 C 299.90 128.31 314.37 128.80 328.28 127.22 C 332.00 126.19 331.26 134.88 327.01 133.09 C 325.03 133.04 323.05 132.98 321.08 132.89 L 320.19 132.79 C 311.46 131.68 302.44 131.37 293.74 132.75 C 291.83 132.94 289.91 133.03 288.00 133.11 Z" />
</g>
<g id="#d5b897fc">
<path fill="#d5b897" opacity="1.00" d=" M 285.91 127.18 L 287.05 126.96 C 288.64 126.96 290.22 126.95 291.81 126.90 C 303.96 127.17 316.12 126.78 328.28 127.22 C 314.37 128.80 299.90 128.31 285.91 127.18 Z" />
</g>
<g id="#4d4d4d61">
<path fill="#4d4d4d" opacity="0.38" d=" M 110.02 128.10 L 111.05 127.99 C 110.52 133.23 111.93 139.24 110.14 144.10 C 110.08 140.38 110.03 136.67 109.97 132.95 L 109.97 131.98 C 109.99 130.69 110.01 129.39 110.02 128.10 Z" />
</g>
<g id="#727b09ff">
<path fill="#727b09" opacity="1.00" d=" M 148.20 130.18 C 151.37 128.55 151.92 132.25 149.85 133.91 C 148.46 133.50 145.79 131.19 148.20 130.18 Z" />
</g>
<g id="#26252733">
<path fill="#262527" opacity="0.20" d=" M 247.94 130.85 C 249.29 129.17 254.87 128.04 254.87 130.96 C 253.13 130.93 249.67 130.87 247.94 130.85 Z" />
</g>
<g id="#bc5050ff">
<path fill="#bc5050" opacity="1.00" d=" M 53.81 131.79 C 67.20 130.50 80.82 130.50 94.21 131.79 L 93.22 131.82 C 80.44 132.07 67.67 132.12 54.90 131.86 L 53.81 131.79 Z" />
</g>
<g id="#696a6af5">
<path fill="#696a6a" opacity="0.96" d=" M 207.93 135.88 C 208.19 134.27 207.43 132.01 208.86 130.87 C 210.85 130.92 212.85 131.00 214.84 131.14 C 214.98 132.39 215.04 133.65 215.02 134.92 C 212.64 135.16 210.28 135.48 207.93 135.88 Z" />
</g>
<g id="#4b4b55f0">
<path fill="#4b4b55" opacity="0.94" d=" M 239.89 133.87 C 239.03 129.10 244.96 131.40 247.94 130.85 C 249.67 130.87 253.13 130.93 254.87 130.96 C 254.91 131.70 255.01 133.17 255.06 133.91 C 254.55 133.93 253.52 133.97 253.00 133.99 L 252.00 134.01 C 251.25 134.01 249.75 134.01 249.00 134.01 C 248.50 134.01 247.50 134.02 247.00 134.02 L 246.00 134.02 C 245.25 134.01 243.75 134.00 243.00 134.00 C 242.22 133.96 240.67 133.90 239.89 133.87 Z" />
</g>
<g id="#70706efd">
<path fill="#70706e" opacity="1.00" d=" M 38.00 131.98 L 38.82 132.23 C 40.53 132.82 42.27 133.34 43.98 133.96 C 43.99 135.29 44.04 136.62 44.12 137.96 C 47.09 138.00 50.07 138.05 53.04 137.92 L 53.93 137.90 C 54.24 138.16 54.87 138.67 55.19 138.93 L 55.12 139.82 L 54.24 139.77 C 51.58 140.49 43.74 136.55 42.97 140.03 C 42.97 141.44 42.78 143.09 44.25 143.86 C 50.79 144.11 57.34 144.14 63.88 143.95 C 63.97 142.65 64.01 141.34 64.03 140.04 L 64.94 140.01 L 64.98 141.00 C 65.00 141.50 65.04 142.49 65.06 142.99 L 65.12 143.95 C 71.08 144.07 77.05 144.04 83.01 143.99 C 90.33 144.00 97.64 144.13 104.96 143.95 C 105.05 142.64 105.06 141.33 105.01 140.01 L 104.95 139.00 C 101.15 138.74 97.41 138.99 93.71 139.74 L 92.84 139.79 L 92.83 138.92 C 93.14 138.67 93.75 138.16 94.06 137.91 L 94.95 137.91 C 97.95 137.96 100.99 138.12 104.00 137.96 L 104.87 137.89 C 101.88 131.51 107.18 133.34 109.97 132.95 C 110.03 136.67 110.08 140.38 110.14 144.10 C 109.88 144.37 109.35 144.91 109.08 145.17 L 108.06 145.15 C 107.60 145.14 106.67 145.11 106.20 145.10 L 105.29 145.10 C 84.82 145.44 64.35 144.77 43.86 145.02 C 43.14 144.75 42.41 144.66 41.67 144.74 L 40.86 144.85 C 40.93 141.57 41.14 138.30 40.94 135.02 C 40.45 135.02 39.48 135.00 38.99 135.00 C 38.95 138.34 38.57 141.91 39.86 145.10 L 38.84 145.29 C 38.59 144.77 38.07 143.73 37.81 143.21 C 37.99 139.47 37.99 135.72 38.00 131.98 M 107.05 135.02 C 107.77 137.71 104.31 145.07 108.95 143.98 C 108.23 141.29 111.68 133.92 107.05 135.02 Z" />
</g>
<g id="#918881ff">
<path fill="#918881" opacity="1.00" d=" M 38.82 132.23 C 43.81 131.95 48.81 131.96 53.81 131.79 L 54.90 131.86 C 54.50 133.86 54.11 135.87 53.93 137.90 L 53.04 137.92 C 53.02 136.64 52.97 135.36 52.87 134.08 C 49.90 133.98 46.95 134.00 43.98 133.96 C 42.27 133.34 40.53 132.82 38.82 132.23 Z" />
</g>
<g id="#863838ff">
<path fill="#863838" opacity="1.00" d=" M 54.90 131.86 C 67.67 132.12 80.44 132.07 93.22 131.82 C 93.82 133.80 94.01 135.86 94.06 137.91 C 93.75 138.16 93.14 138.67 92.83 138.92 C 89.54 138.97 86.27 138.99 82.99 139.02 C 77.00 138.99 71.01 138.96 65.03 139.02 C 61.74 138.98 58.47 139.03 55.19 138.93 C 54.87 138.67 54.24 138.16 53.93 137.90 C 54.11 135.87 54.50 133.86 54.90 131.86 Z" />
</g>
<g id="#8d847dfe">
<path fill="#8d847d" opacity="1.00" d=" M 93.22 131.82 L 94.21 131.79 C 99.45 132.19 104.71 131.95 109.97 131.98 L 109.97 132.95 C 107.18 133.34 101.88 131.51 104.87 137.89 L 104.00 137.96 C 104.00 136.65 103.97 135.34 103.89 134.04 C 100.95 133.99 98.04 133.83 95.11 134.08 C 95.02 135.36 94.96 136.63 94.95 137.91 L 94.06 137.91 C 94.01 135.86 93.82 133.80 93.22 131.82 Z" />
</g>
<g id="#dbbc9dff">
<path fill="#dbbc9d" opacity="1.00" d=" M 293.74 132.75 C 302.44 131.37 311.46 131.68 320.19 132.79 C 311.37 132.88 302.54 133.37 293.74 132.75 Z" />
</g>
<g id="#54545455">
<path fill="#545454" opacity="0.33" d=" M 277.27 132.76 C 279.95 135.04 280.15 140.11 277.14 142.23 C 277.61 139.07 277.97 135.91 277.27 132.76 Z" />
</g>
<g id="#8e7250ff">
<path fill="#8e7250" opacity="1.00" d=" M 288.00 133.11 C 289.91 133.03 291.83 132.94 293.74 132.75 C 293.76 133.36 293.79 134.59 293.80 135.20 C 291.86 135.04 289.91 134.95 287.97 134.87 C 287.98 134.43 287.99 133.55 288.00 133.11 Z" />
</g>
<g id="#937654fe">
<path fill="#937654" opacity="1.00" d=" M 321.08 132.89 C 323.05 132.98 325.03 133.04 327.01 133.09 C 327.01 133.55 327.01 134.46 327.01 134.92 C 325.03 134.96 323.06 135.00 321.09 135.09 C 321.09 134.54 321.08 133.44 321.08 132.89 Z" />
</g>
<g id="#fffddfff">
<path fill="#fffddf" opacity="1.00" d=" M 43.98 133.96 C 46.95 134.00 49.90 133.98 52.87 134.08 C 52.97 135.36 53.02 136.64 53.04 137.92 C 50.07 138.05 47.09 138.00 44.12 137.96 C 44.04 136.62 43.99 135.29 43.98 133.96 Z" />
</g>
<g id="#fffee0ff">
<path fill="#fffee0" opacity="1.00" d=" M 95.11 134.08 C 98.04 133.83 100.95 133.99 103.89 134.04 C 103.97 135.34 104.00 136.65 104.00 137.96 C 100.99 138.12 97.95 137.96 94.95 137.91 C 94.96 136.63 95.02 135.36 95.11 134.08 Z" />
</g>
<g id="#b29166fe">
<path fill="#b29166" opacity="1.00" d=" M 236.76 135.78 C 236.52 133.73 238.48 134.04 239.89 133.87 C 240.02 141.25 240.00 148.62 240.00 156.00 L 237.01 156.00 C 236.96 149.26 237.16 142.51 236.76 135.78 Z" />
<path fill="#b29166" opacity="1.00" d=" M 326.09 141.23 L 326.84 141.29 C 329.26 144.18 336.37 140.95 332.91 147.82 C 331.27 149.33 328.95 147.74 327.01 148.02 C 314.00 147.91 301.00 148.01 288.00 148.03 C 286.50 148.00 283.50 147.93 282.01 147.90 C 278.56 141.45 284.08 143.37 286.86 142.91 C 288.65 142.93 292.24 142.95 294.04 142.97 C 303.02 143.04 312.01 143.01 321.00 143.02 C 322.75 142.65 326.24 144.07 326.09 141.23 Z" />
</g>
<g id="#775d3fff">
<path fill="#775d3f" opacity="1.00" d=" M 239.89 133.87 C 240.67 133.90 242.22 133.96 243.00 134.00 C 243.00 141.33 243.00 148.66 243.00 156.00 L 240.00 156.00 C 240.00 148.62 240.02 141.25 239.89 133.87 Z" />
</g>
<g id="#b29065ff">
<path fill="#b29065" opacity="1.00" d=" M 243.00 134.00 C 243.75 134.00 245.25 134.01 246.00 134.02 C 246.00 141.34 246.00 148.67 246.00 156.00 L 243.00 156.00 C 243.00 148.66 243.00 141.33 243.00 134.00 Z" />
</g>
<g id="#8c6f4cff">
<path fill="#8c6f4c" opacity="1.00" d=" M 246.00 134.02 L 247.00 134.02 C 247.00 141.34 247.00 148.67 247.00 156.00 L 246.00 156.00 C 246.00 148.67 246.00 141.34 246.00 134.02 Z" />
</g>
<g id="#745a3dff">
<path fill="#745a3d" opacity="1.00" d=" M 247.00 134.02 C 247.50 134.02 248.50 134.01 249.00 134.01 C 249.00 141.34 249.00 148.67 249.00 156.00 L 247.00 156.00 C 247.00 148.67 247.00 141.34 247.00 134.02 Z" />
</g>
<g id="#ad8d62fe">
<path fill="#ad8d62" opacity="1.00" d=" M 249.00 134.01 C 249.75 134.01 251.25 134.01 252.00 134.01 C 252.00 141.34 252.00 148.67 252.00 156.00 L 249.00 156.00 C 249.00 148.67 249.00 141.34 249.00 134.01 Z" />
</g>
<g id="#9b7d57fe">
<path fill="#9b7d57" opacity="1.00" d=" M 252.00 134.01 L 253.00 133.99 C 252.99 141.33 253.00 148.66 253.00 156.00 L 252.00 156.00 C 252.00 148.67 252.00 141.34 252.00 134.01 Z" />
</g>
<g id="#735a3cff">
<path fill="#735a3c" opacity="1.00" d=" M 253.00 133.99 C 253.52 133.97 254.55 133.93 255.06 133.91 C 254.98 141.27 254.99 148.63 255.00 156.00 L 253.00 156.00 C 253.00 148.66 252.99 141.33 253.00 133.99 Z" />
</g>
<g id="#9d7d57ff">
<path fill="#9d7d57" opacity="1.00" d=" M 255.06 133.91 L 256.03 133.96 C 255.99 141.31 255.99 148.65 256.00 156.00 L 255.00 156.00 C 254.99 148.63 254.98 141.27 255.06 133.91 Z" />
</g>
<g id="#b4946bfd">
<path fill="#b4946b" opacity="1.00" d=" M 256.03 133.96 C 256.76 134.00 258.21 134.08 258.94 134.11 C 259.13 141.41 258.98 148.70 258.99 156.00 L 256.00 156.00 C 255.99 148.65 255.99 141.31 256.03 133.96 Z" />
</g>
<g id="#9a9c9afe">
<path fill="#9a9c9a" opacity="1.00" d=" M 38.99 135.00 C 39.48 135.00 40.45 135.02 40.94 135.02 C 41.14 138.30 40.93 141.57 40.86 144.85 L 39.86 145.10 C 38.57 141.91 38.95 138.34 38.99 135.00 Z" />
</g>
<g id="#9a9c9bfe">
<path fill="#9a9c9b" opacity="1.00" d=" M 107.05 135.02 C 111.68 133.92 108.23 141.29 108.95 143.98 C 104.31 145.07 107.77 137.71 107.05 135.02 Z" />
</g>
<g id="#b0bdbdf9">
<path fill="#b0bdbd" opacity="0.98" d=" M 207.93 135.88 C 210.28 135.48 212.64 135.16 215.02 134.92 C 215.04 140.61 215.00 146.30 215.02 152.00 C 214.56 152.06 213.66 152.17 213.21 152.23 C 211.47 152.12 209.73 152.00 207.99 151.90 C 208.02 146.56 207.91 141.21 207.93 135.88 Z" />
</g>
<g id="#cba47afd">
<path fill="#cba47a" opacity="1.00" d=" M 288.11 141.18 C 283.14 142.42 282.97 133.76 287.97 134.87 C 289.91 134.95 291.86 135.04 293.80 135.20 C 302.52 136.30 311.52 136.60 320.23 135.29 L 321.09 135.09 C 323.06 135.00 325.03 134.96 327.01 134.92 C 331.82 133.22 331.81 142.69 326.84 141.29 L 326.09 141.23 C 324.42 141.07 322.75 140.97 321.08 140.86 L 320.19 140.76 C 311.44 139.69 302.44 139.40 293.72 140.73 C 291.85 140.93 289.98 141.05 288.11 141.18 Z" />
</g>
<g id="#dcc1a3fe">
<path fill="#dcc1a3" opacity="1.00" d=" M 293.80 135.20 C 302.60 134.73 311.42 135.02 320.23 135.29 C 311.52 136.60 302.52 136.30 293.80 135.20 Z" />
</g>
<g id="#6f7171f8">
<path fill="#6f7171" opacity="0.97" d=" M 183.99 136.02 C 187.00 135.98 189.98 135.98 193.00 136.02 C 193.01 138.01 193.01 140.00 192.99 141.99 C 192.21 142.00 190.64 142.03 189.85 142.04 C 189.16 142.04 187.76 142.03 187.06 142.03 C 186.56 142.03 185.55 142.01 185.05 142.01 L 184.02 141.97 C 183.98 139.99 183.99 138.00 183.99 136.02 Z" />
</g>
<g id="#34312f3a">
<path fill="#34312f" opacity="0.23" d=" M 236.00 156.00 C 236.07 149.26 235.50 142.44 236.76 135.78 C 237.16 142.51 236.96 149.26 237.01 156.00 L 236.00 156.00 Z" />
</g>
<g id="#424242ff">
<path fill="#424242" opacity="1.00" d=" M 42.97 140.03 C 43.74 136.55 51.58 140.49 54.24 139.77 C 50.48 139.86 46.72 140.01 42.97 140.03 Z" />
</g>
<g id="#59504fff">
<path fill="#59504f" opacity="1.00" d=" M 55.19 138.93 C 58.47 139.03 61.74 138.98 65.03 139.02 L 64.94 140.01 L 64.03 140.04 C 61.05 139.98 58.08 140.03 55.12 139.82 L 55.19 138.93 Z" />
</g>
<g id="#3a302fff">
<path fill="#3a302f" opacity="1.00" d=" M 65.03 139.02 C 71.01 138.96 77.00 138.99 82.99 139.02 L 83.02 140.02 C 76.99 140.00 70.96 139.99 64.94 140.01 L 65.03 139.02 Z" />
</g>
<g id="#4e4745ff">
<path fill="#4e4745" opacity="1.00" d=" M 82.99 139.02 C 86.27 138.99 89.54 138.97 92.83 138.92 L 92.84 139.79 C 89.56 139.94 86.30 140.01 83.02 140.02 L 82.99 139.02 Z" />
</g>
<g id="#444344ff">
<path fill="#444344" opacity="1.00" d=" M 93.71 139.74 C 97.41 138.99 101.15 138.74 104.95 139.00 L 105.01 140.01 C 101.23 140.01 97.47 140.04 93.71 139.74 Z" />
</g>
<g id="#9b9e9dff">
<path fill="#9b9e9d" opacity="1.00" d=" M 42.97 140.03 C 46.72 140.01 50.48 139.86 54.24 139.77 L 55.12 139.82 C 58.08 140.03 61.05 139.98 64.03 140.04 C 64.01 141.34 63.97 142.65 63.88 143.95 C 57.34 144.14 50.79 144.11 44.25 143.86 C 42.78 143.09 42.97 141.44 42.97 140.03 Z" />
</g>
<g id="#b6b8b7ff">
<path fill="#b6b8b7" opacity="1.00" d=" M 64.94 140.01 C 70.96 139.99 76.99 140.00 83.02 140.02 L 82.99 141.01 C 76.98 141.00 70.98 141.00 64.98 141.00 L 64.94 140.01 Z" />
</g>
<g id="#9b9d9cff">
<path fill="#9b9d9c" opacity="1.00" d=" M 83.02 140.02 C 86.30 140.01 89.56 139.94 92.84 139.79 L 93.71 139.74 C 97.47 140.04 101.23 140.01 105.01 140.01 C 105.06 141.33 105.05 142.64 104.96 143.95 C 97.64 144.13 90.33 144.00 83.01 143.99 L 82.98 143.00 C 82.99 142.50 82.99 141.50 82.99 141.01 L 83.02 140.02 Z" />
</g>
<g id="#dabd9dff">
<path fill="#dabd9d" opacity="1.00" d=" M 293.72 140.73 C 302.44 139.40 311.44 139.69 320.19 140.76 C 311.37 140.88 302.53 141.41 293.72 140.73 Z" />
</g>
<g id="#ffffffff">
<path fill="#ffffff" opacity="1.00" d=" M 64.98 141.00 C 70.98 141.00 76.98 141.00 82.99 141.01 C 82.99 141.50 82.99 142.50 82.98 143.00 C 77.01 143.00 71.03 143.01 65.06 142.99 C 65.04 142.49 65.00 141.50 64.98 141.00 Z" />
</g>
<g id="#8c7151f4">
<path fill="#8c7151" opacity="0.96" d=" M 288.11 141.18 C 289.98 141.05 291.85 140.93 293.72 140.73 C 293.80 141.29 293.96 142.41 294.04 142.97 C 292.24 142.95 288.65 142.93 286.86 142.91 C 287.17 142.48 287.80 141.61 288.11 141.18 Z" />
</g>
<g id="#8e714efe">
<path fill="#8e714e" opacity="1.00" d=" M 321.08 140.86 C 322.75 140.97 324.42 141.07 326.09 141.23 C 326.24 144.07 322.75 142.65 321.00 143.02 C 321.02 142.48 321.06 141.40 321.08 140.86 Z" />
</g>
<g id="#767777c3">
<path fill="#767777" opacity="0.76" d=" M 184.02 141.97 L 185.05 142.01 C 184.97 145.09 185.28 148.27 184.33 151.25 C 184.07 148.17 184.02 145.05 184.02 141.97 Z" />
</g>
<g id="#858685dc">
<path fill="#858685" opacity="0.86" d=" M 185.05 142.01 C 185.55 142.01 186.56 142.03 187.06 142.03 C 187.39 145.84 186.71 149.58 185.00 152.97 L 184.00 152.95 C 184.08 152.52 184.25 151.68 184.33 151.25 C 185.28 148.27 184.97 145.09 185.05 142.01 Z" />
</g>
<g id="#939594f0">
<path fill="#939594" opacity="0.94" d=" M 187.06 142.03 C 187.76 142.03 189.16 142.04 189.85 142.04 C 190.49 145.56 191.24 149.06 192.83 152.31 L 193.17 153.18 C 192.73 153.36 191.85 153.74 191.41 153.92 C 189.81 153.69 186.60 153.21 185.00 152.97 C 186.71 149.58 187.39 145.84 187.06 142.03 Z" />
</g>
<g id="#7f807fd2">
<path fill="#7f807f" opacity="0.82" d=" M 189.85 142.04 C 190.64 142.03 192.21 142.00 192.99 141.99 C 193.02 145.43 192.87 148.86 192.83 152.31 C 191.24 149.06 190.49 145.56 189.85 142.04 Z" />
</g>
<g id="#2d2c2afe">
<path fill="#2d2c2a" opacity="1.00" d=" M 41.67 144.74 C 42.41 144.66 43.14 144.75 43.86 145.02 C 45.45 145.90 48.20 145.69 48.17 148.10 C 48.14 148.81 48.07 150.23 48.03 150.94 C 47.96 152.63 47.97 154.31 47.96 156.00 L 40.96 156.00 C 40.99 152.24 40.70 148.42 41.67 144.74 Z" />
</g>
<g id="#5050506f">
<path fill="#505050" opacity="0.44" d=" M 38.84 145.29 L 39.86 145.10 C 39.94 148.72 40.01 152.37 40.00 156.00 L 39.01 156.00 C 39.01 152.43 38.95 148.85 38.84 145.29 Z" />
</g>
<g id="#4e4d4bfe">
<path fill="#4e4d4b" opacity="1.00" d=" M 39.86 145.10 L 40.86 144.85 L 41.67 144.74 C 40.70 148.42 40.99 152.24 40.96 156.00 L 40.00 156.00 C 40.01 152.37 39.94 148.72 39.86 145.10 Z" />
</g>
<g id="#535352eb">
<path fill="#535352" opacity="0.92" d=" M 43.86 145.02 C 64.35 144.77 84.82 145.44 105.29 145.10 C 104.01 145.38 101.46 145.93 100.19 146.20 C 100.52 149.45 101.17 152.83 100.01 156.00 L 99.07 156.00 C 100.48 151.03 98.74 148.80 93.83 149.29 C 95.70 148.63 99.42 148.90 99.05 146.07 C 96.31 146.83 91.52 145.31 90.82 148.71 C 87.52 148.38 84.03 147.94 81.02 149.61 C 80.54 149.45 79.59 149.15 79.11 149.00 C 75.70 147.92 72.25 147.84 68.77 148.76 C 64.99 148.33 61.12 149.23 57.44 148.10 C 54.74 148.57 49.56 143.94 48.17 148.10 C 48.20 145.69 45.45 145.90 43.86 145.02 M 64.99 146.01 L 65.02 146.97 C 70.68 147.15 76.35 147.00 82.01 146.99 L 81.98 146.03 C 76.32 145.85 70.65 145.99 64.99 146.01 Z" />
</g>
<g id="#2c2b29ff">
<path fill="#2c2b29" opacity="1.00" d=" M 105.29 145.10 L 106.20 145.10 C 106.78 148.70 107.07 152.35 107.06 156.00 L 100.01 156.00 C 101.17 152.83 100.52 149.45 100.19 146.20 C 101.46 145.93 104.01 145.38 105.29 145.10 Z" />
</g>
<g id="#4a4947f6">
<path fill="#4a4947" opacity="0.96" d=" M 106.20 145.10 C 106.67 145.11 107.60 145.14 108.06 145.15 C 108.02 148.76 107.99 152.38 108.01 156.00 L 107.06 156.00 C 107.07 152.35 106.78 148.70 106.20 145.10 Z" />
</g>
<g id="#3838384f">
<path fill="#383838" opacity="0.31" d=" M 108.06 145.15 L 109.08 145.17 C 108.95 148.78 108.99 152.38 108.99 156.00 L 108.01 156.00 C 107.99 152.38 108.02 148.76 108.06 145.15 Z" />
</g>
<g id="#b67a21ff">
<path fill="#b67a21" opacity="1.00" d=" M 139.78 145.85 C 140.79 145.46 141.82 145.12 142.87 144.81 C 143.65 144.90 145.23 145.07 146.02 145.15 C 146.05 146.37 146.10 147.60 146.16 148.82 C 145.76 151.48 147.20 156.48 141.05 153.01 C 139.01 153.28 140.38 150.00 139.84 148.79 C 139.82 148.05 139.79 146.59 139.78 145.85 Z" />
</g>
<g id="#7b7c7ce7">
<path fill="#7b7c7c" opacity="0.91" d=" M 48.17 148.10 C 49.56 143.94 54.74 148.57 57.44 148.10 C 54.36 149.23 51.13 149.88 48.03 150.94 C 48.07 150.23 48.14 148.81 48.17 148.10 Z" />
</g>
<g id="#7f7f7ffd">
<path fill="#7f7f7f" opacity="1.00" d=" M 64.99 146.01 C 70.65 145.99 76.32 145.85 81.98 146.03 L 82.01 146.99 C 76.35 147.00 70.68 147.15 65.02 146.97 L 64.99 146.01 Z" />
</g>
<g id="#888888fb">
<path fill="#888888" opacity="1.00" d=" M 90.82 148.71 C 91.52 145.31 96.31 146.83 99.05 146.07 C 99.42 148.90 95.70 148.63 93.83 149.29 C 93.08 149.14 91.58 148.85 90.82 148.71 Z" />
</g>
<g id="#4847477c">
<path fill="#484747" opacity="0.49" d=" M 68.77 148.76 C 72.25 147.84 75.70 147.92 79.11 149.00 C 75.66 148.92 72.21 148.85 68.77 148.76 Z" />
</g>
<g id="#745b3efc">
<path fill="#745b3e" opacity="1.00" d=" M 288.00 148.03 C 301.00 148.01 314.00 147.91 327.01 148.02 C 327.00 150.68 326.99 153.34 327.00 156.00 L 320.08 156.00 C 320.03 154.35 320.02 152.70 319.88 151.06 C 311.28 150.92 302.69 150.88 294.10 151.06 C 293.96 152.70 293.96 154.35 293.93 156.00 L 288.01 156.00 C 288.00 153.34 287.99 150.69 288.00 148.03 Z" />
</g>
<g id="#97a75cf6">
<path fill="#97a75c" opacity="0.96" d=" M 139.07 150.01 C 139.26 149.71 139.65 149.09 139.84 148.79 C 140.38 150.00 139.01 153.28 141.05 153.01 C 147.20 156.48 145.76 151.48 146.16 148.82 C 146.77 149.87 147.36 150.93 148.00 151.96 C 149.83 154.46 154.39 152.35 157.18 152.83 C 157.91 153.68 158.28 154.74 158.29 156.00 L 127.73 156.00 C 127.71 154.71 128.07 153.63 128.81 152.78 C 131.57 151.48 140.09 155.82 139.07 150.01 Z" />
</g>
<g id="#3d3f3846">
<path fill="#3d3f38" opacity="0.27" d=" M 128.81 152.78 C 131.86 150.76 136.80 153.47 139.07 150.01 C 140.09 155.82 131.57 151.48 128.81 152.78 Z" />
</g>
<g id="#96a658fa">
<path fill="#96a658" opacity="0.98" d=" M 261.10 151.09 C 264.08 150.88 267.03 150.99 270.03 150.96 C 271.77 150.96 275.24 150.96 276.98 150.96 C 279.56 150.99 282.15 151.06 284.74 151.16 C 286.42 152.21 285.85 154.34 286.16 156.00 L 260.93 156.00 C 260.96 154.36 260.97 152.72 261.10 151.09 Z" />
</g>
<g id="#2e2f2937">
<path fill="#2e2f29" opacity="0.22" d=" M 148.00 151.96 C 150.95 152.46 154.66 151.04 157.18 152.83 C 154.39 152.35 149.83 154.46 148.00 151.96 Z" />
</g>
<g id="#969999f3">
<path fill="#969999" opacity="0.95" d=" M 202.79 152.76 C 204.36 151.84 206.24 152.04 207.99 151.90 C 209.73 152.00 211.47 152.12 213.21 152.23 C 209.76 152.90 206.27 153.12 202.79 152.76 Z" />
</g>
<g id="#696969f4">
<path fill="#696969" opacity="0.96" d=" M 213.21 152.23 C 213.66 152.17 214.56 152.06 215.02 152.00 C 216.47 152.02 219.39 152.06 220.84 152.08 C 220.97 153.38 221.07 154.69 221.13 156.00 L 203.09 156.00 C 203.18 155.02 201.31 153.16 202.79 152.76 C 206.27 153.12 209.76 152.90 213.21 152.23 Z" />
</g>
<g id="#bac6c6fa">
<path fill="#bac6c6" opacity="0.98" d=" M 176.89 156.00 C 174.46 151.89 181.71 152.85 184.00 152.95 L 185.00 152.97 C 186.60 153.21 189.81 153.69 191.41 153.92 C 190.99 154.44 190.15 155.48 189.73 156.00 L 176.89 156.00 Z" />
</g>
<g id="#828b8bb0">
<path fill="#828b8b" opacity="0.69" d=" M 193.17 153.18 C 194.45 153.07 195.74 153.01 197.03 152.98 C 196.58 153.98 196.14 154.99 195.72 156.00 L 189.73 156.00 C 190.15 155.48 190.99 154.44 191.41 153.92 C 191.85 153.74 192.73 153.36 193.17 153.18 Z" />
</g>
<g id="#afbabaec">
<path fill="#afbaba" opacity="0.93" d=" M 197.03 152.98 C 199.48 152.35 200.44 153.63 200.19 156.00 L 195.72 156.00 C 196.14 154.99 196.58 153.98 197.03 152.98 Z" />
</g>
</svg>
